G04 #@! TF.GenerationSoftware,KiCad,Pcbnew,10.0.1*
G04 #@! TF.CreationDate,2026-05-28T09:04:53+02:00*
G04 #@! TF.ProjectId,V2,56322e6b-6963-4616-945f-706362585858,rev?*
G04 #@! TF.SameCoordinates,Original*
G04 #@! TF.FileFunction,Copper,L2,Bot*
G04 #@! TF.FilePolarity,Positive*
%FSLAX46Y46*%
G04 Gerber Fmt 4.6, Leading zero omitted, Abs format (unit mm)*
G04 Created by KiCad (PCBNEW 10.0.1) date 2026-05-28 09:04:53*
%MOMM*%
%LPD*%
G01*
G04 APERTURE LIST*
G04 Aperture macros list*
%AMRoundRect*
0 Rectangle with rounded corners*
0 $1 Rounding radius*
0 $2 $3 $4 $5 $6 $7 $8 $9 X,Y pos of 4 corners*
0 Add a 4 corners polygon primitive as box body*
4,1,4,$2,$3,$4,$5,$6,$7,$8,$9,$2,$3,0*
0 Add four circle primitives for the rounded corners*
1,1,$1+$1,$2,$3*
1,1,$1+$1,$4,$5*
1,1,$1+$1,$6,$7*
1,1,$1+$1,$8,$9*
0 Add four rect primitives between the rounded corners*
20,1,$1+$1,$2,$3,$4,$5,0*
20,1,$1+$1,$4,$5,$6,$7,0*
20,1,$1+$1,$6,$7,$8,$9,0*
20,1,$1+$1,$8,$9,$2,$3,0*%
%AMHorizOval*
0 Thick line with rounded ends*
0 $1 width*
0 $2 $3 position (X,Y) of the first rounded end (center of the circle)*
0 $4 $5 position (X,Y) of the second rounded end (center of the circle)*
0 Add line between two ends*
20,1,$1,$2,$3,$4,$5,0*
0 Add two circle primitives to create the rounded ends*
1,1,$1,$2,$3*
1,1,$1,$4,$5*%
%AMRotRect*
0 Rectangle, with rotation*
0 The origin of the aperture is its center*
0 $1 length*
0 $2 width*
0 $3 Rotation angle, in degrees counterclockwise*
0 Add horizontal line*
21,1,$1,$2,0,0,$3*%
G04 Aperture macros list end*
G04 #@! TA.AperFunction,ComponentPad*
%ADD10RotRect,1.600000X2.000000X45.000000*%
G04 #@! TD*
G04 #@! TA.AperFunction,ComponentPad*
%ADD11HorizOval,1.600000X-0.141421X0.141421X0.141421X-0.141421X0*%
G04 #@! TD*
G04 #@! TA.AperFunction,ComponentPad*
%ADD12RoundRect,0.468000X-1.032000X-0.132000X1.032000X-0.132000X1.032000X0.132000X-1.032000X0.132000X0*%
G04 #@! TD*
G04 #@! TA.AperFunction,ViaPad*
%ADD13C,0.600000*%
G04 #@! TD*
G04 #@! TA.AperFunction,Conductor*
%ADD14C,0.635000*%
G04 #@! TD*
G04 APERTURE END LIST*
D10*
X141236069Y-89081171D03*
D11*
X155378205Y-74939035D03*
D12*
X137863049Y-74454190D03*
X137863049Y-76304190D03*
D13*
X123463049Y-87954190D03*
X125963049Y-87954190D03*
D14*
X123463049Y-87954190D02*
X125963049Y-87954190D01*
G04 #@! TA.AperFunction,Conductor*
G36*
X161966292Y-66954860D02*
G01*
X161978799Y-66955515D01*
X162248394Y-66969644D01*
X162259843Y-66970780D01*
X162453109Y-66999089D01*
X162453205Y-66999103D01*
X162454512Y-66999303D01*
X162575881Y-67018525D01*
X162588548Y-67021217D01*
X162887829Y-67101409D01*
X162900138Y-67105409D01*
X163014928Y-67149472D01*
X163016138Y-67149945D01*
X163197709Y-67222079D01*
X163208209Y-67226828D01*
X163334926Y-67291393D01*
X163337465Y-67292724D01*
X163492441Y-67376286D01*
X163501113Y-67381428D01*
X163625341Y-67462103D01*
X163628868Y-67464481D01*
X163768470Y-67562232D01*
X163775346Y-67567414D01*
X163892284Y-67662108D01*
X163896661Y-67665824D01*
X164022449Y-67777766D01*
X164027695Y-67782716D01*
X164134521Y-67889542D01*
X164139471Y-67894788D01*
X164251399Y-68020560D01*
X164255134Y-68024959D01*
X164349817Y-68141883D01*
X164355026Y-68148796D01*
X164452716Y-68288312D01*
X164455136Y-68291899D01*
X164535808Y-68416122D01*
X164540958Y-68424808D01*
X164624518Y-68579780D01*
X164625858Y-68582336D01*
X164690403Y-68709016D01*
X164695157Y-68719528D01*
X164767305Y-68901132D01*
X164767830Y-68902477D01*
X164811817Y-69017069D01*
X164815828Y-69029412D01*
X164896018Y-69328684D01*
X164898716Y-69341380D01*
X164917909Y-69462560D01*
X164918127Y-69463986D01*
X164946456Y-69657384D01*
X164947595Y-69668866D01*
X164962379Y-69950946D01*
X164962549Y-69957436D01*
X164962549Y-89950943D01*
X164962379Y-89957433D01*
X164947595Y-90239509D01*
X164946456Y-90250991D01*
X164918127Y-90444391D01*
X164917909Y-90445816D01*
X164898717Y-90566994D01*
X164896019Y-90579690D01*
X164815830Y-90878961D01*
X164811819Y-90891307D01*
X164767819Y-91005928D01*
X164767294Y-91007270D01*
X164695159Y-91188845D01*
X164690405Y-91199358D01*
X164625860Y-91326036D01*
X164624520Y-91328592D01*
X164540954Y-91483577D01*
X164535804Y-91492263D01*
X164455148Y-91616461D01*
X164452728Y-91620049D01*
X164355017Y-91759594D01*
X164349808Y-91766506D01*
X164255133Y-91883419D01*
X164251399Y-91887817D01*
X164139478Y-92013583D01*
X164134527Y-92018830D01*
X164027706Y-92125651D01*
X164022460Y-92130601D01*
X163896659Y-92242554D01*
X163892260Y-92246289D01*
X163775373Y-92340943D01*
X163768461Y-92346152D01*
X163628889Y-92443882D01*
X163625300Y-92446302D01*
X163501120Y-92526945D01*
X163492435Y-92532095D01*
X163337466Y-92615653D01*
X163334911Y-92616993D01*
X163208211Y-92681550D01*
X163197697Y-92686304D01*
X163016174Y-92758418D01*
X163014831Y-92758943D01*
X162900164Y-92802960D01*
X162887820Y-92806971D01*
X162588554Y-92887159D01*
X162575858Y-92889857D01*
X162454639Y-92909056D01*
X162453212Y-92909274D01*
X162259854Y-92937596D01*
X162248373Y-92938735D01*
X161966292Y-92953520D01*
X161959802Y-92953690D01*
X112966294Y-92953690D01*
X112959804Y-92953520D01*
X112677722Y-92938735D01*
X112666241Y-92937596D01*
X112472875Y-92909273D01*
X112471448Y-92909055D01*
X112350232Y-92889856D01*
X112337536Y-92887158D01*
X112038274Y-92806971D01*
X112025930Y-92802960D01*
X111911272Y-92758946D01*
X111909928Y-92758421D01*
X111728390Y-92686300D01*
X111717878Y-92681546D01*
X111591161Y-92616981D01*
X111588605Y-92615641D01*
X111433665Y-92532099D01*
X111424980Y-92526949D01*
X111300761Y-92446280D01*
X111297173Y-92443860D01*
X111287083Y-92436795D01*
X111157642Y-92346159D01*
X111150754Y-92340969D01*
X111077382Y-92281553D01*
X111033805Y-92246265D01*
X111029406Y-92242530D01*
X110903657Y-92130623D01*
X110898411Y-92125673D01*
X110791549Y-92018811D01*
X110786627Y-92013595D01*
X110674704Y-91887828D01*
X110670982Y-91883444D01*
X110634096Y-91837894D01*
X110576258Y-91766470D01*
X110571073Y-91759588D01*
X110473366Y-91620048D01*
X110470982Y-91616514D01*
X110390286Y-91492253D01*
X110385137Y-91483571D01*
X110301562Y-91328571D01*
X110300279Y-91326123D01*
X110235678Y-91199335D01*
X110230933Y-91188844D01*
X110158799Y-91007270D01*
X110158379Y-91006195D01*
X110114266Y-90891279D01*
X110110263Y-90878958D01*
X110030075Y-90579690D01*
X110027383Y-90567021D01*
X110027379Y-90566994D01*
X110008144Y-90445552D01*
X110007943Y-90444231D01*
X110006435Y-90433935D01*
X109979637Y-90250980D01*
X109978503Y-90239556D01*
X109963718Y-89957433D01*
X109963633Y-89954191D01*
X111860547Y-89954191D01*
X111861987Y-89969267D01*
X111862549Y-89981057D01*
X111862549Y-90040805D01*
X111877733Y-90136672D01*
X111877733Y-90136673D01*
X111878335Y-90140478D01*
X111880471Y-90162840D01*
X111883523Y-90173236D01*
X111884772Y-90181119D01*
X111884774Y-90181127D01*
X111889646Y-90211889D01*
X111902348Y-90250980D01*
X111943176Y-90376635D01*
X112021817Y-90530978D01*
X112031547Y-90544370D01*
X112034947Y-90549050D01*
X112035565Y-90550248D01*
X112038880Y-90554463D01*
X112123635Y-90671118D01*
X112123637Y-90671120D01*
X112156334Y-90703817D01*
X112165131Y-90715003D01*
X112183027Y-90730510D01*
X112246124Y-90793607D01*
X112301995Y-90834199D01*
X112306295Y-90837323D01*
X112323535Y-90852262D01*
X112339707Y-90861598D01*
X112386261Y-90895422D01*
X112488659Y-90947595D01*
X112505053Y-90957061D01*
X112511856Y-90959415D01*
X112540604Y-90974063D01*
X112705348Y-91027592D01*
X112876438Y-91054690D01*
X112876439Y-91054690D01*
X112905353Y-91054690D01*
X112910590Y-91055443D01*
X112926398Y-91054690D01*
X113049656Y-91054690D01*
X113049660Y-91054690D01*
X113102681Y-91046292D01*
X113119951Y-91045470D01*
X113142658Y-91039960D01*
X113220750Y-91027592D01*
X113300628Y-91001637D01*
X113323642Y-90996055D01*
X113338017Y-90989489D01*
X113385494Y-90974063D01*
X113503886Y-90913739D01*
X113514300Y-90908985D01*
X113517016Y-90907049D01*
X113539837Y-90895422D01*
X113679977Y-90793604D01*
X113802463Y-90671118D01*
X113823432Y-90642255D01*
X113829674Y-90635712D01*
X113841062Y-90617991D01*
X113904281Y-90530978D01*
X113932216Y-90476151D01*
X113942992Y-90459386D01*
X113951179Y-90438933D01*
X113982922Y-90376635D01*
X114012228Y-90286440D01*
X114020892Y-90264801D01*
X114023271Y-90252453D01*
X114036451Y-90211891D01*
X114063549Y-90040801D01*
X114063549Y-89954191D01*
X121860547Y-89954191D01*
X121861987Y-89969267D01*
X121862549Y-89981057D01*
X121862549Y-90040805D01*
X121877733Y-90136672D01*
X121877733Y-90136673D01*
X121878335Y-90140478D01*
X121880471Y-90162840D01*
X121883523Y-90173236D01*
X121884772Y-90181119D01*
X121884774Y-90181127D01*
X121889646Y-90211889D01*
X121902348Y-90250980D01*
X121943176Y-90376635D01*
X122021817Y-90530978D01*
X122031547Y-90544370D01*
X122034947Y-90549050D01*
X122035565Y-90550248D01*
X122038880Y-90554463D01*
X122123635Y-90671118D01*
X122123637Y-90671120D01*
X122156334Y-90703817D01*
X122165131Y-90715003D01*
X122183027Y-90730510D01*
X122246124Y-90793607D01*
X122301995Y-90834199D01*
X122306295Y-90837323D01*
X122323535Y-90852262D01*
X122339707Y-90861598D01*
X122386261Y-90895422D01*
X122488659Y-90947595D01*
X122505053Y-90957061D01*
X122511856Y-90959415D01*
X122540604Y-90974063D01*
X122705348Y-91027592D01*
X122876438Y-91054690D01*
X122876439Y-91054690D01*
X122905353Y-91054690D01*
X122910590Y-91055443D01*
X122926398Y-91054690D01*
X123049656Y-91054690D01*
X123049660Y-91054690D01*
X123102681Y-91046292D01*
X123119951Y-91045470D01*
X123142658Y-91039960D01*
X123220750Y-91027592D01*
X123300628Y-91001637D01*
X123323642Y-90996055D01*
X123338017Y-90989489D01*
X123385494Y-90974063D01*
X123503886Y-90913739D01*
X123514300Y-90908985D01*
X123517016Y-90907049D01*
X123539837Y-90895422D01*
X123679977Y-90793604D01*
X123802463Y-90671118D01*
X123823432Y-90642255D01*
X123829674Y-90635712D01*
X123841062Y-90617991D01*
X123904281Y-90530978D01*
X123932216Y-90476151D01*
X123942992Y-90459386D01*
X123951179Y-90438933D01*
X123982922Y-90376635D01*
X124012228Y-90286440D01*
X124020892Y-90264801D01*
X124023271Y-90252453D01*
X124036451Y-90211891D01*
X124063549Y-90040801D01*
X124063549Y-89954191D01*
X131860547Y-89954191D01*
X131861987Y-89969267D01*
X131862549Y-89981057D01*
X131862549Y-90040805D01*
X131877733Y-90136672D01*
X131877733Y-90136673D01*
X131878335Y-90140478D01*
X131880471Y-90162840D01*
X131883523Y-90173236D01*
X131884772Y-90181119D01*
X131884774Y-90181127D01*
X131889646Y-90211889D01*
X131902348Y-90250980D01*
X131943176Y-90376635D01*
X132021817Y-90530978D01*
X132031547Y-90544370D01*
X132034947Y-90549050D01*
X132035565Y-90550248D01*
X132038880Y-90554463D01*
X132123635Y-90671118D01*
X132123637Y-90671120D01*
X132156334Y-90703817D01*
X132165131Y-90715003D01*
X132183027Y-90730510D01*
X132246124Y-90793607D01*
X132301995Y-90834199D01*
X132306295Y-90837323D01*
X132323535Y-90852262D01*
X132339707Y-90861598D01*
X132386261Y-90895422D01*
X132488659Y-90947595D01*
X132505053Y-90957061D01*
X132511856Y-90959415D01*
X132540604Y-90974063D01*
X132705348Y-91027592D01*
X132876438Y-91054690D01*
X132876439Y-91054690D01*
X132905353Y-91054690D01*
X132910590Y-91055443D01*
X132926398Y-91054690D01*
X133049656Y-91054690D01*
X133049660Y-91054690D01*
X133102681Y-91046292D01*
X133119951Y-91045470D01*
X133142658Y-91039960D01*
X133220750Y-91027592D01*
X133300628Y-91001637D01*
X133323642Y-90996055D01*
X133338017Y-90989489D01*
X133385494Y-90974063D01*
X133503886Y-90913739D01*
X133514300Y-90908985D01*
X133517016Y-90907049D01*
X133539837Y-90895422D01*
X133679977Y-90793604D01*
X133802463Y-90671118D01*
X133823432Y-90642255D01*
X133829674Y-90635712D01*
X133841062Y-90617991D01*
X133904281Y-90530978D01*
X133932216Y-90476151D01*
X133942992Y-90459386D01*
X133951179Y-90438933D01*
X133982922Y-90376635D01*
X134012228Y-90286440D01*
X134020892Y-90264801D01*
X134023271Y-90252453D01*
X134036451Y-90211891D01*
X134063549Y-90040801D01*
X134063549Y-89867579D01*
X134036451Y-89696489D01*
X134023272Y-89655929D01*
X134020892Y-89643579D01*
X134012228Y-89621939D01*
X133982922Y-89531745D01*
X133951179Y-89469446D01*
X133942992Y-89448994D01*
X133932212Y-89432220D01*
X133904281Y-89377402D01*
X133841059Y-89290385D01*
X133829674Y-89272668D01*
X133823426Y-89266115D01*
X133818843Y-89259807D01*
X133802463Y-89237262D01*
X133679977Y-89114776D01*
X133539837Y-89012958D01*
X133519904Y-89002801D01*
X133517019Y-89000965D01*
X133514304Y-88999398D01*
X133514300Y-88999395D01*
X133506276Y-88995730D01*
X133501499Y-88993424D01*
X133396159Y-88939750D01*
X139457630Y-88939750D01*
X139478111Y-89082206D01*
X139537898Y-89213120D01*
X139537901Y-89213125D01*
X139557353Y-89237263D01*
X139575519Y-89259805D01*
X141057435Y-90741720D01*
X141057439Y-90741723D01*
X141057441Y-90741725D01*
X141104116Y-90779340D01*
X141135350Y-90793604D01*
X141235033Y-90839128D01*
X141235032Y-90839128D01*
X141255514Y-90842072D01*
X141377490Y-90859610D01*
X141519948Y-90839128D01*
X141650863Y-90779340D01*
X141697546Y-90741721D01*
X142896618Y-89542648D01*
X142934238Y-89495965D01*
X142994026Y-89365050D01*
X143014508Y-89222592D01*
X142994026Y-89080135D01*
X142934238Y-88949219D01*
X142926607Y-88939750D01*
X142904507Y-88912325D01*
X142896619Y-88902537D01*
X141414703Y-87420622D01*
X141414696Y-87420616D01*
X141368021Y-87383001D01*
X141237103Y-87323213D01*
X141237105Y-87323213D01*
X141094648Y-87302732D01*
X140952190Y-87323213D01*
X140821277Y-87383000D01*
X140774582Y-87420629D01*
X139575527Y-88619686D01*
X139575521Y-88619693D01*
X139537899Y-88666378D01*
X139537898Y-88666380D01*
X139478111Y-88797292D01*
X139457630Y-88939750D01*
X133396159Y-88939750D01*
X133385498Y-88934318D01*
X133344767Y-88921084D01*
X133344767Y-88921083D01*
X133338017Y-88918889D01*
X133323642Y-88912325D01*
X133300629Y-88906742D01*
X133296123Y-88905278D01*
X133220755Y-88880789D01*
X133220747Y-88880787D01*
X133147632Y-88869205D01*
X133147632Y-88869206D01*
X133142653Y-88868417D01*
X133119951Y-88862910D01*
X133102679Y-88862087D01*
X133095965Y-88861024D01*
X133095963Y-88861023D01*
X133095961Y-88861023D01*
X133049664Y-88853690D01*
X133049660Y-88853690D01*
X132926398Y-88853690D01*
X132910590Y-88852937D01*
X132905353Y-88853690D01*
X132876438Y-88853690D01*
X132844241Y-88858789D01*
X132705350Y-88880787D01*
X132540610Y-88934314D01*
X132540594Y-88934321D01*
X132519487Y-88945073D01*
X132519488Y-88945074D01*
X132511846Y-88948967D01*
X132505053Y-88951319D01*
X132488675Y-88960774D01*
X132485770Y-88962255D01*
X132485768Y-88962255D01*
X132386263Y-89012956D01*
X132344962Y-89042962D01*
X132344961Y-89042961D01*
X132339687Y-89046792D01*
X132323535Y-89056118D01*
X132306317Y-89071037D01*
X132302000Y-89074174D01*
X132301994Y-89074180D01*
X132246120Y-89114776D01*
X132186152Y-89174743D01*
X132186151Y-89174742D01*
X132182998Y-89177894D01*
X132165131Y-89193377D01*
X132156346Y-89204547D01*
X132151119Y-89209775D01*
X132123640Y-89237256D01*
X132123634Y-89237263D01*
X132040261Y-89352011D01*
X132040262Y-89352012D01*
X132038857Y-89353944D01*
X132035565Y-89358132D01*
X132034951Y-89359322D01*
X132031556Y-89363996D01*
X132031553Y-89363998D01*
X132021820Y-89377395D01*
X131943177Y-89531742D01*
X131889646Y-89696491D01*
X131884774Y-89727253D01*
X131884774Y-89727255D01*
X131883525Y-89735138D01*
X131880471Y-89745540D01*
X131878337Y-89767887D01*
X131877734Y-89771694D01*
X131877733Y-89771706D01*
X131862549Y-89867579D01*
X131862549Y-89927313D01*
X131861988Y-89939098D01*
X131860547Y-89954191D01*
X124063549Y-89954191D01*
X124063549Y-89867579D01*
X124036451Y-89696489D01*
X124023272Y-89655929D01*
X124020892Y-89643579D01*
X124012228Y-89621939D01*
X123982922Y-89531745D01*
X123951179Y-89469446D01*
X123942992Y-89448994D01*
X123932212Y-89432220D01*
X123904281Y-89377402D01*
X123841059Y-89290385D01*
X123829674Y-89272668D01*
X123823426Y-89266115D01*
X123818843Y-89259807D01*
X123802463Y-89237262D01*
X123679977Y-89114776D01*
X123619776Y-89071037D01*
X123539841Y-89012960D01*
X123539838Y-89012959D01*
X123539839Y-89012959D01*
X123539837Y-89012958D01*
X123527503Y-89006674D01*
X123476709Y-88958702D01*
X123459913Y-88890881D01*
X123482449Y-88824746D01*
X123537164Y-88781294D01*
X123583799Y-88772190D01*
X126043616Y-88772190D01*
X126043617Y-88772189D01*
X126201651Y-88740755D01*
X126350517Y-88679092D01*
X126484494Y-88589572D01*
X126598431Y-88475635D01*
X126687951Y-88341658D01*
X126749614Y-88192792D01*
X126781049Y-88034756D01*
X126781049Y-87873624D01*
X126749614Y-87715588D01*
X126718782Y-87641155D01*
X126687952Y-87566723D01*
X126598429Y-87432742D01*
X126484496Y-87318809D01*
X126350515Y-87229286D01*
X126201651Y-87167625D01*
X126201643Y-87167623D01*
X126043619Y-87136190D01*
X126043615Y-87136190D01*
X123382483Y-87136190D01*
X123382478Y-87136190D01*
X123224454Y-87167623D01*
X123224446Y-87167625D01*
X123075582Y-87229286D01*
X122941601Y-87318809D01*
X122827668Y-87432742D01*
X122738145Y-87566723D01*
X122676484Y-87715587D01*
X122676482Y-87715595D01*
X122645049Y-87873619D01*
X122645049Y-88034760D01*
X122676482Y-88192784D01*
X122676484Y-88192792D01*
X122738145Y-88341656D01*
X122827668Y-88475637D01*
X122941600Y-88589569D01*
X122941604Y-88589572D01*
X122996906Y-88626524D01*
X123018549Y-88652421D01*
X123040705Y-88677886D01*
X123040889Y-88679153D01*
X123041711Y-88680136D01*
X123045916Y-88713624D01*
X123050788Y-88747024D01*
X123050258Y-88748190D01*
X123050418Y-88749461D01*
X123035848Y-88779915D01*
X123021893Y-88810638D01*
X123020817Y-88811332D01*
X123020264Y-88812489D01*
X122991521Y-88830243D01*
X122963191Y-88848532D01*
X122961605Y-88848723D01*
X122960821Y-88849208D01*
X122928267Y-88853626D01*
X122925185Y-88853632D01*
X122910590Y-88852937D01*
X122905476Y-88853672D01*
X122896738Y-88853690D01*
X122896688Y-88853675D01*
X122896486Y-88853690D01*
X122876438Y-88853690D01*
X122844241Y-88858789D01*
X122705350Y-88880787D01*
X122540610Y-88934314D01*
X122540594Y-88934321D01*
X122519487Y-88945073D01*
X122519488Y-88945074D01*
X122511846Y-88948967D01*
X122505053Y-88951319D01*
X122488675Y-88960774D01*
X122485770Y-88962255D01*
X122485768Y-88962255D01*
X122386263Y-89012956D01*
X122344962Y-89042962D01*
X122344961Y-89042961D01*
X122339687Y-89046792D01*
X122323535Y-89056118D01*
X122306317Y-89071037D01*
X122302000Y-89074174D01*
X122301994Y-89074180D01*
X122246120Y-89114776D01*
X122186152Y-89174743D01*
X122186151Y-89174742D01*
X122182998Y-89177894D01*
X122165131Y-89193377D01*
X122156346Y-89204547D01*
X122151119Y-89209775D01*
X122123640Y-89237256D01*
X122123634Y-89237263D01*
X122040261Y-89352011D01*
X122040262Y-89352012D01*
X122038857Y-89353944D01*
X122035565Y-89358132D01*
X122034951Y-89359322D01*
X122031556Y-89363996D01*
X122031553Y-89363998D01*
X122021820Y-89377395D01*
X121943177Y-89531742D01*
X121889646Y-89696491D01*
X121884774Y-89727253D01*
X121884774Y-89727255D01*
X121883525Y-89735138D01*
X121880471Y-89745540D01*
X121878337Y-89767887D01*
X121877734Y-89771694D01*
X121877733Y-89771706D01*
X121862549Y-89867579D01*
X121862549Y-89927313D01*
X121861988Y-89939098D01*
X121860547Y-89954191D01*
X114063549Y-89954191D01*
X114063549Y-89867579D01*
X114036451Y-89696489D01*
X114023272Y-89655929D01*
X114020892Y-89643579D01*
X114012228Y-89621939D01*
X113982922Y-89531745D01*
X113951179Y-89469446D01*
X113942992Y-89448994D01*
X113932212Y-89432220D01*
X113904281Y-89377402D01*
X113841059Y-89290385D01*
X113829674Y-89272668D01*
X113823426Y-89266115D01*
X113818843Y-89259807D01*
X113802463Y-89237262D01*
X113679977Y-89114776D01*
X113619776Y-89071037D01*
X113539841Y-89012960D01*
X113539833Y-89012956D01*
X113525190Y-89005495D01*
X113517019Y-89001331D01*
X113514300Y-88999395D01*
X113503885Y-88994638D01*
X113501517Y-88993432D01*
X113501499Y-88993424D01*
X113385498Y-88934318D01*
X113344767Y-88921084D01*
X113344767Y-88921083D01*
X113338017Y-88918889D01*
X113323642Y-88912325D01*
X113300629Y-88906742D01*
X113296123Y-88905278D01*
X113220755Y-88880789D01*
X113220747Y-88880787D01*
X113147632Y-88869205D01*
X113147632Y-88869206D01*
X113142653Y-88868417D01*
X113119951Y-88862910D01*
X113102679Y-88862087D01*
X113095965Y-88861024D01*
X113095963Y-88861023D01*
X113095961Y-88861023D01*
X113049664Y-88853690D01*
X113049660Y-88853690D01*
X112926398Y-88853690D01*
X112910590Y-88852937D01*
X112905353Y-88853690D01*
X112876438Y-88853690D01*
X112844241Y-88858789D01*
X112705350Y-88880787D01*
X112540610Y-88934314D01*
X112540594Y-88934321D01*
X112519487Y-88945073D01*
X112519488Y-88945074D01*
X112511846Y-88948967D01*
X112505053Y-88951319D01*
X112488675Y-88960774D01*
X112485770Y-88962255D01*
X112485768Y-88962255D01*
X112386263Y-89012956D01*
X112344962Y-89042962D01*
X112344961Y-89042961D01*
X112339687Y-89046792D01*
X112323535Y-89056118D01*
X112306317Y-89071037D01*
X112302000Y-89074174D01*
X112301994Y-89074180D01*
X112246120Y-89114776D01*
X112186152Y-89174743D01*
X112186151Y-89174742D01*
X112182998Y-89177894D01*
X112165131Y-89193377D01*
X112156346Y-89204547D01*
X112151119Y-89209775D01*
X112123640Y-89237256D01*
X112123634Y-89237263D01*
X112040261Y-89352011D01*
X112040262Y-89352012D01*
X112038857Y-89353944D01*
X112035565Y-89358132D01*
X112034951Y-89359322D01*
X112031556Y-89363996D01*
X112031553Y-89363998D01*
X112021820Y-89377395D01*
X111943177Y-89531742D01*
X111889646Y-89696491D01*
X111884774Y-89727253D01*
X111884774Y-89727255D01*
X111883525Y-89735138D01*
X111880471Y-89745540D01*
X111878337Y-89767887D01*
X111877734Y-89771694D01*
X111877733Y-89771706D01*
X111862549Y-89867579D01*
X111862549Y-89927313D01*
X111861988Y-89939098D01*
X111860547Y-89954191D01*
X109963633Y-89954191D01*
X109963548Y-89950944D01*
X109963548Y-79954191D01*
X121860547Y-79954191D01*
X121861987Y-79969267D01*
X121862549Y-79981057D01*
X121862549Y-80040805D01*
X121877733Y-80136672D01*
X121877733Y-80136673D01*
X121878335Y-80140478D01*
X121880471Y-80162840D01*
X121883523Y-80173236D01*
X121884772Y-80181119D01*
X121884774Y-80181127D01*
X121889646Y-80211889D01*
X121902824Y-80252445D01*
X121943176Y-80376635D01*
X122021817Y-80530978D01*
X122031547Y-80544370D01*
X122034947Y-80549050D01*
X122035565Y-80550248D01*
X122038880Y-80554463D01*
X122123635Y-80671118D01*
X122123637Y-80671120D01*
X122156334Y-80703817D01*
X122165131Y-80715003D01*
X122183027Y-80730510D01*
X122246124Y-80793607D01*
X122301995Y-80834199D01*
X122306295Y-80837323D01*
X122323535Y-80852262D01*
X122339707Y-80861598D01*
X122386261Y-80895422D01*
X122488659Y-80947595D01*
X122505053Y-80957061D01*
X122511856Y-80959415D01*
X122540604Y-80974063D01*
X122705348Y-81027592D01*
X122876438Y-81054690D01*
X122876439Y-81054690D01*
X122905353Y-81054690D01*
X122910590Y-81055443D01*
X122926398Y-81054690D01*
X123049656Y-81054690D01*
X123049660Y-81054690D01*
X123102681Y-81046292D01*
X123119951Y-81045470D01*
X123142658Y-81039960D01*
X123220750Y-81027592D01*
X123300628Y-81001637D01*
X123323642Y-80996055D01*
X123338017Y-80989489D01*
X123385494Y-80974063D01*
X123503886Y-80913739D01*
X123514300Y-80908985D01*
X123517016Y-80907049D01*
X123539837Y-80895422D01*
X123679977Y-80793604D01*
X123802463Y-80671118D01*
X123823432Y-80642255D01*
X123829674Y-80635712D01*
X123841062Y-80617991D01*
X123904281Y-80530978D01*
X123932216Y-80476151D01*
X123942992Y-80459386D01*
X123951179Y-80438933D01*
X123982922Y-80376635D01*
X124012228Y-80286440D01*
X124020892Y-80264801D01*
X124023271Y-80252453D01*
X124036451Y-80211891D01*
X124063549Y-80040801D01*
X124063549Y-79867579D01*
X124036451Y-79696489D01*
X124023272Y-79655929D01*
X124020892Y-79643579D01*
X124012228Y-79621939D01*
X123982922Y-79531745D01*
X123951179Y-79469446D01*
X123942992Y-79448994D01*
X123932212Y-79432220D01*
X123904281Y-79377402D01*
X123841059Y-79290385D01*
X123829674Y-79272668D01*
X123823426Y-79266115D01*
X123818563Y-79259422D01*
X123802463Y-79237262D01*
X123679977Y-79114776D01*
X123619776Y-79071037D01*
X123539841Y-79012960D01*
X123539833Y-79012956D01*
X123525190Y-79005495D01*
X123517019Y-79001331D01*
X123514300Y-78999395D01*
X123503885Y-78994638D01*
X123501517Y-78993432D01*
X123501499Y-78993424D01*
X123385498Y-78934318D01*
X123344767Y-78921084D01*
X123344767Y-78921083D01*
X123338017Y-78918889D01*
X123323642Y-78912325D01*
X123300629Y-78906742D01*
X123296123Y-78905278D01*
X123220755Y-78880789D01*
X123220747Y-78880787D01*
X123147632Y-78869205D01*
X123147632Y-78869206D01*
X123142653Y-78868417D01*
X123119951Y-78862910D01*
X123102679Y-78862087D01*
X123095965Y-78861024D01*
X123095963Y-78861023D01*
X123095961Y-78861023D01*
X123049664Y-78853690D01*
X123049660Y-78853690D01*
X122926398Y-78853690D01*
X122910590Y-78852937D01*
X122905353Y-78853690D01*
X122876438Y-78853690D01*
X122844241Y-78858789D01*
X122705350Y-78880787D01*
X122540610Y-78934314D01*
X122540594Y-78934321D01*
X122519487Y-78945073D01*
X122519488Y-78945074D01*
X122511846Y-78948967D01*
X122505053Y-78951319D01*
X122488675Y-78960774D01*
X122485770Y-78962255D01*
X122485768Y-78962255D01*
X122386263Y-79012956D01*
X122344962Y-79042962D01*
X122344961Y-79042961D01*
X122339687Y-79046792D01*
X122323535Y-79056118D01*
X122306317Y-79071037D01*
X122302000Y-79074174D01*
X122301994Y-79074180D01*
X122246120Y-79114776D01*
X122186152Y-79174743D01*
X122186151Y-79174742D01*
X122182998Y-79177894D01*
X122165131Y-79193377D01*
X122156346Y-79204547D01*
X122151119Y-79209775D01*
X122123640Y-79237256D01*
X122123634Y-79237263D01*
X122040261Y-79352011D01*
X122040262Y-79352012D01*
X122038857Y-79353944D01*
X122035565Y-79358132D01*
X122034951Y-79359322D01*
X122031556Y-79363996D01*
X122031553Y-79363998D01*
X122021820Y-79377395D01*
X121943177Y-79531742D01*
X121889646Y-79696491D01*
X121884774Y-79727253D01*
X121884774Y-79727255D01*
X121883525Y-79735138D01*
X121880471Y-79745540D01*
X121878337Y-79767887D01*
X121877734Y-79771694D01*
X121877733Y-79771706D01*
X121862549Y-79867579D01*
X121862549Y-79927313D01*
X121861988Y-79939098D01*
X121860547Y-79954191D01*
X109963548Y-79954191D01*
X109963548Y-76116008D01*
X135862549Y-76116008D01*
X135862549Y-76492364D01*
X135862550Y-76492372D01*
X135872822Y-76607929D01*
X135872822Y-76607931D01*
X135872823Y-76607934D01*
X135927010Y-76797308D01*
X136018208Y-76971897D01*
X136142683Y-77124555D01*
X136267159Y-77226050D01*
X136295342Y-77249031D01*
X136469931Y-77340229D01*
X136659305Y-77394416D01*
X136774866Y-77404690D01*
X138951231Y-77404689D01*
X139066793Y-77394416D01*
X139256167Y-77340229D01*
X139430756Y-77249031D01*
X139583414Y-77124555D01*
X139707890Y-76971897D01*
X139799088Y-76797308D01*
X139853275Y-76607934D01*
X139863549Y-76492373D01*
X139863548Y-76116008D01*
X139853275Y-76000446D01*
X139799088Y-75811072D01*
X139707890Y-75636483D01*
X139583414Y-75483825D01*
X139577455Y-75478966D01*
X139572550Y-75474966D01*
X139533035Y-75417343D01*
X139530945Y-75347505D01*
X139566945Y-75287623D01*
X139572557Y-75282761D01*
X139583058Y-75274199D01*
X139707469Y-75121620D01*
X139798621Y-74947118D01*
X139852780Y-74757840D01*
X139857550Y-74704190D01*
X138178735Y-74704190D01*
X138183129Y-74699796D01*
X138185728Y-74695295D01*
X153936784Y-74695295D01*
X153936784Y-74899932D01*
X153968793Y-75102027D01*
X154032028Y-75296642D01*
X154124925Y-75478964D01*
X154124926Y-75478966D01*
X154245201Y-75644508D01*
X154282189Y-75681496D01*
X154956479Y-75007206D01*
X154982168Y-75103079D01*
X155038121Y-75199991D01*
X155117249Y-75279119D01*
X155214161Y-75335072D01*
X155310030Y-75360760D01*
X154635743Y-76035049D01*
X154635743Y-76035050D01*
X154672731Y-76072038D01*
X154838273Y-76192313D01*
X154838275Y-76192314D01*
X155020597Y-76285211D01*
X155215212Y-76348446D01*
X155417308Y-76380456D01*
X155621944Y-76380456D01*
X155824039Y-76348446D01*
X156018657Y-76285210D01*
X156200972Y-76192317D01*
X156200974Y-76192316D01*
X156245546Y-76159930D01*
X155446376Y-75360760D01*
X155542249Y-75335072D01*
X155639161Y-75279119D01*
X155718289Y-75199991D01*
X155774242Y-75103079D01*
X155799930Y-75007206D01*
X156599100Y-75806376D01*
X156631486Y-75761804D01*
X156631487Y-75761802D01*
X156724380Y-75579487D01*
X156787616Y-75384869D01*
X156819626Y-75182774D01*
X156819626Y-74978137D01*
X156787616Y-74776042D01*
X156724381Y-74581427D01*
X156631484Y-74399105D01*
X156631483Y-74399103D01*
X156511208Y-74233561D01*
X156474220Y-74196573D01*
X155799930Y-74870861D01*
X155774242Y-74774991D01*
X155718289Y-74678079D01*
X155639161Y-74598951D01*
X155542249Y-74542998D01*
X155446377Y-74517309D01*
X156120666Y-73843019D01*
X156083678Y-73806031D01*
X155918136Y-73685756D01*
X155918134Y-73685755D01*
X155735812Y-73592858D01*
X155541197Y-73529623D01*
X155339102Y-73497614D01*
X155134466Y-73497614D01*
X154932370Y-73529623D01*
X154737755Y-73592858D01*
X154555433Y-73685755D01*
X154555424Y-73685761D01*
X154510862Y-73718137D01*
X154510861Y-73718138D01*
X155310033Y-74517309D01*
X155214161Y-74542998D01*
X155117249Y-74598951D01*
X155038121Y-74678079D01*
X154982168Y-74774991D01*
X154956479Y-74870862D01*
X154157308Y-74071691D01*
X154157307Y-74071692D01*
X154124931Y-74116254D01*
X154124925Y-74116263D01*
X154032028Y-74298585D01*
X153968793Y-74493200D01*
X153936784Y-74695295D01*
X138185728Y-74695295D01*
X138235790Y-74608584D01*
X138263049Y-74506851D01*
X138263049Y-74401529D01*
X138235790Y-74299796D01*
X138183129Y-74208584D01*
X138178735Y-74204190D01*
X139857549Y-74204190D01*
X139852780Y-74150539D01*
X139798621Y-73961259D01*
X139726301Y-73822809D01*
X139726300Y-73822807D01*
X139707472Y-73786763D01*
X139583058Y-73634180D01*
X139430479Y-73509769D01*
X139255977Y-73418617D01*
X139066700Y-73364458D01*
X138951197Y-73354190D01*
X138113049Y-73354190D01*
X138113049Y-74138504D01*
X138108655Y-74134110D01*
X138017443Y-74081449D01*
X137915710Y-74054190D01*
X137810388Y-74054190D01*
X137708655Y-74081449D01*
X137617443Y-74134110D01*
X137613049Y-74138504D01*
X137613049Y-73354190D01*
X136774900Y-73354190D01*
X136659397Y-73364458D01*
X136470120Y-73418617D01*
X136295618Y-73509769D01*
X136143039Y-73634180D01*
X136018628Y-73786759D01*
X135927476Y-73961261D01*
X135873317Y-74150539D01*
X135868548Y-74204190D01*
X137547363Y-74204190D01*
X137542969Y-74208584D01*
X137490308Y-74299796D01*
X137463049Y-74401529D01*
X137463049Y-74506851D01*
X137490308Y-74608584D01*
X137542969Y-74699796D01*
X137547363Y-74704190D01*
X135868548Y-74704190D01*
X135873317Y-74757840D01*
X135927476Y-74947118D01*
X136018628Y-75121620D01*
X136143041Y-75274201D01*
X136153543Y-75282764D01*
X136193061Y-75340384D01*
X136195153Y-75410223D01*
X136159155Y-75470106D01*
X136153550Y-75474963D01*
X136142687Y-75483821D01*
X136018208Y-75636482D01*
X135927009Y-75811074D01*
X135872822Y-76000449D01*
X135862549Y-76116008D01*
X109963548Y-76116008D01*
X109963548Y-69957436D01*
X109963633Y-69954191D01*
X111860547Y-69954191D01*
X111861987Y-69969267D01*
X111862549Y-69981057D01*
X111862549Y-70040805D01*
X111877733Y-70136672D01*
X111877733Y-70136673D01*
X111878335Y-70140478D01*
X111880471Y-70162840D01*
X111883523Y-70173236D01*
X111884772Y-70181119D01*
X111884774Y-70181127D01*
X111889646Y-70211889D01*
X111902824Y-70252445D01*
X111943176Y-70376635D01*
X112021817Y-70530978D01*
X112031547Y-70544370D01*
X112034947Y-70549050D01*
X112035565Y-70550248D01*
X112038880Y-70554463D01*
X112123635Y-70671118D01*
X112123637Y-70671120D01*
X112156334Y-70703817D01*
X112165131Y-70715003D01*
X112183027Y-70730510D01*
X112246124Y-70793607D01*
X112301995Y-70834199D01*
X112306295Y-70837323D01*
X112323535Y-70852262D01*
X112339707Y-70861598D01*
X112386261Y-70895422D01*
X112488659Y-70947595D01*
X112505053Y-70957061D01*
X112511856Y-70959415D01*
X112540604Y-70974063D01*
X112705348Y-71027592D01*
X112876438Y-71054690D01*
X112876439Y-71054690D01*
X112905353Y-71054690D01*
X112910590Y-71055443D01*
X112926398Y-71054690D01*
X113049656Y-71054690D01*
X113049660Y-71054690D01*
X113102681Y-71046292D01*
X113119951Y-71045470D01*
X113142658Y-71039960D01*
X113220750Y-71027592D01*
X113300628Y-71001637D01*
X113323642Y-70996055D01*
X113338017Y-70989489D01*
X113385494Y-70974063D01*
X113503886Y-70913739D01*
X113514300Y-70908985D01*
X113517016Y-70907049D01*
X113539837Y-70895422D01*
X113679977Y-70793604D01*
X113802463Y-70671118D01*
X113823432Y-70642255D01*
X113829674Y-70635712D01*
X113841062Y-70617991D01*
X113904281Y-70530978D01*
X113932216Y-70476151D01*
X113942992Y-70459386D01*
X113951179Y-70438933D01*
X113982922Y-70376635D01*
X114012228Y-70286440D01*
X114020892Y-70264801D01*
X114023271Y-70252453D01*
X114036451Y-70211891D01*
X114063549Y-70040801D01*
X114063549Y-69954191D01*
X121860547Y-69954191D01*
X121861987Y-69969267D01*
X121862549Y-69981057D01*
X121862549Y-70040805D01*
X121877733Y-70136672D01*
X121877733Y-70136673D01*
X121878335Y-70140478D01*
X121880471Y-70162840D01*
X121883523Y-70173236D01*
X121884772Y-70181119D01*
X121884774Y-70181127D01*
X121889646Y-70211889D01*
X121902824Y-70252445D01*
X121943176Y-70376635D01*
X122021817Y-70530978D01*
X122031547Y-70544370D01*
X122034947Y-70549050D01*
X122035565Y-70550248D01*
X122038880Y-70554463D01*
X122123635Y-70671118D01*
X122123637Y-70671120D01*
X122156334Y-70703817D01*
X122165131Y-70715003D01*
X122183027Y-70730510D01*
X122246124Y-70793607D01*
X122301995Y-70834199D01*
X122306295Y-70837323D01*
X122323535Y-70852262D01*
X122339707Y-70861598D01*
X122386261Y-70895422D01*
X122488659Y-70947595D01*
X122505053Y-70957061D01*
X122511856Y-70959415D01*
X122540604Y-70974063D01*
X122705348Y-71027592D01*
X122876438Y-71054690D01*
X122876439Y-71054690D01*
X122905353Y-71054690D01*
X122910590Y-71055443D01*
X122926398Y-71054690D01*
X123049656Y-71054690D01*
X123049660Y-71054690D01*
X123102681Y-71046292D01*
X123119951Y-71045470D01*
X123142658Y-71039960D01*
X123220750Y-71027592D01*
X123300628Y-71001637D01*
X123323642Y-70996055D01*
X123338017Y-70989489D01*
X123385494Y-70974063D01*
X123503886Y-70913739D01*
X123514300Y-70908985D01*
X123517016Y-70907049D01*
X123539837Y-70895422D01*
X123679977Y-70793604D01*
X123802463Y-70671118D01*
X123823432Y-70642255D01*
X123829674Y-70635712D01*
X123841062Y-70617991D01*
X123904281Y-70530978D01*
X123932216Y-70476151D01*
X123942992Y-70459386D01*
X123951179Y-70438933D01*
X123982922Y-70376635D01*
X124012228Y-70286440D01*
X124020892Y-70264801D01*
X124023271Y-70252453D01*
X124036451Y-70211891D01*
X124063549Y-70040801D01*
X124063549Y-69954191D01*
X131860547Y-69954191D01*
X131861987Y-69969267D01*
X131862549Y-69981057D01*
X131862549Y-70040805D01*
X131877733Y-70136672D01*
X131877733Y-70136673D01*
X131878335Y-70140478D01*
X131880471Y-70162840D01*
X131883523Y-70173236D01*
X131884772Y-70181119D01*
X131884774Y-70181127D01*
X131889646Y-70211889D01*
X131902824Y-70252445D01*
X131943176Y-70376635D01*
X132021817Y-70530978D01*
X132031547Y-70544370D01*
X132034947Y-70549050D01*
X132035565Y-70550248D01*
X132038880Y-70554463D01*
X132123635Y-70671118D01*
X132123637Y-70671120D01*
X132156334Y-70703817D01*
X132165131Y-70715003D01*
X132183027Y-70730510D01*
X132246124Y-70793607D01*
X132301995Y-70834199D01*
X132306295Y-70837323D01*
X132323535Y-70852262D01*
X132339707Y-70861598D01*
X132386261Y-70895422D01*
X132488659Y-70947595D01*
X132505053Y-70957061D01*
X132511856Y-70959415D01*
X132540604Y-70974063D01*
X132705348Y-71027592D01*
X132876438Y-71054690D01*
X132876439Y-71054690D01*
X132905353Y-71054690D01*
X132910590Y-71055443D01*
X132926398Y-71054690D01*
X133049656Y-71054690D01*
X133049660Y-71054690D01*
X133102681Y-71046292D01*
X133119951Y-71045470D01*
X133142658Y-71039960D01*
X133220750Y-71027592D01*
X133300628Y-71001637D01*
X133323642Y-70996055D01*
X133338017Y-70989489D01*
X133385494Y-70974063D01*
X133503886Y-70913739D01*
X133514300Y-70908985D01*
X133517016Y-70907049D01*
X133539837Y-70895422D01*
X133679977Y-70793604D01*
X133802463Y-70671118D01*
X133823432Y-70642255D01*
X133829674Y-70635712D01*
X133841062Y-70617991D01*
X133904281Y-70530978D01*
X133932216Y-70476151D01*
X133942992Y-70459386D01*
X133951179Y-70438933D01*
X133982922Y-70376635D01*
X134012228Y-70286440D01*
X134020892Y-70264801D01*
X134023271Y-70252453D01*
X134036451Y-70211891D01*
X134063549Y-70040801D01*
X134063549Y-69867579D01*
X134036451Y-69696489D01*
X134023272Y-69655929D01*
X134020892Y-69643579D01*
X134012228Y-69621939D01*
X133982922Y-69531745D01*
X133968944Y-69504312D01*
X159856299Y-69504312D01*
X159856299Y-69766567D01*
X159869644Y-69867924D01*
X159890529Y-70026556D01*
X159958401Y-70279858D01*
X159958404Y-70279868D01*
X160058752Y-70522130D01*
X160058757Y-70522140D01*
X160189874Y-70749243D01*
X160349517Y-70957291D01*
X160349525Y-70957300D01*
X160534939Y-71142714D01*
X160534947Y-71142721D01*
X160742995Y-71302364D01*
X160970098Y-71433481D01*
X160970108Y-71433486D01*
X161212370Y-71533834D01*
X161212380Y-71533838D01*
X161465683Y-71601710D01*
X161725679Y-71635940D01*
X161725686Y-71635940D01*
X161987912Y-71635940D01*
X161987919Y-71635940D01*
X162247915Y-71601710D01*
X162501218Y-71533838D01*
X162743496Y-71433483D01*
X162970602Y-71302364D01*
X163178650Y-71142722D01*
X163178654Y-71142717D01*
X163178659Y-71142714D01*
X163364073Y-70957300D01*
X163364076Y-70957295D01*
X163364081Y-70957291D01*
X163523723Y-70749243D01*
X163654842Y-70522137D01*
X163755197Y-70279859D01*
X163823069Y-70026556D01*
X163857299Y-69766560D01*
X163857299Y-69504320D01*
X163823069Y-69244324D01*
X163755197Y-68991021D01*
X163731710Y-68934318D01*
X163654845Y-68748749D01*
X163654840Y-68748739D01*
X163523723Y-68521636D01*
X163364080Y-68313588D01*
X163364073Y-68313580D01*
X163178659Y-68128166D01*
X163178650Y-68128158D01*
X162970602Y-67968515D01*
X162743499Y-67837398D01*
X162743489Y-67837393D01*
X162501227Y-67737045D01*
X162501220Y-67737043D01*
X162501218Y-67737042D01*
X162247915Y-67669170D01*
X162190138Y-67661563D01*
X161987926Y-67634940D01*
X161987919Y-67634940D01*
X161725679Y-67634940D01*
X161725671Y-67634940D01*
X161494571Y-67665366D01*
X161465683Y-67669170D01*
X161256848Y-67725127D01*
X161212380Y-67737042D01*
X161212370Y-67737045D01*
X160970108Y-67837393D01*
X160970098Y-67837398D01*
X160742995Y-67968515D01*
X160534947Y-68128158D01*
X160349517Y-68313588D01*
X160189874Y-68521636D01*
X160058757Y-68748739D01*
X160058752Y-68748749D01*
X159958404Y-68991011D01*
X159958401Y-68991021D01*
X159892422Y-69237262D01*
X159890529Y-69244325D01*
X159856299Y-69504312D01*
X133968944Y-69504312D01*
X133951179Y-69469446D01*
X133942992Y-69448994D01*
X133932212Y-69432220D01*
X133904281Y-69377402D01*
X133841059Y-69290385D01*
X133829674Y-69272668D01*
X133823426Y-69266115D01*
X133818563Y-69259422D01*
X133802463Y-69237262D01*
X133679977Y-69114776D01*
X133619776Y-69071037D01*
X133539841Y-69012960D01*
X133539833Y-69012956D01*
X133525190Y-69005495D01*
X133517019Y-69001331D01*
X133514300Y-68999395D01*
X133503885Y-68994638D01*
X133501517Y-68993432D01*
X133501499Y-68993424D01*
X133385498Y-68934318D01*
X133344767Y-68921084D01*
X133344767Y-68921083D01*
X133338017Y-68918889D01*
X133323642Y-68912325D01*
X133300629Y-68906742D01*
X133296123Y-68905278D01*
X133220755Y-68880789D01*
X133220747Y-68880787D01*
X133147632Y-68869205D01*
X133147632Y-68869206D01*
X133142653Y-68868417D01*
X133119951Y-68862910D01*
X133102679Y-68862087D01*
X133095965Y-68861024D01*
X133095963Y-68861023D01*
X133095961Y-68861023D01*
X133049664Y-68853690D01*
X133049660Y-68853690D01*
X132926398Y-68853690D01*
X132910590Y-68852937D01*
X132905353Y-68853690D01*
X132876438Y-68853690D01*
X132844241Y-68858789D01*
X132705350Y-68880787D01*
X132540610Y-68934314D01*
X132540594Y-68934321D01*
X132519487Y-68945073D01*
X132519488Y-68945074D01*
X132511846Y-68948967D01*
X132505053Y-68951319D01*
X132488675Y-68960774D01*
X132485770Y-68962255D01*
X132485768Y-68962255D01*
X132386263Y-69012956D01*
X132344962Y-69042962D01*
X132344961Y-69042961D01*
X132339687Y-69046792D01*
X132323535Y-69056118D01*
X132306317Y-69071037D01*
X132302000Y-69074174D01*
X132301994Y-69074180D01*
X132246120Y-69114776D01*
X132186152Y-69174743D01*
X132186151Y-69174742D01*
X132182998Y-69177894D01*
X132165131Y-69193377D01*
X132156346Y-69204547D01*
X132151119Y-69209775D01*
X132123640Y-69237256D01*
X132123634Y-69237263D01*
X132040261Y-69352011D01*
X132040262Y-69352012D01*
X132038857Y-69353944D01*
X132035565Y-69358132D01*
X132034951Y-69359322D01*
X132031556Y-69363996D01*
X132031553Y-69363998D01*
X132021820Y-69377395D01*
X131943177Y-69531742D01*
X131889646Y-69696491D01*
X131884774Y-69727253D01*
X131884774Y-69727255D01*
X131883525Y-69735138D01*
X131880471Y-69745540D01*
X131878337Y-69767887D01*
X131877734Y-69771694D01*
X131877733Y-69771706D01*
X131862549Y-69867579D01*
X131862549Y-69927313D01*
X131861988Y-69939098D01*
X131860547Y-69954191D01*
X124063549Y-69954191D01*
X124063549Y-69867579D01*
X124036451Y-69696489D01*
X124023272Y-69655929D01*
X124020892Y-69643579D01*
X124012228Y-69621939D01*
X123982922Y-69531745D01*
X123951179Y-69469446D01*
X123942992Y-69448994D01*
X123932212Y-69432220D01*
X123904281Y-69377402D01*
X123841059Y-69290385D01*
X123829674Y-69272668D01*
X123823426Y-69266115D01*
X123818563Y-69259422D01*
X123802463Y-69237262D01*
X123679977Y-69114776D01*
X123619776Y-69071037D01*
X123539841Y-69012960D01*
X123539833Y-69012956D01*
X123525190Y-69005495D01*
X123517019Y-69001331D01*
X123514300Y-68999395D01*
X123503885Y-68994638D01*
X123501517Y-68993432D01*
X123501499Y-68993424D01*
X123385498Y-68934318D01*
X123344767Y-68921084D01*
X123344767Y-68921083D01*
X123338017Y-68918889D01*
X123323642Y-68912325D01*
X123300629Y-68906742D01*
X123296123Y-68905278D01*
X123220755Y-68880789D01*
X123220747Y-68880787D01*
X123147632Y-68869205D01*
X123147632Y-68869206D01*
X123142653Y-68868417D01*
X123119951Y-68862910D01*
X123102679Y-68862087D01*
X123095965Y-68861024D01*
X123095963Y-68861023D01*
X123095961Y-68861023D01*
X123049664Y-68853690D01*
X123049660Y-68853690D01*
X122926398Y-68853690D01*
X122910590Y-68852937D01*
X122905353Y-68853690D01*
X122876438Y-68853690D01*
X122844241Y-68858789D01*
X122705350Y-68880787D01*
X122540610Y-68934314D01*
X122540594Y-68934321D01*
X122519487Y-68945073D01*
X122519488Y-68945074D01*
X122511846Y-68948967D01*
X122505053Y-68951319D01*
X122488675Y-68960774D01*
X122485770Y-68962255D01*
X122485768Y-68962255D01*
X122386263Y-69012956D01*
X122344962Y-69042962D01*
X122344961Y-69042961D01*
X122339687Y-69046792D01*
X122323535Y-69056118D01*
X122306317Y-69071037D01*
X122302000Y-69074174D01*
X122301994Y-69074180D01*
X122246120Y-69114776D01*
X122186152Y-69174743D01*
X122186151Y-69174742D01*
X122182998Y-69177894D01*
X122165131Y-69193377D01*
X122156346Y-69204547D01*
X122151119Y-69209775D01*
X122123640Y-69237256D01*
X122123634Y-69237263D01*
X122040261Y-69352011D01*
X122040262Y-69352012D01*
X122038857Y-69353944D01*
X122035565Y-69358132D01*
X122034951Y-69359322D01*
X122031556Y-69363996D01*
X122031553Y-69363998D01*
X122021820Y-69377395D01*
X121943177Y-69531742D01*
X121889646Y-69696491D01*
X121884774Y-69727253D01*
X121884774Y-69727255D01*
X121883525Y-69735138D01*
X121880471Y-69745540D01*
X121878337Y-69767887D01*
X121877734Y-69771694D01*
X121877733Y-69771706D01*
X121862549Y-69867579D01*
X121862549Y-69927313D01*
X121861988Y-69939098D01*
X121860547Y-69954191D01*
X114063549Y-69954191D01*
X114063549Y-69867579D01*
X114036451Y-69696489D01*
X114023272Y-69655929D01*
X114020892Y-69643579D01*
X114012228Y-69621939D01*
X113982922Y-69531745D01*
X113951179Y-69469446D01*
X113942992Y-69448994D01*
X113932212Y-69432220D01*
X113904281Y-69377402D01*
X113841059Y-69290385D01*
X113829674Y-69272668D01*
X113823426Y-69266115D01*
X113818563Y-69259422D01*
X113802463Y-69237262D01*
X113679977Y-69114776D01*
X113619776Y-69071037D01*
X113539841Y-69012960D01*
X113539833Y-69012956D01*
X113525190Y-69005495D01*
X113517019Y-69001331D01*
X113514300Y-68999395D01*
X113503885Y-68994638D01*
X113501517Y-68993432D01*
X113501499Y-68993424D01*
X113385498Y-68934318D01*
X113344767Y-68921084D01*
X113344767Y-68921083D01*
X113338017Y-68918889D01*
X113323642Y-68912325D01*
X113300629Y-68906742D01*
X113296123Y-68905278D01*
X113220755Y-68880789D01*
X113220747Y-68880787D01*
X113147632Y-68869205D01*
X113147632Y-68869206D01*
X113142653Y-68868417D01*
X113119951Y-68862910D01*
X113102679Y-68862087D01*
X113095965Y-68861024D01*
X113095963Y-68861023D01*
X113095961Y-68861023D01*
X113049664Y-68853690D01*
X113049660Y-68853690D01*
X112926398Y-68853690D01*
X112910590Y-68852937D01*
X112905353Y-68853690D01*
X112876438Y-68853690D01*
X112844241Y-68858789D01*
X112705350Y-68880787D01*
X112540610Y-68934314D01*
X112540594Y-68934321D01*
X112519487Y-68945073D01*
X112519488Y-68945074D01*
X112511846Y-68948967D01*
X112505053Y-68951319D01*
X112488675Y-68960774D01*
X112485770Y-68962255D01*
X112485768Y-68962255D01*
X112386263Y-69012956D01*
X112344962Y-69042962D01*
X112344961Y-69042961D01*
X112339687Y-69046792D01*
X112323535Y-69056118D01*
X112306317Y-69071037D01*
X112302000Y-69074174D01*
X112301994Y-69074180D01*
X112246120Y-69114776D01*
X112186152Y-69174743D01*
X112186151Y-69174742D01*
X112182998Y-69177894D01*
X112165131Y-69193377D01*
X112156346Y-69204547D01*
X112151119Y-69209775D01*
X112123640Y-69237256D01*
X112123634Y-69237263D01*
X112040261Y-69352011D01*
X112040262Y-69352012D01*
X112038857Y-69353944D01*
X112035565Y-69358132D01*
X112034951Y-69359322D01*
X112031556Y-69363996D01*
X112031553Y-69363998D01*
X112021820Y-69377395D01*
X111943177Y-69531742D01*
X111889646Y-69696491D01*
X111884774Y-69727253D01*
X111884774Y-69727255D01*
X111883525Y-69735138D01*
X111880471Y-69745540D01*
X111878337Y-69767887D01*
X111877734Y-69771694D01*
X111877733Y-69771706D01*
X111862549Y-69867579D01*
X111862549Y-69927313D01*
X111861988Y-69939098D01*
X111860547Y-69954191D01*
X109963633Y-69954191D01*
X109963718Y-69950942D01*
X109964198Y-69941789D01*
X109964198Y-69941788D01*
X109971789Y-69796940D01*
X109978503Y-69668825D01*
X109979639Y-69657376D01*
X110007967Y-69463986D01*
X110008123Y-69462964D01*
X110027386Y-69341342D01*
X110030076Y-69328684D01*
X110110268Y-69029403D01*
X110114260Y-69017117D01*
X110158452Y-68901993D01*
X110158789Y-68901132D01*
X110230937Y-68719528D01*
X110235682Y-68709036D01*
X110300311Y-68582194D01*
X110301577Y-68579780D01*
X110385154Y-68424777D01*
X110390260Y-68416165D01*
X110471006Y-68291828D01*
X110473353Y-68288348D01*
X110519285Y-68222751D01*
X110571068Y-68148799D01*
X110576276Y-68141888D01*
X110670982Y-68024935D01*
X110674717Y-68020536D01*
X110721012Y-67968515D01*
X110786618Y-67894794D01*
X110791520Y-67889597D01*
X110898454Y-67782663D01*
X110903629Y-67777780D01*
X111029449Y-67665810D01*
X111033746Y-67662162D01*
X111150790Y-67567381D01*
X111157599Y-67562250D01*
X111297295Y-67464433D01*
X111300654Y-67462169D01*
X111425004Y-67381414D01*
X111433633Y-67376297D01*
X111588738Y-67292665D01*
X111591023Y-67291467D01*
X111717929Y-67226806D01*
X111728369Y-67222085D01*
X111909976Y-67149937D01*
X111910952Y-67149555D01*
X112025969Y-67105404D01*
X112038253Y-67101413D01*
X112337557Y-67021214D01*
X112350198Y-67018528D01*
X112471814Y-66999266D01*
X112472764Y-66999121D01*
X112666255Y-66970779D01*
X112677688Y-66969645D01*
X112951109Y-66955315D01*
X112959805Y-66954860D01*
X112966294Y-66954690D01*
X161959803Y-66954690D01*
X161966292Y-66954860D01*
G37*
G04 #@! TD.AperFunction*
M02*
