G04 #@! TF.GenerationSoftware,KiCad,Pcbnew,10.0.1*
G04 #@! TF.CreationDate,2026-05-28T09:04:53+02:00*
G04 #@! TF.ProjectId,V2,56322e6b-6963-4616-945f-706362585858,rev?*
G04 #@! TF.SameCoordinates,Original*
G04 #@! TF.FileFunction,Legend,Bot*
G04 #@! TF.FilePolarity,Positive*
%FSLAX46Y46*%
G04 Gerber Fmt 4.6, Leading zero omitted, Abs format (unit mm)*
G04 Created by KiCad (PCBNEW 10.0.1) date 2026-05-28 09:04:53*
%MOMM*%
%LPD*%
G01*
G04 APERTURE LIST*
%ADD10C,0.190000*%
%ADD11C,0.000000*%
%ADD12C,0.008463*%
%ADD13C,0.166264*%
%ADD14C,0.056344*%
%ADD15C,0.100000*%
%ADD16C,0.200000*%
G04 APERTURE END LIST*
D10*
X164094060Y-81781107D02*
X164094060Y-80856107D01*
X164094060Y-80856107D02*
X163873822Y-80856107D01*
X163873822Y-80856107D02*
X163741679Y-80900155D01*
X163741679Y-80900155D02*
X163653584Y-80988250D01*
X163653584Y-80988250D02*
X163609537Y-81076345D01*
X163609537Y-81076345D02*
X163565489Y-81252536D01*
X163565489Y-81252536D02*
X163565489Y-81384679D01*
X163565489Y-81384679D02*
X163609537Y-81560869D01*
X163609537Y-81560869D02*
X163653584Y-81648964D01*
X163653584Y-81648964D02*
X163741679Y-81737060D01*
X163741679Y-81737060D02*
X163873822Y-81781107D01*
X163873822Y-81781107D02*
X164094060Y-81781107D01*
X162816679Y-81737060D02*
X162904775Y-81781107D01*
X162904775Y-81781107D02*
X163080965Y-81781107D01*
X163080965Y-81781107D02*
X163169060Y-81737060D01*
X163169060Y-81737060D02*
X163213108Y-81648964D01*
X163213108Y-81648964D02*
X163213108Y-81296583D01*
X163213108Y-81296583D02*
X163169060Y-81208488D01*
X163169060Y-81208488D02*
X163080965Y-81164440D01*
X163080965Y-81164440D02*
X162904775Y-81164440D01*
X162904775Y-81164440D02*
X162816679Y-81208488D01*
X162816679Y-81208488D02*
X162772632Y-81296583D01*
X162772632Y-81296583D02*
X162772632Y-81384679D01*
X162772632Y-81384679D02*
X163213108Y-81472774D01*
X162508346Y-81164440D02*
X162155965Y-81164440D01*
X162376203Y-80856107D02*
X162376203Y-81648964D01*
X162376203Y-81648964D02*
X162332156Y-81737060D01*
X162332156Y-81737060D02*
X162244061Y-81781107D01*
X162244061Y-81781107D02*
X162155965Y-81781107D01*
X161891680Y-81737060D02*
X161803585Y-81781107D01*
X161803585Y-81781107D02*
X161627394Y-81781107D01*
X161627394Y-81781107D02*
X161539299Y-81737060D01*
X161539299Y-81737060D02*
X161495251Y-81648964D01*
X161495251Y-81648964D02*
X161495251Y-81604917D01*
X161495251Y-81604917D02*
X161539299Y-81516821D01*
X161539299Y-81516821D02*
X161627394Y-81472774D01*
X161627394Y-81472774D02*
X161759537Y-81472774D01*
X161759537Y-81472774D02*
X161847632Y-81428726D01*
X161847632Y-81428726D02*
X161891680Y-81340631D01*
X161891680Y-81340631D02*
X161891680Y-81296583D01*
X161891680Y-81296583D02*
X161847632Y-81208488D01*
X161847632Y-81208488D02*
X161759537Y-81164440D01*
X161759537Y-81164440D02*
X161627394Y-81164440D01*
X161627394Y-81164440D02*
X161539299Y-81208488D01*
X161098822Y-81781107D02*
X161098822Y-80856107D01*
X161010727Y-81428726D02*
X160746441Y-81781107D01*
X160746441Y-81164440D02*
X161098822Y-81516821D01*
X159953584Y-81781107D02*
X159953584Y-81296583D01*
X159953584Y-81296583D02*
X159997631Y-81208488D01*
X159997631Y-81208488D02*
X160085727Y-81164440D01*
X160085727Y-81164440D02*
X160261917Y-81164440D01*
X160261917Y-81164440D02*
X160350012Y-81208488D01*
X159953584Y-81737060D02*
X160041679Y-81781107D01*
X160041679Y-81781107D02*
X160261917Y-81781107D01*
X160261917Y-81781107D02*
X160350012Y-81737060D01*
X160350012Y-81737060D02*
X160394060Y-81648964D01*
X160394060Y-81648964D02*
X160394060Y-81560869D01*
X160394060Y-81560869D02*
X160350012Y-81472774D01*
X160350012Y-81472774D02*
X160261917Y-81428726D01*
X160261917Y-81428726D02*
X160041679Y-81428726D01*
X160041679Y-81428726D02*
X159953584Y-81384679D01*
X160085727Y-80812060D02*
X160217870Y-80944202D01*
X158411917Y-81164440D02*
X158411917Y-81781107D01*
X158808345Y-81164440D02*
X158808345Y-81648964D01*
X158808345Y-81648964D02*
X158764298Y-81737060D01*
X158764298Y-81737060D02*
X158676203Y-81781107D01*
X158676203Y-81781107D02*
X158544060Y-81781107D01*
X158544060Y-81781107D02*
X158455964Y-81737060D01*
X158455964Y-81737060D02*
X158411917Y-81693012D01*
X157971440Y-81164440D02*
X157971440Y-81781107D01*
X157971440Y-81252536D02*
X157927393Y-81208488D01*
X157927393Y-81208488D02*
X157839298Y-81164440D01*
X157839298Y-81164440D02*
X157707155Y-81164440D01*
X157707155Y-81164440D02*
X157619059Y-81208488D01*
X157619059Y-81208488D02*
X157575012Y-81296583D01*
X157575012Y-81296583D02*
X157575012Y-81781107D01*
X157134535Y-81781107D02*
X157134535Y-81164440D01*
X157134535Y-80856107D02*
X157178583Y-80900155D01*
X157178583Y-80900155D02*
X157134535Y-80944202D01*
X157134535Y-80944202D02*
X157090488Y-80900155D01*
X157090488Y-80900155D02*
X157134535Y-80856107D01*
X157134535Y-80856107D02*
X157134535Y-80944202D01*
X156782155Y-81164440D02*
X156561917Y-81781107D01*
X156561917Y-81781107D02*
X156341678Y-81164440D01*
X155636916Y-81737060D02*
X155725012Y-81781107D01*
X155725012Y-81781107D02*
X155901202Y-81781107D01*
X155901202Y-81781107D02*
X155989297Y-81737060D01*
X155989297Y-81737060D02*
X156033345Y-81648964D01*
X156033345Y-81648964D02*
X156033345Y-81296583D01*
X156033345Y-81296583D02*
X155989297Y-81208488D01*
X155989297Y-81208488D02*
X155901202Y-81164440D01*
X155901202Y-81164440D02*
X155725012Y-81164440D01*
X155725012Y-81164440D02*
X155636916Y-81208488D01*
X155636916Y-81208488D02*
X155592869Y-81296583D01*
X155592869Y-81296583D02*
X155592869Y-81384679D01*
X155592869Y-81384679D02*
X156033345Y-81472774D01*
X155196440Y-81781107D02*
X155196440Y-81164440D01*
X155196440Y-81340631D02*
X155152393Y-81252536D01*
X155152393Y-81252536D02*
X155108345Y-81208488D01*
X155108345Y-81208488D02*
X155020250Y-81164440D01*
X155020250Y-81164440D02*
X154932155Y-81164440D01*
X154711917Y-81164440D02*
X154227393Y-81164440D01*
X154227393Y-81164440D02*
X154711917Y-81781107D01*
X154711917Y-81781107D02*
X154227393Y-81781107D01*
X153875011Y-81781107D02*
X153875011Y-81164440D01*
X153875011Y-80856107D02*
X153919059Y-80900155D01*
X153919059Y-80900155D02*
X153875011Y-80944202D01*
X153875011Y-80944202D02*
X153830964Y-80900155D01*
X153830964Y-80900155D02*
X153875011Y-80856107D01*
X153875011Y-80856107D02*
X153875011Y-80944202D01*
X153566678Y-81164440D02*
X153214297Y-81164440D01*
X153434535Y-80856107D02*
X153434535Y-81648964D01*
X153434535Y-81648964D02*
X153390488Y-81737060D01*
X153390488Y-81737060D02*
X153302393Y-81781107D01*
X153302393Y-81781107D02*
X153214297Y-81781107D01*
X152509536Y-81781107D02*
X152509536Y-81296583D01*
X152509536Y-81296583D02*
X152553583Y-81208488D01*
X152553583Y-81208488D02*
X152641679Y-81164440D01*
X152641679Y-81164440D02*
X152817869Y-81164440D01*
X152817869Y-81164440D02*
X152905964Y-81208488D01*
X152509536Y-81737060D02*
X152597631Y-81781107D01*
X152597631Y-81781107D02*
X152817869Y-81781107D01*
X152817869Y-81781107D02*
X152905964Y-81737060D01*
X152905964Y-81737060D02*
X152950012Y-81648964D01*
X152950012Y-81648964D02*
X152950012Y-81560869D01*
X152950012Y-81560869D02*
X152905964Y-81472774D01*
X152905964Y-81472774D02*
X152817869Y-81428726D01*
X152817869Y-81428726D02*
X152597631Y-81428726D01*
X152597631Y-81428726D02*
X152509536Y-81384679D01*
X151408345Y-80944202D02*
X151364297Y-80900155D01*
X151364297Y-80900155D02*
X151276202Y-80856107D01*
X151276202Y-80856107D02*
X151055964Y-80856107D01*
X151055964Y-80856107D02*
X150967869Y-80900155D01*
X150967869Y-80900155D02*
X150923821Y-80944202D01*
X150923821Y-80944202D02*
X150879774Y-81032298D01*
X150879774Y-81032298D02*
X150879774Y-81120393D01*
X150879774Y-81120393D02*
X150923821Y-81252536D01*
X150923821Y-81252536D02*
X151452393Y-81781107D01*
X151452393Y-81781107D02*
X150879774Y-81781107D01*
X150307155Y-80856107D02*
X150219060Y-80856107D01*
X150219060Y-80856107D02*
X150130964Y-80900155D01*
X150130964Y-80900155D02*
X150086917Y-80944202D01*
X150086917Y-80944202D02*
X150042869Y-81032298D01*
X150042869Y-81032298D02*
X149998822Y-81208488D01*
X149998822Y-81208488D02*
X149998822Y-81428726D01*
X149998822Y-81428726D02*
X150042869Y-81604917D01*
X150042869Y-81604917D02*
X150086917Y-81693012D01*
X150086917Y-81693012D02*
X150130964Y-81737060D01*
X150130964Y-81737060D02*
X150219060Y-81781107D01*
X150219060Y-81781107D02*
X150307155Y-81781107D01*
X150307155Y-81781107D02*
X150395250Y-81737060D01*
X150395250Y-81737060D02*
X150439298Y-81693012D01*
X150439298Y-81693012D02*
X150483345Y-81604917D01*
X150483345Y-81604917D02*
X150527393Y-81428726D01*
X150527393Y-81428726D02*
X150527393Y-81208488D01*
X150527393Y-81208488D02*
X150483345Y-81032298D01*
X150483345Y-81032298D02*
X150439298Y-80944202D01*
X150439298Y-80944202D02*
X150395250Y-80900155D01*
X150395250Y-80900155D02*
X150307155Y-80856107D01*
X149646441Y-80944202D02*
X149602393Y-80900155D01*
X149602393Y-80900155D02*
X149514298Y-80856107D01*
X149514298Y-80856107D02*
X149294060Y-80856107D01*
X149294060Y-80856107D02*
X149205965Y-80900155D01*
X149205965Y-80900155D02*
X149161917Y-80944202D01*
X149161917Y-80944202D02*
X149117870Y-81032298D01*
X149117870Y-81032298D02*
X149117870Y-81120393D01*
X149117870Y-81120393D02*
X149161917Y-81252536D01*
X149161917Y-81252536D02*
X149690489Y-81781107D01*
X149690489Y-81781107D02*
X149117870Y-81781107D01*
X148325013Y-80856107D02*
X148501203Y-80856107D01*
X148501203Y-80856107D02*
X148589299Y-80900155D01*
X148589299Y-80900155D02*
X148633346Y-80944202D01*
X148633346Y-80944202D02*
X148721441Y-81076345D01*
X148721441Y-81076345D02*
X148765489Y-81252536D01*
X148765489Y-81252536D02*
X148765489Y-81604917D01*
X148765489Y-81604917D02*
X148721441Y-81693012D01*
X148721441Y-81693012D02*
X148677394Y-81737060D01*
X148677394Y-81737060D02*
X148589299Y-81781107D01*
X148589299Y-81781107D02*
X148413108Y-81781107D01*
X148413108Y-81781107D02*
X148325013Y-81737060D01*
X148325013Y-81737060D02*
X148280965Y-81693012D01*
X148280965Y-81693012D02*
X148236918Y-81604917D01*
X148236918Y-81604917D02*
X148236918Y-81384679D01*
X148236918Y-81384679D02*
X148280965Y-81296583D01*
X148280965Y-81296583D02*
X148325013Y-81252536D01*
X148325013Y-81252536D02*
X148413108Y-81208488D01*
X148413108Y-81208488D02*
X148589299Y-81208488D01*
X148589299Y-81208488D02*
X148677394Y-81252536D01*
X148677394Y-81252536D02*
X148721441Y-81296583D01*
X148721441Y-81296583D02*
X148765489Y-81384679D01*
X147267870Y-80856107D02*
X146739299Y-80856107D01*
X147003585Y-81781107D02*
X147003585Y-80856107D01*
X146430965Y-80856107D02*
X146430965Y-81604917D01*
X146430965Y-81604917D02*
X146386918Y-81693012D01*
X146386918Y-81693012D02*
X146342870Y-81737060D01*
X146342870Y-81737060D02*
X146254775Y-81781107D01*
X146254775Y-81781107D02*
X146078584Y-81781107D01*
X146078584Y-81781107D02*
X145990489Y-81737060D01*
X145990489Y-81737060D02*
X145946442Y-81693012D01*
X145946442Y-81693012D02*
X145902394Y-81604917D01*
X145902394Y-81604917D02*
X145902394Y-80856107D01*
X145461917Y-81781107D02*
X145461917Y-80856107D01*
X144933346Y-81781107D02*
X145329775Y-81252536D01*
X144933346Y-80856107D02*
X145461917Y-81384679D01*
X144536917Y-81296583D02*
X144228584Y-81296583D01*
X144096441Y-81781107D02*
X144536917Y-81781107D01*
X144536917Y-81781107D02*
X144536917Y-80856107D01*
X144536917Y-80856107D02*
X144096441Y-80856107D01*
D11*
G36*
X163635124Y-85989325D02*
G01*
X160757777Y-85989325D01*
X160757777Y-88869619D01*
X158343344Y-88869619D01*
X158337115Y-85989325D01*
X155474431Y-85989325D01*
X155474431Y-83573065D01*
X163635124Y-83573065D01*
X163635124Y-85989325D01*
G37*
D12*
X148029502Y-87806479D02*
X148037541Y-87823265D01*
X148045939Y-87840046D01*
X148054691Y-87856474D01*
X148064167Y-87872518D01*
X148074026Y-87888594D01*
X148084240Y-87904291D01*
X148095579Y-87919620D01*
X148107610Y-87934586D01*
X148106157Y-88013405D01*
X148068567Y-88013405D01*
X148056147Y-87961952D01*
X147567466Y-87956111D01*
X147557246Y-87917769D01*
X147547385Y-87880926D01*
X147541921Y-87863039D01*
X147536075Y-87845154D01*
X147529877Y-87827635D01*
X147522948Y-87810491D01*
X147515627Y-87793336D01*
X147507612Y-87776192D01*
X147498484Y-87759029D01*
X147488634Y-87742234D01*
X147477690Y-87725081D01*
X147465623Y-87707941D01*
X147452514Y-87690788D01*
X147437890Y-87673643D01*
X147467110Y-87676194D01*
X147513078Y-87731296D01*
X147949582Y-87734202D01*
X147953968Y-87682383D01*
X147955435Y-87667056D01*
X147968187Y-87666675D01*
X148029502Y-87806479D01*
G36*
X148029502Y-87806479D02*
G01*
X148037541Y-87823265D01*
X148045939Y-87840046D01*
X148054691Y-87856474D01*
X148064167Y-87872518D01*
X148074026Y-87888594D01*
X148084240Y-87904291D01*
X148095579Y-87919620D01*
X148107610Y-87934586D01*
X148106157Y-88013405D01*
X148068567Y-88013405D01*
X148056147Y-87961952D01*
X147567466Y-87956111D01*
X147557246Y-87917769D01*
X147547385Y-87880926D01*
X147541921Y-87863039D01*
X147536075Y-87845154D01*
X147529877Y-87827635D01*
X147522948Y-87810491D01*
X147515627Y-87793336D01*
X147507612Y-87776192D01*
X147498484Y-87759029D01*
X147488634Y-87742234D01*
X147477690Y-87725081D01*
X147465623Y-87707941D01*
X147452514Y-87690788D01*
X147437890Y-87673643D01*
X147467110Y-87676194D01*
X147513078Y-87731296D01*
X147949582Y-87734202D01*
X147953968Y-87682383D01*
X147955435Y-87667056D01*
X147968187Y-87666675D01*
X148029502Y-87806479D01*
G37*
D13*
X152950670Y-88847723D02*
X152894090Y-89038225D01*
X152829505Y-89224723D01*
X152757603Y-89407198D01*
X152678413Y-89585312D01*
X152591911Y-89759395D01*
X152498830Y-89928736D01*
X152398839Y-90093335D01*
X152292626Y-90253204D01*
X152179848Y-90408299D01*
X152060893Y-90557928D01*
X151936433Y-90702087D01*
X151806148Y-90841165D01*
X151670386Y-90974364D01*
X151529142Y-91101731D01*
X151383150Y-91223263D01*
X151232054Y-91338581D01*
X151076215Y-91447706D01*
X150916005Y-91550277D01*
X150751754Y-91646241D01*
X150583148Y-91735676D01*
X150410894Y-91817775D01*
X150234610Y-91892960D01*
X150055039Y-91961214D01*
X149872196Y-92021793D01*
X149686443Y-92074718D01*
X149497377Y-92119977D01*
X149306142Y-92157565D01*
X149112343Y-92186748D01*
X148915984Y-92208291D01*
X148717820Y-92221071D01*
X148517467Y-92225439D01*
X148317471Y-92221071D01*
X148119282Y-92208291D01*
X147922930Y-92186748D01*
X147729149Y-92157565D01*
X147537548Y-92119977D01*
X147348861Y-92074718D01*
X147163090Y-92021793D01*
X146980221Y-91961214D01*
X146800675Y-91892960D01*
X146624405Y-91817775D01*
X146283533Y-91646241D01*
X145958719Y-91447706D01*
X145652152Y-91223263D01*
X145364906Y-90974364D01*
X145098862Y-90702087D01*
X144855430Y-90408299D01*
X144742640Y-90253204D01*
X144636447Y-90093335D01*
X144536447Y-89928736D01*
X144443024Y-89759395D01*
X144356888Y-89585312D01*
X144277671Y-89407198D01*
X144205782Y-89224723D01*
X144141200Y-89038225D01*
X144084611Y-88847723D01*
X144035717Y-88653551D01*
X152999568Y-88653551D01*
X152950670Y-88847723D01*
X148718188Y-83033483D02*
X148916729Y-83046628D01*
X149113083Y-83067806D01*
X149307244Y-83097362D01*
X149498857Y-83134953D01*
X149687894Y-83180209D01*
X149874022Y-83233492D01*
X150057258Y-83294076D01*
X150237169Y-83362312D01*
X150413453Y-83437865D01*
X150754677Y-83610127D01*
X151079507Y-83809042D01*
X151386449Y-84034215D01*
X151674018Y-84283849D01*
X151940098Y-84556472D01*
X152183525Y-84851367D01*
X152295910Y-85006468D01*
X152402504Y-85166699D01*
X152502127Y-85331662D01*
X152595193Y-85501380D01*
X152681327Y-85675813D01*
X152760520Y-85854653D01*
X152832060Y-86037489D01*
X152896283Y-86224353D01*
X152952861Y-86414868D01*
X153001408Y-86609392D01*
X144033166Y-86611580D01*
X144033518Y-86610136D01*
X144082063Y-86415605D01*
X144138642Y-86224725D01*
X144202863Y-86037859D01*
X144274768Y-85855023D01*
X144353962Y-85676186D01*
X144440100Y-85501725D01*
X144533168Y-85332016D01*
X144632799Y-85167072D01*
X144739371Y-85006841D01*
X144851782Y-84851367D01*
X144970392Y-84701375D01*
X145095202Y-84556840D01*
X145225486Y-84417427D01*
X145361251Y-84283849D01*
X145502492Y-84156118D01*
X145648851Y-84034215D01*
X145799949Y-83918519D01*
X145955792Y-83809413D01*
X146115993Y-83706474D01*
X146280609Y-83610127D01*
X146449226Y-83520349D01*
X146621842Y-83437865D01*
X146798131Y-83362312D01*
X146978046Y-83294431D01*
X147160903Y-83233492D01*
X147347042Y-83180209D01*
X147536075Y-83134953D01*
X147728049Y-83097362D01*
X147922220Y-83067806D01*
X148118568Y-83046628D01*
X148317107Y-83033483D01*
X148517467Y-83029115D01*
X148718188Y-83033483D01*
D11*
G36*
X157885553Y-89320440D02*
G01*
X161221799Y-89320440D01*
X161221799Y-86447122D01*
X163631820Y-86447122D01*
X163631820Y-88865579D01*
X163628157Y-89018551D01*
X163616409Y-89169312D01*
X163597338Y-89316777D01*
X163570937Y-89461667D01*
X163537182Y-89603259D01*
X163496826Y-89741547D01*
X163449511Y-89876540D01*
X163395953Y-90007863D01*
X163336156Y-90135518D01*
X163270138Y-90259505D01*
X163198600Y-90379453D01*
X163121573Y-90495369D01*
X163039039Y-90607253D01*
X162951362Y-90714366D01*
X162858933Y-90817071D01*
X162761711Y-90915021D01*
X162660107Y-91008195D01*
X162554459Y-91096592D01*
X162444787Y-91179491D01*
X162331066Y-91257259D01*
X162214052Y-91329894D01*
X162093730Y-91396659D01*
X161970488Y-91457915D01*
X161844298Y-91513667D01*
X161715539Y-91562818D01*
X161584214Y-91606479D01*
X161450696Y-91643524D01*
X161315334Y-91674340D01*
X161178148Y-91698547D01*
X161039494Y-91715786D01*
X160899726Y-91726422D01*
X160758873Y-91730094D01*
X158340414Y-91730094D01*
X158065658Y-91693052D01*
X157794215Y-91633620D01*
X157528644Y-91552917D01*
X157270392Y-91451673D01*
X157021682Y-91330623D01*
X156784350Y-91190132D01*
X156670634Y-91112722D01*
X156560228Y-91030921D01*
X156453842Y-90944364D01*
X156351511Y-90853758D01*
X156253560Y-90758385D01*
X156160388Y-90659334D01*
X156071614Y-90555524D01*
X155987981Y-90448052D01*
X155909848Y-90336172D01*
X155837222Y-90220620D01*
X155770081Y-90101404D01*
X155709197Y-89978149D01*
X155654903Y-89851234D01*
X155606855Y-89721016D01*
X155565405Y-89587123D01*
X155531289Y-89449557D01*
X155504145Y-89308703D01*
X155484705Y-89164911D01*
X155472971Y-89017812D01*
X155469299Y-88867410D01*
X155471493Y-86447122D01*
X157885553Y-86447122D01*
X157885553Y-89320440D01*
G37*
D14*
X151286448Y-88874730D02*
X151495211Y-89786028D01*
X151495211Y-89803199D01*
X151360517Y-89819242D01*
X151361990Y-89802829D01*
X151360895Y-89784573D01*
X151357592Y-89764124D01*
X151352144Y-89742241D01*
X151334601Y-89694426D01*
X151308711Y-89641880D01*
X151275117Y-89586035D01*
X151234240Y-89529109D01*
X151186803Y-89471798D01*
X151133157Y-89415977D01*
X151074391Y-89363047D01*
X151042651Y-89338214D01*
X151010171Y-89314507D01*
X150976584Y-89292245D01*
X150941558Y-89271435D01*
X150905765Y-89252816D01*
X150869293Y-89235665D01*
X150831704Y-89221073D01*
X150793380Y-89208664D01*
X150754316Y-89198815D01*
X150714537Y-89191871D01*
X150674395Y-89187488D01*
X150633508Y-89186402D01*
X150592283Y-89188592D01*
X150550656Y-89194436D01*
X150541558Y-91186384D01*
X150557969Y-91194785D01*
X150574031Y-91202459D01*
X150589726Y-91209015D01*
X150605765Y-91214503D01*
X150621464Y-91219236D01*
X150637167Y-91223263D01*
X150652870Y-91226531D01*
X150668913Y-91229092D01*
X150684972Y-91231303D01*
X150701025Y-91233122D01*
X150734610Y-91235675D01*
X150806862Y-91239319D01*
X150800303Y-91384575D01*
X149414535Y-91899914D01*
X149416006Y-91714867D01*
X149439356Y-91711215D01*
X149461974Y-91706478D01*
X149483526Y-91701381D01*
X149504318Y-91695154D01*
X149524389Y-91688228D01*
X149543372Y-91680568D01*
X149561630Y-91672157D01*
X149579142Y-91663050D01*
X149595926Y-91652817D01*
X149611628Y-91642237D01*
X149626588Y-91630563D01*
X149640824Y-91618151D01*
X149653961Y-91605385D01*
X149666727Y-91591500D01*
X149678401Y-91576900D01*
X149689365Y-91561576D01*
X149690818Y-89196989D01*
X149651038Y-89196989D01*
X149611993Y-89198075D01*
X149573664Y-89201004D01*
X149536077Y-89205004D01*
X149499568Y-89210103D01*
X149463821Y-89216695D01*
X149428792Y-89224723D01*
X149394831Y-89233853D01*
X149361245Y-89244439D01*
X149329142Y-89256466D01*
X149297394Y-89269256D01*
X149266730Y-89283481D01*
X149237179Y-89299184D01*
X149208333Y-89315956D01*
X149180229Y-89333844D01*
X149153229Y-89352834D01*
X149126961Y-89373264D01*
X149101770Y-89394427D01*
X149077303Y-89417056D01*
X149053967Y-89440785D01*
X149031684Y-89465600D01*
X149010164Y-89491516D01*
X148989351Y-89518885D01*
X148969653Y-89546974D01*
X148951045Y-89576180D01*
X148933530Y-89606479D01*
X148916729Y-89637853D01*
X148901028Y-89670334D01*
X148886067Y-89703554D01*
X148872573Y-89738214D01*
X148859805Y-89773620D01*
X148848111Y-89809761D01*
X148730599Y-89825825D01*
X148943021Y-88864138D01*
X151286448Y-88874730D01*
G36*
X151286448Y-88874730D02*
G01*
X151495211Y-89786028D01*
X151495211Y-89803199D01*
X151360517Y-89819242D01*
X151361990Y-89802829D01*
X151360895Y-89784573D01*
X151357592Y-89764124D01*
X151352144Y-89742241D01*
X151334601Y-89694426D01*
X151308711Y-89641880D01*
X151275117Y-89586035D01*
X151234240Y-89529109D01*
X151186803Y-89471798D01*
X151133157Y-89415977D01*
X151074391Y-89363047D01*
X151042651Y-89338214D01*
X151010171Y-89314507D01*
X150976584Y-89292245D01*
X150941558Y-89271435D01*
X150905765Y-89252816D01*
X150869293Y-89235665D01*
X150831704Y-89221073D01*
X150793380Y-89208664D01*
X150754316Y-89198815D01*
X150714537Y-89191871D01*
X150674395Y-89187488D01*
X150633508Y-89186402D01*
X150592283Y-89188592D01*
X150550656Y-89194436D01*
X150541558Y-91186384D01*
X150557969Y-91194785D01*
X150574031Y-91202459D01*
X150589726Y-91209015D01*
X150605765Y-91214503D01*
X150621464Y-91219236D01*
X150637167Y-91223263D01*
X150652870Y-91226531D01*
X150668913Y-91229092D01*
X150684972Y-91231303D01*
X150701025Y-91233122D01*
X150734610Y-91235675D01*
X150806862Y-91239319D01*
X150800303Y-91384575D01*
X149414535Y-91899914D01*
X149416006Y-91714867D01*
X149439356Y-91711215D01*
X149461974Y-91706478D01*
X149483526Y-91701381D01*
X149504318Y-91695154D01*
X149524389Y-91688228D01*
X149543372Y-91680568D01*
X149561630Y-91672157D01*
X149579142Y-91663050D01*
X149595926Y-91652817D01*
X149611628Y-91642237D01*
X149626588Y-91630563D01*
X149640824Y-91618151D01*
X149653961Y-91605385D01*
X149666727Y-91591500D01*
X149678401Y-91576900D01*
X149689365Y-91561576D01*
X149690818Y-89196989D01*
X149651038Y-89196989D01*
X149611993Y-89198075D01*
X149573664Y-89201004D01*
X149536077Y-89205004D01*
X149499568Y-89210103D01*
X149463821Y-89216695D01*
X149428792Y-89224723D01*
X149394831Y-89233853D01*
X149361245Y-89244439D01*
X149329142Y-89256466D01*
X149297394Y-89269256D01*
X149266730Y-89283481D01*
X149237179Y-89299184D01*
X149208333Y-89315956D01*
X149180229Y-89333844D01*
X149153229Y-89352834D01*
X149126961Y-89373264D01*
X149101770Y-89394427D01*
X149077303Y-89417056D01*
X149053967Y-89440785D01*
X149031684Y-89465600D01*
X149010164Y-89491516D01*
X148989351Y-89518885D01*
X148969653Y-89546974D01*
X148951045Y-89576180D01*
X148933530Y-89606479D01*
X148916729Y-89637853D01*
X148901028Y-89670334D01*
X148886067Y-89703554D01*
X148872573Y-89738214D01*
X148859805Y-89773620D01*
X148848111Y-89809761D01*
X148730599Y-89825825D01*
X148943021Y-88864138D01*
X151286448Y-88874730D01*
G37*
D12*
X145897029Y-86972525D02*
X146859784Y-86971814D01*
X146862714Y-86969251D01*
X146865642Y-86966334D01*
X146868198Y-86963408D01*
X146870754Y-86960482D01*
X146872932Y-86957560D01*
X146874753Y-86954289D01*
X146876580Y-86951000D01*
X146878407Y-86947711D01*
X146879862Y-86944072D01*
X146881341Y-86940412D01*
X146882421Y-86936779D01*
X146883155Y-86933115D01*
X146883891Y-86929119D01*
X146884609Y-86925089D01*
X146884979Y-86921079D01*
X146884979Y-86917050D01*
X146902864Y-86919259D01*
X146993371Y-87416330D01*
X146991186Y-87416330D01*
X146988994Y-87416330D01*
X146983891Y-87416330D01*
X146973659Y-87416699D01*
X146965272Y-87417067D01*
X146962705Y-87417067D01*
X146961994Y-87417067D01*
X146961631Y-87417067D01*
X146950303Y-87387148D01*
X146942633Y-87368895D01*
X146933524Y-87349186D01*
X146923298Y-87328008D01*
X146912007Y-87305751D01*
X146899589Y-87283486D01*
X146885714Y-87260488D01*
X146871117Y-87237868D01*
X146855421Y-87215979D01*
X146838648Y-87194792D01*
X146821119Y-87174726D01*
X146802501Y-87156474D01*
X146793016Y-87148097D01*
X146783166Y-87140051D01*
X146773305Y-87132759D01*
X146763083Y-87126171D01*
X146752869Y-87120356D01*
X146742279Y-87115244D01*
X146575850Y-87117800D01*
X146570736Y-88161218D01*
X146579885Y-88192963D01*
X146584992Y-88208669D01*
X146590454Y-88223629D01*
X146596664Y-88238222D01*
X146603224Y-88252457D01*
X146610523Y-88266324D01*
X146618560Y-88279113D01*
X146627323Y-88291518D01*
X146637171Y-88303185D01*
X146647767Y-88314142D01*
X146653591Y-88319253D01*
X146659435Y-88324363D01*
X146665654Y-88328736D01*
X146672210Y-88333110D01*
X146679140Y-88337504D01*
X146686440Y-88341134D01*
X146694100Y-88344805D01*
X146701768Y-88348434D01*
X146710168Y-88351358D01*
X146718204Y-88354284D01*
X146074043Y-88354284D01*
X146074043Y-88319961D01*
X146182068Y-88257550D01*
X146195574Y-87128362D01*
X146178042Y-87126912D01*
X146157624Y-87125458D01*
X146134988Y-87124723D01*
X146111992Y-87124367D01*
X146090086Y-87123996D01*
X146071105Y-87123996D01*
X146056145Y-87124723D01*
X146046295Y-87125089D01*
X146042273Y-87126171D01*
X146037528Y-87127646D01*
X146032422Y-87129834D01*
X146026592Y-87132759D01*
X146014188Y-87140416D01*
X146000311Y-87150649D01*
X145985344Y-87163050D01*
X145969646Y-87177637D01*
X145953605Y-87194432D01*
X145937529Y-87213053D01*
X145921486Y-87233829D01*
X145913827Y-87244792D01*
X145906153Y-87256114D01*
X145898494Y-87267788D01*
X145891539Y-87280191D01*
X145884613Y-87292602D01*
X145878045Y-87305383D01*
X145871842Y-87318889D01*
X145866009Y-87332383D01*
X145860535Y-87346254D01*
X145855795Y-87360492D01*
X145851403Y-87374712D01*
X145847403Y-87389691D01*
X145844470Y-87404657D01*
X145841548Y-87419964D01*
X145772220Y-87420345D01*
X145792290Y-87360862D01*
X145810904Y-87301373D01*
X145828055Y-87241510D01*
X145835719Y-87211209D01*
X145842651Y-87180566D01*
X145848491Y-87149552D01*
X145853602Y-87117800D01*
X145857621Y-87085668D01*
X145860168Y-87052469D01*
X145861623Y-87018886D01*
X145861990Y-86984586D01*
X145860535Y-86949179D01*
X145857621Y-86913036D01*
X145895204Y-86911586D01*
X145897029Y-86972525D01*
G36*
X145897029Y-86972525D02*
G01*
X146859784Y-86971814D01*
X146862714Y-86969251D01*
X146865642Y-86966334D01*
X146868198Y-86963408D01*
X146870754Y-86960482D01*
X146872932Y-86957560D01*
X146874753Y-86954289D01*
X146876580Y-86951000D01*
X146878407Y-86947711D01*
X146879862Y-86944072D01*
X146881341Y-86940412D01*
X146882421Y-86936779D01*
X146883155Y-86933115D01*
X146883891Y-86929119D01*
X146884609Y-86925089D01*
X146884979Y-86921079D01*
X146884979Y-86917050D01*
X146902864Y-86919259D01*
X146993371Y-87416330D01*
X146991186Y-87416330D01*
X146988994Y-87416330D01*
X146983891Y-87416330D01*
X146973659Y-87416699D01*
X146965272Y-87417067D01*
X146962705Y-87417067D01*
X146961994Y-87417067D01*
X146961631Y-87417067D01*
X146950303Y-87387148D01*
X146942633Y-87368895D01*
X146933524Y-87349186D01*
X146923298Y-87328008D01*
X146912007Y-87305751D01*
X146899589Y-87283486D01*
X146885714Y-87260488D01*
X146871117Y-87237868D01*
X146855421Y-87215979D01*
X146838648Y-87194792D01*
X146821119Y-87174726D01*
X146802501Y-87156474D01*
X146793016Y-87148097D01*
X146783166Y-87140051D01*
X146773305Y-87132759D01*
X146763083Y-87126171D01*
X146752869Y-87120356D01*
X146742279Y-87115244D01*
X146575850Y-87117800D01*
X146570736Y-88161218D01*
X146579885Y-88192963D01*
X146584992Y-88208669D01*
X146590454Y-88223629D01*
X146596664Y-88238222D01*
X146603224Y-88252457D01*
X146610523Y-88266324D01*
X146618560Y-88279113D01*
X146627323Y-88291518D01*
X146637171Y-88303185D01*
X146647767Y-88314142D01*
X146653591Y-88319253D01*
X146659435Y-88324363D01*
X146665654Y-88328736D01*
X146672210Y-88333110D01*
X146679140Y-88337504D01*
X146686440Y-88341134D01*
X146694100Y-88344805D01*
X146701768Y-88348434D01*
X146710168Y-88351358D01*
X146718204Y-88354284D01*
X146074043Y-88354284D01*
X146074043Y-88319961D01*
X146182068Y-88257550D01*
X146195574Y-87128362D01*
X146178042Y-87126912D01*
X146157624Y-87125458D01*
X146134988Y-87124723D01*
X146111992Y-87124367D01*
X146090086Y-87123996D01*
X146071105Y-87123996D01*
X146056145Y-87124723D01*
X146046295Y-87125089D01*
X146042273Y-87126171D01*
X146037528Y-87127646D01*
X146032422Y-87129834D01*
X146026592Y-87132759D01*
X146014188Y-87140416D01*
X146000311Y-87150649D01*
X145985344Y-87163050D01*
X145969646Y-87177637D01*
X145953605Y-87194432D01*
X145937529Y-87213053D01*
X145921486Y-87233829D01*
X145913827Y-87244792D01*
X145906153Y-87256114D01*
X145898494Y-87267788D01*
X145891539Y-87280191D01*
X145884613Y-87292602D01*
X145878045Y-87305383D01*
X145871842Y-87318889D01*
X145866009Y-87332383D01*
X145860535Y-87346254D01*
X145855795Y-87360492D01*
X145851403Y-87374712D01*
X145847403Y-87389691D01*
X145844470Y-87404657D01*
X145841548Y-87419964D01*
X145772220Y-87420345D01*
X145792290Y-87360862D01*
X145810904Y-87301373D01*
X145828055Y-87241510D01*
X145835719Y-87211209D01*
X145842651Y-87180566D01*
X145848491Y-87149552D01*
X145853602Y-87117800D01*
X145857621Y-87085668D01*
X145860168Y-87052469D01*
X145861623Y-87018886D01*
X145861990Y-86984586D01*
X145860535Y-86949179D01*
X145857621Y-86913036D01*
X145895204Y-86911586D01*
X145897029Y-86972525D01*
G37*
X145175492Y-86971072D02*
X145167818Y-86975441D01*
X145160158Y-86979845D01*
X145143015Y-86988585D01*
X145125500Y-86997710D01*
X145107975Y-87007221D01*
X145099232Y-87011954D01*
X145091196Y-87016706D01*
X145083161Y-87021805D01*
X145075867Y-87026920D01*
X145068938Y-87032030D01*
X145062722Y-87037138D01*
X145057243Y-87042253D01*
X145054690Y-87045170D01*
X145052504Y-87047725D01*
X145053236Y-88123983D01*
X145013832Y-88204264D01*
X145003953Y-88222152D01*
X144993382Y-88238960D01*
X144981693Y-88255740D01*
X144967837Y-88271439D01*
X144960172Y-88279113D01*
X144951770Y-88286770D01*
X144942654Y-88294446D01*
X144933174Y-88301736D01*
X144922578Y-88309034D01*
X144911250Y-88316330D01*
X144898851Y-88323627D01*
X144885726Y-88330556D01*
X144856151Y-88344805D01*
X144821856Y-88358663D01*
X144782786Y-88372888D01*
X144738266Y-88386757D01*
X144447399Y-88389697D01*
X144428057Y-88388215D01*
X144409809Y-88386031D01*
X144391545Y-88382759D01*
X144374401Y-88378735D01*
X144357619Y-88373995D01*
X144341184Y-88368887D01*
X144325490Y-88362664D01*
X144310522Y-88355738D01*
X144295569Y-88348434D01*
X144281346Y-88340037D01*
X144267462Y-88331655D01*
X144254331Y-88322524D01*
X144241182Y-88312675D01*
X144228781Y-88302441D01*
X144205052Y-88280928D01*
X144182426Y-88257550D01*
X144161271Y-88232749D01*
X144141200Y-88207188D01*
X144121837Y-88180924D01*
X144103604Y-88153924D01*
X144086091Y-88126908D01*
X144052509Y-88072902D01*
X144062363Y-87097728D01*
X143909085Y-86969623D01*
X144378036Y-86968899D01*
X144361251Y-86974732D01*
X144344854Y-86981293D01*
X144329527Y-86988585D01*
X144315264Y-86996627D01*
X144301412Y-87005022D01*
X144288641Y-87013774D01*
X144276218Y-87023631D01*
X144264906Y-87033474D01*
X144254331Y-87044436D01*
X144244484Y-87055366D01*
X144235713Y-87067066D01*
X144227308Y-87079469D01*
X144219644Y-87091873D01*
X144212730Y-87105022D01*
X144206152Y-87118511D01*
X144200685Y-87132395D01*
X144201056Y-87957924D01*
X144200685Y-87978732D01*
X144202127Y-87999540D01*
X144205421Y-88019613D01*
X144210161Y-88039689D01*
X144217096Y-88059025D01*
X144225119Y-88078016D01*
X144234972Y-88096243D01*
X144245924Y-88113766D01*
X144257974Y-88130558D01*
X144271476Y-88146259D01*
X144286078Y-88160859D01*
X144301786Y-88174716D01*
X144318191Y-88187120D01*
X144335706Y-88198087D01*
X144353962Y-88207930D01*
X144372582Y-88215964D01*
X144391922Y-88222890D01*
X144411994Y-88228008D01*
X144432434Y-88230923D01*
X144452876Y-88232376D01*
X144473659Y-88232006D01*
X144494472Y-88229457D01*
X144515654Y-88224714D01*
X144536807Y-88218156D01*
X144557607Y-88209035D01*
X144578052Y-88197347D01*
X144598491Y-88183478D01*
X144618569Y-88166684D01*
X144637900Y-88147715D01*
X144656888Y-88125460D01*
X144675125Y-88100638D01*
X144692641Y-88072902D01*
X144690826Y-87087870D01*
X144685716Y-87079099D01*
X144679858Y-87070347D01*
X144673305Y-87061591D01*
X144666382Y-87053182D01*
X144658706Y-87044808D01*
X144650678Y-87036776D01*
X144641904Y-87029104D01*
X144632799Y-87021439D01*
X144623309Y-87014142D01*
X144613097Y-87006850D01*
X144602502Y-86999917D01*
X144591562Y-86993331D01*
X144580239Y-86986770D01*
X144568577Y-86980194D01*
X144556879Y-86974363D01*
X144544463Y-86968143D01*
X145175492Y-86971072D01*
G36*
X145175492Y-86971072D02*
G01*
X145167818Y-86975441D01*
X145160158Y-86979845D01*
X145143015Y-86988585D01*
X145125500Y-86997710D01*
X145107975Y-87007221D01*
X145099232Y-87011954D01*
X145091196Y-87016706D01*
X145083161Y-87021805D01*
X145075867Y-87026920D01*
X145068938Y-87032030D01*
X145062722Y-87037138D01*
X145057243Y-87042253D01*
X145054690Y-87045170D01*
X145052504Y-87047725D01*
X145053236Y-88123983D01*
X145013832Y-88204264D01*
X145003953Y-88222152D01*
X144993382Y-88238960D01*
X144981693Y-88255740D01*
X144967837Y-88271439D01*
X144960172Y-88279113D01*
X144951770Y-88286770D01*
X144942654Y-88294446D01*
X144933174Y-88301736D01*
X144922578Y-88309034D01*
X144911250Y-88316330D01*
X144898851Y-88323627D01*
X144885726Y-88330556D01*
X144856151Y-88344805D01*
X144821856Y-88358663D01*
X144782786Y-88372888D01*
X144738266Y-88386757D01*
X144447399Y-88389697D01*
X144428057Y-88388215D01*
X144409809Y-88386031D01*
X144391545Y-88382759D01*
X144374401Y-88378735D01*
X144357619Y-88373995D01*
X144341184Y-88368887D01*
X144325490Y-88362664D01*
X144310522Y-88355738D01*
X144295569Y-88348434D01*
X144281346Y-88340037D01*
X144267462Y-88331655D01*
X144254331Y-88322524D01*
X144241182Y-88312675D01*
X144228781Y-88302441D01*
X144205052Y-88280928D01*
X144182426Y-88257550D01*
X144161271Y-88232749D01*
X144141200Y-88207188D01*
X144121837Y-88180924D01*
X144103604Y-88153924D01*
X144086091Y-88126908D01*
X144052509Y-88072902D01*
X144062363Y-87097728D01*
X143909085Y-86969623D01*
X144378036Y-86968899D01*
X144361251Y-86974732D01*
X144344854Y-86981293D01*
X144329527Y-86988585D01*
X144315264Y-86996627D01*
X144301412Y-87005022D01*
X144288641Y-87013774D01*
X144276218Y-87023631D01*
X144264906Y-87033474D01*
X144254331Y-87044436D01*
X144244484Y-87055366D01*
X144235713Y-87067066D01*
X144227308Y-87079469D01*
X144219644Y-87091873D01*
X144212730Y-87105022D01*
X144206152Y-87118511D01*
X144200685Y-87132395D01*
X144201056Y-87957924D01*
X144200685Y-87978732D01*
X144202127Y-87999540D01*
X144205421Y-88019613D01*
X144210161Y-88039689D01*
X144217096Y-88059025D01*
X144225119Y-88078016D01*
X144234972Y-88096243D01*
X144245924Y-88113766D01*
X144257974Y-88130558D01*
X144271476Y-88146259D01*
X144286078Y-88160859D01*
X144301786Y-88174716D01*
X144318191Y-88187120D01*
X144335706Y-88198087D01*
X144353962Y-88207930D01*
X144372582Y-88215964D01*
X144391922Y-88222890D01*
X144411994Y-88228008D01*
X144432434Y-88230923D01*
X144452876Y-88232376D01*
X144473659Y-88232006D01*
X144494472Y-88229457D01*
X144515654Y-88224714D01*
X144536807Y-88218156D01*
X144557607Y-88209035D01*
X144578052Y-88197347D01*
X144598491Y-88183478D01*
X144618569Y-88166684D01*
X144637900Y-88147715D01*
X144656888Y-88125460D01*
X144675125Y-88100638D01*
X144692641Y-88072902D01*
X144690826Y-87087870D01*
X144685716Y-87079099D01*
X144679858Y-87070347D01*
X144673305Y-87061591D01*
X144666382Y-87053182D01*
X144658706Y-87044808D01*
X144650678Y-87036776D01*
X144641904Y-87029104D01*
X144632799Y-87021439D01*
X144623309Y-87014142D01*
X144613097Y-87006850D01*
X144602502Y-86999917D01*
X144591562Y-86993331D01*
X144580239Y-86986770D01*
X144568577Y-86980194D01*
X144556879Y-86974363D01*
X144544463Y-86968143D01*
X145175492Y-86971072D01*
G37*
X149397754Y-86969968D02*
X149398123Y-86974363D01*
X149398123Y-86978742D01*
X149398493Y-86980561D01*
X149398493Y-86982033D01*
X149398493Y-86983853D01*
X149398493Y-86985308D01*
X149398493Y-86986410D01*
X149398493Y-86987854D01*
X149398493Y-86988962D01*
X149398493Y-86990044D01*
X149398493Y-86990780D01*
X149398123Y-86991513D01*
X149398123Y-86992600D01*
X149398123Y-86993331D01*
X149397754Y-86993701D01*
X149397754Y-86994436D01*
X149397397Y-86994804D01*
X149397020Y-86995519D01*
X149397020Y-86995885D01*
X149396649Y-86996246D01*
X149396281Y-86996627D01*
X149395948Y-86997004D01*
X149395574Y-86997359D01*
X149395195Y-86997710D01*
X149394831Y-86998080D01*
X149394463Y-86998440D01*
X149392640Y-86999917D01*
X149390085Y-87001737D01*
X149387537Y-87003183D01*
X149384984Y-87005022D01*
X149382425Y-87006477D01*
X149376952Y-87009399D01*
X149371470Y-87012320D01*
X149360904Y-87017441D01*
X149356140Y-87019626D01*
X149351033Y-87022178D01*
X149348844Y-87023631D01*
X149346653Y-87025097D01*
X149344463Y-87026546D01*
X149342642Y-87028005D01*
X149340836Y-87029470D01*
X149338994Y-87030925D01*
X149337169Y-87032745D01*
X149335715Y-87034581D01*
X149334613Y-87036398D01*
X149333162Y-87038224D01*
X149332427Y-87040410D01*
X149331331Y-87042613D01*
X149330607Y-87044808D01*
X149330240Y-87047366D01*
X149329876Y-87049914D01*
X149329876Y-87052810D01*
X149309801Y-88264151D01*
X149314551Y-88269968D01*
X149319289Y-88275450D01*
X149324025Y-88281288D01*
X149329142Y-88286411D01*
X149334251Y-88291889D01*
X149339730Y-88296617D01*
X149345204Y-88301358D01*
X149350676Y-88306108D01*
X149356512Y-88310482D01*
X149362347Y-88314869D01*
X149368545Y-88318884D01*
X149374755Y-88322885D01*
X149381321Y-88326554D01*
X149387907Y-88330193D01*
X149394463Y-88333475D01*
X149401394Y-88336766D01*
X148825850Y-88338584D01*
X148834984Y-88333110D01*
X148843026Y-88328001D01*
X148850663Y-88322524D01*
X148857242Y-88316693D01*
X148863805Y-88310853D01*
X148869651Y-88304653D01*
X148875141Y-88298442D01*
X148880243Y-88291518D01*
X148885348Y-88284213D01*
X148890096Y-88276560D01*
X148895205Y-88268519D01*
X148899953Y-88259750D01*
X148922208Y-88218520D01*
X148920752Y-87067434D01*
X148918201Y-87061591D01*
X148915643Y-87056104D01*
X148913097Y-87050630D01*
X148910534Y-87046256D01*
X148907984Y-87041884D01*
X148905418Y-87037855D01*
X148902495Y-87033849D01*
X148899953Y-87030557D01*
X148897027Y-87027648D01*
X148894105Y-87024732D01*
X148891176Y-87022178D01*
X148888267Y-87019984D01*
X148885348Y-87017783D01*
X148882432Y-87015971D01*
X148879514Y-87014512D01*
X148876579Y-87013035D01*
X148828039Y-86996627D01*
X148827324Y-86995885D01*
X148826219Y-86995150D01*
X148825140Y-86994804D01*
X148824399Y-86994072D01*
X148823661Y-86993331D01*
X148823294Y-86992965D01*
X148822578Y-86992247D01*
X148822204Y-86991513D01*
X148821844Y-86990780D01*
X148821476Y-86990044D01*
X148821108Y-86989325D01*
X148821108Y-86988585D01*
X148820729Y-86987854D01*
X148820729Y-86987143D01*
X148820389Y-86985666D01*
X148820389Y-86983853D01*
X148820389Y-86982033D01*
X148820729Y-86978372D01*
X148820729Y-86976556D01*
X148820729Y-86974363D01*
X148820729Y-86972525D01*
X148820389Y-86970341D01*
X149397754Y-86969623D01*
X149397754Y-86969968D01*
G36*
X149397754Y-86969968D02*
G01*
X149398123Y-86974363D01*
X149398123Y-86978742D01*
X149398493Y-86980561D01*
X149398493Y-86982033D01*
X149398493Y-86983853D01*
X149398493Y-86985308D01*
X149398493Y-86986410D01*
X149398493Y-86987854D01*
X149398493Y-86988962D01*
X149398493Y-86990044D01*
X149398493Y-86990780D01*
X149398123Y-86991513D01*
X149398123Y-86992600D01*
X149398123Y-86993331D01*
X149397754Y-86993701D01*
X149397754Y-86994436D01*
X149397397Y-86994804D01*
X149397020Y-86995519D01*
X149397020Y-86995885D01*
X149396649Y-86996246D01*
X149396281Y-86996627D01*
X149395948Y-86997004D01*
X149395574Y-86997359D01*
X149395195Y-86997710D01*
X149394831Y-86998080D01*
X149394463Y-86998440D01*
X149392640Y-86999917D01*
X149390085Y-87001737D01*
X149387537Y-87003183D01*
X149384984Y-87005022D01*
X149382425Y-87006477D01*
X149376952Y-87009399D01*
X149371470Y-87012320D01*
X149360904Y-87017441D01*
X149356140Y-87019626D01*
X149351033Y-87022178D01*
X149348844Y-87023631D01*
X149346653Y-87025097D01*
X149344463Y-87026546D01*
X149342642Y-87028005D01*
X149340836Y-87029470D01*
X149338994Y-87030925D01*
X149337169Y-87032745D01*
X149335715Y-87034581D01*
X149334613Y-87036398D01*
X149333162Y-87038224D01*
X149332427Y-87040410D01*
X149331331Y-87042613D01*
X149330607Y-87044808D01*
X149330240Y-87047366D01*
X149329876Y-87049914D01*
X149329876Y-87052810D01*
X149309801Y-88264151D01*
X149314551Y-88269968D01*
X149319289Y-88275450D01*
X149324025Y-88281288D01*
X149329142Y-88286411D01*
X149334251Y-88291889D01*
X149339730Y-88296617D01*
X149345204Y-88301358D01*
X149350676Y-88306108D01*
X149356512Y-88310482D01*
X149362347Y-88314869D01*
X149368545Y-88318884D01*
X149374755Y-88322885D01*
X149381321Y-88326554D01*
X149387907Y-88330193D01*
X149394463Y-88333475D01*
X149401394Y-88336766D01*
X148825850Y-88338584D01*
X148834984Y-88333110D01*
X148843026Y-88328001D01*
X148850663Y-88322524D01*
X148857242Y-88316693D01*
X148863805Y-88310853D01*
X148869651Y-88304653D01*
X148875141Y-88298442D01*
X148880243Y-88291518D01*
X148885348Y-88284213D01*
X148890096Y-88276560D01*
X148895205Y-88268519D01*
X148899953Y-88259750D01*
X148922208Y-88218520D01*
X148920752Y-87067434D01*
X148918201Y-87061591D01*
X148915643Y-87056104D01*
X148913097Y-87050630D01*
X148910534Y-87046256D01*
X148907984Y-87041884D01*
X148905418Y-87037855D01*
X148902495Y-87033849D01*
X148899953Y-87030557D01*
X148897027Y-87027648D01*
X148894105Y-87024732D01*
X148891176Y-87022178D01*
X148888267Y-87019984D01*
X148885348Y-87017783D01*
X148882432Y-87015971D01*
X148879514Y-87014512D01*
X148876579Y-87013035D01*
X148828039Y-86996627D01*
X148827324Y-86995885D01*
X148826219Y-86995150D01*
X148825140Y-86994804D01*
X148824399Y-86994072D01*
X148823661Y-86993331D01*
X148823294Y-86992965D01*
X148822578Y-86992247D01*
X148822204Y-86991513D01*
X148821844Y-86990780D01*
X148821476Y-86990044D01*
X148821108Y-86989325D01*
X148821108Y-86988585D01*
X148820729Y-86987854D01*
X148820729Y-86987143D01*
X148820389Y-86985666D01*
X148820389Y-86983853D01*
X148820389Y-86982033D01*
X148820729Y-86978372D01*
X148820729Y-86976556D01*
X148820729Y-86974363D01*
X148820729Y-86972525D01*
X148820389Y-86970341D01*
X149397754Y-86969623D01*
X149397754Y-86969968D01*
G37*
D11*
G36*
X164213234Y-88900793D02*
G01*
X164209578Y-89054851D01*
X164198199Y-89209291D01*
X164179123Y-89364099D01*
X164152707Y-89518157D01*
X164119333Y-89671862D01*
X164078615Y-89824450D01*
X164030554Y-89975948D01*
X163975529Y-90125253D01*
X163913545Y-90273078D01*
X163844947Y-90418335D01*
X163769375Y-90560659D01*
X163687211Y-90700053D01*
X163598810Y-90836147D01*
X163503438Y-90968204D01*
X163401824Y-91096223D01*
X163294347Y-91219845D01*
X163180269Y-91338692D01*
X163059946Y-91452411D01*
X162934126Y-91560621D01*
X162802075Y-91662968D01*
X162664141Y-91759079D01*
X162520716Y-91848583D01*
X162371428Y-91931478D01*
X162216623Y-92006674D01*
X162056686Y-92074545D01*
X161890890Y-92134694D01*
X161720311Y-92186422D01*
X161544241Y-92229347D01*
X161363390Y-92263453D01*
X161177418Y-92288398D01*
X160986667Y-92303437D01*
X160790784Y-92308571D01*
X158307765Y-92308571D01*
X158132062Y-92304169D01*
X157958919Y-92290597D01*
X157788350Y-92268956D01*
X157620340Y-92238503D01*
X157455266Y-92199991D01*
X157293502Y-92153766D01*
X157135036Y-92099488D01*
X156979873Y-92037867D01*
X156828740Y-91968899D01*
X156681643Y-91893328D01*
X156538579Y-91810432D01*
X156400293Y-91721292D01*
X156266397Y-91625553D01*
X156137282Y-91523940D01*
X156013660Y-91416096D01*
X155894800Y-91302748D01*
X155781833Y-91183894D01*
X155674719Y-91059910D01*
X155573103Y-90931158D01*
X155478103Y-90797262D01*
X155389330Y-90658972D01*
X155307160Y-90516278D01*
X155231592Y-90369555D01*
X155163367Y-90218788D01*
X155102110Y-90064354D01*
X155048545Y-89906627D01*
X155002697Y-89745580D01*
X154964542Y-89581615D01*
X154934841Y-89415081D01*
X154913191Y-89245974D01*
X154899989Y-89074302D01*
X154895954Y-88900793D01*
X154895954Y-88867048D01*
X154895954Y-83117114D01*
X155021410Y-83117114D01*
X155021410Y-88867048D01*
X155025813Y-89035785D01*
X155038278Y-89202695D01*
X155059189Y-89367393D01*
X155088532Y-89529533D01*
X155125584Y-89689092D01*
X155169963Y-89845730D01*
X155222420Y-89999416D01*
X155281844Y-90149462D01*
X155348247Y-90296186D01*
X155421607Y-90438881D01*
X155501572Y-90577907D01*
X155587779Y-90712527D01*
X155680585Y-90842752D01*
X155779263Y-90968204D01*
X155883446Y-91088891D01*
X155993485Y-91204434D01*
X156109030Y-91314853D01*
X156229353Y-91419392D01*
X156355174Y-91518434D01*
X156485386Y-91611605D01*
X156620015Y-91698180D01*
X156759046Y-91778879D01*
X156902472Y-91852614D01*
X157049570Y-91919743D01*
X157200329Y-91979524D01*
X157354395Y-92032354D01*
X157512128Y-92077479D01*
X157672434Y-92114888D01*
X157836028Y-92144231D01*
X158002203Y-92165522D01*
X158170566Y-92178712D01*
X158341141Y-92183115D01*
X160757403Y-92183115D01*
X160947783Y-92177986D01*
X161133768Y-92163317D01*
X161314607Y-92139099D01*
X161490683Y-92106088D01*
X161661979Y-92063905D01*
X161828158Y-92013647D01*
X161989199Y-91955322D01*
X162145094Y-91889298D01*
X162295489Y-91815934D01*
X162440754Y-91735590D01*
X162580146Y-91648294D01*
X162714398Y-91554755D01*
X162842791Y-91455349D01*
X162965672Y-91350069D01*
X163082321Y-91239279D01*
X163193475Y-91123735D01*
X163298381Y-91003415D01*
X163397058Y-90878701D01*
X163489487Y-90750307D01*
X163576068Y-90617889D01*
X163655660Y-90482167D01*
X163729394Y-90343507D01*
X163796163Y-90202274D01*
X163856314Y-90058846D01*
X163909878Y-89913224D01*
X163956463Y-89765760D01*
X163996077Y-89617560D01*
X164028726Y-89467905D01*
X164054400Y-89317874D01*
X164072744Y-89167474D01*
X164083754Y-89017074D01*
X164087778Y-88867048D01*
X164087778Y-83117114D01*
X155021410Y-83117114D01*
X154895954Y-83117114D01*
X154895954Y-82991291D01*
X164213234Y-82991291D01*
X164213234Y-88900793D01*
G37*
D12*
X152102125Y-86932752D02*
X152105421Y-86936043D01*
X152108704Y-86938962D01*
X152112350Y-86941879D01*
X152116010Y-86944785D01*
X152120019Y-86947333D01*
X152124022Y-86949901D01*
X152126232Y-86951369D01*
X152128409Y-86952453D01*
X152130604Y-86953565D01*
X152132799Y-86954289D01*
X152135346Y-86955376D01*
X152137903Y-86956476D01*
X152140447Y-86957214D01*
X152143010Y-86957937D01*
X152145926Y-86958665D01*
X152148856Y-86959041D01*
X152151752Y-86959772D01*
X152154683Y-86960108D01*
X153036787Y-86970702D01*
X153020388Y-86984220D01*
X153013076Y-86990403D01*
X153006498Y-86996246D01*
X153000309Y-87002097D01*
X152994836Y-87007565D01*
X152989728Y-87013035D01*
X152984976Y-87018521D01*
X152980594Y-87023631D01*
X152976937Y-87029470D01*
X152973310Y-87034952D01*
X152970007Y-87040775D01*
X152966729Y-87046978D01*
X152963800Y-87053182D01*
X152960902Y-87060126D01*
X152958340Y-87067434D01*
X152958340Y-88253552D01*
X152960902Y-88260118D01*
X152963800Y-88265969D01*
X152967086Y-88272153D01*
X152970762Y-88277639D01*
X152974755Y-88283482D01*
X152979130Y-88288586D01*
X152983871Y-88294072D01*
X152988978Y-88298810D01*
X152994836Y-88303554D01*
X153000668Y-88308300D01*
X153006868Y-88312675D01*
X153013822Y-88317060D01*
X153020748Y-88321066D01*
X153028045Y-88325074D01*
X153036073Y-88328736D01*
X153044103Y-88332023D01*
X152470760Y-88332023D01*
X152479867Y-88326928D01*
X152488274Y-88321439D01*
X152497013Y-88315592D01*
X152505049Y-88309769D01*
X152513079Y-88303554D01*
X152520742Y-88296994D01*
X152528048Y-88290402D01*
X152535352Y-88283482D01*
X152541910Y-88276560D01*
X152548861Y-88268888D01*
X152555062Y-88261589D01*
X152561269Y-88253552D01*
X152567081Y-88245522D01*
X152572569Y-88237113D01*
X152577680Y-88228748D01*
X152582781Y-88219973D01*
X152582781Y-87555022D01*
X152397755Y-87555022D01*
X152385686Y-87557943D01*
X152374386Y-87560849D01*
X152363441Y-87564503D01*
X152352855Y-87568505D01*
X152342994Y-87572541D01*
X152333894Y-87577284D01*
X152324766Y-87582022D01*
X152316356Y-87587136D01*
X152308333Y-87592613D01*
X152301042Y-87598438D01*
X152293742Y-87604291D01*
X152287174Y-87610494D01*
X152280958Y-87617055D01*
X152274771Y-87623624D01*
X152269288Y-87630930D01*
X152263807Y-87637864D01*
X152259063Y-87645160D01*
X152254327Y-87652830D01*
X152245926Y-87668162D01*
X152238260Y-87684565D01*
X152231319Y-87701011D01*
X152225485Y-87718155D01*
X152219641Y-87735672D01*
X152209795Y-87771080D01*
X152186816Y-87765960D01*
X152261621Y-87256114D01*
X152282070Y-87258305D01*
X152283892Y-87267043D01*
X152286074Y-87275822D01*
X152288266Y-87284198D01*
X152290819Y-87292972D01*
X152293742Y-87301373D01*
X152297019Y-87309753D01*
X152300301Y-87318154D01*
X152303595Y-87326552D01*
X152307595Y-87334559D01*
X152311614Y-87342967D01*
X152315620Y-87351007D01*
X152320024Y-87359041D01*
X152324766Y-87367075D01*
X152329877Y-87375077D01*
X152334990Y-87383112D01*
X152340438Y-87390784D01*
X152569653Y-87390784D01*
X152569653Y-87149552D01*
X152556869Y-87127277D01*
X152542646Y-87107951D01*
X152526575Y-87091511D01*
X152509430Y-87078375D01*
X152491179Y-87067800D01*
X152471470Y-87060126D01*
X152451390Y-87055020D01*
X152430235Y-87052102D01*
X152408334Y-87051733D01*
X152386065Y-87053548D01*
X152363071Y-87057578D01*
X152340095Y-87063400D01*
X152317103Y-87071076D01*
X152293742Y-87080928D01*
X152270735Y-87092247D01*
X152247741Y-87105022D01*
X152225121Y-87119251D01*
X152203227Y-87134575D01*
X152181707Y-87151363D01*
X152161256Y-87169242D01*
X152141186Y-87187866D01*
X152122566Y-87207570D01*
X152105061Y-87228012D01*
X152088639Y-87249167D01*
X152073674Y-87270719D01*
X152060161Y-87292602D01*
X152048492Y-87314495D01*
X152038622Y-87337121D01*
X152030232Y-87359410D01*
X152024385Y-87381659D01*
X152020380Y-87403927D01*
X152018918Y-87425816D01*
X151984245Y-87419257D01*
X152011986Y-87287122D01*
X152040088Y-87158654D01*
X152066005Y-87035671D01*
X152088982Y-86920340D01*
X152102125Y-86932752D01*
G36*
X152102125Y-86932752D02*
G01*
X152105421Y-86936043D01*
X152108704Y-86938962D01*
X152112350Y-86941879D01*
X152116010Y-86944785D01*
X152120019Y-86947333D01*
X152124022Y-86949901D01*
X152126232Y-86951369D01*
X152128409Y-86952453D01*
X152130604Y-86953565D01*
X152132799Y-86954289D01*
X152135346Y-86955376D01*
X152137903Y-86956476D01*
X152140447Y-86957214D01*
X152143010Y-86957937D01*
X152145926Y-86958665D01*
X152148856Y-86959041D01*
X152151752Y-86959772D01*
X152154683Y-86960108D01*
X153036787Y-86970702D01*
X153020388Y-86984220D01*
X153013076Y-86990403D01*
X153006498Y-86996246D01*
X153000309Y-87002097D01*
X152994836Y-87007565D01*
X152989728Y-87013035D01*
X152984976Y-87018521D01*
X152980594Y-87023631D01*
X152976937Y-87029470D01*
X152973310Y-87034952D01*
X152970007Y-87040775D01*
X152966729Y-87046978D01*
X152963800Y-87053182D01*
X152960902Y-87060126D01*
X152958340Y-87067434D01*
X152958340Y-88253552D01*
X152960902Y-88260118D01*
X152963800Y-88265969D01*
X152967086Y-88272153D01*
X152970762Y-88277639D01*
X152974755Y-88283482D01*
X152979130Y-88288586D01*
X152983871Y-88294072D01*
X152988978Y-88298810D01*
X152994836Y-88303554D01*
X153000668Y-88308300D01*
X153006868Y-88312675D01*
X153013822Y-88317060D01*
X153020748Y-88321066D01*
X153028045Y-88325074D01*
X153036073Y-88328736D01*
X153044103Y-88332023D01*
X152470760Y-88332023D01*
X152479867Y-88326928D01*
X152488274Y-88321439D01*
X152497013Y-88315592D01*
X152505049Y-88309769D01*
X152513079Y-88303554D01*
X152520742Y-88296994D01*
X152528048Y-88290402D01*
X152535352Y-88283482D01*
X152541910Y-88276560D01*
X152548861Y-88268888D01*
X152555062Y-88261589D01*
X152561269Y-88253552D01*
X152567081Y-88245522D01*
X152572569Y-88237113D01*
X152577680Y-88228748D01*
X152582781Y-88219973D01*
X152582781Y-87555022D01*
X152397755Y-87555022D01*
X152385686Y-87557943D01*
X152374386Y-87560849D01*
X152363441Y-87564503D01*
X152352855Y-87568505D01*
X152342994Y-87572541D01*
X152333894Y-87577284D01*
X152324766Y-87582022D01*
X152316356Y-87587136D01*
X152308333Y-87592613D01*
X152301042Y-87598438D01*
X152293742Y-87604291D01*
X152287174Y-87610494D01*
X152280958Y-87617055D01*
X152274771Y-87623624D01*
X152269288Y-87630930D01*
X152263807Y-87637864D01*
X152259063Y-87645160D01*
X152254327Y-87652830D01*
X152245926Y-87668162D01*
X152238260Y-87684565D01*
X152231319Y-87701011D01*
X152225485Y-87718155D01*
X152219641Y-87735672D01*
X152209795Y-87771080D01*
X152186816Y-87765960D01*
X152261621Y-87256114D01*
X152282070Y-87258305D01*
X152283892Y-87267043D01*
X152286074Y-87275822D01*
X152288266Y-87284198D01*
X152290819Y-87292972D01*
X152293742Y-87301373D01*
X152297019Y-87309753D01*
X152300301Y-87318154D01*
X152303595Y-87326552D01*
X152307595Y-87334559D01*
X152311614Y-87342967D01*
X152315620Y-87351007D01*
X152320024Y-87359041D01*
X152324766Y-87367075D01*
X152329877Y-87375077D01*
X152334990Y-87383112D01*
X152340438Y-87390784D01*
X152569653Y-87390784D01*
X152569653Y-87149552D01*
X152556869Y-87127277D01*
X152542646Y-87107951D01*
X152526575Y-87091511D01*
X152509430Y-87078375D01*
X152491179Y-87067800D01*
X152471470Y-87060126D01*
X152451390Y-87055020D01*
X152430235Y-87052102D01*
X152408334Y-87051733D01*
X152386065Y-87053548D01*
X152363071Y-87057578D01*
X152340095Y-87063400D01*
X152317103Y-87071076D01*
X152293742Y-87080928D01*
X152270735Y-87092247D01*
X152247741Y-87105022D01*
X152225121Y-87119251D01*
X152203227Y-87134575D01*
X152181707Y-87151363D01*
X152161256Y-87169242D01*
X152141186Y-87187866D01*
X152122566Y-87207570D01*
X152105061Y-87228012D01*
X152088639Y-87249167D01*
X152073674Y-87270719D01*
X152060161Y-87292602D01*
X152048492Y-87314495D01*
X152038622Y-87337121D01*
X152030232Y-87359410D01*
X152024385Y-87381659D01*
X152020380Y-87403927D01*
X152018918Y-87425816D01*
X151984245Y-87419257D01*
X152011986Y-87287122D01*
X152040088Y-87158654D01*
X152066005Y-87035671D01*
X152088982Y-86920340D01*
X152102125Y-86932752D01*
G37*
X150359072Y-86919603D02*
X150360165Y-86922531D01*
X150361276Y-86925818D01*
X150362709Y-86928745D01*
X150364163Y-86931669D01*
X150365633Y-86934593D01*
X150367094Y-86937861D01*
X150368561Y-86940776D01*
X150370387Y-86943701D01*
X150372201Y-86946635D01*
X150374385Y-86949554D01*
X150376593Y-86952453D01*
X150378776Y-86955376D01*
X150380969Y-86958300D01*
X150383150Y-86961221D01*
X150388258Y-86967070D01*
X151317086Y-86967070D01*
X151302858Y-86974732D01*
X151289719Y-86982739D01*
X151276935Y-86991144D01*
X151264892Y-86999917D01*
X151253598Y-87009032D01*
X151243023Y-87018886D01*
X151233160Y-87028736D01*
X151223672Y-87039315D01*
X151215272Y-87050290D01*
X151207233Y-87061591D01*
X151199944Y-87072905D01*
X151193388Y-87085312D01*
X151187529Y-87097728D01*
X151182050Y-87110498D01*
X151177680Y-87123996D01*
X151173654Y-87137504D01*
X151172198Y-88188962D01*
X151177680Y-88198816D01*
X151183526Y-88208298D01*
X151190092Y-88218156D01*
X151197382Y-88228008D01*
X151205421Y-88237848D01*
X151213823Y-88247704D01*
X151222570Y-88257550D01*
X151231683Y-88267411D01*
X151241538Y-88277274D01*
X151251406Y-88286770D01*
X151271481Y-88305744D01*
X151292634Y-88324363D01*
X151313460Y-88342592D01*
X150274394Y-88336766D01*
X150261978Y-88267063D01*
X150247014Y-88198816D01*
X150230241Y-88131301D01*
X150211252Y-88064865D01*
X150190805Y-87999165D01*
X150169286Y-87933838D01*
X150146659Y-87869244D01*
X150123301Y-87805003D01*
X150162352Y-87805751D01*
X150216352Y-87894062D01*
X150252508Y-87949541D01*
X150272573Y-87978732D01*
X150293731Y-88008293D01*
X150316348Y-88037861D01*
X150340452Y-88067060D01*
X150365267Y-88095160D01*
X150391187Y-88121795D01*
X150418187Y-88146977D01*
X150446300Y-88169975D01*
X150460522Y-88180560D01*
X150475118Y-88190411D01*
X150490078Y-88199534D01*
X150505036Y-88207930D01*
X150518550Y-88214144D01*
X150532071Y-88219973D01*
X150545557Y-88225084D01*
X150559438Y-88229457D01*
X150573305Y-88233115D01*
X150587176Y-88236033D01*
X150601026Y-88238222D01*
X150614921Y-88239671D01*
X150642280Y-88240780D01*
X150668913Y-88239671D01*
X150694457Y-88236033D01*
X150718918Y-88230562D01*
X150741539Y-88222890D01*
X150752126Y-88218156D01*
X150762352Y-88213051D01*
X150771829Y-88207576D01*
X150780603Y-88201744D01*
X150789004Y-88195155D01*
X150796305Y-88188603D01*
X150803235Y-88181292D01*
X150809420Y-88173626D01*
X150814535Y-88165965D01*
X150818929Y-88157568D01*
X150822197Y-88149163D01*
X150824758Y-88140051D01*
X150826228Y-88130932D01*
X150826943Y-88121795D01*
X150826943Y-87540422D01*
X150605065Y-87540422D01*
X150601769Y-87540780D01*
X150597762Y-87541878D01*
X150593732Y-87543327D01*
X150589726Y-87545881D01*
X150584988Y-87548804D01*
X150580247Y-87552464D01*
X150575135Y-87556836D01*
X150570029Y-87561583D01*
X150564542Y-87567056D01*
X150559069Y-87572907D01*
X150553580Y-87579457D01*
X150547743Y-87586392D01*
X150542291Y-87593697D01*
X150536440Y-87601724D01*
X150530963Y-87610115D01*
X150525120Y-87619241D01*
X150519656Y-87628380D01*
X150514173Y-87638236D01*
X150508697Y-87648090D01*
X150503579Y-87658679D01*
X150498485Y-87669601D01*
X150493740Y-87680563D01*
X150489369Y-87692235D01*
X150484970Y-87703927D01*
X150480962Y-87716331D01*
X150477308Y-87728743D01*
X150474040Y-87741151D01*
X150470743Y-87753921D01*
X150468188Y-87767052D01*
X150466368Y-87780559D01*
X150464542Y-87794070D01*
X150463448Y-87807571D01*
X150459449Y-87807571D01*
X150454678Y-87807934D01*
X150449216Y-87807934D01*
X150443379Y-87807934D01*
X150436807Y-87807571D01*
X150433888Y-87807571D01*
X150430963Y-87807192D01*
X150428035Y-87807192D01*
X150425489Y-87806850D01*
X150472935Y-87271085D01*
X150546655Y-87263051D01*
X150643728Y-87430932D01*
X150808343Y-87429474D01*
X150808343Y-87080552D01*
X150776943Y-87076912D01*
X150747024Y-87074724D01*
X150718201Y-87073994D01*
X150690831Y-87074360D01*
X150664552Y-87075806D01*
X150639723Y-87078728D01*
X150615634Y-87082399D01*
X150593009Y-87087502D01*
X150571477Y-87093336D01*
X150550656Y-87099917D01*
X150530963Y-87107951D01*
X150512356Y-87116328D01*
X150494107Y-87125811D01*
X150477308Y-87136042D01*
X150460883Y-87146616D01*
X150445192Y-87158311D01*
X150416367Y-87183122D01*
X150389356Y-87210118D01*
X150364532Y-87238602D01*
X150341533Y-87268525D01*
X150319646Y-87299193D01*
X150298829Y-87330550D01*
X150258352Y-87393701D01*
X150199573Y-87403190D01*
X150211252Y-87375445D01*
X150222582Y-87346975D01*
X150232800Y-87317788D01*
X150242647Y-87288602D01*
X150251759Y-87258669D01*
X150260164Y-87228743D01*
X150267820Y-87198088D01*
X150274760Y-87167430D01*
X150280962Y-87136764D01*
X150286799Y-87105391D01*
X150291538Y-87074360D01*
X150295927Y-87042962D01*
X150299572Y-87011954D01*
X150302496Y-86980561D01*
X150305055Y-86949554D01*
X150306498Y-86918521D01*
X150359072Y-86919603D01*
G36*
X150359072Y-86919603D02*
G01*
X150360165Y-86922531D01*
X150361276Y-86925818D01*
X150362709Y-86928745D01*
X150364163Y-86931669D01*
X150365633Y-86934593D01*
X150367094Y-86937861D01*
X150368561Y-86940776D01*
X150370387Y-86943701D01*
X150372201Y-86946635D01*
X150374385Y-86949554D01*
X150376593Y-86952453D01*
X150378776Y-86955376D01*
X150380969Y-86958300D01*
X150383150Y-86961221D01*
X150388258Y-86967070D01*
X151317086Y-86967070D01*
X151302858Y-86974732D01*
X151289719Y-86982739D01*
X151276935Y-86991144D01*
X151264892Y-86999917D01*
X151253598Y-87009032D01*
X151243023Y-87018886D01*
X151233160Y-87028736D01*
X151223672Y-87039315D01*
X151215272Y-87050290D01*
X151207233Y-87061591D01*
X151199944Y-87072905D01*
X151193388Y-87085312D01*
X151187529Y-87097728D01*
X151182050Y-87110498D01*
X151177680Y-87123996D01*
X151173654Y-87137504D01*
X151172198Y-88188962D01*
X151177680Y-88198816D01*
X151183526Y-88208298D01*
X151190092Y-88218156D01*
X151197382Y-88228008D01*
X151205421Y-88237848D01*
X151213823Y-88247704D01*
X151222570Y-88257550D01*
X151231683Y-88267411D01*
X151241538Y-88277274D01*
X151251406Y-88286770D01*
X151271481Y-88305744D01*
X151292634Y-88324363D01*
X151313460Y-88342592D01*
X150274394Y-88336766D01*
X150261978Y-88267063D01*
X150247014Y-88198816D01*
X150230241Y-88131301D01*
X150211252Y-88064865D01*
X150190805Y-87999165D01*
X150169286Y-87933838D01*
X150146659Y-87869244D01*
X150123301Y-87805003D01*
X150162352Y-87805751D01*
X150216352Y-87894062D01*
X150252508Y-87949541D01*
X150272573Y-87978732D01*
X150293731Y-88008293D01*
X150316348Y-88037861D01*
X150340452Y-88067060D01*
X150365267Y-88095160D01*
X150391187Y-88121795D01*
X150418187Y-88146977D01*
X150446300Y-88169975D01*
X150460522Y-88180560D01*
X150475118Y-88190411D01*
X150490078Y-88199534D01*
X150505036Y-88207930D01*
X150518550Y-88214144D01*
X150532071Y-88219973D01*
X150545557Y-88225084D01*
X150559438Y-88229457D01*
X150573305Y-88233115D01*
X150587176Y-88236033D01*
X150601026Y-88238222D01*
X150614921Y-88239671D01*
X150642280Y-88240780D01*
X150668913Y-88239671D01*
X150694457Y-88236033D01*
X150718918Y-88230562D01*
X150741539Y-88222890D01*
X150752126Y-88218156D01*
X150762352Y-88213051D01*
X150771829Y-88207576D01*
X150780603Y-88201744D01*
X150789004Y-88195155D01*
X150796305Y-88188603D01*
X150803235Y-88181292D01*
X150809420Y-88173626D01*
X150814535Y-88165965D01*
X150818929Y-88157568D01*
X150822197Y-88149163D01*
X150824758Y-88140051D01*
X150826228Y-88130932D01*
X150826943Y-88121795D01*
X150826943Y-87540422D01*
X150605065Y-87540422D01*
X150601769Y-87540780D01*
X150597762Y-87541878D01*
X150593732Y-87543327D01*
X150589726Y-87545881D01*
X150584988Y-87548804D01*
X150580247Y-87552464D01*
X150575135Y-87556836D01*
X150570029Y-87561583D01*
X150564542Y-87567056D01*
X150559069Y-87572907D01*
X150553580Y-87579457D01*
X150547743Y-87586392D01*
X150542291Y-87593697D01*
X150536440Y-87601724D01*
X150530963Y-87610115D01*
X150525120Y-87619241D01*
X150519656Y-87628380D01*
X150514173Y-87638236D01*
X150508697Y-87648090D01*
X150503579Y-87658679D01*
X150498485Y-87669601D01*
X150493740Y-87680563D01*
X150489369Y-87692235D01*
X150484970Y-87703927D01*
X150480962Y-87716331D01*
X150477308Y-87728743D01*
X150474040Y-87741151D01*
X150470743Y-87753921D01*
X150468188Y-87767052D01*
X150466368Y-87780559D01*
X150464542Y-87794070D01*
X150463448Y-87807571D01*
X150459449Y-87807571D01*
X150454678Y-87807934D01*
X150449216Y-87807934D01*
X150443379Y-87807934D01*
X150436807Y-87807571D01*
X150433888Y-87807571D01*
X150430963Y-87807192D01*
X150428035Y-87807192D01*
X150425489Y-87806850D01*
X150472935Y-87271085D01*
X150546655Y-87263051D01*
X150643728Y-87430932D01*
X150808343Y-87429474D01*
X150808343Y-87080552D01*
X150776943Y-87076912D01*
X150747024Y-87074724D01*
X150718201Y-87073994D01*
X150690831Y-87074360D01*
X150664552Y-87075806D01*
X150639723Y-87078728D01*
X150615634Y-87082399D01*
X150593009Y-87087502D01*
X150571477Y-87093336D01*
X150550656Y-87099917D01*
X150530963Y-87107951D01*
X150512356Y-87116328D01*
X150494107Y-87125811D01*
X150477308Y-87136042D01*
X150460883Y-87146616D01*
X150445192Y-87158311D01*
X150416367Y-87183122D01*
X150389356Y-87210118D01*
X150364532Y-87238602D01*
X150341533Y-87268525D01*
X150319646Y-87299193D01*
X150298829Y-87330550D01*
X150258352Y-87393701D01*
X150199573Y-87403190D01*
X150211252Y-87375445D01*
X150222582Y-87346975D01*
X150232800Y-87317788D01*
X150242647Y-87288602D01*
X150251759Y-87258669D01*
X150260164Y-87228743D01*
X150267820Y-87198088D01*
X150274760Y-87167430D01*
X150280962Y-87136764D01*
X150286799Y-87105391D01*
X150291538Y-87074360D01*
X150295927Y-87042962D01*
X150299572Y-87011954D01*
X150302496Y-86980561D01*
X150305055Y-86949554D01*
X150306498Y-86918521D01*
X150359072Y-86919603D01*
G37*
D14*
X146032422Y-88831654D02*
X146054714Y-88848808D01*
X146065993Y-88857212D01*
X146076963Y-88865248D01*
X146088264Y-88872908D01*
X146099591Y-88880197D01*
X146111263Y-88887131D01*
X146122932Y-88893324D01*
X146134617Y-88899168D01*
X146146300Y-88904287D01*
X146158331Y-88908658D01*
X146170387Y-88912319D01*
X146182805Y-88914877D01*
X146195574Y-88917066D01*
X148216735Y-88903538D01*
X148212720Y-89014501D01*
X148193752Y-89018157D01*
X148175860Y-89022528D01*
X148159085Y-89027274D01*
X148143016Y-89033124D01*
X148135707Y-89036047D01*
X148128417Y-89038965D01*
X148121486Y-89042597D01*
X148114542Y-89045894D01*
X148107975Y-89049532D01*
X148101396Y-89053557D01*
X148095197Y-89057205D01*
X148088987Y-89061597D01*
X148077687Y-89070341D01*
X148066727Y-89079459D01*
X148056147Y-89089684D01*
X148046284Y-89100264D01*
X148036799Y-89111588D01*
X148027684Y-89123631D01*
X148018920Y-89136029D01*
X148010535Y-89149547D01*
X147999949Y-91736034D01*
X148012358Y-91749188D01*
X148024759Y-91761592D01*
X148037174Y-91773624D01*
X148049939Y-91784573D01*
X148062715Y-91794785D01*
X148075497Y-91804285D01*
X148088642Y-91813035D01*
X148101759Y-91821063D01*
X148115274Y-91828361D01*
X148128417Y-91834584D01*
X148141905Y-91840406D01*
X148155794Y-91845154D01*
X148169277Y-91849548D01*
X148183154Y-91852814D01*
X148197011Y-91855743D01*
X148211272Y-91857561D01*
X148221847Y-91979093D01*
X148039738Y-91974354D01*
X147863081Y-91959761D01*
X147691559Y-91934952D01*
X147524405Y-91901364D01*
X147361622Y-91859762D01*
X147202880Y-91810845D01*
X147048111Y-91755377D01*
X146896307Y-91694055D01*
X146747766Y-91627637D01*
X146601771Y-91557197D01*
X146457975Y-91483476D01*
X146316726Y-91407208D01*
X146038633Y-91249537D01*
X145764921Y-91091134D01*
X145566729Y-90586755D01*
X145720028Y-90520700D01*
X145730602Y-90559397D01*
X145744839Y-90597721D01*
X145761620Y-90635308D01*
X145781325Y-90672166D01*
X145803958Y-90707940D01*
X145829132Y-90743351D01*
X145856504Y-90777276D01*
X145886083Y-90810492D01*
X145917461Y-90842605D01*
X145951042Y-90873632D01*
X146022929Y-90932029D01*
X146100299Y-90984928D01*
X146181693Y-91032015D01*
X146266014Y-91072541D01*
X146352126Y-91105730D01*
X146438269Y-91131650D01*
X146523302Y-91149533D01*
X146565266Y-91155385D01*
X146606156Y-91158652D01*
X146646298Y-91159757D01*
X146685355Y-91158652D01*
X146723313Y-91155009D01*
X146759800Y-91148804D01*
X146794465Y-91140049D01*
X146827676Y-91128729D01*
X146852494Y-91118152D01*
X146876963Y-91106102D01*
X146900308Y-91092987D01*
X146922934Y-91078735D01*
X146944485Y-91063036D01*
X146965639Y-91045892D01*
X146985707Y-91027651D01*
X147005414Y-91008283D01*
X147024034Y-90987476D01*
X147041557Y-90965589D01*
X147058701Y-90942593D01*
X147074766Y-90918150D01*
X147090094Y-90892590D01*
X147104329Y-90865962D01*
X147117834Y-90837852D01*
X147130616Y-90808674D01*
X147117465Y-90103180D01*
X146758344Y-90105740D01*
X146725873Y-90119984D01*
X146694841Y-90134578D01*
X146665286Y-90149537D01*
X146637546Y-90164873D01*
X146611264Y-90180543D01*
X146586077Y-90196613D01*
X146562716Y-90212683D01*
X146540450Y-90229096D01*
X146519288Y-90245528D01*
X146499946Y-90262307D01*
X146481336Y-90279099D01*
X146464192Y-90296242D01*
X146448120Y-90313048D01*
X146433161Y-90330197D01*
X146419650Y-90347347D01*
X146406874Y-90364125D01*
X146395202Y-90380930D01*
X146384240Y-90397710D01*
X146374766Y-90414142D01*
X146365647Y-90430559D01*
X146350694Y-90462669D01*
X146338636Y-90493705D01*
X146329504Y-90523263D01*
X146322938Y-90551361D01*
X146318916Y-90577288D01*
X146316726Y-90600998D01*
X146217465Y-90515957D01*
X146404685Y-89483127D01*
X146480973Y-89496605D01*
X146486445Y-89528372D01*
X146493010Y-89558663D01*
X146501036Y-89586778D01*
X146509811Y-89613031D01*
X146514921Y-89625443D01*
X146520010Y-89637489D01*
X146525851Y-89649173D01*
X146531697Y-89660109D01*
X146538259Y-89671066D01*
X146544849Y-89681288D01*
X146552149Y-89691139D01*
X146559813Y-89700620D01*
X146567476Y-89709763D01*
X146575850Y-89718502D01*
X146584992Y-89726544D01*
X146594104Y-89734582D01*
X146603951Y-89742241D01*
X146614182Y-89749168D01*
X146624762Y-89756099D01*
X146636074Y-89762677D01*
X146647767Y-89768496D01*
X146659801Y-89774359D01*
X146672569Y-89779826D01*
X146686060Y-89784950D01*
X146699947Y-89789696D01*
X146714176Y-89794055D01*
X146744827Y-89802095D01*
X147149216Y-89786028D01*
X147106879Y-89302835D01*
X147053227Y-89268517D01*
X146999587Y-89240770D01*
X146945558Y-89218885D01*
X146891562Y-89202445D01*
X146837898Y-89191144D01*
X146784612Y-89185299D01*
X146731695Y-89183490D01*
X146679511Y-89186402D01*
X146627685Y-89193333D01*
X146576963Y-89203920D01*
X146526956Y-89217778D01*
X146478052Y-89234944D01*
X146430239Y-89255021D01*
X146383904Y-89277647D01*
X146338636Y-89302464D01*
X146295198Y-89329098D01*
X146253237Y-89357572D01*
X146213084Y-89387498D01*
X146174773Y-89418155D01*
X146138626Y-89449537D01*
X146072560Y-89513780D01*
X146016005Y-89576922D01*
X145970012Y-89637489D01*
X145935712Y-89692251D01*
X145922945Y-89716695D01*
X145913461Y-89738955D01*
X145907243Y-89758653D01*
X145904690Y-89775457D01*
X145767468Y-89770353D01*
X146010535Y-88813775D01*
X146032422Y-88831654D01*
G36*
X146032422Y-88831654D02*
G01*
X146054714Y-88848808D01*
X146065993Y-88857212D01*
X146076963Y-88865248D01*
X146088264Y-88872908D01*
X146099591Y-88880197D01*
X146111263Y-88887131D01*
X146122932Y-88893324D01*
X146134617Y-88899168D01*
X146146300Y-88904287D01*
X146158331Y-88908658D01*
X146170387Y-88912319D01*
X146182805Y-88914877D01*
X146195574Y-88917066D01*
X148216735Y-88903538D01*
X148212720Y-89014501D01*
X148193752Y-89018157D01*
X148175860Y-89022528D01*
X148159085Y-89027274D01*
X148143016Y-89033124D01*
X148135707Y-89036047D01*
X148128417Y-89038965D01*
X148121486Y-89042597D01*
X148114542Y-89045894D01*
X148107975Y-89049532D01*
X148101396Y-89053557D01*
X148095197Y-89057205D01*
X148088987Y-89061597D01*
X148077687Y-89070341D01*
X148066727Y-89079459D01*
X148056147Y-89089684D01*
X148046284Y-89100264D01*
X148036799Y-89111588D01*
X148027684Y-89123631D01*
X148018920Y-89136029D01*
X148010535Y-89149547D01*
X147999949Y-91736034D01*
X148012358Y-91749188D01*
X148024759Y-91761592D01*
X148037174Y-91773624D01*
X148049939Y-91784573D01*
X148062715Y-91794785D01*
X148075497Y-91804285D01*
X148088642Y-91813035D01*
X148101759Y-91821063D01*
X148115274Y-91828361D01*
X148128417Y-91834584D01*
X148141905Y-91840406D01*
X148155794Y-91845154D01*
X148169277Y-91849548D01*
X148183154Y-91852814D01*
X148197011Y-91855743D01*
X148211272Y-91857561D01*
X148221847Y-91979093D01*
X148039738Y-91974354D01*
X147863081Y-91959761D01*
X147691559Y-91934952D01*
X147524405Y-91901364D01*
X147361622Y-91859762D01*
X147202880Y-91810845D01*
X147048111Y-91755377D01*
X146896307Y-91694055D01*
X146747766Y-91627637D01*
X146601771Y-91557197D01*
X146457975Y-91483476D01*
X146316726Y-91407208D01*
X146038633Y-91249537D01*
X145764921Y-91091134D01*
X145566729Y-90586755D01*
X145720028Y-90520700D01*
X145730602Y-90559397D01*
X145744839Y-90597721D01*
X145761620Y-90635308D01*
X145781325Y-90672166D01*
X145803958Y-90707940D01*
X145829132Y-90743351D01*
X145856504Y-90777276D01*
X145886083Y-90810492D01*
X145917461Y-90842605D01*
X145951042Y-90873632D01*
X146022929Y-90932029D01*
X146100299Y-90984928D01*
X146181693Y-91032015D01*
X146266014Y-91072541D01*
X146352126Y-91105730D01*
X146438269Y-91131650D01*
X146523302Y-91149533D01*
X146565266Y-91155385D01*
X146606156Y-91158652D01*
X146646298Y-91159757D01*
X146685355Y-91158652D01*
X146723313Y-91155009D01*
X146759800Y-91148804D01*
X146794465Y-91140049D01*
X146827676Y-91128729D01*
X146852494Y-91118152D01*
X146876963Y-91106102D01*
X146900308Y-91092987D01*
X146922934Y-91078735D01*
X146944485Y-91063036D01*
X146965639Y-91045892D01*
X146985707Y-91027651D01*
X147005414Y-91008283D01*
X147024034Y-90987476D01*
X147041557Y-90965589D01*
X147058701Y-90942593D01*
X147074766Y-90918150D01*
X147090094Y-90892590D01*
X147104329Y-90865962D01*
X147117834Y-90837852D01*
X147130616Y-90808674D01*
X147117465Y-90103180D01*
X146758344Y-90105740D01*
X146725873Y-90119984D01*
X146694841Y-90134578D01*
X146665286Y-90149537D01*
X146637546Y-90164873D01*
X146611264Y-90180543D01*
X146586077Y-90196613D01*
X146562716Y-90212683D01*
X146540450Y-90229096D01*
X146519288Y-90245528D01*
X146499946Y-90262307D01*
X146481336Y-90279099D01*
X146464192Y-90296242D01*
X146448120Y-90313048D01*
X146433161Y-90330197D01*
X146419650Y-90347347D01*
X146406874Y-90364125D01*
X146395202Y-90380930D01*
X146384240Y-90397710D01*
X146374766Y-90414142D01*
X146365647Y-90430559D01*
X146350694Y-90462669D01*
X146338636Y-90493705D01*
X146329504Y-90523263D01*
X146322938Y-90551361D01*
X146318916Y-90577288D01*
X146316726Y-90600998D01*
X146217465Y-90515957D01*
X146404685Y-89483127D01*
X146480973Y-89496605D01*
X146486445Y-89528372D01*
X146493010Y-89558663D01*
X146501036Y-89586778D01*
X146509811Y-89613031D01*
X146514921Y-89625443D01*
X146520010Y-89637489D01*
X146525851Y-89649173D01*
X146531697Y-89660109D01*
X146538259Y-89671066D01*
X146544849Y-89681288D01*
X146552149Y-89691139D01*
X146559813Y-89700620D01*
X146567476Y-89709763D01*
X146575850Y-89718502D01*
X146584992Y-89726544D01*
X146594104Y-89734582D01*
X146603951Y-89742241D01*
X146614182Y-89749168D01*
X146624762Y-89756099D01*
X146636074Y-89762677D01*
X146647767Y-89768496D01*
X146659801Y-89774359D01*
X146672569Y-89779826D01*
X146686060Y-89784950D01*
X146699947Y-89789696D01*
X146714176Y-89794055D01*
X146744827Y-89802095D01*
X147149216Y-89786028D01*
X147106879Y-89302835D01*
X147053227Y-89268517D01*
X146999587Y-89240770D01*
X146945558Y-89218885D01*
X146891562Y-89202445D01*
X146837898Y-89191144D01*
X146784612Y-89185299D01*
X146731695Y-89183490D01*
X146679511Y-89186402D01*
X146627685Y-89193333D01*
X146576963Y-89203920D01*
X146526956Y-89217778D01*
X146478052Y-89234944D01*
X146430239Y-89255021D01*
X146383904Y-89277647D01*
X146338636Y-89302464D01*
X146295198Y-89329098D01*
X146253237Y-89357572D01*
X146213084Y-89387498D01*
X146174773Y-89418155D01*
X146138626Y-89449537D01*
X146072560Y-89513780D01*
X146016005Y-89576922D01*
X145970012Y-89637489D01*
X145935712Y-89692251D01*
X145922945Y-89716695D01*
X145913461Y-89738955D01*
X145907243Y-89758653D01*
X145904690Y-89775457D01*
X145767468Y-89770353D01*
X146010535Y-88813775D01*
X146032422Y-88831654D01*
G37*
X148813080Y-83277285D02*
X148948838Y-83296985D01*
X149125116Y-83326912D01*
X149333162Y-83368523D01*
X149565258Y-83422520D01*
X149687542Y-83455021D01*
X149813094Y-83491147D01*
X149940448Y-83530923D01*
X150068556Y-83574730D01*
X150072553Y-83576916D01*
X150076592Y-83579838D01*
X150079882Y-83583837D01*
X150082442Y-83588587D01*
X150084997Y-83594071D01*
X150087176Y-83600282D01*
X150088999Y-83607197D01*
X150090451Y-83614876D01*
X150092644Y-83631285D01*
X150094105Y-83648805D01*
X150094105Y-83667787D01*
X150093737Y-83686766D01*
X150093001Y-83705379D01*
X150091545Y-83723643D01*
X150088621Y-83755381D01*
X150084624Y-83786041D01*
X150066368Y-83790045D01*
X150047026Y-83795158D01*
X150022560Y-83801732D01*
X149995930Y-83810500D01*
X149982044Y-83815229D01*
X149968201Y-83820709D01*
X149954681Y-83826564D01*
X149941551Y-83832756D01*
X149929494Y-83839332D01*
X149918197Y-83846256D01*
X149914532Y-83848819D01*
X149911262Y-83851736D01*
X149907969Y-83855010D01*
X149905051Y-83858669D01*
X149898861Y-83866702D01*
X149893373Y-83876190D01*
X149888276Y-83886035D01*
X149883535Y-83896991D01*
X149879134Y-83908291D01*
X149875496Y-83919989D01*
X149871836Y-83931671D01*
X149868913Y-83943325D01*
X149866716Y-83955024D01*
X149864536Y-83966327D01*
X149863087Y-83976917D01*
X149861980Y-83987137D01*
X149861259Y-83996252D01*
X149861259Y-84003923D01*
X149865644Y-84590787D01*
X149866716Y-85275808D01*
X149865272Y-86082036D01*
X149873665Y-86102449D01*
X149883899Y-86123990D01*
X149896654Y-86149550D01*
X149903974Y-86163043D01*
X149911981Y-86176915D01*
X149920754Y-86190431D01*
X149929494Y-86203178D01*
X149939004Y-86215249D01*
X149948489Y-86226172D01*
X149953227Y-86231297D01*
X149958336Y-86235684D01*
X149963082Y-86239679D01*
X149968201Y-86243326D01*
X149971483Y-86245165D01*
X149974759Y-86246615D01*
X149978412Y-86248088D01*
X149981691Y-86249169D01*
X149985341Y-86249913D01*
X149989366Y-86250644D01*
X149993010Y-86250995D01*
X149997035Y-86251360D01*
X150005052Y-86251360D01*
X150013441Y-86250995D01*
X150029861Y-86249913D01*
X150038262Y-86249169D01*
X150046290Y-86248807D01*
X150053960Y-86248807D01*
X150057967Y-86249169D01*
X150061617Y-86249538D01*
X150065260Y-86250280D01*
X150068922Y-86250995D01*
X150072211Y-86252098D01*
X150075477Y-86253542D01*
X150078406Y-86255017D01*
X150081694Y-86256838D01*
X150084260Y-86259030D01*
X150087176Y-86261579D01*
X150089734Y-86264875D01*
X150091915Y-86268166D01*
X150094105Y-86271794D01*
X150095924Y-86275828D01*
X150097743Y-86280193D01*
X150099215Y-86284942D01*
X150100292Y-86289683D01*
X150101408Y-86294436D01*
X150103237Y-86304652D01*
X150104327Y-86315243D01*
X150104695Y-86326192D01*
X150104695Y-86336760D01*
X150104327Y-86346980D01*
X150103960Y-86356460D01*
X150102509Y-86372896D01*
X150100292Y-86388602D01*
X148705416Y-86383486D01*
X148702855Y-86362688D01*
X148697376Y-86316324D01*
X148694823Y-86291502D01*
X148693006Y-86269987D01*
X148692630Y-86261209D01*
X148692630Y-86254656D01*
X148693006Y-86250280D01*
X148693373Y-86248807D01*
X148694115Y-86248441D01*
X148710158Y-86245880D01*
X148726596Y-86242992D01*
X148743376Y-86238953D01*
X148760529Y-86234213D01*
X148777318Y-86228373D01*
X148793745Y-86221430D01*
X148802142Y-86217071D01*
X148809806Y-86212688D01*
X148817838Y-86207952D01*
X148825140Y-86202470D01*
X148832800Y-86196625D01*
X148839728Y-86190431D01*
X148846667Y-86183473D01*
X148853215Y-86176175D01*
X148859434Y-86168519D01*
X148865281Y-86160143D01*
X148871101Y-86150999D01*
X148876213Y-86141511D01*
X148880966Y-86130923D01*
X148885348Y-86120339D01*
X148888988Y-86108677D01*
X148892651Y-86096262D01*
X148895575Y-86083488D01*
X148897766Y-86069618D01*
X148899577Y-86055004D01*
X148900680Y-86039675D01*
X148909422Y-85874346D01*
X148915984Y-85704664D01*
X148920390Y-85534572D01*
X148921834Y-85367059D01*
X148920752Y-85206102D01*
X148916364Y-85054658D01*
X148909061Y-84916685D01*
X148898134Y-84795521D01*
X148897389Y-84789327D01*
X148896289Y-84783477D01*
X148894833Y-84777639D01*
X148893364Y-84772179D01*
X148891544Y-84766699D01*
X148889716Y-84761229D01*
X148887543Y-84756115D01*
X148884988Y-84751010D01*
X148882432Y-84746260D01*
X148879514Y-84741522D01*
X148876579Y-84737142D01*
X148873294Y-84733119D01*
X148870019Y-84729108D01*
X148866361Y-84725453D01*
X148862725Y-84722178D01*
X148858693Y-84718895D01*
X148854689Y-84715977D01*
X148850663Y-84713419D01*
X148846293Y-84711220D01*
X148841910Y-84709404D01*
X148837535Y-84707933D01*
X148832800Y-84706485D01*
X148828039Y-84705742D01*
X148823294Y-84705009D01*
X148818548Y-84705009D01*
X148813443Y-84705009D01*
X148808328Y-84705742D01*
X148803589Y-84706846D01*
X148798113Y-84708298D01*
X148792996Y-84710124D01*
X148787893Y-84712678D01*
X148782441Y-84715589D01*
X148730229Y-84749888D01*
X148677680Y-84792604D01*
X148625859Y-84842613D01*
X148575127Y-84898814D01*
X148524765Y-84961210D01*
X148476215Y-85028384D01*
X148429136Y-85100274D01*
X148383887Y-85175451D01*
X148340453Y-85253923D01*
X148299951Y-85334214D01*
X148261629Y-85416324D01*
X148226595Y-85498818D01*
X148194825Y-85581657D01*
X148166375Y-85663776D01*
X148141905Y-85744433D01*
X148121486Y-85823273D01*
X148116378Y-85845907D01*
X148111988Y-85869606D01*
X148108356Y-85893352D01*
X148105422Y-85917791D01*
X148100675Y-85967791D01*
X148097388Y-86018889D01*
X148089730Y-86229833D01*
X148089730Y-86234582D01*
X148090461Y-86238953D01*
X148091910Y-86242992D01*
X148094100Y-86246257D01*
X148096303Y-86249538D01*
X148099574Y-86252456D01*
X148102867Y-86255017D01*
X148106877Y-86257208D01*
X148111277Y-86259389D01*
X148116003Y-86261209D01*
X148126229Y-86264503D01*
X148137163Y-86267066D01*
X148149200Y-86269610D01*
X148173305Y-86274356D01*
X148185350Y-86276920D01*
X148196673Y-86280575D01*
X148201775Y-86282397D01*
X148206889Y-86284579D01*
X148211637Y-86287124D01*
X148216371Y-86289683D01*
X148220381Y-86292610D01*
X148224040Y-86296247D01*
X148226974Y-86299911D01*
X148229863Y-86303914D01*
X148230965Y-86306462D01*
X148232068Y-86309397D01*
X148233156Y-86312313D01*
X148233892Y-86315243D01*
X148234263Y-86318522D01*
X148234628Y-86321797D01*
X148234976Y-86325456D01*
X148234976Y-86329101D01*
X148234976Y-86336393D01*
X148234628Y-86343718D01*
X148233892Y-86351360D01*
X148232788Y-86358674D01*
X148231337Y-86365606D01*
X148229863Y-86372172D01*
X148227313Y-86383486D01*
X148224412Y-86393706D01*
X146797769Y-86399165D01*
X146791534Y-86376532D01*
X146786453Y-86353191D01*
X146783900Y-86339677D01*
X146781691Y-86325456D01*
X146780244Y-86311202D01*
X146779509Y-86296979D01*
X146779869Y-86283118D01*
X146780244Y-86276540D01*
X146781340Y-86270350D01*
X146782426Y-86264139D01*
X146783900Y-86258654D01*
X146786091Y-86253542D01*
X146788643Y-86248807D01*
X146791534Y-86244433D01*
X146794831Y-86240765D01*
X146798866Y-86237869D01*
X146803232Y-86235312D01*
X146823300Y-86225803D01*
X146842638Y-86216695D01*
X146860887Y-86207212D01*
X146878407Y-86197727D01*
X146894823Y-86187867D01*
X146910518Y-86177655D01*
X146925493Y-86167069D01*
X146939368Y-86156481D01*
X146952494Y-86145169D01*
X146964921Y-86133481D01*
X146976588Y-86121442D01*
X146987539Y-86108677D01*
X146997748Y-86095143D01*
X147007618Y-86080935D01*
X147016737Y-86065962D01*
X147025133Y-86050275D01*
X147084624Y-85927268D01*
X147142652Y-85800271D01*
X147254677Y-85537859D01*
X147366745Y-85270335D01*
X147483888Y-85004643D01*
X147545924Y-84874726D01*
X147610901Y-84747709D01*
X147679861Y-84624722D01*
X147752859Y-84506475D01*
X147831341Y-84394063D01*
X147915281Y-84288590D01*
X148005787Y-84190425D01*
X148053238Y-84144431D01*
X148102867Y-84100654D01*
X148118189Y-84086051D01*
X148129135Y-84071066D01*
X148136091Y-84056470D01*
X148139011Y-84041876D01*
X148138641Y-84027282D01*
X148134610Y-84012695D01*
X148127690Y-83998447D01*
X148117460Y-83983843D01*
X148104680Y-83969621D01*
X148089353Y-83955369D01*
X148051049Y-83927650D01*
X148005061Y-83900630D01*
X147952504Y-83874359D01*
X147895210Y-83849184D01*
X147834629Y-83825082D01*
X147709429Y-83781298D01*
X147590465Y-83744079D01*
X147490101Y-83714870D01*
X147474772Y-83710868D01*
X147459068Y-83707573D01*
X147424401Y-83701722D01*
X147387182Y-83698101D01*
X147348482Y-83695906D01*
X147308345Y-83694802D01*
X147267828Y-83695175D01*
X147227687Y-83696276D01*
X147188642Y-83698101D01*
X147116734Y-83702828D01*
X147057989Y-83708673D01*
X147003952Y-83714870D01*
X147014549Y-83492962D01*
X147159057Y-83452471D01*
X147315634Y-83412310D01*
X147507247Y-83367780D01*
X147717452Y-83326198D01*
X147824409Y-83308666D01*
X147929875Y-83294076D01*
X148032055Y-83283858D01*
X148129135Y-83278758D01*
X148218557Y-83279467D01*
X148298483Y-83286762D01*
X148302135Y-83287504D01*
X148305410Y-83288610D01*
X148308339Y-83290057D01*
X148311264Y-83292246D01*
X148313813Y-83294431D01*
X148316001Y-83296985D01*
X148318189Y-83299540D01*
X148320032Y-83302821D01*
X148321468Y-83306124D01*
X148322926Y-83309759D01*
X148324036Y-83313424D01*
X148325144Y-83317426D01*
X148326590Y-83325826D01*
X148327328Y-83334574D01*
X148327328Y-83344077D01*
X148326957Y-83353559D01*
X148325860Y-83363050D01*
X148324406Y-83372530D01*
X148322224Y-83381668D01*
X148320032Y-83390412D01*
X148317471Y-83398447D01*
X148314187Y-83405744D01*
X148311264Y-83411592D01*
X148307973Y-83416699D01*
X148303954Y-83421078D01*
X148299951Y-83425082D01*
X148295193Y-83428741D01*
X148290080Y-83431666D01*
X148284972Y-83434584D01*
X148279506Y-83436779D01*
X148273670Y-83438955D01*
X148267461Y-83440411D01*
X148255047Y-83443338D01*
X148242274Y-83445526D01*
X148229149Y-83447358D01*
X148216371Y-83449181D01*
X148203595Y-83451367D01*
X148191562Y-83454286D01*
X148186075Y-83456112D01*
X148180600Y-83458301D01*
X148175495Y-83460853D01*
X148170374Y-83463401D01*
X148166009Y-83466692D01*
X148161635Y-83470698D01*
X148157984Y-83474733D01*
X148154682Y-83479476D01*
X148151757Y-83484953D01*
X148149573Y-83490778D01*
X148147752Y-83496257D01*
X148146648Y-83501736D01*
X148145570Y-83507212D01*
X148144830Y-83513042D01*
X148144460Y-83525443D01*
X148144460Y-83538225D01*
X148145938Y-83551368D01*
X148147752Y-83564508D01*
X148150676Y-83578364D01*
X148153969Y-83591873D01*
X148157984Y-83605380D01*
X148162349Y-83618873D01*
X148167459Y-83632019D01*
X148172571Y-83644433D01*
X148178050Y-83656834D01*
X148183895Y-83668161D01*
X148189712Y-83678760D01*
X148195564Y-83688233D01*
X148213083Y-83714870D01*
X148232419Y-83742234D01*
X148276220Y-83798823D01*
X148325860Y-83856845D01*
X148379887Y-83915603D01*
X148436796Y-83974722D01*
X148495578Y-84032766D01*
X148554687Y-84089321D01*
X148613082Y-84143348D01*
X148722560Y-84240778D01*
X148813080Y-84318517D01*
X148898134Y-84388592D01*
X148880966Y-83514146D01*
X148699934Y-83432036D01*
X148694823Y-83263056D01*
X148813080Y-83277285D01*
G36*
X148813080Y-83277285D02*
G01*
X148948838Y-83296985D01*
X149125116Y-83326912D01*
X149333162Y-83368523D01*
X149565258Y-83422520D01*
X149687542Y-83455021D01*
X149813094Y-83491147D01*
X149940448Y-83530923D01*
X150068556Y-83574730D01*
X150072553Y-83576916D01*
X150076592Y-83579838D01*
X150079882Y-83583837D01*
X150082442Y-83588587D01*
X150084997Y-83594071D01*
X150087176Y-83600282D01*
X150088999Y-83607197D01*
X150090451Y-83614876D01*
X150092644Y-83631285D01*
X150094105Y-83648805D01*
X150094105Y-83667787D01*
X150093737Y-83686766D01*
X150093001Y-83705379D01*
X150091545Y-83723643D01*
X150088621Y-83755381D01*
X150084624Y-83786041D01*
X150066368Y-83790045D01*
X150047026Y-83795158D01*
X150022560Y-83801732D01*
X149995930Y-83810500D01*
X149982044Y-83815229D01*
X149968201Y-83820709D01*
X149954681Y-83826564D01*
X149941551Y-83832756D01*
X149929494Y-83839332D01*
X149918197Y-83846256D01*
X149914532Y-83848819D01*
X149911262Y-83851736D01*
X149907969Y-83855010D01*
X149905051Y-83858669D01*
X149898861Y-83866702D01*
X149893373Y-83876190D01*
X149888276Y-83886035D01*
X149883535Y-83896991D01*
X149879134Y-83908291D01*
X149875496Y-83919989D01*
X149871836Y-83931671D01*
X149868913Y-83943325D01*
X149866716Y-83955024D01*
X149864536Y-83966327D01*
X149863087Y-83976917D01*
X149861980Y-83987137D01*
X149861259Y-83996252D01*
X149861259Y-84003923D01*
X149865644Y-84590787D01*
X149866716Y-85275808D01*
X149865272Y-86082036D01*
X149873665Y-86102449D01*
X149883899Y-86123990D01*
X149896654Y-86149550D01*
X149903974Y-86163043D01*
X149911981Y-86176915D01*
X149920754Y-86190431D01*
X149929494Y-86203178D01*
X149939004Y-86215249D01*
X149948489Y-86226172D01*
X149953227Y-86231297D01*
X149958336Y-86235684D01*
X149963082Y-86239679D01*
X149968201Y-86243326D01*
X149971483Y-86245165D01*
X149974759Y-86246615D01*
X149978412Y-86248088D01*
X149981691Y-86249169D01*
X149985341Y-86249913D01*
X149989366Y-86250644D01*
X149993010Y-86250995D01*
X149997035Y-86251360D01*
X150005052Y-86251360D01*
X150013441Y-86250995D01*
X150029861Y-86249913D01*
X150038262Y-86249169D01*
X150046290Y-86248807D01*
X150053960Y-86248807D01*
X150057967Y-86249169D01*
X150061617Y-86249538D01*
X150065260Y-86250280D01*
X150068922Y-86250995D01*
X150072211Y-86252098D01*
X150075477Y-86253542D01*
X150078406Y-86255017D01*
X150081694Y-86256838D01*
X150084260Y-86259030D01*
X150087176Y-86261579D01*
X150089734Y-86264875D01*
X150091915Y-86268166D01*
X150094105Y-86271794D01*
X150095924Y-86275828D01*
X150097743Y-86280193D01*
X150099215Y-86284942D01*
X150100292Y-86289683D01*
X150101408Y-86294436D01*
X150103237Y-86304652D01*
X150104327Y-86315243D01*
X150104695Y-86326192D01*
X150104695Y-86336760D01*
X150104327Y-86346980D01*
X150103960Y-86356460D01*
X150102509Y-86372896D01*
X150100292Y-86388602D01*
X148705416Y-86383486D01*
X148702855Y-86362688D01*
X148697376Y-86316324D01*
X148694823Y-86291502D01*
X148693006Y-86269987D01*
X148692630Y-86261209D01*
X148692630Y-86254656D01*
X148693006Y-86250280D01*
X148693373Y-86248807D01*
X148694115Y-86248441D01*
X148710158Y-86245880D01*
X148726596Y-86242992D01*
X148743376Y-86238953D01*
X148760529Y-86234213D01*
X148777318Y-86228373D01*
X148793745Y-86221430D01*
X148802142Y-86217071D01*
X148809806Y-86212688D01*
X148817838Y-86207952D01*
X148825140Y-86202470D01*
X148832800Y-86196625D01*
X148839728Y-86190431D01*
X148846667Y-86183473D01*
X148853215Y-86176175D01*
X148859434Y-86168519D01*
X148865281Y-86160143D01*
X148871101Y-86150999D01*
X148876213Y-86141511D01*
X148880966Y-86130923D01*
X148885348Y-86120339D01*
X148888988Y-86108677D01*
X148892651Y-86096262D01*
X148895575Y-86083488D01*
X148897766Y-86069618D01*
X148899577Y-86055004D01*
X148900680Y-86039675D01*
X148909422Y-85874346D01*
X148915984Y-85704664D01*
X148920390Y-85534572D01*
X148921834Y-85367059D01*
X148920752Y-85206102D01*
X148916364Y-85054658D01*
X148909061Y-84916685D01*
X148898134Y-84795521D01*
X148897389Y-84789327D01*
X148896289Y-84783477D01*
X148894833Y-84777639D01*
X148893364Y-84772179D01*
X148891544Y-84766699D01*
X148889716Y-84761229D01*
X148887543Y-84756115D01*
X148884988Y-84751010D01*
X148882432Y-84746260D01*
X148879514Y-84741522D01*
X148876579Y-84737142D01*
X148873294Y-84733119D01*
X148870019Y-84729108D01*
X148866361Y-84725453D01*
X148862725Y-84722178D01*
X148858693Y-84718895D01*
X148854689Y-84715977D01*
X148850663Y-84713419D01*
X148846293Y-84711220D01*
X148841910Y-84709404D01*
X148837535Y-84707933D01*
X148832800Y-84706485D01*
X148828039Y-84705742D01*
X148823294Y-84705009D01*
X148818548Y-84705009D01*
X148813443Y-84705009D01*
X148808328Y-84705742D01*
X148803589Y-84706846D01*
X148798113Y-84708298D01*
X148792996Y-84710124D01*
X148787893Y-84712678D01*
X148782441Y-84715589D01*
X148730229Y-84749888D01*
X148677680Y-84792604D01*
X148625859Y-84842613D01*
X148575127Y-84898814D01*
X148524765Y-84961210D01*
X148476215Y-85028384D01*
X148429136Y-85100274D01*
X148383887Y-85175451D01*
X148340453Y-85253923D01*
X148299951Y-85334214D01*
X148261629Y-85416324D01*
X148226595Y-85498818D01*
X148194825Y-85581657D01*
X148166375Y-85663776D01*
X148141905Y-85744433D01*
X148121486Y-85823273D01*
X148116378Y-85845907D01*
X148111988Y-85869606D01*
X148108356Y-85893352D01*
X148105422Y-85917791D01*
X148100675Y-85967791D01*
X148097388Y-86018889D01*
X148089730Y-86229833D01*
X148089730Y-86234582D01*
X148090461Y-86238953D01*
X148091910Y-86242992D01*
X148094100Y-86246257D01*
X148096303Y-86249538D01*
X148099574Y-86252456D01*
X148102867Y-86255017D01*
X148106877Y-86257208D01*
X148111277Y-86259389D01*
X148116003Y-86261209D01*
X148126229Y-86264503D01*
X148137163Y-86267066D01*
X148149200Y-86269610D01*
X148173305Y-86274356D01*
X148185350Y-86276920D01*
X148196673Y-86280575D01*
X148201775Y-86282397D01*
X148206889Y-86284579D01*
X148211637Y-86287124D01*
X148216371Y-86289683D01*
X148220381Y-86292610D01*
X148224040Y-86296247D01*
X148226974Y-86299911D01*
X148229863Y-86303914D01*
X148230965Y-86306462D01*
X148232068Y-86309397D01*
X148233156Y-86312313D01*
X148233892Y-86315243D01*
X148234263Y-86318522D01*
X148234628Y-86321797D01*
X148234976Y-86325456D01*
X148234976Y-86329101D01*
X148234976Y-86336393D01*
X148234628Y-86343718D01*
X148233892Y-86351360D01*
X148232788Y-86358674D01*
X148231337Y-86365606D01*
X148229863Y-86372172D01*
X148227313Y-86383486D01*
X148224412Y-86393706D01*
X146797769Y-86399165D01*
X146791534Y-86376532D01*
X146786453Y-86353191D01*
X146783900Y-86339677D01*
X146781691Y-86325456D01*
X146780244Y-86311202D01*
X146779509Y-86296979D01*
X146779869Y-86283118D01*
X146780244Y-86276540D01*
X146781340Y-86270350D01*
X146782426Y-86264139D01*
X146783900Y-86258654D01*
X146786091Y-86253542D01*
X146788643Y-86248807D01*
X146791534Y-86244433D01*
X146794831Y-86240765D01*
X146798866Y-86237869D01*
X146803232Y-86235312D01*
X146823300Y-86225803D01*
X146842638Y-86216695D01*
X146860887Y-86207212D01*
X146878407Y-86197727D01*
X146894823Y-86187867D01*
X146910518Y-86177655D01*
X146925493Y-86167069D01*
X146939368Y-86156481D01*
X146952494Y-86145169D01*
X146964921Y-86133481D01*
X146976588Y-86121442D01*
X146987539Y-86108677D01*
X146997748Y-86095143D01*
X147007618Y-86080935D01*
X147016737Y-86065962D01*
X147025133Y-86050275D01*
X147084624Y-85927268D01*
X147142652Y-85800271D01*
X147254677Y-85537859D01*
X147366745Y-85270335D01*
X147483888Y-85004643D01*
X147545924Y-84874726D01*
X147610901Y-84747709D01*
X147679861Y-84624722D01*
X147752859Y-84506475D01*
X147831341Y-84394063D01*
X147915281Y-84288590D01*
X148005787Y-84190425D01*
X148053238Y-84144431D01*
X148102867Y-84100654D01*
X148118189Y-84086051D01*
X148129135Y-84071066D01*
X148136091Y-84056470D01*
X148139011Y-84041876D01*
X148138641Y-84027282D01*
X148134610Y-84012695D01*
X148127690Y-83998447D01*
X148117460Y-83983843D01*
X148104680Y-83969621D01*
X148089353Y-83955369D01*
X148051049Y-83927650D01*
X148005061Y-83900630D01*
X147952504Y-83874359D01*
X147895210Y-83849184D01*
X147834629Y-83825082D01*
X147709429Y-83781298D01*
X147590465Y-83744079D01*
X147490101Y-83714870D01*
X147474772Y-83710868D01*
X147459068Y-83707573D01*
X147424401Y-83701722D01*
X147387182Y-83698101D01*
X147348482Y-83695906D01*
X147308345Y-83694802D01*
X147267828Y-83695175D01*
X147227687Y-83696276D01*
X147188642Y-83698101D01*
X147116734Y-83702828D01*
X147057989Y-83708673D01*
X147003952Y-83714870D01*
X147014549Y-83492962D01*
X147159057Y-83452471D01*
X147315634Y-83412310D01*
X147507247Y-83367780D01*
X147717452Y-83326198D01*
X147824409Y-83308666D01*
X147929875Y-83294076D01*
X148032055Y-83283858D01*
X148129135Y-83278758D01*
X148218557Y-83279467D01*
X148298483Y-83286762D01*
X148302135Y-83287504D01*
X148305410Y-83288610D01*
X148308339Y-83290057D01*
X148311264Y-83292246D01*
X148313813Y-83294431D01*
X148316001Y-83296985D01*
X148318189Y-83299540D01*
X148320032Y-83302821D01*
X148321468Y-83306124D01*
X148322926Y-83309759D01*
X148324036Y-83313424D01*
X148325144Y-83317426D01*
X148326590Y-83325826D01*
X148327328Y-83334574D01*
X148327328Y-83344077D01*
X148326957Y-83353559D01*
X148325860Y-83363050D01*
X148324406Y-83372530D01*
X148322224Y-83381668D01*
X148320032Y-83390412D01*
X148317471Y-83398447D01*
X148314187Y-83405744D01*
X148311264Y-83411592D01*
X148307973Y-83416699D01*
X148303954Y-83421078D01*
X148299951Y-83425082D01*
X148295193Y-83428741D01*
X148290080Y-83431666D01*
X148284972Y-83434584D01*
X148279506Y-83436779D01*
X148273670Y-83438955D01*
X148267461Y-83440411D01*
X148255047Y-83443338D01*
X148242274Y-83445526D01*
X148229149Y-83447358D01*
X148216371Y-83449181D01*
X148203595Y-83451367D01*
X148191562Y-83454286D01*
X148186075Y-83456112D01*
X148180600Y-83458301D01*
X148175495Y-83460853D01*
X148170374Y-83463401D01*
X148166009Y-83466692D01*
X148161635Y-83470698D01*
X148157984Y-83474733D01*
X148154682Y-83479476D01*
X148151757Y-83484953D01*
X148149573Y-83490778D01*
X148147752Y-83496257D01*
X148146648Y-83501736D01*
X148145570Y-83507212D01*
X148144830Y-83513042D01*
X148144460Y-83525443D01*
X148144460Y-83538225D01*
X148145938Y-83551368D01*
X148147752Y-83564508D01*
X148150676Y-83578364D01*
X148153969Y-83591873D01*
X148157984Y-83605380D01*
X148162349Y-83618873D01*
X148167459Y-83632019D01*
X148172571Y-83644433D01*
X148178050Y-83656834D01*
X148183895Y-83668161D01*
X148189712Y-83678760D01*
X148195564Y-83688233D01*
X148213083Y-83714870D01*
X148232419Y-83742234D01*
X148276220Y-83798823D01*
X148325860Y-83856845D01*
X148379887Y-83915603D01*
X148436796Y-83974722D01*
X148495578Y-84032766D01*
X148554687Y-84089321D01*
X148613082Y-84143348D01*
X148722560Y-84240778D01*
X148813080Y-84318517D01*
X148898134Y-84388592D01*
X148880966Y-83514146D01*
X148699934Y-83432036D01*
X148694823Y-83263056D01*
X148813080Y-83277285D01*
G37*
D15*
X110843920Y-70938509D02*
X110843920Y-70938509D01*
G75*
G02*
X113843920Y-67938509I2999980J9D01*
G01*
X131843920Y-67938509D01*
G75*
G02*
X134843920Y-70938509I-20J-2999991D01*
G01*
X134843920Y-88938509D01*
G75*
G02*
X131843920Y-91938509I-3000020J9D01*
G01*
X113843920Y-91938509D01*
G75*
G02*
X110843920Y-88938509I-20J3000009D01*
G01*
X110843920Y-70938509D01*
G36*
X110843920Y-70938509D02*
G01*
X110843920Y-70938509D01*
G75*
G02*
X113843920Y-67938509I2999980J9D01*
G01*
X131843920Y-67938509D01*
G75*
G02*
X134843920Y-70938509I-20J-2999991D01*
G01*
X134843920Y-88938509D01*
G75*
G02*
X131843920Y-91938509I-3000020J9D01*
G01*
X113843920Y-91938509D01*
G75*
G02*
X110843920Y-88938509I-20J3000009D01*
G01*
X110843920Y-70938509D01*
G37*
D16*
X154547500Y-69216379D02*
X154547500Y-68316379D01*
X154461786Y-68873522D02*
X154204643Y-69216379D01*
X154204643Y-68616379D02*
X154547500Y-68959236D01*
X153947500Y-68616379D02*
X153604643Y-68616379D01*
X153818929Y-68316379D02*
X153818929Y-69087807D01*
X153818929Y-69087807D02*
X153776072Y-69173522D01*
X153776072Y-69173522D02*
X153690357Y-69216379D01*
X153690357Y-69216379D02*
X153604643Y-69216379D01*
X152961786Y-69173522D02*
X153047500Y-69216379D01*
X153047500Y-69216379D02*
X153218929Y-69216379D01*
X153218929Y-69216379D02*
X153304643Y-69173522D01*
X153304643Y-69173522D02*
X153347500Y-69087807D01*
X153347500Y-69087807D02*
X153347500Y-68744950D01*
X153347500Y-68744950D02*
X153304643Y-68659236D01*
X153304643Y-68659236D02*
X153218929Y-68616379D01*
X153218929Y-68616379D02*
X153047500Y-68616379D01*
X153047500Y-68616379D02*
X152961786Y-68659236D01*
X152961786Y-68659236D02*
X152918929Y-68744950D01*
X152918929Y-68744950D02*
X152918929Y-68830664D01*
X152918929Y-68830664D02*
X153347500Y-68916379D01*
X152533214Y-69130664D02*
X152490357Y-69173522D01*
X152490357Y-69173522D02*
X152533214Y-69216379D01*
X152533214Y-69216379D02*
X152576071Y-69173522D01*
X152576071Y-69173522D02*
X152533214Y-69130664D01*
X152533214Y-69130664D02*
X152533214Y-69216379D01*
X152190357Y-68616379D02*
X152018929Y-69216379D01*
X152018929Y-69216379D02*
X151847500Y-68787807D01*
X151847500Y-68787807D02*
X151676071Y-69216379D01*
X151676071Y-69216379D02*
X151504643Y-68616379D01*
X150818929Y-69173522D02*
X150904643Y-69216379D01*
X150904643Y-69216379D02*
X151076072Y-69216379D01*
X151076072Y-69216379D02*
X151161786Y-69173522D01*
X151161786Y-69173522D02*
X151204643Y-69087807D01*
X151204643Y-69087807D02*
X151204643Y-68744950D01*
X151204643Y-68744950D02*
X151161786Y-68659236D01*
X151161786Y-68659236D02*
X151076072Y-68616379D01*
X151076072Y-68616379D02*
X150904643Y-68616379D01*
X150904643Y-68616379D02*
X150818929Y-68659236D01*
X150818929Y-68659236D02*
X150776072Y-68744950D01*
X150776072Y-68744950D02*
X150776072Y-68830664D01*
X150776072Y-68830664D02*
X151204643Y-68916379D01*
X150390357Y-69216379D02*
X150390357Y-68316379D01*
X150390357Y-68659236D02*
X150304643Y-68616379D01*
X150304643Y-68616379D02*
X150133214Y-68616379D01*
X150133214Y-68616379D02*
X150047500Y-68659236D01*
X150047500Y-68659236D02*
X150004643Y-68702093D01*
X150004643Y-68702093D02*
X149961785Y-68787807D01*
X149961785Y-68787807D02*
X149961785Y-69044950D01*
X149961785Y-69044950D02*
X150004643Y-69130664D01*
X150004643Y-69130664D02*
X150047500Y-69173522D01*
X150047500Y-69173522D02*
X150133214Y-69216379D01*
X150133214Y-69216379D02*
X150304643Y-69216379D01*
X150304643Y-69216379D02*
X150390357Y-69173522D01*
X149618928Y-69173522D02*
X149533214Y-69216379D01*
X149533214Y-69216379D02*
X149361785Y-69216379D01*
X149361785Y-69216379D02*
X149276071Y-69173522D01*
X149276071Y-69173522D02*
X149233214Y-69087807D01*
X149233214Y-69087807D02*
X149233214Y-69044950D01*
X149233214Y-69044950D02*
X149276071Y-68959236D01*
X149276071Y-68959236D02*
X149361785Y-68916379D01*
X149361785Y-68916379D02*
X149490357Y-68916379D01*
X149490357Y-68916379D02*
X149576071Y-68873522D01*
X149576071Y-68873522D02*
X149618928Y-68787807D01*
X149618928Y-68787807D02*
X149618928Y-68744950D01*
X149618928Y-68744950D02*
X149576071Y-68659236D01*
X149576071Y-68659236D02*
X149490357Y-68616379D01*
X149490357Y-68616379D02*
X149361785Y-68616379D01*
X149361785Y-68616379D02*
X149276071Y-68659236D01*
X148847500Y-69216379D02*
X148847500Y-68616379D01*
X148847500Y-68316379D02*
X148890357Y-68359236D01*
X148890357Y-68359236D02*
X148847500Y-68402093D01*
X148847500Y-68402093D02*
X148804643Y-68359236D01*
X148804643Y-68359236D02*
X148847500Y-68316379D01*
X148847500Y-68316379D02*
X148847500Y-68402093D01*
X148547500Y-68616379D02*
X148204643Y-68616379D01*
X148418929Y-68316379D02*
X148418929Y-69087807D01*
X148418929Y-69087807D02*
X148376072Y-69173522D01*
X148376072Y-69173522D02*
X148290357Y-69216379D01*
X148290357Y-69216379D02*
X148204643Y-69216379D01*
X147561786Y-69173522D02*
X147647500Y-69216379D01*
X147647500Y-69216379D02*
X147818929Y-69216379D01*
X147818929Y-69216379D02*
X147904643Y-69173522D01*
X147904643Y-69173522D02*
X147947500Y-69087807D01*
X147947500Y-69087807D02*
X147947500Y-68744950D01*
X147947500Y-68744950D02*
X147904643Y-68659236D01*
X147904643Y-68659236D02*
X147818929Y-68616379D01*
X147818929Y-68616379D02*
X147647500Y-68616379D01*
X147647500Y-68616379D02*
X147561786Y-68659236D01*
X147561786Y-68659236D02*
X147518929Y-68744950D01*
X147518929Y-68744950D02*
X147518929Y-68830664D01*
X147518929Y-68830664D02*
X147947500Y-68916379D01*
X147133214Y-69130664D02*
X147090357Y-69173522D01*
X147090357Y-69173522D02*
X147133214Y-69216379D01*
X147133214Y-69216379D02*
X147176071Y-69173522D01*
X147176071Y-69173522D02*
X147133214Y-69130664D01*
X147133214Y-69130664D02*
X147133214Y-69216379D01*
X146833214Y-68616379D02*
X146490357Y-68616379D01*
X146704643Y-68316379D02*
X146704643Y-69087807D01*
X146704643Y-69087807D02*
X146661786Y-69173522D01*
X146661786Y-69173522D02*
X146576071Y-69216379D01*
X146576071Y-69216379D02*
X146490357Y-69216379D01*
X145804643Y-68616379D02*
X145804643Y-69216379D01*
X146190357Y-68616379D02*
X146190357Y-69087807D01*
X146190357Y-69087807D02*
X146147500Y-69173522D01*
X146147500Y-69173522D02*
X146061785Y-69216379D01*
X146061785Y-69216379D02*
X145933214Y-69216379D01*
X145933214Y-69216379D02*
X145847500Y-69173522D01*
X145847500Y-69173522D02*
X145804643Y-69130664D01*
X145376071Y-69216379D02*
X145376071Y-68316379D01*
X145290357Y-68873522D02*
X145033214Y-69216379D01*
X145033214Y-68616379D02*
X145376071Y-68959236D01*
X144304643Y-69173522D02*
X144390357Y-69216379D01*
X144390357Y-69216379D02*
X144561786Y-69216379D01*
X144561786Y-69216379D02*
X144647500Y-69173522D01*
X144647500Y-69173522D02*
X144690357Y-69087807D01*
X144690357Y-69087807D02*
X144690357Y-68744950D01*
X144690357Y-68744950D02*
X144647500Y-68659236D01*
X144647500Y-68659236D02*
X144561786Y-68616379D01*
X144561786Y-68616379D02*
X144390357Y-68616379D01*
X144390357Y-68616379D02*
X144304643Y-68659236D01*
X144304643Y-68659236D02*
X144261786Y-68744950D01*
X144261786Y-68744950D02*
X144261786Y-68830664D01*
X144261786Y-68830664D02*
X144690357Y-68916379D01*
X143876071Y-69130664D02*
X143833214Y-69173522D01*
X143833214Y-69173522D02*
X143876071Y-69216379D01*
X143876071Y-69216379D02*
X143918928Y-69173522D01*
X143918928Y-69173522D02*
X143876071Y-69130664D01*
X143876071Y-69130664D02*
X143876071Y-69216379D01*
X143490357Y-69173522D02*
X143404643Y-69216379D01*
X143404643Y-69216379D02*
X143233214Y-69216379D01*
X143233214Y-69216379D02*
X143147500Y-69173522D01*
X143147500Y-69173522D02*
X143104643Y-69087807D01*
X143104643Y-69087807D02*
X143104643Y-69044950D01*
X143104643Y-69044950D02*
X143147500Y-68959236D01*
X143147500Y-68959236D02*
X143233214Y-68916379D01*
X143233214Y-68916379D02*
X143361786Y-68916379D01*
X143361786Y-68916379D02*
X143447500Y-68873522D01*
X143447500Y-68873522D02*
X143490357Y-68787807D01*
X143490357Y-68787807D02*
X143490357Y-68744950D01*
X143490357Y-68744950D02*
X143447500Y-68659236D01*
X143447500Y-68659236D02*
X143361786Y-68616379D01*
X143361786Y-68616379D02*
X143233214Y-68616379D01*
X143233214Y-68616379D02*
X143147500Y-68659236D01*
X142718929Y-69216379D02*
X142718929Y-68316379D01*
X142633215Y-68873522D02*
X142376072Y-69216379D01*
X142376072Y-68616379D02*
X142718929Y-68959236D01*
D11*
G36*
X144118956Y-77778825D02*
G01*
X144498956Y-77778825D01*
X144498956Y-78158825D01*
X144878956Y-78158825D01*
X144878956Y-78918825D01*
X144878956Y-79298825D01*
X143738956Y-79298825D01*
X143738956Y-78918825D01*
X144118956Y-78918825D01*
X144118956Y-78158825D01*
X143738956Y-78158825D01*
X143738956Y-77778825D01*
X143738956Y-77018825D01*
X144118956Y-77018825D01*
X144118956Y-77778825D01*
G37*
G36*
X145638956Y-78918825D02*
G01*
X146018956Y-78918825D01*
X146018956Y-79298825D01*
X145258956Y-79298825D01*
X145258956Y-78918825D01*
X145258956Y-78538825D01*
X145638956Y-78538825D01*
X145638956Y-78918825D01*
G37*
G36*
X147918956Y-78918825D02*
G01*
X148298956Y-78918825D01*
X148298956Y-79298825D01*
X147158956Y-79298825D01*
X147158956Y-78918825D01*
X147538956Y-78918825D01*
X147538956Y-78538825D01*
X147918956Y-78538825D01*
X147918956Y-78918825D01*
G37*
G36*
X149058956Y-79298825D02*
G01*
X148678956Y-79298825D01*
X148678956Y-78918825D01*
X149058956Y-78918825D01*
X149058956Y-79298825D01*
G37*
G36*
X149818956Y-78538825D02*
G01*
X150198956Y-78538825D01*
X150198956Y-79298825D01*
X149438956Y-79298825D01*
X149438956Y-78538825D01*
X149058956Y-78538825D01*
X149058956Y-78158825D01*
X149818956Y-78158825D01*
X149818956Y-78538825D01*
G37*
G36*
X152478956Y-78538825D02*
G01*
X151338956Y-78538825D01*
X151338956Y-77398825D01*
X152478956Y-77398825D01*
X152478956Y-78538825D01*
G37*
G36*
X153238956Y-78918825D02*
G01*
X153238956Y-79298825D01*
X150578956Y-79298825D01*
X150578956Y-78918825D01*
X150578956Y-77018825D01*
X150958956Y-77018825D01*
X150958956Y-78918825D01*
X152858956Y-78918825D01*
X152858956Y-77018825D01*
X150958956Y-77018825D01*
X150578956Y-77018825D01*
X150578956Y-76638825D01*
X153238956Y-76638825D01*
X153238956Y-77018825D01*
X153238956Y-78918825D01*
G37*
G36*
X146398956Y-77018825D02*
G01*
X146018956Y-77018825D01*
X146018956Y-76638825D01*
X146398956Y-76638825D01*
X146398956Y-77018825D01*
G37*
G36*
X147538956Y-76258825D02*
G01*
X147538956Y-76638825D01*
X147158956Y-76638825D01*
X147158956Y-77398825D01*
X147158956Y-77778825D01*
X146398956Y-77778825D01*
X146398956Y-78158825D01*
X147158956Y-78158825D01*
X147158956Y-78538825D01*
X146398956Y-78538825D01*
X146398956Y-78918825D01*
X146018956Y-78918825D01*
X146018956Y-78538825D01*
X145638956Y-78538825D01*
X145638956Y-78158825D01*
X146018956Y-78158825D01*
X146018956Y-77778825D01*
X145258956Y-77778825D01*
X145258956Y-77398825D01*
X145258956Y-76638825D01*
X144878956Y-76638825D01*
X144878956Y-76258825D01*
X145638956Y-76258825D01*
X145638956Y-76638825D01*
X145638956Y-77398825D01*
X146778956Y-77398825D01*
X146778956Y-76638825D01*
X146778956Y-76258825D01*
X145638956Y-76258825D01*
X144878956Y-76258825D01*
X144498956Y-76258825D01*
X144498956Y-75878825D01*
X144498956Y-75498825D01*
X144878956Y-75498825D01*
X144878956Y-75878825D01*
X147158956Y-75878825D01*
X147158956Y-75498825D01*
X147158956Y-75118825D01*
X146778956Y-75118825D01*
X146778956Y-74738825D01*
X147158956Y-74738825D01*
X147158956Y-74358825D01*
X147538956Y-74358825D01*
X147538956Y-74738825D01*
X147918956Y-74738825D01*
X147918956Y-74358825D01*
X148298956Y-74358825D01*
X148678956Y-74358825D01*
X148678956Y-73978825D01*
X148298956Y-73978825D01*
X148298956Y-74358825D01*
X147918956Y-74358825D01*
X147918956Y-73978825D01*
X147158956Y-73978825D01*
X147158956Y-73598825D01*
X146398956Y-73598825D01*
X146398956Y-73218825D01*
X147538956Y-73218825D01*
X147538956Y-72838825D01*
X147158956Y-72838825D01*
X147158956Y-72458825D01*
X147538956Y-72458825D01*
X147538956Y-71698825D01*
X147158956Y-71698825D01*
X147158956Y-71318825D01*
X147538956Y-71318825D01*
X147538956Y-70938825D01*
X147538956Y-70178825D01*
X147918956Y-70178825D01*
X147918956Y-70938825D01*
X148298956Y-70938825D01*
X148298956Y-71318825D01*
X147918956Y-71318825D01*
X147918956Y-71698825D01*
X147918956Y-72458825D01*
X147918956Y-72838825D01*
X148298956Y-72838825D01*
X148298956Y-73218825D01*
X147918956Y-73218825D01*
X147918956Y-73598825D01*
X148298956Y-73598825D01*
X148298956Y-73218825D01*
X148678956Y-73218825D01*
X148678956Y-73598825D01*
X149058956Y-73598825D01*
X149058956Y-73978825D01*
X149438956Y-73978825D01*
X149438956Y-74358825D01*
X149438956Y-74738825D01*
X149058956Y-74738825D01*
X149058956Y-74358825D01*
X148678956Y-74358825D01*
X148678956Y-74738825D01*
X148298956Y-74738825D01*
X148298956Y-75118825D01*
X147538956Y-75118825D01*
X147538956Y-75498825D01*
X147918956Y-75498825D01*
X147918956Y-75878825D01*
X148298956Y-75878825D01*
X148298956Y-76258825D01*
X147538956Y-76258825D01*
X147538956Y-75878825D01*
X147158956Y-75878825D01*
X147158956Y-76258825D01*
X147538956Y-76258825D01*
G37*
G36*
X148678956Y-78918825D02*
G01*
X148298956Y-78918825D01*
X148298956Y-78538825D01*
X148678956Y-78538825D01*
X148678956Y-78918825D01*
G37*
G36*
X145258956Y-78158825D02*
G01*
X144878956Y-78158825D01*
X144878956Y-77778825D01*
X145258956Y-77778825D01*
X145258956Y-78158825D01*
G37*
G36*
X148678956Y-76638825D02*
G01*
X149058956Y-76638825D01*
X149058956Y-77018825D01*
X149438956Y-77018825D01*
X149438956Y-77398825D01*
X148678956Y-77398825D01*
X148678956Y-77018825D01*
X148298956Y-77018825D01*
X148298956Y-77398825D01*
X148678956Y-77398825D01*
X148678956Y-77778825D01*
X148298956Y-77778825D01*
X148298956Y-78158825D01*
X147538956Y-78158825D01*
X147538956Y-77778825D01*
X147918956Y-77778825D01*
X147918956Y-77398825D01*
X147918956Y-77018825D01*
X147538956Y-77018825D01*
X147538956Y-76638825D01*
X148298956Y-76638825D01*
X148298956Y-76258825D01*
X148678956Y-76258825D01*
X148678956Y-76638825D01*
G37*
G36*
X144878956Y-77778825D02*
G01*
X144498956Y-77778825D01*
X144498956Y-77018825D01*
X144878956Y-77018825D01*
X144878956Y-77778825D01*
G37*
G36*
X150198956Y-77778825D02*
G01*
X149818956Y-77778825D01*
X149818956Y-77018825D01*
X150198956Y-77018825D01*
X150198956Y-77778825D01*
G37*
G36*
X150198956Y-75878825D02*
G01*
X150198956Y-76258825D01*
X150198956Y-76638825D01*
X149058956Y-76638825D01*
X149058956Y-76258825D01*
X148678956Y-76258825D01*
X148678956Y-75878825D01*
X149818956Y-75878825D01*
X149818956Y-75498825D01*
X150198956Y-75498825D01*
X150198956Y-75878825D01*
G37*
G36*
X150958956Y-76258825D02*
G01*
X150578956Y-76258825D01*
X150578956Y-75878825D01*
X150958956Y-75878825D01*
X150958956Y-76258825D01*
G37*
G36*
X151718956Y-76258825D02*
G01*
X151338956Y-76258825D01*
X151338956Y-75878825D01*
X151718956Y-75878825D01*
X151718956Y-76258825D01*
G37*
G36*
X153238956Y-76258825D02*
G01*
X152098956Y-76258825D01*
X152098956Y-75878825D01*
X153238956Y-75878825D01*
X153238956Y-76258825D01*
G37*
G36*
X144118956Y-75878825D02*
G01*
X143738956Y-75878825D01*
X143738956Y-75498825D01*
X144118956Y-75498825D01*
X144118956Y-75878825D01*
G37*
G36*
X148678956Y-75878825D02*
G01*
X148298956Y-75878825D01*
X148298956Y-75498825D01*
X148678956Y-75498825D01*
X148678956Y-75878825D01*
G37*
G36*
X151718956Y-73218825D02*
G01*
X152478956Y-73218825D01*
X152478956Y-72838825D01*
X153238956Y-72838825D01*
X153238956Y-73218825D01*
X153238956Y-73598825D01*
X153238956Y-73978825D01*
X153238956Y-74358825D01*
X153238956Y-74738825D01*
X153238956Y-75118825D01*
X152858956Y-75118825D01*
X152858956Y-74738825D01*
X152478956Y-74738825D01*
X152478956Y-75118825D01*
X152098956Y-75118825D01*
X152098956Y-74738825D01*
X152098956Y-74358825D01*
X151338956Y-74358825D01*
X151338956Y-74738825D01*
X151338956Y-75118825D01*
X152098956Y-75118825D01*
X152098956Y-75498825D01*
X152098956Y-75878825D01*
X151718956Y-75878825D01*
X151718956Y-75498825D01*
X150198956Y-75498825D01*
X150198956Y-75118825D01*
X150958956Y-75118825D01*
X150958956Y-74738825D01*
X150578956Y-74738825D01*
X150578956Y-74358825D01*
X150958956Y-74358825D01*
X150958956Y-73978825D01*
X152858956Y-73978825D01*
X152858956Y-73598825D01*
X151338956Y-73598825D01*
X151338956Y-73218825D01*
X150578956Y-73218825D01*
X150578956Y-72838825D01*
X151718956Y-72838825D01*
X151718956Y-73218825D01*
G37*
G36*
X144878956Y-73978825D02*
G01*
X145638956Y-73978825D01*
X145638956Y-74358825D01*
X144878956Y-74358825D01*
X144878956Y-74738825D01*
X145638956Y-74738825D01*
X145638956Y-75118825D01*
X146018956Y-75118825D01*
X146018956Y-75498825D01*
X144878956Y-75498825D01*
X144878956Y-75118825D01*
X144118956Y-75118825D01*
X144118956Y-74738825D01*
X143738956Y-74738825D01*
X143738956Y-74358825D01*
X144118956Y-74358825D01*
X144118956Y-73978825D01*
X144498956Y-73978825D01*
X144498956Y-73598825D01*
X144878956Y-73598825D01*
X144878956Y-73978825D01*
G37*
G36*
X149818956Y-75498825D02*
G01*
X149058956Y-75498825D01*
X149058956Y-75118825D01*
X149818956Y-75118825D01*
X149818956Y-75498825D01*
G37*
G36*
X147158956Y-74358825D02*
G01*
X146778956Y-74358825D01*
X146778956Y-74738825D01*
X145638956Y-74738825D01*
X145638956Y-74358825D01*
X146398956Y-74358825D01*
X146398956Y-73978825D01*
X147158956Y-73978825D01*
X147158956Y-74358825D01*
G37*
G36*
X150198956Y-74358825D02*
G01*
X149818956Y-74358825D01*
X149818956Y-73978825D01*
X150198956Y-73978825D01*
X150198956Y-74358825D01*
G37*
G36*
X146018956Y-73978825D02*
G01*
X145638956Y-73978825D01*
X145638956Y-73598825D01*
X146018956Y-73598825D01*
X146018956Y-73978825D01*
G37*
G36*
X150958956Y-73978825D02*
G01*
X150578956Y-73978825D01*
X150578956Y-73598825D01*
X150958956Y-73598825D01*
X150958956Y-73978825D01*
G37*
G36*
X145258956Y-73218825D02*
G01*
X145638956Y-73218825D01*
X145638956Y-73598825D01*
X144878956Y-73598825D01*
X144878956Y-73218825D01*
X143738956Y-73218825D01*
X143738956Y-72838825D01*
X145258956Y-72838825D01*
X145258956Y-73218825D01*
G37*
G36*
X149818956Y-73598825D02*
G01*
X149058956Y-73598825D01*
X149058956Y-73218825D01*
X149818956Y-73218825D01*
X149818956Y-73598825D01*
G37*
G36*
X146018956Y-73218825D02*
G01*
X145638956Y-73218825D01*
X145638956Y-72838825D01*
X146018956Y-72838825D01*
X146018956Y-73218825D01*
G37*
G36*
X149058956Y-73218825D02*
G01*
X148678956Y-73218825D01*
X148678956Y-72838825D01*
X149058956Y-72838825D01*
X149058956Y-73218825D01*
G37*
G36*
X149058956Y-72078825D02*
G01*
X148678956Y-72078825D01*
X148678956Y-72838825D01*
X148298956Y-72838825D01*
X148298956Y-72078825D01*
X148298956Y-71698825D01*
X149058956Y-71698825D01*
X149058956Y-72078825D01*
G37*
G36*
X149818956Y-72838825D02*
G01*
X149438956Y-72838825D01*
X149438956Y-72458825D01*
X149818956Y-72458825D01*
X149818956Y-72838825D01*
G37*
G36*
X145638956Y-71698825D02*
G01*
X144498956Y-71698825D01*
X144498956Y-70558825D01*
X145638956Y-70558825D01*
X145638956Y-71698825D01*
G37*
G36*
X146398956Y-72078825D02*
G01*
X146398956Y-72458825D01*
X143738956Y-72458825D01*
X143738956Y-72078825D01*
X143738956Y-70178825D01*
X144118956Y-70178825D01*
X144118956Y-72078825D01*
X146018956Y-72078825D01*
X146018956Y-70178825D01*
X144118956Y-70178825D01*
X143738956Y-70178825D01*
X143738956Y-69798825D01*
X146398956Y-69798825D01*
X146398956Y-70178825D01*
X146398956Y-72078825D01*
G37*
G36*
X147158956Y-72458825D02*
G01*
X146778956Y-72458825D01*
X146778956Y-71698825D01*
X147158956Y-71698825D01*
X147158956Y-72458825D01*
G37*
G36*
X149438956Y-72458825D02*
G01*
X149058956Y-72458825D01*
X149058956Y-72078825D01*
X149438956Y-72078825D01*
X149438956Y-72458825D01*
G37*
G36*
X150198956Y-72458825D02*
G01*
X149818956Y-72458825D01*
X149818956Y-71698825D01*
X150198956Y-71698825D01*
X150198956Y-72458825D01*
G37*
G36*
X152478956Y-71698825D02*
G01*
X151338956Y-71698825D01*
X151338956Y-70558825D01*
X152478956Y-70558825D01*
X152478956Y-71698825D01*
G37*
G36*
X153238956Y-72078825D02*
G01*
X153238956Y-72458825D01*
X150578956Y-72458825D01*
X150578956Y-72078825D01*
X150578956Y-70178825D01*
X150958956Y-70178825D01*
X150958956Y-72078825D01*
X152858956Y-72078825D01*
X152858956Y-70178825D01*
X150958956Y-70178825D01*
X150578956Y-70178825D01*
X150578956Y-69798825D01*
X153238956Y-69798825D01*
X153238956Y-70178825D01*
X153238956Y-72078825D01*
G37*
G36*
X147158956Y-71318825D02*
G01*
X146778956Y-71318825D01*
X146778956Y-70938825D01*
X147158956Y-70938825D01*
X147158956Y-71318825D01*
G37*
G36*
X150198956Y-70558825D02*
G01*
X150198956Y-70938825D01*
X150198956Y-71318825D01*
X149438956Y-71318825D01*
X149438956Y-70938825D01*
X149818956Y-70938825D01*
X149818956Y-70558825D01*
X149438956Y-70558825D01*
X149438956Y-70938825D01*
X149058956Y-70938825D01*
X149058956Y-71318825D01*
X148678956Y-71318825D01*
X148678956Y-70938825D01*
X148678956Y-70558825D01*
X149058956Y-70558825D01*
X149058956Y-69798825D01*
X150198956Y-69798825D01*
X150198956Y-70558825D01*
G37*
G36*
X147538956Y-70178825D02*
G01*
X146778956Y-70178825D01*
X146778956Y-69798825D01*
X147538956Y-69798825D01*
X147538956Y-70178825D01*
G37*
G36*
X148678956Y-70178825D02*
G01*
X147918956Y-70178825D01*
X147918956Y-69798825D01*
X148678956Y-69798825D01*
X148678956Y-70178825D01*
G37*
M02*
