G04 #@! TF.GenerationSoftware,KiCad,Pcbnew,10.0.1*
G04 #@! TF.CreationDate,2026-05-28T09:04:53+02:00*
G04 #@! TF.ProjectId,V2,56322e6b-6963-4616-945f-706362585858,rev?*
G04 #@! TF.SameCoordinates,Original*
G04 #@! TF.FileFunction,Soldermask,Top*
G04 #@! TF.FilePolarity,Negative*
%FSLAX46Y46*%
G04 Gerber Fmt 4.6, Leading zero omitted, Abs format (unit mm)*
G04 Created by KiCad (PCBNEW 10.0.1) date 2026-05-28 09:04:53*
%MOMM*%
%LPD*%
G01*
G04 APERTURE LIST*
G04 Aperture macros list*
%AMRoundRect*
0 Rectangle with rounded corners*
0 $1 Rounding radius*
0 $2 $3 $4 $5 $6 $7 $8 $9 X,Y pos of 4 corners*
0 Add a 4 corners polygon primitive as box body*
4,1,4,$2,$3,$4,$5,$6,$7,$8,$9,$2,$3,0*
0 Add four circle primitives for the rounded corners*
1,1,$1+$1,$2,$3*
1,1,$1+$1,$4,$5*
1,1,$1+$1,$6,$7*
1,1,$1+$1,$8,$9*
0 Add four rect primitives between the rounded corners*
20,1,$1+$1,$2,$3,$4,$5,0*
20,1,$1+$1,$4,$5,$6,$7,0*
20,1,$1+$1,$6,$7,$8,$9,0*
20,1,$1+$1,$8,$9,$2,$3,0*%
%AMHorizOval*
0 Thick line with rounded ends*
0 $1 width*
0 $2 $3 position (X,Y) of the first rounded end (center of the circle)*
0 $4 $5 position (X,Y) of the second rounded end (center of the circle)*
0 Add line between two ends*
20,1,$1,$2,$3,$4,$5,0*
0 Add two circle primitives to create the rounded ends*
1,1,$1,$2,$3*
1,1,$1,$4,$5*%
%AMRotRect*
0 Rectangle, with rotation*
0 The origin of the aperture is its center*
0 $1 length*
0 $2 width*
0 $3 Rotation angle, in degrees counterclockwise*
0 Add horizontal line*
21,1,$1,$2,0,0,$3*%
%AMFreePoly0*
4,1,6,-0.190462,-0.909990,-0.190462,-0.910191,-0.190191,-0.910462,-0.190000,-0.910500,-0.193626,-0.909925,-0.190462,-0.909990,-0.190462,-0.909990,$1*%
%AMFreePoly1*
4,1,263,0.540015,0.870496,0.539500,0.870019,0.539518,0.870000,0.540000,0.870000,0.540462,0.869973,0.540462,0.869809,0.540191,0.869538,0.540000,0.869500,0.539981,0.869500,0.546936,0.869246,0.544070,0.869765,0.563035,0.868675,0.563120,0.868656,0.578570,0.868094,0.600586,0.860762,0.608182,0.859162,0.612863,0.857301,0.608732,0.858049,0.621681,0.853737,0.621105,0.854025,
0.622597,0.853432,0.651843,0.843694,0.677167,0.826150,0.678561,0.825297,0.677974,0.825591,0.689194,0.817818,0.686111,0.820679,0.690415,0.818047,0.696263,0.812921,0.715326,0.799716,0.725036,0.787705,0.725113,0.787639,0.737364,0.773118,0.735226,0.775102,0.739354,0.769997,0.735394,0.764953,0.707486,0.734300,0.707257,0.734008,0.732154,0.760826,0.628279,0.628525,
0.648268,0.658874,0.647853,0.658346,0.627863,0.627995,0.620464,0.618571,0.614727,0.608051,0.594738,0.577700,0.594414,0.577106,0.614404,0.607458,0.534143,0.460262,0.548833,0.493513,0.548509,0.492919,0.533818,0.459667,0.528087,0.449156,0.524176,0.437843,0.509485,0.404589,0.509262,0.403945,0.523954,0.437201,0.469176,0.278727,0.478156,0.313953,0.477938,0.313321,
0.468958,0.278095,0.465047,0.266780,0.463064,0.254973,0.454084,0.219747,0.453972,0.219085,0.462953,0.254313,0.435179,0.088955,0.438200,0.125181,0.438089,0.124515,0.435067,0.088288,0.433085,0.076482,0.433085,0.064509,0.430064,0.028283,0.430064,0.027606,0.433085,0.063833,0.433085,-0.103833,0.430064,-0.067606,0.430064,-0.068283,0.433085,-0.104509,0.433085,-0.116482,
0.435067,-0.128288,0.438089,-0.164515,0.438200,-0.165181,0.435179,-0.128955,0.462953,-0.294313,0.453972,-0.259085,0.454084,-0.259747,0.463064,-0.294973,0.465047,-0.306780,0.468958,-0.318095,0.477938,-0.353321,0.478156,-0.353953,0.469176,-0.318727,0.523954,-0.477201,0.509262,-0.443945,0.509485,-0.444589,0.524176,-0.477843,0.528087,-0.489156,0.533818,-0.499667,0.548509,-0.532919,
0.548833,-0.533513,0.534143,-0.500262,0.614404,-0.647458,0.594414,-0.617106,0.594738,-0.617700,0.614727,-0.648051,0.620464,-0.658571,0.627863,-0.667995,0.647853,-0.698346,0.648268,-0.698874,0.628279,-0.668525,0.732154,-0.800826,0.707257,-0.774008,0.707486,-0.774300,0.735394,-0.804953,0.739354,-0.809997,0.735226,-0.815102,0.737368,-0.813115,0.725116,-0.827641,0.725023,-0.827721,
0.715326,-0.839716,0.696289,-0.852903,0.690417,-0.858050,0.686098,-0.860691,0.689194,-0.857818,0.677974,-0.865591,0.678594,-0.865281,0.677122,-0.866181,0.651843,-0.883694,0.622640,-0.893418,0.621077,-0.894039,0.621681,-0.893737,0.608732,-0.898049,0.612877,-0.897298,0.608182,-0.899165,0.600561,-0.900770,0.578570,-0.908094,0.563139,-0.908656,0.563036,-0.908678,0.544066,-0.909766,
0.546936,-0.909246,0.539981,-0.909500,0.540000,-0.909500,0.540191,-0.909538,0.540462,-0.909809,0.540462,-0.909973,0.540000,-0.910000,0.539518,-0.910000,0.539500,-0.910019,0.540015,-0.910496,0.540000,-0.910500,-0.190000,-0.910500,-0.189500,-0.910000,-0.190000,-0.910000,-0.190462,-0.909990,-0.190462,-0.909809,-0.190191,-0.909538,-0.190000,-0.909500,-0.196314,-0.909500,-0.193626,-0.909925,
-0.213580,-0.909516,-0.213671,-0.909500,-0.232685,-0.909500,-0.255247,-0.902168,-0.260022,-0.901327,-0.269348,-0.897932,-0.267273,-0.898261,-0.278200,-0.894710,-0.279577,-0.894209,-0.279286,-0.894358,-0.313876,-0.883119,-0.336855,-0.866423,-0.345179,-0.861618,-0.347710,-0.859494,-0.343301,-0.861740,-0.353515,-0.854319,-0.351629,-0.856205,-0.356210,-0.852361,-0.382941,-0.832941,-0.402361,-0.806210,
-0.406205,-0.801629,-0.404319,-0.803515,-0.411740,-0.793301,-0.409494,-0.797710,-0.411618,-0.795179,-0.416423,-0.786855,-0.433119,-0.763876,-0.444358,-0.729286,-0.444209,-0.729577,-0.444710,-0.728200,-0.448261,-0.717273,-0.447932,-0.719348,-0.451327,-0.710022,-0.452168,-0.705247,-0.459500,-0.682685,-0.459500,-0.663670,-0.459516,-0.663580,-0.459925,-0.643626,-0.459500,-0.646313,-0.459500,-0.640000,
-0.459538,-0.640191,-0.459809,-0.640462,-0.459991,-0.640462,-0.460000,-0.640000,-0.460000,-0.639500,-0.460500,-0.640000,-0.460500,0.600000,-0.460000,0.599500,-0.460000,0.600000,-0.459991,0.600462,-0.459809,0.600462,-0.459538,0.600191,-0.459500,0.600000,-0.459500,0.606313,-0.459925,0.603626,-0.459516,0.623580,-0.459500,0.623670,-0.459500,0.642685,-0.452168,0.665247,-0.451327,0.670022,
-0.447932,0.679348,-0.448261,0.677273,-0.444710,0.688200,-0.444209,0.689577,-0.444358,0.689286,-0.433119,0.723876,-0.416423,0.746855,-0.411618,0.755179,-0.409494,0.757710,-0.411740,0.753301,-0.404319,0.763515,-0.406205,0.761629,-0.402361,0.766210,-0.382941,0.792941,-0.356210,0.812361,-0.351629,0.816205,-0.353515,0.814319,-0.343301,0.821740,-0.347710,0.819494,-0.345179,0.821618,
-0.336855,0.826423,-0.313876,0.843119,-0.279286,0.854358,-0.279577,0.854209,-0.278200,0.854710,-0.267273,0.858261,-0.269348,0.857932,-0.260022,0.861327,-0.255247,0.862168,-0.232685,0.869500,-0.213671,0.869500,-0.213580,0.869516,-0.193626,0.869925,-0.196314,0.869500,-0.190000,0.869500,-0.190191,0.869538,-0.190462,0.869809,-0.190462,0.869990,-0.190000,0.870000,-0.189500,0.870000,
-0.190000,0.870500,0.540000,0.870500,0.540015,0.870496,0.540015,0.870496,$1*%
%AMFreePoly2*
4,1,5,0.540191,-0.910462,0.540462,-0.910191,0.540462,-0.909973,0.544066,-0.909766,0.540191,-0.910462,0.540191,-0.910462,$1*%
%AMFreePoly3*
4,1,5,-0.278200,-0.894710,-0.269348,-0.897932,-0.273589,-0.897261,-0.279286,-0.894358,-0.278200,-0.894710,-0.278200,-0.894710,$1*%
%AMFreePoly4*
4,1,4,0.615515,-0.896821,0.612877,-0.897298,0.621077,-0.894039,0.615515,-0.896821,0.615515,-0.896821,$1*%
%AMFreePoly5*
4,1,4,0.684141,-0.862508,0.678594,-0.865281,0.686098,-0.860691,0.684141,-0.862508,0.684141,-0.862508,$1*%
%AMFreePoly6*
4,1,4,-0.347710,-0.859494,-0.348996,-0.858839,-0.351629,-0.856205,-0.347710,-0.859494,-0.347710,-0.859494,$1*%
%AMFreePoly7*
4,1,15,0.740359,-0.809664,0.740347,-0.809987,0.740382,-0.810319,0.740333,-0.810364,0.740333,-0.810370,0.740327,-0.810369,0.737368,-0.813115,0.739703,-0.810346,0.739627,-0.810344,0.739354,-0.809997,0.739604,-0.809689,0.739697,-0.809679,0.735394,-0.804953,0.732154,-0.800826,0.740359,-0.809664,0.740359,-0.809664,$1*%
%AMFreePoly8*
4,1,4,-0.406205,-0.801629,-0.408839,-0.798996,-0.409494,-0.797710,-0.406205,-0.801629,-0.406205,-0.801629,$1*%
%AMFreePoly9*
4,1,5,-0.444710,-0.728200,-0.444358,-0.729286,-0.447261,-0.723589,-0.447932,-0.719348,-0.444710,-0.728200,-0.444710,-0.728200,$1*%
%AMFreePoly10*
4,1,5,0.628279,-0.668525,0.627863,-0.667995,0.614727,-0.648051,0.614404,-0.647458,0.628279,-0.668525,0.628279,-0.668525,$1*%
%AMFreePoly11*
4,1,6,-0.460462,-0.640191,-0.460191,-0.640462,-0.459991,-0.640462,-0.459925,-0.643626,-0.460500,-0.640000,-0.460462,-0.640191,-0.460462,-0.640191,$1*%
%AMFreePoly12*
4,1,5,0.534143,-0.500262,0.533818,-0.499667,0.524176,-0.477843,0.523954,-0.477201,0.534143,-0.500262,0.534143,-0.500262,$1*%
%AMFreePoly13*
4,1,5,0.469176,-0.318727,0.468958,-0.318095,0.463064,-0.294973,0.462953,-0.294313,0.469176,-0.318727,0.469176,-0.318727,$1*%
%AMFreePoly14*
4,1,5,0.435179,-0.128955,0.435067,-0.128288,0.433085,-0.104509,0.433085,-0.103833,0.435179,-0.128955,0.435179,-0.128955,$1*%
%AMFreePoly15*
4,1,5,0.433085,0.063833,0.433085,0.064509,0.435067,0.088288,0.435179,0.088955,0.433085,0.063833,0.433085,0.063833,$1*%
%AMFreePoly16*
4,1,5,0.462953,0.254313,0.463064,0.254973,0.468958,0.278095,0.469176,0.278727,0.462953,0.254313,0.462953,0.254313,$1*%
%AMFreePoly17*
4,1,5,0.523954,0.437201,0.524176,0.437843,0.533818,0.459667,0.534143,0.460262,0.523954,0.437201,0.523954,0.437201,$1*%
%AMFreePoly18*
4,1,6,-0.459991,0.600462,-0.460191,0.600462,-0.460462,0.600191,-0.460500,0.600000,-0.459925,0.603626,-0.459991,0.600462,-0.459991,0.600462,$1*%
%AMFreePoly19*
4,1,5,0.614404,0.607458,0.614727,0.608051,0.627863,0.627995,0.628279,0.628525,0.614404,0.607458,0.614404,0.607458,$1*%
%AMFreePoly20*
4,1,5,-0.444710,0.688200,-0.447932,0.679348,-0.447261,0.683589,-0.444358,0.689286,-0.444710,0.688200,-0.444710,0.688200,$1*%
%AMFreePoly21*
4,1,4,-0.409494,0.757710,-0.408839,0.758996,-0.406205,0.761629,-0.409494,0.757710,-0.409494,0.757710,$1*%
%AMFreePoly22*
4,1,15,0.740327,0.770369,0.740333,0.770370,0.740333,0.770364,0.740382,0.770319,0.740347,0.769987,0.740359,0.769664,0.732154,0.760826,0.735394,0.764953,0.739697,0.769679,0.739604,0.769689,0.739354,0.769997,0.739627,0.770344,0.739703,0.770346,0.737364,0.773118,0.740327,0.770369,0.740327,0.770369,$1*%
%AMFreePoly23*
4,1,4,-0.351629,0.816205,-0.348996,0.818839,-0.347710,0.819494,-0.351629,0.816205,-0.351629,0.816205,$1*%
%AMFreePoly24*
4,1,4,0.684141,0.822508,0.686111,0.820679,0.678561,0.825297,0.684141,0.822508,0.684141,0.822508,$1*%
%AMFreePoly25*
4,1,4,0.615515,0.856821,0.621105,0.854025,0.612863,0.857301,0.615515,0.856821,0.615515,0.856821,$1*%
%AMFreePoly26*
4,1,5,-0.278200,0.854710,-0.279286,0.854358,-0.273589,0.857261,-0.269348,0.857932,-0.278200,0.854710,-0.278200,0.854710,$1*%
%AMFreePoly27*
4,1,5,0.544070,0.869765,0.540462,0.869973,0.540462,0.870191,0.540191,0.870462,0.544070,0.869765,0.544070,0.869765,$1*%
%AMFreePoly28*
4,1,6,-0.190191,0.870462,-0.190462,0.870191,-0.190462,0.869990,-0.193626,0.869925,-0.190000,0.870500,-0.190191,0.870462,-0.190191,0.870462,$1*%
G04 Aperture macros list end*
%ADD10C,1.500000*%
%ADD11FreePoly0,180.000000*%
%ADD12FreePoly1,180.000000*%
%ADD13FreePoly2,180.000000*%
%ADD14FreePoly3,180.000000*%
%ADD15FreePoly4,180.000000*%
%ADD16FreePoly5,180.000000*%
%ADD17FreePoly6,180.000000*%
%ADD18FreePoly7,180.000000*%
%ADD19FreePoly8,180.000000*%
%ADD20FreePoly9,180.000000*%
%ADD21FreePoly10,180.000000*%
%ADD22FreePoly11,180.000000*%
%ADD23FreePoly12,180.000000*%
%ADD24FreePoly13,180.000000*%
%ADD25FreePoly14,180.000000*%
%ADD26FreePoly15,180.000000*%
%ADD27FreePoly16,180.000000*%
%ADD28FreePoly17,180.000000*%
%ADD29FreePoly18,180.000000*%
%ADD30FreePoly19,180.000000*%
%ADD31FreePoly20,180.000000*%
%ADD32FreePoly21,180.000000*%
%ADD33FreePoly22,180.000000*%
%ADD34FreePoly23,180.000000*%
%ADD35FreePoly24,180.000000*%
%ADD36FreePoly25,180.000000*%
%ADD37FreePoly26,180.000000*%
%ADD38FreePoly27,180.000000*%
%ADD39FreePoly28,180.000000*%
%ADD40FreePoly1,0.000000*%
%ADD41FreePoly0,0.000000*%
%ADD42FreePoly2,0.000000*%
%ADD43FreePoly3,0.000000*%
%ADD44FreePoly4,0.000000*%
%ADD45FreePoly5,0.000000*%
%ADD46FreePoly6,0.000000*%
%ADD47FreePoly7,0.000000*%
%ADD48FreePoly8,0.000000*%
%ADD49FreePoly9,0.000000*%
%ADD50FreePoly10,0.000000*%
%ADD51FreePoly11,0.000000*%
%ADD52FreePoly12,0.000000*%
%ADD53FreePoly13,0.000000*%
%ADD54FreePoly14,0.000000*%
%ADD55FreePoly15,0.000000*%
%ADD56FreePoly16,0.000000*%
%ADD57FreePoly17,0.000000*%
%ADD58FreePoly18,0.000000*%
%ADD59FreePoly19,0.000000*%
%ADD60FreePoly20,0.000000*%
%ADD61FreePoly21,0.000000*%
%ADD62FreePoly22,0.000000*%
%ADD63FreePoly23,0.000000*%
%ADD64FreePoly24,0.000000*%
%ADD65FreePoly25,0.000000*%
%ADD66FreePoly26,0.000000*%
%ADD67FreePoly27,0.000000*%
%ADD68FreePoly28,0.000000*%
%ADD69RoundRect,0.137500X0.612500X0.137500X-0.612500X0.137500X-0.612500X-0.137500X0.612500X-0.137500X0*%
%ADD70RotRect,1.600000X2.000000X45.000000*%
%ADD71HorizOval,1.600000X-0.141421X0.141421X0.141421X-0.141421X0*%
%ADD72RoundRect,0.468000X-1.032000X-0.132000X1.032000X-0.132000X1.032000X0.132000X-1.032000X0.132000X0*%
%ADD73C,4.000000*%
G04 APERTURE END LIST*
D10*
X137409299Y-86304190D03*
D11*
X124563049Y-89974190D03*
D12*
X124563049Y-89974190D03*
D13*
X124563049Y-89974190D03*
D14*
X124563049Y-89974190D03*
D15*
X124563049Y-89974190D03*
D16*
X124563049Y-89974190D03*
D17*
X124563049Y-89974190D03*
D18*
X124563049Y-89974190D03*
D19*
X124563049Y-89974190D03*
D20*
X124563049Y-89974190D03*
D21*
X124563049Y-89974190D03*
D22*
X124563049Y-89974190D03*
D23*
X124563049Y-89974190D03*
D24*
X124563049Y-89974190D03*
D25*
X124563049Y-89974190D03*
D26*
X124563049Y-89974190D03*
D27*
X124563049Y-89974190D03*
D28*
X124563049Y-89974190D03*
D29*
X124563049Y-89974190D03*
D30*
X124563049Y-89974190D03*
D31*
X124563049Y-89974190D03*
D32*
X124563049Y-89974190D03*
D33*
X124563049Y-89974190D03*
D34*
X124563049Y-89974190D03*
D35*
X124563049Y-89974190D03*
D36*
X124563049Y-89974190D03*
D37*
X124563049Y-89974190D03*
D38*
X124563049Y-89974190D03*
D39*
X124563049Y-89974190D03*
D40*
X121363049Y-89944190D03*
D41*
X121363049Y-89944190D03*
D42*
X121363049Y-89944190D03*
D43*
X121363049Y-89944190D03*
D44*
X121363049Y-89944190D03*
D45*
X121363049Y-89944190D03*
D46*
X121363049Y-89944190D03*
D47*
X121363049Y-89944190D03*
D48*
X121363049Y-89944190D03*
D49*
X121363049Y-89944190D03*
D50*
X121363049Y-89944190D03*
D51*
X121363049Y-89944190D03*
D52*
X121363049Y-89944190D03*
D53*
X121363049Y-89944190D03*
D54*
X121363049Y-89944190D03*
D55*
X121363049Y-89944190D03*
D56*
X121363049Y-89944190D03*
D57*
X121363049Y-89944190D03*
D58*
X121363049Y-89944190D03*
D59*
X121363049Y-89944190D03*
D60*
X121363049Y-89944190D03*
D61*
X121363049Y-89944190D03*
D62*
X121363049Y-89944190D03*
D63*
X121363049Y-89944190D03*
D64*
X121363049Y-89944190D03*
D65*
X121363049Y-89944190D03*
D66*
X121363049Y-89944190D03*
D67*
X121363049Y-89944190D03*
D68*
X121363049Y-89944190D03*
D69*
X135995299Y-81859190D03*
X135995299Y-80589190D03*
X135995299Y-79319190D03*
X135995299Y-78049190D03*
X130695299Y-78049190D03*
X130695299Y-79319190D03*
X130695299Y-80589190D03*
X130695299Y-81859190D03*
D70*
X141236069Y-89081171D03*
D71*
X155378205Y-74939035D03*
D10*
X131059299Y-86304190D03*
D11*
X114563049Y-89974190D03*
D12*
X114563049Y-89974190D03*
D13*
X114563049Y-89974190D03*
D14*
X114563049Y-89974190D03*
D15*
X114563049Y-89974190D03*
D16*
X114563049Y-89974190D03*
D17*
X114563049Y-89974190D03*
D18*
X114563049Y-89974190D03*
D19*
X114563049Y-89974190D03*
D20*
X114563049Y-89974190D03*
D21*
X114563049Y-89974190D03*
D22*
X114563049Y-89974190D03*
D23*
X114563049Y-89974190D03*
D24*
X114563049Y-89974190D03*
D25*
X114563049Y-89974190D03*
D26*
X114563049Y-89974190D03*
D27*
X114563049Y-89974190D03*
D28*
X114563049Y-89974190D03*
D29*
X114563049Y-89974190D03*
D30*
X114563049Y-89974190D03*
D31*
X114563049Y-89974190D03*
D32*
X114563049Y-89974190D03*
D33*
X114563049Y-89974190D03*
D34*
X114563049Y-89974190D03*
D35*
X114563049Y-89974190D03*
D36*
X114563049Y-89974190D03*
D37*
X114563049Y-89974190D03*
D38*
X114563049Y-89974190D03*
D39*
X114563049Y-89974190D03*
D40*
X111363049Y-89944190D03*
D41*
X111363049Y-89944190D03*
D42*
X111363049Y-89944190D03*
D43*
X111363049Y-89944190D03*
D44*
X111363049Y-89944190D03*
D45*
X111363049Y-89944190D03*
D46*
X111363049Y-89944190D03*
D47*
X111363049Y-89944190D03*
D48*
X111363049Y-89944190D03*
D49*
X111363049Y-89944190D03*
D50*
X111363049Y-89944190D03*
D51*
X111363049Y-89944190D03*
D52*
X111363049Y-89944190D03*
D53*
X111363049Y-89944190D03*
D54*
X111363049Y-89944190D03*
D55*
X111363049Y-89944190D03*
D56*
X111363049Y-89944190D03*
D57*
X111363049Y-89944190D03*
D58*
X111363049Y-89944190D03*
D59*
X111363049Y-89944190D03*
D60*
X111363049Y-89944190D03*
D61*
X111363049Y-89944190D03*
D62*
X111363049Y-89944190D03*
D63*
X111363049Y-89944190D03*
D64*
X111363049Y-89944190D03*
D65*
X111363049Y-89944190D03*
D66*
X111363049Y-89944190D03*
D67*
X111363049Y-89944190D03*
D68*
X111363049Y-89944190D03*
D11*
X124563049Y-69974190D03*
D12*
X124563049Y-69974190D03*
D13*
X124563049Y-69974190D03*
D14*
X124563049Y-69974190D03*
D15*
X124563049Y-69974190D03*
D16*
X124563049Y-69974190D03*
D17*
X124563049Y-69974190D03*
D18*
X124563049Y-69974190D03*
D19*
X124563049Y-69974190D03*
D20*
X124563049Y-69974190D03*
D21*
X124563049Y-69974190D03*
D22*
X124563049Y-69974190D03*
D23*
X124563049Y-69974190D03*
D24*
X124563049Y-69974190D03*
D25*
X124563049Y-69974190D03*
D26*
X124563049Y-69974190D03*
D27*
X124563049Y-69974190D03*
D28*
X124563049Y-69974190D03*
D29*
X124563049Y-69974190D03*
D30*
X124563049Y-69974190D03*
D31*
X124563049Y-69974190D03*
D32*
X124563049Y-69974190D03*
D33*
X124563049Y-69974190D03*
D34*
X124563049Y-69974190D03*
D35*
X124563049Y-69974190D03*
D36*
X124563049Y-69974190D03*
D37*
X124563049Y-69974190D03*
D38*
X124563049Y-69974190D03*
D39*
X124563049Y-69974190D03*
D40*
X121363049Y-69944190D03*
D41*
X121363049Y-69944190D03*
D42*
X121363049Y-69944190D03*
D43*
X121363049Y-69944190D03*
D44*
X121363049Y-69944190D03*
D45*
X121363049Y-69944190D03*
D46*
X121363049Y-69944190D03*
D47*
X121363049Y-69944190D03*
D48*
X121363049Y-69944190D03*
D49*
X121363049Y-69944190D03*
D50*
X121363049Y-69944190D03*
D51*
X121363049Y-69944190D03*
D52*
X121363049Y-69944190D03*
D53*
X121363049Y-69944190D03*
D54*
X121363049Y-69944190D03*
D55*
X121363049Y-69944190D03*
D56*
X121363049Y-69944190D03*
D57*
X121363049Y-69944190D03*
D58*
X121363049Y-69944190D03*
D59*
X121363049Y-69944190D03*
D60*
X121363049Y-69944190D03*
D61*
X121363049Y-69944190D03*
D62*
X121363049Y-69944190D03*
D63*
X121363049Y-69944190D03*
D64*
X121363049Y-69944190D03*
D65*
X121363049Y-69944190D03*
D66*
X121363049Y-69944190D03*
D67*
X121363049Y-69944190D03*
D68*
X121363049Y-69944190D03*
D72*
X137863049Y-74454190D03*
X137863049Y-76304190D03*
D11*
X134563049Y-89974190D03*
D12*
X134563049Y-89974190D03*
D13*
X134563049Y-89974190D03*
D14*
X134563049Y-89974190D03*
D15*
X134563049Y-89974190D03*
D16*
X134563049Y-89974190D03*
D17*
X134563049Y-89974190D03*
D18*
X134563049Y-89974190D03*
D19*
X134563049Y-89974190D03*
D20*
X134563049Y-89974190D03*
D21*
X134563049Y-89974190D03*
D22*
X134563049Y-89974190D03*
D23*
X134563049Y-89974190D03*
D24*
X134563049Y-89974190D03*
D25*
X134563049Y-89974190D03*
D26*
X134563049Y-89974190D03*
D27*
X134563049Y-89974190D03*
D28*
X134563049Y-89974190D03*
D29*
X134563049Y-89974190D03*
D30*
X134563049Y-89974190D03*
D31*
X134563049Y-89974190D03*
D32*
X134563049Y-89974190D03*
D33*
X134563049Y-89974190D03*
D34*
X134563049Y-89974190D03*
D35*
X134563049Y-89974190D03*
D36*
X134563049Y-89974190D03*
D37*
X134563049Y-89974190D03*
D38*
X134563049Y-89974190D03*
D39*
X134563049Y-89974190D03*
D40*
X131363049Y-89944190D03*
D41*
X131363049Y-89944190D03*
D42*
X131363049Y-89944190D03*
D43*
X131363049Y-89944190D03*
D44*
X131363049Y-89944190D03*
D45*
X131363049Y-89944190D03*
D46*
X131363049Y-89944190D03*
D47*
X131363049Y-89944190D03*
D48*
X131363049Y-89944190D03*
D49*
X131363049Y-89944190D03*
D50*
X131363049Y-89944190D03*
D51*
X131363049Y-89944190D03*
D52*
X131363049Y-89944190D03*
D53*
X131363049Y-89944190D03*
D54*
X131363049Y-89944190D03*
D55*
X131363049Y-89944190D03*
D56*
X131363049Y-89944190D03*
D57*
X131363049Y-89944190D03*
D58*
X131363049Y-89944190D03*
D59*
X131363049Y-89944190D03*
D60*
X131363049Y-89944190D03*
D61*
X131363049Y-89944190D03*
D62*
X131363049Y-89944190D03*
D63*
X131363049Y-89944190D03*
D64*
X131363049Y-89944190D03*
D65*
X131363049Y-89944190D03*
D66*
X131363049Y-89944190D03*
D67*
X131363049Y-89944190D03*
D68*
X131363049Y-89944190D03*
D10*
X134869299Y-86304190D03*
D11*
X114563049Y-69974190D03*
D12*
X114563049Y-69974190D03*
D13*
X114563049Y-69974190D03*
D14*
X114563049Y-69974190D03*
D15*
X114563049Y-69974190D03*
D16*
X114563049Y-69974190D03*
D17*
X114563049Y-69974190D03*
D18*
X114563049Y-69974190D03*
D19*
X114563049Y-69974190D03*
D20*
X114563049Y-69974190D03*
D21*
X114563049Y-69974190D03*
D22*
X114563049Y-69974190D03*
D23*
X114563049Y-69974190D03*
D24*
X114563049Y-69974190D03*
D25*
X114563049Y-69974190D03*
D26*
X114563049Y-69974190D03*
D27*
X114563049Y-69974190D03*
D28*
X114563049Y-69974190D03*
D29*
X114563049Y-69974190D03*
D30*
X114563049Y-69974190D03*
D31*
X114563049Y-69974190D03*
D32*
X114563049Y-69974190D03*
D33*
X114563049Y-69974190D03*
D34*
X114563049Y-69974190D03*
D35*
X114563049Y-69974190D03*
D36*
X114563049Y-69974190D03*
D37*
X114563049Y-69974190D03*
D38*
X114563049Y-69974190D03*
D39*
X114563049Y-69974190D03*
D40*
X111363049Y-69944190D03*
D41*
X111363049Y-69944190D03*
D42*
X111363049Y-69944190D03*
D43*
X111363049Y-69944190D03*
D44*
X111363049Y-69944190D03*
D45*
X111363049Y-69944190D03*
D46*
X111363049Y-69944190D03*
D47*
X111363049Y-69944190D03*
D48*
X111363049Y-69944190D03*
D49*
X111363049Y-69944190D03*
D50*
X111363049Y-69944190D03*
D51*
X111363049Y-69944190D03*
D52*
X111363049Y-69944190D03*
D53*
X111363049Y-69944190D03*
D54*
X111363049Y-69944190D03*
D55*
X111363049Y-69944190D03*
D56*
X111363049Y-69944190D03*
D57*
X111363049Y-69944190D03*
D58*
X111363049Y-69944190D03*
D59*
X111363049Y-69944190D03*
D60*
X111363049Y-69944190D03*
D61*
X111363049Y-69944190D03*
D62*
X111363049Y-69944190D03*
D63*
X111363049Y-69944190D03*
D64*
X111363049Y-69944190D03*
D65*
X111363049Y-69944190D03*
D66*
X111363049Y-69944190D03*
D67*
X111363049Y-69944190D03*
D68*
X111363049Y-69944190D03*
D73*
X161856799Y-69635440D03*
D11*
X124563049Y-79974190D03*
D12*
X124563049Y-79974190D03*
D13*
X124563049Y-79974190D03*
D14*
X124563049Y-79974190D03*
D15*
X124563049Y-79974190D03*
D16*
X124563049Y-79974190D03*
D17*
X124563049Y-79974190D03*
D18*
X124563049Y-79974190D03*
D19*
X124563049Y-79974190D03*
D20*
X124563049Y-79974190D03*
D21*
X124563049Y-79974190D03*
D22*
X124563049Y-79974190D03*
D23*
X124563049Y-79974190D03*
D24*
X124563049Y-79974190D03*
D25*
X124563049Y-79974190D03*
D26*
X124563049Y-79974190D03*
D27*
X124563049Y-79974190D03*
D28*
X124563049Y-79974190D03*
D29*
X124563049Y-79974190D03*
D30*
X124563049Y-79974190D03*
D31*
X124563049Y-79974190D03*
D32*
X124563049Y-79974190D03*
D33*
X124563049Y-79974190D03*
D34*
X124563049Y-79974190D03*
D35*
X124563049Y-79974190D03*
D36*
X124563049Y-79974190D03*
D37*
X124563049Y-79974190D03*
D38*
X124563049Y-79974190D03*
D39*
X124563049Y-79974190D03*
D40*
X121363049Y-79944190D03*
D41*
X121363049Y-79944190D03*
D42*
X121363049Y-79944190D03*
D43*
X121363049Y-79944190D03*
D44*
X121363049Y-79944190D03*
D45*
X121363049Y-79944190D03*
D46*
X121363049Y-79944190D03*
D47*
X121363049Y-79944190D03*
D48*
X121363049Y-79944190D03*
D49*
X121363049Y-79944190D03*
D50*
X121363049Y-79944190D03*
D51*
X121363049Y-79944190D03*
D52*
X121363049Y-79944190D03*
D53*
X121363049Y-79944190D03*
D54*
X121363049Y-79944190D03*
D55*
X121363049Y-79944190D03*
D56*
X121363049Y-79944190D03*
D57*
X121363049Y-79944190D03*
D58*
X121363049Y-79944190D03*
D59*
X121363049Y-79944190D03*
D60*
X121363049Y-79944190D03*
D61*
X121363049Y-79944190D03*
D62*
X121363049Y-79944190D03*
D63*
X121363049Y-79944190D03*
D64*
X121363049Y-79944190D03*
D65*
X121363049Y-79944190D03*
D66*
X121363049Y-79944190D03*
D67*
X121363049Y-79944190D03*
D68*
X121363049Y-79944190D03*
D11*
X134563049Y-69974190D03*
D12*
X134563049Y-69974190D03*
D13*
X134563049Y-69974190D03*
D14*
X134563049Y-69974190D03*
D15*
X134563049Y-69974190D03*
D16*
X134563049Y-69974190D03*
D17*
X134563049Y-69974190D03*
D18*
X134563049Y-69974190D03*
D19*
X134563049Y-69974190D03*
D20*
X134563049Y-69974190D03*
D21*
X134563049Y-69974190D03*
D22*
X134563049Y-69974190D03*
D23*
X134563049Y-69974190D03*
D24*
X134563049Y-69974190D03*
D25*
X134563049Y-69974190D03*
D26*
X134563049Y-69974190D03*
D27*
X134563049Y-69974190D03*
D28*
X134563049Y-69974190D03*
D29*
X134563049Y-69974190D03*
D30*
X134563049Y-69974190D03*
D31*
X134563049Y-69974190D03*
D32*
X134563049Y-69974190D03*
D33*
X134563049Y-69974190D03*
D34*
X134563049Y-69974190D03*
D35*
X134563049Y-69974190D03*
D36*
X134563049Y-69974190D03*
D37*
X134563049Y-69974190D03*
D38*
X134563049Y-69974190D03*
D39*
X134563049Y-69974190D03*
D40*
X131363049Y-69944190D03*
D41*
X131363049Y-69944190D03*
D42*
X131363049Y-69944190D03*
D43*
X131363049Y-69944190D03*
D44*
X131363049Y-69944190D03*
D45*
X131363049Y-69944190D03*
D46*
X131363049Y-69944190D03*
D47*
X131363049Y-69944190D03*
D48*
X131363049Y-69944190D03*
D49*
X131363049Y-69944190D03*
D50*
X131363049Y-69944190D03*
D51*
X131363049Y-69944190D03*
D52*
X131363049Y-69944190D03*
D53*
X131363049Y-69944190D03*
D54*
X131363049Y-69944190D03*
D55*
X131363049Y-69944190D03*
D56*
X131363049Y-69944190D03*
D57*
X131363049Y-69944190D03*
D58*
X131363049Y-69944190D03*
D59*
X131363049Y-69944190D03*
D60*
X131363049Y-69944190D03*
D61*
X131363049Y-69944190D03*
D62*
X131363049Y-69944190D03*
D63*
X131363049Y-69944190D03*
D64*
X131363049Y-69944190D03*
D65*
X131363049Y-69944190D03*
D66*
X131363049Y-69944190D03*
D67*
X131363049Y-69944190D03*
D68*
X131363049Y-69944190D03*
M02*
