G04 #@! TF.GenerationSoftware,KiCad,Pcbnew,10.0.1*
G04 #@! TF.CreationDate,2026-05-28T09:04:53+02:00*
G04 #@! TF.ProjectId,V2,56322e6b-6963-4616-945f-706362585858,rev?*
G04 #@! TF.SameCoordinates,Original*
G04 #@! TF.FileFunction,Copper,L1,Top*
G04 #@! TF.FilePolarity,Positive*
%FSLAX46Y46*%
G04 Gerber Fmt 4.6, Leading zero omitted, Abs format (unit mm)*
G04 Created by KiCad (PCBNEW 10.0.1) date 2026-05-28 09:04:53*
%MOMM*%
%LPD*%
G01*
G04 APERTURE LIST*
G04 Aperture macros list*
%AMRoundRect*
0 Rectangle with rounded corners*
0 $1 Rounding radius*
0 $2 $3 $4 $5 $6 $7 $8 $9 X,Y pos of 4 corners*
0 Add a 4 corners polygon primitive as box body*
4,1,4,$2,$3,$4,$5,$6,$7,$8,$9,$2,$3,0*
0 Add four circle primitives for the rounded corners*
1,1,$1+$1,$2,$3*
1,1,$1+$1,$4,$5*
1,1,$1+$1,$6,$7*
1,1,$1+$1,$8,$9*
0 Add four rect primitives between the rounded corners*
20,1,$1+$1,$2,$3,$4,$5,0*
20,1,$1+$1,$4,$5,$6,$7,0*
20,1,$1+$1,$6,$7,$8,$9,0*
20,1,$1+$1,$8,$9,$2,$3,0*%
%AMHorizOval*
0 Thick line with rounded ends*
0 $1 width*
0 $2 $3 position (X,Y) of the first rounded end (center of the circle)*
0 $4 $5 position (X,Y) of the second rounded end (center of the circle)*
0 Add line between two ends*
20,1,$1,$2,$3,$4,$5,0*
0 Add two circle primitives to create the rounded ends*
1,1,$1,$2,$3*
1,1,$1,$4,$5*%
%AMRotRect*
0 Rectangle, with rotation*
0 The origin of the aperture is its center*
0 $1 length*
0 $2 width*
0 $3 Rotation angle, in degrees counterclockwise*
0 Add horizontal line*
21,1,$1,$2,0,0,$3*%
%AMFreePoly0*
4,1,6,-0.190462,-0.909990,-0.190462,-0.910191,-0.190191,-0.910462,-0.190000,-0.910500,-0.193626,-0.909925,-0.190462,-0.909990,-0.190462,-0.909990,$1*%
%AMFreePoly1*
4,1,263,0.540015,0.870496,0.539500,0.870019,0.539518,0.870000,0.540000,0.870000,0.540462,0.869973,0.540462,0.869809,0.540191,0.869538,0.540000,0.869500,0.539981,0.869500,0.546936,0.869246,0.544070,0.869765,0.563035,0.868675,0.563120,0.868656,0.578570,0.868094,0.600586,0.860762,0.608182,0.859162,0.612863,0.857301,0.608732,0.858049,0.621681,0.853737,0.621105,0.854025,
0.622597,0.853432,0.651843,0.843694,0.677167,0.826150,0.678561,0.825297,0.677974,0.825591,0.689194,0.817818,0.686111,0.820679,0.690415,0.818047,0.696263,0.812921,0.715326,0.799716,0.725036,0.787705,0.725113,0.787639,0.737364,0.773118,0.735226,0.775102,0.739354,0.769997,0.735394,0.764953,0.707486,0.734300,0.707257,0.734008,0.732154,0.760826,0.628279,0.628525,
0.648268,0.658874,0.647853,0.658346,0.627863,0.627995,0.620464,0.618571,0.614727,0.608051,0.594738,0.577700,0.594414,0.577106,0.614404,0.607458,0.534143,0.460262,0.548833,0.493513,0.548509,0.492919,0.533818,0.459667,0.528087,0.449156,0.524176,0.437843,0.509485,0.404589,0.509262,0.403945,0.523954,0.437201,0.469176,0.278727,0.478156,0.313953,0.477938,0.313321,
0.468958,0.278095,0.465047,0.266780,0.463064,0.254973,0.454084,0.219747,0.453972,0.219085,0.462953,0.254313,0.435179,0.088955,0.438200,0.125181,0.438089,0.124515,0.435067,0.088288,0.433085,0.076482,0.433085,0.064509,0.430064,0.028283,0.430064,0.027606,0.433085,0.063833,0.433085,-0.103833,0.430064,-0.067606,0.430064,-0.068283,0.433085,-0.104509,0.433085,-0.116482,
0.435067,-0.128288,0.438089,-0.164515,0.438200,-0.165181,0.435179,-0.128955,0.462953,-0.294313,0.453972,-0.259085,0.454084,-0.259747,0.463064,-0.294973,0.465047,-0.306780,0.468958,-0.318095,0.477938,-0.353321,0.478156,-0.353953,0.469176,-0.318727,0.523954,-0.477201,0.509262,-0.443945,0.509485,-0.444589,0.524176,-0.477843,0.528087,-0.489156,0.533818,-0.499667,0.548509,-0.532919,
0.548833,-0.533513,0.534143,-0.500262,0.614404,-0.647458,0.594414,-0.617106,0.594738,-0.617700,0.614727,-0.648051,0.620464,-0.658571,0.627863,-0.667995,0.647853,-0.698346,0.648268,-0.698874,0.628279,-0.668525,0.732154,-0.800826,0.707257,-0.774008,0.707486,-0.774300,0.735394,-0.804953,0.739354,-0.809997,0.735226,-0.815102,0.737368,-0.813115,0.725116,-0.827641,0.725023,-0.827721,
0.715326,-0.839716,0.696289,-0.852903,0.690417,-0.858050,0.686098,-0.860691,0.689194,-0.857818,0.677974,-0.865591,0.678594,-0.865281,0.677122,-0.866181,0.651843,-0.883694,0.622640,-0.893418,0.621077,-0.894039,0.621681,-0.893737,0.608732,-0.898049,0.612877,-0.897298,0.608182,-0.899165,0.600561,-0.900770,0.578570,-0.908094,0.563139,-0.908656,0.563036,-0.908678,0.544066,-0.909766,
0.546936,-0.909246,0.539981,-0.909500,0.540000,-0.909500,0.540191,-0.909538,0.540462,-0.909809,0.540462,-0.909973,0.540000,-0.910000,0.539518,-0.910000,0.539500,-0.910019,0.540015,-0.910496,0.540000,-0.910500,-0.190000,-0.910500,-0.189500,-0.910000,-0.190000,-0.910000,-0.190462,-0.909990,-0.190462,-0.909809,-0.190191,-0.909538,-0.190000,-0.909500,-0.196314,-0.909500,-0.193626,-0.909925,
-0.213580,-0.909516,-0.213671,-0.909500,-0.232685,-0.909500,-0.255247,-0.902168,-0.260022,-0.901327,-0.269348,-0.897932,-0.267273,-0.898261,-0.278200,-0.894710,-0.279577,-0.894209,-0.279286,-0.894358,-0.313876,-0.883119,-0.336855,-0.866423,-0.345179,-0.861618,-0.347710,-0.859494,-0.343301,-0.861740,-0.353515,-0.854319,-0.351629,-0.856205,-0.356210,-0.852361,-0.382941,-0.832941,-0.402361,-0.806210,
-0.406205,-0.801629,-0.404319,-0.803515,-0.411740,-0.793301,-0.409494,-0.797710,-0.411618,-0.795179,-0.416423,-0.786855,-0.433119,-0.763876,-0.444358,-0.729286,-0.444209,-0.729577,-0.444710,-0.728200,-0.448261,-0.717273,-0.447932,-0.719348,-0.451327,-0.710022,-0.452168,-0.705247,-0.459500,-0.682685,-0.459500,-0.663670,-0.459516,-0.663580,-0.459925,-0.643626,-0.459500,-0.646313,-0.459500,-0.640000,
-0.459538,-0.640191,-0.459809,-0.640462,-0.459991,-0.640462,-0.460000,-0.640000,-0.460000,-0.639500,-0.460500,-0.640000,-0.460500,0.600000,-0.460000,0.599500,-0.460000,0.600000,-0.459991,0.600462,-0.459809,0.600462,-0.459538,0.600191,-0.459500,0.600000,-0.459500,0.606313,-0.459925,0.603626,-0.459516,0.623580,-0.459500,0.623670,-0.459500,0.642685,-0.452168,0.665247,-0.451327,0.670022,
-0.447932,0.679348,-0.448261,0.677273,-0.444710,0.688200,-0.444209,0.689577,-0.444358,0.689286,-0.433119,0.723876,-0.416423,0.746855,-0.411618,0.755179,-0.409494,0.757710,-0.411740,0.753301,-0.404319,0.763515,-0.406205,0.761629,-0.402361,0.766210,-0.382941,0.792941,-0.356210,0.812361,-0.351629,0.816205,-0.353515,0.814319,-0.343301,0.821740,-0.347710,0.819494,-0.345179,0.821618,
-0.336855,0.826423,-0.313876,0.843119,-0.279286,0.854358,-0.279577,0.854209,-0.278200,0.854710,-0.267273,0.858261,-0.269348,0.857932,-0.260022,0.861327,-0.255247,0.862168,-0.232685,0.869500,-0.213671,0.869500,-0.213580,0.869516,-0.193626,0.869925,-0.196314,0.869500,-0.190000,0.869500,-0.190191,0.869538,-0.190462,0.869809,-0.190462,0.869990,-0.190000,0.870000,-0.189500,0.870000,
-0.190000,0.870500,0.540000,0.870500,0.540015,0.870496,0.540015,0.870496,$1*%
%AMFreePoly2*
4,1,5,0.540191,-0.910462,0.540462,-0.910191,0.540462,-0.909973,0.544066,-0.909766,0.540191,-0.910462,0.540191,-0.910462,$1*%
%AMFreePoly3*
4,1,5,-0.278200,-0.894710,-0.269348,-0.897932,-0.273589,-0.897261,-0.279286,-0.894358,-0.278200,-0.894710,-0.278200,-0.894710,$1*%
%AMFreePoly4*
4,1,4,0.615515,-0.896821,0.612877,-0.897298,0.621077,-0.894039,0.615515,-0.896821,0.615515,-0.896821,$1*%
%AMFreePoly5*
4,1,4,0.684141,-0.862508,0.678594,-0.865281,0.686098,-0.860691,0.684141,-0.862508,0.684141,-0.862508,$1*%
%AMFreePoly6*
4,1,4,-0.347710,-0.859494,-0.348996,-0.858839,-0.351629,-0.856205,-0.347710,-0.859494,-0.347710,-0.859494,$1*%
%AMFreePoly7*
4,1,15,0.740359,-0.809664,0.740347,-0.809987,0.740382,-0.810319,0.740333,-0.810364,0.740333,-0.810370,0.740327,-0.810369,0.737368,-0.813115,0.739703,-0.810346,0.739627,-0.810344,0.739354,-0.809997,0.739604,-0.809689,0.739697,-0.809679,0.735394,-0.804953,0.732154,-0.800826,0.740359,-0.809664,0.740359,-0.809664,$1*%
%AMFreePoly8*
4,1,4,-0.406205,-0.801629,-0.408839,-0.798996,-0.409494,-0.797710,-0.406205,-0.801629,-0.406205,-0.801629,$1*%
%AMFreePoly9*
4,1,5,-0.444710,-0.728200,-0.444358,-0.729286,-0.447261,-0.723589,-0.447932,-0.719348,-0.444710,-0.728200,-0.444710,-0.728200,$1*%
%AMFreePoly10*
4,1,5,0.628279,-0.668525,0.627863,-0.667995,0.614727,-0.648051,0.614404,-0.647458,0.628279,-0.668525,0.628279,-0.668525,$1*%
%AMFreePoly11*
4,1,6,-0.460462,-0.640191,-0.460191,-0.640462,-0.459991,-0.640462,-0.459925,-0.643626,-0.460500,-0.640000,-0.460462,-0.640191,-0.460462,-0.640191,$1*%
%AMFreePoly12*
4,1,5,0.534143,-0.500262,0.533818,-0.499667,0.524176,-0.477843,0.523954,-0.477201,0.534143,-0.500262,0.534143,-0.500262,$1*%
%AMFreePoly13*
4,1,5,0.469176,-0.318727,0.468958,-0.318095,0.463064,-0.294973,0.462953,-0.294313,0.469176,-0.318727,0.469176,-0.318727,$1*%
%AMFreePoly14*
4,1,5,0.435179,-0.128955,0.435067,-0.128288,0.433085,-0.104509,0.433085,-0.103833,0.435179,-0.128955,0.435179,-0.128955,$1*%
%AMFreePoly15*
4,1,5,0.433085,0.063833,0.433085,0.064509,0.435067,0.088288,0.435179,0.088955,0.433085,0.063833,0.433085,0.063833,$1*%
%AMFreePoly16*
4,1,5,0.462953,0.254313,0.463064,0.254973,0.468958,0.278095,0.469176,0.278727,0.462953,0.254313,0.462953,0.254313,$1*%
%AMFreePoly17*
4,1,5,0.523954,0.437201,0.524176,0.437843,0.533818,0.459667,0.534143,0.460262,0.523954,0.437201,0.523954,0.437201,$1*%
%AMFreePoly18*
4,1,6,-0.459991,0.600462,-0.460191,0.600462,-0.460462,0.600191,-0.460500,0.600000,-0.459925,0.603626,-0.459991,0.600462,-0.459991,0.600462,$1*%
%AMFreePoly19*
4,1,5,0.614404,0.607458,0.614727,0.608051,0.627863,0.627995,0.628279,0.628525,0.614404,0.607458,0.614404,0.607458,$1*%
%AMFreePoly20*
4,1,5,-0.444710,0.688200,-0.447932,0.679348,-0.447261,0.683589,-0.444358,0.689286,-0.444710,0.688200,-0.444710,0.688200,$1*%
%AMFreePoly21*
4,1,4,-0.409494,0.757710,-0.408839,0.758996,-0.406205,0.761629,-0.409494,0.757710,-0.409494,0.757710,$1*%
%AMFreePoly22*
4,1,15,0.740327,0.770369,0.740333,0.770370,0.740333,0.770364,0.740382,0.770319,0.740347,0.769987,0.740359,0.769664,0.732154,0.760826,0.735394,0.764953,0.739697,0.769679,0.739604,0.769689,0.739354,0.769997,0.739627,0.770344,0.739703,0.770346,0.737364,0.773118,0.740327,0.770369,0.740327,0.770369,$1*%
%AMFreePoly23*
4,1,4,-0.351629,0.816205,-0.348996,0.818839,-0.347710,0.819494,-0.351629,0.816205,-0.351629,0.816205,$1*%
%AMFreePoly24*
4,1,4,0.684141,0.822508,0.686111,0.820679,0.678561,0.825297,0.684141,0.822508,0.684141,0.822508,$1*%
%AMFreePoly25*
4,1,4,0.615515,0.856821,0.621105,0.854025,0.612863,0.857301,0.615515,0.856821,0.615515,0.856821,$1*%
%AMFreePoly26*
4,1,5,-0.278200,0.854710,-0.279286,0.854358,-0.273589,0.857261,-0.269348,0.857932,-0.278200,0.854710,-0.278200,0.854710,$1*%
%AMFreePoly27*
4,1,5,0.544070,0.869765,0.540462,0.869973,0.540462,0.870191,0.540191,0.870462,0.544070,0.869765,0.544070,0.869765,$1*%
%AMFreePoly28*
4,1,6,-0.190191,0.870462,-0.190462,0.870191,-0.190462,0.869990,-0.193626,0.869925,-0.190000,0.870500,-0.190191,0.870462,-0.190191,0.870462,$1*%
G04 Aperture macros list end*
G04 #@! TA.AperFunction,SMDPad,CuDef*
%ADD10C,1.500000*%
G04 #@! TD*
G04 #@! TA.AperFunction,SMDPad,CuDef*
%ADD11FreePoly0,180.000000*%
G04 #@! TD*
G04 #@! TA.AperFunction,SMDPad,CuDef*
%ADD12FreePoly1,180.000000*%
G04 #@! TD*
G04 #@! TA.AperFunction,SMDPad,CuDef*
%ADD13FreePoly2,180.000000*%
G04 #@! TD*
G04 #@! TA.AperFunction,SMDPad,CuDef*
%ADD14FreePoly3,180.000000*%
G04 #@! TD*
G04 #@! TA.AperFunction,SMDPad,CuDef*
%ADD15FreePoly4,180.000000*%
G04 #@! TD*
G04 #@! TA.AperFunction,SMDPad,CuDef*
%ADD16FreePoly5,180.000000*%
G04 #@! TD*
G04 #@! TA.AperFunction,SMDPad,CuDef*
%ADD17FreePoly6,180.000000*%
G04 #@! TD*
G04 #@! TA.AperFunction,SMDPad,CuDef*
%ADD18FreePoly7,180.000000*%
G04 #@! TD*
G04 #@! TA.AperFunction,SMDPad,CuDef*
%ADD19FreePoly8,180.000000*%
G04 #@! TD*
G04 #@! TA.AperFunction,SMDPad,CuDef*
%ADD20FreePoly9,180.000000*%
G04 #@! TD*
G04 #@! TA.AperFunction,SMDPad,CuDef*
%ADD21FreePoly10,180.000000*%
G04 #@! TD*
G04 #@! TA.AperFunction,SMDPad,CuDef*
%ADD22FreePoly11,180.000000*%
G04 #@! TD*
G04 #@! TA.AperFunction,SMDPad,CuDef*
%ADD23FreePoly12,180.000000*%
G04 #@! TD*
G04 #@! TA.AperFunction,SMDPad,CuDef*
%ADD24FreePoly13,180.000000*%
G04 #@! TD*
G04 #@! TA.AperFunction,SMDPad,CuDef*
%ADD25FreePoly14,180.000000*%
G04 #@! TD*
G04 #@! TA.AperFunction,SMDPad,CuDef*
%ADD26FreePoly15,180.000000*%
G04 #@! TD*
G04 #@! TA.AperFunction,SMDPad,CuDef*
%ADD27FreePoly16,180.000000*%
G04 #@! TD*
G04 #@! TA.AperFunction,SMDPad,CuDef*
%ADD28FreePoly17,180.000000*%
G04 #@! TD*
G04 #@! TA.AperFunction,SMDPad,CuDef*
%ADD29FreePoly18,180.000000*%
G04 #@! TD*
G04 #@! TA.AperFunction,SMDPad,CuDef*
%ADD30FreePoly19,180.000000*%
G04 #@! TD*
G04 #@! TA.AperFunction,SMDPad,CuDef*
%ADD31FreePoly20,180.000000*%
G04 #@! TD*
G04 #@! TA.AperFunction,SMDPad,CuDef*
%ADD32FreePoly21,180.000000*%
G04 #@! TD*
G04 #@! TA.AperFunction,SMDPad,CuDef*
%ADD33FreePoly22,180.000000*%
G04 #@! TD*
G04 #@! TA.AperFunction,SMDPad,CuDef*
%ADD34FreePoly23,180.000000*%
G04 #@! TD*
G04 #@! TA.AperFunction,SMDPad,CuDef*
%ADD35FreePoly24,180.000000*%
G04 #@! TD*
G04 #@! TA.AperFunction,SMDPad,CuDef*
%ADD36FreePoly25,180.000000*%
G04 #@! TD*
G04 #@! TA.AperFunction,SMDPad,CuDef*
%ADD37FreePoly26,180.000000*%
G04 #@! TD*
G04 #@! TA.AperFunction,SMDPad,CuDef*
%ADD38FreePoly27,180.000000*%
G04 #@! TD*
G04 #@! TA.AperFunction,SMDPad,CuDef*
%ADD39FreePoly28,180.000000*%
G04 #@! TD*
G04 #@! TA.AperFunction,SMDPad,CuDef*
%ADD40FreePoly1,0.000000*%
G04 #@! TD*
G04 #@! TA.AperFunction,SMDPad,CuDef*
%ADD41FreePoly0,0.000000*%
G04 #@! TD*
G04 #@! TA.AperFunction,SMDPad,CuDef*
%ADD42FreePoly2,0.000000*%
G04 #@! TD*
G04 #@! TA.AperFunction,SMDPad,CuDef*
%ADD43FreePoly3,0.000000*%
G04 #@! TD*
G04 #@! TA.AperFunction,SMDPad,CuDef*
%ADD44FreePoly4,0.000000*%
G04 #@! TD*
G04 #@! TA.AperFunction,SMDPad,CuDef*
%ADD45FreePoly5,0.000000*%
G04 #@! TD*
G04 #@! TA.AperFunction,SMDPad,CuDef*
%ADD46FreePoly6,0.000000*%
G04 #@! TD*
G04 #@! TA.AperFunction,SMDPad,CuDef*
%ADD47FreePoly7,0.000000*%
G04 #@! TD*
G04 #@! TA.AperFunction,SMDPad,CuDef*
%ADD48FreePoly8,0.000000*%
G04 #@! TD*
G04 #@! TA.AperFunction,SMDPad,CuDef*
%ADD49FreePoly9,0.000000*%
G04 #@! TD*
G04 #@! TA.AperFunction,SMDPad,CuDef*
%ADD50FreePoly10,0.000000*%
G04 #@! TD*
G04 #@! TA.AperFunction,SMDPad,CuDef*
%ADD51FreePoly11,0.000000*%
G04 #@! TD*
G04 #@! TA.AperFunction,SMDPad,CuDef*
%ADD52FreePoly12,0.000000*%
G04 #@! TD*
G04 #@! TA.AperFunction,SMDPad,CuDef*
%ADD53FreePoly13,0.000000*%
G04 #@! TD*
G04 #@! TA.AperFunction,SMDPad,CuDef*
%ADD54FreePoly14,0.000000*%
G04 #@! TD*
G04 #@! TA.AperFunction,SMDPad,CuDef*
%ADD55FreePoly15,0.000000*%
G04 #@! TD*
G04 #@! TA.AperFunction,SMDPad,CuDef*
%ADD56FreePoly16,0.000000*%
G04 #@! TD*
G04 #@! TA.AperFunction,SMDPad,CuDef*
%ADD57FreePoly17,0.000000*%
G04 #@! TD*
G04 #@! TA.AperFunction,SMDPad,CuDef*
%ADD58FreePoly18,0.000000*%
G04 #@! TD*
G04 #@! TA.AperFunction,SMDPad,CuDef*
%ADD59FreePoly19,0.000000*%
G04 #@! TD*
G04 #@! TA.AperFunction,SMDPad,CuDef*
%ADD60FreePoly20,0.000000*%
G04 #@! TD*
G04 #@! TA.AperFunction,SMDPad,CuDef*
%ADD61FreePoly21,0.000000*%
G04 #@! TD*
G04 #@! TA.AperFunction,SMDPad,CuDef*
%ADD62FreePoly22,0.000000*%
G04 #@! TD*
G04 #@! TA.AperFunction,SMDPad,CuDef*
%ADD63FreePoly23,0.000000*%
G04 #@! TD*
G04 #@! TA.AperFunction,SMDPad,CuDef*
%ADD64FreePoly24,0.000000*%
G04 #@! TD*
G04 #@! TA.AperFunction,SMDPad,CuDef*
%ADD65FreePoly25,0.000000*%
G04 #@! TD*
G04 #@! TA.AperFunction,SMDPad,CuDef*
%ADD66FreePoly26,0.000000*%
G04 #@! TD*
G04 #@! TA.AperFunction,SMDPad,CuDef*
%ADD67FreePoly27,0.000000*%
G04 #@! TD*
G04 #@! TA.AperFunction,SMDPad,CuDef*
%ADD68FreePoly28,0.000000*%
G04 #@! TD*
G04 #@! TA.AperFunction,SMDPad,CuDef*
%ADD69RoundRect,0.137500X0.612500X0.137500X-0.612500X0.137500X-0.612500X-0.137500X0.612500X-0.137500X0*%
G04 #@! TD*
G04 #@! TA.AperFunction,ComponentPad*
%ADD70RotRect,1.600000X2.000000X45.000000*%
G04 #@! TD*
G04 #@! TA.AperFunction,ComponentPad*
%ADD71HorizOval,1.600000X-0.141421X0.141421X0.141421X-0.141421X0*%
G04 #@! TD*
G04 #@! TA.AperFunction,ComponentPad*
%ADD72RoundRect,0.468000X-1.032000X-0.132000X1.032000X-0.132000X1.032000X0.132000X-1.032000X0.132000X0*%
G04 #@! TD*
G04 #@! TA.AperFunction,ViaPad*
%ADD73C,0.600000*%
G04 #@! TD*
G04 #@! TA.AperFunction,Conductor*
%ADD74C,0.635000*%
G04 #@! TD*
G04 APERTURE END LIST*
D10*
X137409299Y-86304190D03*
D11*
X124563049Y-89974190D03*
D12*
X124563049Y-89974190D03*
D13*
X124563049Y-89974190D03*
D14*
X124563049Y-89974190D03*
D15*
X124563049Y-89974190D03*
D16*
X124563049Y-89974190D03*
D17*
X124563049Y-89974190D03*
D18*
X124563049Y-89974190D03*
D19*
X124563049Y-89974190D03*
D20*
X124563049Y-89974190D03*
D21*
X124563049Y-89974190D03*
D22*
X124563049Y-89974190D03*
D23*
X124563049Y-89974190D03*
D24*
X124563049Y-89974190D03*
D25*
X124563049Y-89974190D03*
D26*
X124563049Y-89974190D03*
D27*
X124563049Y-89974190D03*
D28*
X124563049Y-89974190D03*
D29*
X124563049Y-89974190D03*
D30*
X124563049Y-89974190D03*
D31*
X124563049Y-89974190D03*
D32*
X124563049Y-89974190D03*
D33*
X124563049Y-89974190D03*
D34*
X124563049Y-89974190D03*
D35*
X124563049Y-89974190D03*
D36*
X124563049Y-89974190D03*
D37*
X124563049Y-89974190D03*
D38*
X124563049Y-89974190D03*
D39*
X124563049Y-89974190D03*
D40*
X121363049Y-89944190D03*
D41*
X121363049Y-89944190D03*
D42*
X121363049Y-89944190D03*
D43*
X121363049Y-89944190D03*
D44*
X121363049Y-89944190D03*
D45*
X121363049Y-89944190D03*
D46*
X121363049Y-89944190D03*
D47*
X121363049Y-89944190D03*
D48*
X121363049Y-89944190D03*
D49*
X121363049Y-89944190D03*
D50*
X121363049Y-89944190D03*
D51*
X121363049Y-89944190D03*
D52*
X121363049Y-89944190D03*
D53*
X121363049Y-89944190D03*
D54*
X121363049Y-89944190D03*
D55*
X121363049Y-89944190D03*
D56*
X121363049Y-89944190D03*
D57*
X121363049Y-89944190D03*
D58*
X121363049Y-89944190D03*
D59*
X121363049Y-89944190D03*
D60*
X121363049Y-89944190D03*
D61*
X121363049Y-89944190D03*
D62*
X121363049Y-89944190D03*
D63*
X121363049Y-89944190D03*
D64*
X121363049Y-89944190D03*
D65*
X121363049Y-89944190D03*
D66*
X121363049Y-89944190D03*
D67*
X121363049Y-89944190D03*
D68*
X121363049Y-89944190D03*
D69*
X135995299Y-81859190D03*
X135995299Y-80589190D03*
X135995299Y-79319190D03*
X135995299Y-78049190D03*
X130695299Y-78049190D03*
X130695299Y-79319190D03*
X130695299Y-80589190D03*
X130695299Y-81859190D03*
D70*
X141236069Y-89081171D03*
D71*
X155378205Y-74939035D03*
D10*
X131059299Y-86304190D03*
D11*
X114563049Y-89974190D03*
D12*
X114563049Y-89974190D03*
D13*
X114563049Y-89974190D03*
D14*
X114563049Y-89974190D03*
D15*
X114563049Y-89974190D03*
D16*
X114563049Y-89974190D03*
D17*
X114563049Y-89974190D03*
D18*
X114563049Y-89974190D03*
D19*
X114563049Y-89974190D03*
D20*
X114563049Y-89974190D03*
D21*
X114563049Y-89974190D03*
D22*
X114563049Y-89974190D03*
D23*
X114563049Y-89974190D03*
D24*
X114563049Y-89974190D03*
D25*
X114563049Y-89974190D03*
D26*
X114563049Y-89974190D03*
D27*
X114563049Y-89974190D03*
D28*
X114563049Y-89974190D03*
D29*
X114563049Y-89974190D03*
D30*
X114563049Y-89974190D03*
D31*
X114563049Y-89974190D03*
D32*
X114563049Y-89974190D03*
D33*
X114563049Y-89974190D03*
D34*
X114563049Y-89974190D03*
D35*
X114563049Y-89974190D03*
D36*
X114563049Y-89974190D03*
D37*
X114563049Y-89974190D03*
D38*
X114563049Y-89974190D03*
D39*
X114563049Y-89974190D03*
D40*
X111363049Y-89944190D03*
D41*
X111363049Y-89944190D03*
D42*
X111363049Y-89944190D03*
D43*
X111363049Y-89944190D03*
D44*
X111363049Y-89944190D03*
D45*
X111363049Y-89944190D03*
D46*
X111363049Y-89944190D03*
D47*
X111363049Y-89944190D03*
D48*
X111363049Y-89944190D03*
D49*
X111363049Y-89944190D03*
D50*
X111363049Y-89944190D03*
D51*
X111363049Y-89944190D03*
D52*
X111363049Y-89944190D03*
D53*
X111363049Y-89944190D03*
D54*
X111363049Y-89944190D03*
D55*
X111363049Y-89944190D03*
D56*
X111363049Y-89944190D03*
D57*
X111363049Y-89944190D03*
D58*
X111363049Y-89944190D03*
D59*
X111363049Y-89944190D03*
D60*
X111363049Y-89944190D03*
D61*
X111363049Y-89944190D03*
D62*
X111363049Y-89944190D03*
D63*
X111363049Y-89944190D03*
D64*
X111363049Y-89944190D03*
D65*
X111363049Y-89944190D03*
D66*
X111363049Y-89944190D03*
D67*
X111363049Y-89944190D03*
D68*
X111363049Y-89944190D03*
D11*
X124563049Y-69974190D03*
D12*
X124563049Y-69974190D03*
D13*
X124563049Y-69974190D03*
D14*
X124563049Y-69974190D03*
D15*
X124563049Y-69974190D03*
D16*
X124563049Y-69974190D03*
D17*
X124563049Y-69974190D03*
D18*
X124563049Y-69974190D03*
D19*
X124563049Y-69974190D03*
D20*
X124563049Y-69974190D03*
D21*
X124563049Y-69974190D03*
D22*
X124563049Y-69974190D03*
D23*
X124563049Y-69974190D03*
D24*
X124563049Y-69974190D03*
D25*
X124563049Y-69974190D03*
D26*
X124563049Y-69974190D03*
D27*
X124563049Y-69974190D03*
D28*
X124563049Y-69974190D03*
D29*
X124563049Y-69974190D03*
D30*
X124563049Y-69974190D03*
D31*
X124563049Y-69974190D03*
D32*
X124563049Y-69974190D03*
D33*
X124563049Y-69974190D03*
D34*
X124563049Y-69974190D03*
D35*
X124563049Y-69974190D03*
D36*
X124563049Y-69974190D03*
D37*
X124563049Y-69974190D03*
D38*
X124563049Y-69974190D03*
D39*
X124563049Y-69974190D03*
D40*
X121363049Y-69944190D03*
D41*
X121363049Y-69944190D03*
D42*
X121363049Y-69944190D03*
D43*
X121363049Y-69944190D03*
D44*
X121363049Y-69944190D03*
D45*
X121363049Y-69944190D03*
D46*
X121363049Y-69944190D03*
D47*
X121363049Y-69944190D03*
D48*
X121363049Y-69944190D03*
D49*
X121363049Y-69944190D03*
D50*
X121363049Y-69944190D03*
D51*
X121363049Y-69944190D03*
D52*
X121363049Y-69944190D03*
D53*
X121363049Y-69944190D03*
D54*
X121363049Y-69944190D03*
D55*
X121363049Y-69944190D03*
D56*
X121363049Y-69944190D03*
D57*
X121363049Y-69944190D03*
D58*
X121363049Y-69944190D03*
D59*
X121363049Y-69944190D03*
D60*
X121363049Y-69944190D03*
D61*
X121363049Y-69944190D03*
D62*
X121363049Y-69944190D03*
D63*
X121363049Y-69944190D03*
D64*
X121363049Y-69944190D03*
D65*
X121363049Y-69944190D03*
D66*
X121363049Y-69944190D03*
D67*
X121363049Y-69944190D03*
D68*
X121363049Y-69944190D03*
D72*
X137863049Y-74454190D03*
X137863049Y-76304190D03*
D11*
X134563049Y-89974190D03*
D12*
X134563049Y-89974190D03*
D13*
X134563049Y-89974190D03*
D14*
X134563049Y-89974190D03*
D15*
X134563049Y-89974190D03*
D16*
X134563049Y-89974190D03*
D17*
X134563049Y-89974190D03*
D18*
X134563049Y-89974190D03*
D19*
X134563049Y-89974190D03*
D20*
X134563049Y-89974190D03*
D21*
X134563049Y-89974190D03*
D22*
X134563049Y-89974190D03*
D23*
X134563049Y-89974190D03*
D24*
X134563049Y-89974190D03*
D25*
X134563049Y-89974190D03*
D26*
X134563049Y-89974190D03*
D27*
X134563049Y-89974190D03*
D28*
X134563049Y-89974190D03*
D29*
X134563049Y-89974190D03*
D30*
X134563049Y-89974190D03*
D31*
X134563049Y-89974190D03*
D32*
X134563049Y-89974190D03*
D33*
X134563049Y-89974190D03*
D34*
X134563049Y-89974190D03*
D35*
X134563049Y-89974190D03*
D36*
X134563049Y-89974190D03*
D37*
X134563049Y-89974190D03*
D38*
X134563049Y-89974190D03*
D39*
X134563049Y-89974190D03*
D40*
X131363049Y-89944190D03*
D41*
X131363049Y-89944190D03*
D42*
X131363049Y-89944190D03*
D43*
X131363049Y-89944190D03*
D44*
X131363049Y-89944190D03*
D45*
X131363049Y-89944190D03*
D46*
X131363049Y-89944190D03*
D47*
X131363049Y-89944190D03*
D48*
X131363049Y-89944190D03*
D49*
X131363049Y-89944190D03*
D50*
X131363049Y-89944190D03*
D51*
X131363049Y-89944190D03*
D52*
X131363049Y-89944190D03*
D53*
X131363049Y-89944190D03*
D54*
X131363049Y-89944190D03*
D55*
X131363049Y-89944190D03*
D56*
X131363049Y-89944190D03*
D57*
X131363049Y-89944190D03*
D58*
X131363049Y-89944190D03*
D59*
X131363049Y-89944190D03*
D60*
X131363049Y-89944190D03*
D61*
X131363049Y-89944190D03*
D62*
X131363049Y-89944190D03*
D63*
X131363049Y-89944190D03*
D64*
X131363049Y-89944190D03*
D65*
X131363049Y-89944190D03*
D66*
X131363049Y-89944190D03*
D67*
X131363049Y-89944190D03*
D68*
X131363049Y-89944190D03*
D10*
X134869299Y-86304190D03*
D11*
X114563049Y-69974190D03*
D12*
X114563049Y-69974190D03*
D13*
X114563049Y-69974190D03*
D14*
X114563049Y-69974190D03*
D15*
X114563049Y-69974190D03*
D16*
X114563049Y-69974190D03*
D17*
X114563049Y-69974190D03*
D18*
X114563049Y-69974190D03*
D19*
X114563049Y-69974190D03*
D20*
X114563049Y-69974190D03*
D21*
X114563049Y-69974190D03*
D22*
X114563049Y-69974190D03*
D23*
X114563049Y-69974190D03*
D24*
X114563049Y-69974190D03*
D25*
X114563049Y-69974190D03*
D26*
X114563049Y-69974190D03*
D27*
X114563049Y-69974190D03*
D28*
X114563049Y-69974190D03*
D29*
X114563049Y-69974190D03*
D30*
X114563049Y-69974190D03*
D31*
X114563049Y-69974190D03*
D32*
X114563049Y-69974190D03*
D33*
X114563049Y-69974190D03*
D34*
X114563049Y-69974190D03*
D35*
X114563049Y-69974190D03*
D36*
X114563049Y-69974190D03*
D37*
X114563049Y-69974190D03*
D38*
X114563049Y-69974190D03*
D39*
X114563049Y-69974190D03*
D40*
X111363049Y-69944190D03*
D41*
X111363049Y-69944190D03*
D42*
X111363049Y-69944190D03*
D43*
X111363049Y-69944190D03*
D44*
X111363049Y-69944190D03*
D45*
X111363049Y-69944190D03*
D46*
X111363049Y-69944190D03*
D47*
X111363049Y-69944190D03*
D48*
X111363049Y-69944190D03*
D49*
X111363049Y-69944190D03*
D50*
X111363049Y-69944190D03*
D51*
X111363049Y-69944190D03*
D52*
X111363049Y-69944190D03*
D53*
X111363049Y-69944190D03*
D54*
X111363049Y-69944190D03*
D55*
X111363049Y-69944190D03*
D56*
X111363049Y-69944190D03*
D57*
X111363049Y-69944190D03*
D58*
X111363049Y-69944190D03*
D59*
X111363049Y-69944190D03*
D60*
X111363049Y-69944190D03*
D61*
X111363049Y-69944190D03*
D62*
X111363049Y-69944190D03*
D63*
X111363049Y-69944190D03*
D64*
X111363049Y-69944190D03*
D65*
X111363049Y-69944190D03*
D66*
X111363049Y-69944190D03*
D67*
X111363049Y-69944190D03*
D68*
X111363049Y-69944190D03*
D11*
X124563049Y-79974190D03*
D12*
X124563049Y-79974190D03*
D13*
X124563049Y-79974190D03*
D14*
X124563049Y-79974190D03*
D15*
X124563049Y-79974190D03*
D16*
X124563049Y-79974190D03*
D17*
X124563049Y-79974190D03*
D18*
X124563049Y-79974190D03*
D19*
X124563049Y-79974190D03*
D20*
X124563049Y-79974190D03*
D21*
X124563049Y-79974190D03*
D22*
X124563049Y-79974190D03*
D23*
X124563049Y-79974190D03*
D24*
X124563049Y-79974190D03*
D25*
X124563049Y-79974190D03*
D26*
X124563049Y-79974190D03*
D27*
X124563049Y-79974190D03*
D28*
X124563049Y-79974190D03*
D29*
X124563049Y-79974190D03*
D30*
X124563049Y-79974190D03*
D31*
X124563049Y-79974190D03*
D32*
X124563049Y-79974190D03*
D33*
X124563049Y-79974190D03*
D34*
X124563049Y-79974190D03*
D35*
X124563049Y-79974190D03*
D36*
X124563049Y-79974190D03*
D37*
X124563049Y-79974190D03*
D38*
X124563049Y-79974190D03*
D39*
X124563049Y-79974190D03*
D40*
X121363049Y-79944190D03*
D41*
X121363049Y-79944190D03*
D42*
X121363049Y-79944190D03*
D43*
X121363049Y-79944190D03*
D44*
X121363049Y-79944190D03*
D45*
X121363049Y-79944190D03*
D46*
X121363049Y-79944190D03*
D47*
X121363049Y-79944190D03*
D48*
X121363049Y-79944190D03*
D49*
X121363049Y-79944190D03*
D50*
X121363049Y-79944190D03*
D51*
X121363049Y-79944190D03*
D52*
X121363049Y-79944190D03*
D53*
X121363049Y-79944190D03*
D54*
X121363049Y-79944190D03*
D55*
X121363049Y-79944190D03*
D56*
X121363049Y-79944190D03*
D57*
X121363049Y-79944190D03*
D58*
X121363049Y-79944190D03*
D59*
X121363049Y-79944190D03*
D60*
X121363049Y-79944190D03*
D61*
X121363049Y-79944190D03*
D62*
X121363049Y-79944190D03*
D63*
X121363049Y-79944190D03*
D64*
X121363049Y-79944190D03*
D65*
X121363049Y-79944190D03*
D66*
X121363049Y-79944190D03*
D67*
X121363049Y-79944190D03*
D68*
X121363049Y-79944190D03*
D11*
X134563049Y-69974190D03*
D12*
X134563049Y-69974190D03*
D13*
X134563049Y-69974190D03*
D14*
X134563049Y-69974190D03*
D15*
X134563049Y-69974190D03*
D16*
X134563049Y-69974190D03*
D17*
X134563049Y-69974190D03*
D18*
X134563049Y-69974190D03*
D19*
X134563049Y-69974190D03*
D20*
X134563049Y-69974190D03*
D21*
X134563049Y-69974190D03*
D22*
X134563049Y-69974190D03*
D23*
X134563049Y-69974190D03*
D24*
X134563049Y-69974190D03*
D25*
X134563049Y-69974190D03*
D26*
X134563049Y-69974190D03*
D27*
X134563049Y-69974190D03*
D28*
X134563049Y-69974190D03*
D29*
X134563049Y-69974190D03*
D30*
X134563049Y-69974190D03*
D31*
X134563049Y-69974190D03*
D32*
X134563049Y-69974190D03*
D33*
X134563049Y-69974190D03*
D34*
X134563049Y-69974190D03*
D35*
X134563049Y-69974190D03*
D36*
X134563049Y-69974190D03*
D37*
X134563049Y-69974190D03*
D38*
X134563049Y-69974190D03*
D39*
X134563049Y-69974190D03*
D40*
X131363049Y-69944190D03*
D41*
X131363049Y-69944190D03*
D42*
X131363049Y-69944190D03*
D43*
X131363049Y-69944190D03*
D44*
X131363049Y-69944190D03*
D45*
X131363049Y-69944190D03*
D46*
X131363049Y-69944190D03*
D47*
X131363049Y-69944190D03*
D48*
X131363049Y-69944190D03*
D49*
X131363049Y-69944190D03*
D50*
X131363049Y-69944190D03*
D51*
X131363049Y-69944190D03*
D52*
X131363049Y-69944190D03*
D53*
X131363049Y-69944190D03*
D54*
X131363049Y-69944190D03*
D55*
X131363049Y-69944190D03*
D56*
X131363049Y-69944190D03*
D57*
X131363049Y-69944190D03*
D58*
X131363049Y-69944190D03*
D59*
X131363049Y-69944190D03*
D60*
X131363049Y-69944190D03*
D61*
X131363049Y-69944190D03*
D62*
X131363049Y-69944190D03*
D63*
X131363049Y-69944190D03*
D64*
X131363049Y-69944190D03*
D65*
X131363049Y-69944190D03*
D66*
X131363049Y-69944190D03*
D67*
X131363049Y-69944190D03*
D68*
X131363049Y-69944190D03*
D73*
X123463049Y-87954190D03*
X125963049Y-87954190D03*
D74*
X137155299Y-78049190D02*
X138679299Y-79573190D01*
X138679299Y-85034190D02*
X137409299Y-86304190D01*
X135995299Y-78049190D02*
X137155299Y-78049190D01*
X138679299Y-86304190D02*
X141236069Y-88860960D01*
X138679299Y-79573190D02*
X138679299Y-85034190D01*
X141236069Y-88860960D02*
X141236069Y-89081171D01*
X137409299Y-86304190D02*
X138679299Y-86304190D01*
X114563049Y-69974190D02*
X121333049Y-69974190D01*
X124463049Y-82454190D02*
X124463049Y-89874190D01*
X124963049Y-82454190D02*
X122463049Y-82454190D01*
X131333049Y-89974190D02*
X131363049Y-89944190D01*
X121333049Y-69974190D02*
X121363049Y-69944190D01*
X130695299Y-79319190D02*
X129598049Y-79319190D01*
X124963049Y-82454190D02*
X124463049Y-82454190D01*
X121363049Y-79944190D02*
X121363049Y-69944190D01*
X124463049Y-89874190D02*
X124563049Y-89974190D01*
X129598049Y-79319190D02*
X126463049Y-82454190D01*
X124563049Y-89974190D02*
X131333049Y-89974190D01*
X121363049Y-81354190D02*
X121363049Y-79944190D01*
X122463049Y-82454190D02*
X121363049Y-81354190D01*
X126463049Y-82454190D02*
X124963049Y-82454190D01*
X129828049Y-80589190D02*
X130695299Y-80589190D01*
X131333049Y-69974190D02*
X131363049Y-69944190D01*
X125963049Y-84454190D02*
X129828049Y-80589190D01*
X131363049Y-71854190D02*
X131363049Y-69944190D01*
X132583299Y-79954190D02*
X132583299Y-73074440D01*
X131948299Y-80589190D02*
X132583299Y-79954190D01*
X121333049Y-89974190D02*
X121363049Y-89944190D01*
X121463049Y-88954190D02*
X121463049Y-89844190D01*
X114563049Y-89974190D02*
X121333049Y-89974190D01*
X122463049Y-87954190D02*
X121463049Y-88954190D01*
X124563049Y-69974190D02*
X131333049Y-69974190D01*
X123463049Y-87954190D02*
X122463049Y-87954190D01*
X125963049Y-87954190D02*
X125963049Y-84454190D01*
X132583299Y-73074440D02*
X131363049Y-71854190D01*
X130695299Y-80589190D02*
X131948299Y-80589190D01*
X121463049Y-89844190D02*
X121363049Y-89944190D01*
X133726299Y-81859190D02*
X133726299Y-87574190D01*
X111363049Y-69944190D02*
X111363049Y-89944190D01*
X134563049Y-88410940D02*
X134563049Y-89974190D01*
X133726299Y-81859190D02*
X135995299Y-81859190D01*
X111363049Y-69944190D02*
X111363049Y-68636951D01*
X133726299Y-87574190D02*
X134563049Y-88410940D01*
X134000000Y-68000000D02*
X134563049Y-68563049D01*
X111363049Y-68636951D02*
X112000000Y-68000000D01*
X134563049Y-68563049D02*
X134563049Y-69974190D01*
X112000000Y-68000000D02*
X134000000Y-68000000D01*
X134563049Y-69974190D02*
X133726299Y-70810940D01*
X133726299Y-70810940D02*
X133726299Y-81859190D01*
X135123299Y-79319190D02*
X135995299Y-79319190D01*
X134742299Y-77414190D02*
X134742299Y-78938190D01*
X134742299Y-78938190D02*
X135123299Y-79319190D01*
X137863049Y-76304190D02*
X135852299Y-76304190D01*
X135852299Y-76304190D02*
X134742299Y-77414190D01*
X127443049Y-79974190D02*
X129368049Y-78049190D01*
X124563049Y-79974190D02*
X127443049Y-79974190D01*
X129368049Y-78049190D02*
X130695299Y-78049190D01*
X131948299Y-82278940D02*
X131528549Y-81859190D01*
X131528549Y-81859190D02*
X130695299Y-81859190D01*
X131948299Y-85415190D02*
X131948299Y-82278940D01*
X131059299Y-86304190D02*
X131948299Y-85415190D01*
G04 #@! TA.AperFunction,Conductor*
G36*
X116809013Y-81927571D02*
G01*
X117240399Y-82143264D01*
X117519605Y-82282867D01*
X117521867Y-82285475D01*
X117524555Y-82287641D01*
X117524669Y-82288706D01*
X117525372Y-82289516D01*
X117525496Y-82296393D01*
X117523971Y-82301587D01*
X117522611Y-82304564D01*
X117465168Y-82393946D01*
X117463025Y-82396420D01*
X117382724Y-82466001D01*
X117379970Y-82467771D01*
X117283319Y-82511910D01*
X117280179Y-82512832D01*
X117175009Y-82527953D01*
X117171735Y-82527953D01*
X117066564Y-82512832D01*
X117063424Y-82511910D01*
X116966773Y-82467771D01*
X116964019Y-82466001D01*
X116883718Y-82396420D01*
X116881575Y-82393946D01*
X116865575Y-82369050D01*
X116824130Y-82304560D01*
X116822773Y-82301590D01*
X116792838Y-82199638D01*
X116792372Y-82196398D01*
X116792372Y-81937858D01*
X116795740Y-81929726D01*
X116803872Y-81926358D01*
X116809013Y-81927571D01*
G37*
G04 #@! TD.AperFunction*
G04 #@! TA.AperFunction,Conductor*
G36*
X117553158Y-81297716D02*
G01*
X117554372Y-81302859D01*
X117554372Y-81713682D01*
X117551004Y-81721814D01*
X117542872Y-81725182D01*
X117537729Y-81723968D01*
X117126906Y-81518557D01*
X117121139Y-81511908D01*
X117121763Y-81503128D01*
X117126906Y-81497985D01*
X117330766Y-81396055D01*
X117537730Y-81292572D01*
X117546509Y-81291949D01*
X117553158Y-81297716D01*
G37*
G04 #@! TD.AperFunction*
G04 #@! TA.AperFunction,Conductor*
G36*
X117280183Y-80503710D02*
G01*
X117283316Y-80504630D01*
X117379970Y-80548770D01*
X117382724Y-80550540D01*
X117463025Y-80620121D01*
X117465168Y-80622595D01*
X117522611Y-80711977D01*
X117523971Y-80714954D01*
X117525496Y-80720147D01*
X117524556Y-80728898D01*
X117519605Y-80733673D01*
X116809015Y-81088968D01*
X116800235Y-81089592D01*
X116793586Y-81083825D01*
X116792372Y-81078682D01*
X116792372Y-80820143D01*
X116792838Y-80816903D01*
X116822774Y-80714948D01*
X116824128Y-80711983D01*
X116881576Y-80622593D01*
X116883715Y-80620123D01*
X116964023Y-80550537D01*
X116966769Y-80548772D01*
X117063429Y-80504629D01*
X117066558Y-80503710D01*
X117171738Y-80488588D01*
X117175006Y-80488588D01*
X117280183Y-80503710D01*
G37*
G04 #@! TD.AperFunction*
G04 #@! TA.AperFunction,Conductor*
G36*
X114207957Y-78053351D02*
G01*
X114211325Y-78061483D01*
X114211325Y-79245380D01*
X114207957Y-79253512D01*
X114199825Y-79256880D01*
X113015928Y-79256880D01*
X113007796Y-79253512D01*
X113004428Y-79245380D01*
X113004428Y-79015500D01*
X113245808Y-79015500D01*
X113245809Y-79015500D01*
X113969945Y-79015500D01*
X113969946Y-79015500D01*
X113969946Y-78291362D01*
X113245808Y-78291362D01*
X113245808Y-79015500D01*
X113004428Y-79015500D01*
X113004428Y-78061483D01*
X113007796Y-78053351D01*
X113015928Y-78049983D01*
X114199825Y-78049983D01*
X114207957Y-78053351D01*
G37*
G04 #@! TD.AperFunction*
G04 #@! TA.AperFunction,Conductor*
G36*
X118070026Y-78536110D02*
G01*
X118073394Y-78544242D01*
X118073394Y-78774121D01*
X118544652Y-78774121D01*
X118552784Y-78777489D01*
X118556152Y-78785621D01*
X118556152Y-79245380D01*
X118552784Y-79253512D01*
X118544652Y-79256880D01*
X118084894Y-79256880D01*
X118076762Y-79253512D01*
X118073394Y-79245380D01*
X118073394Y-79015501D01*
X118073394Y-79015500D01*
X118073393Y-79015500D01*
X117843515Y-79015500D01*
X117835383Y-79012132D01*
X117832015Y-79004000D01*
X117832015Y-78544242D01*
X117835383Y-78536110D01*
X117843515Y-78532742D01*
X118061894Y-78532742D01*
X118070026Y-78536110D01*
G37*
G04 #@! TD.AperFunction*
G04 #@! TA.AperFunction,Conductor*
G36*
X116380371Y-78053351D02*
G01*
X116383739Y-78061483D01*
X116383739Y-78291362D01*
X116383740Y-78291362D01*
X116613618Y-78291362D01*
X116621750Y-78294730D01*
X116625118Y-78302862D01*
X116625118Y-78532742D01*
X116854997Y-78532742D01*
X116863129Y-78536110D01*
X116866497Y-78544242D01*
X116866497Y-78762621D01*
X116863129Y-78770753D01*
X116854997Y-78774121D01*
X116625118Y-78774121D01*
X116625118Y-78774122D01*
X116625118Y-79004000D01*
X116621750Y-79012132D01*
X116613618Y-79015500D01*
X116153859Y-79015500D01*
X116145727Y-79012132D01*
X116142359Y-79004000D01*
X116142359Y-78774122D01*
X116142359Y-78774121D01*
X116142358Y-78774121D01*
X115912480Y-78774121D01*
X115904348Y-78770753D01*
X115900980Y-78762621D01*
X115900980Y-78544242D01*
X115904348Y-78536110D01*
X115912480Y-78532742D01*
X116142358Y-78532742D01*
X116142359Y-78532742D01*
X116142359Y-78291362D01*
X116142359Y-78061483D01*
X116145727Y-78053351D01*
X116153859Y-78049983D01*
X116372239Y-78049983D01*
X116380371Y-78053351D01*
G37*
G04 #@! TD.AperFunction*
G04 #@! TA.AperFunction,Conductor*
G36*
X117104509Y-78777489D02*
G01*
X117107877Y-78785621D01*
X117107877Y-79004000D01*
X117104509Y-79012132D01*
X117096377Y-79015500D01*
X116877997Y-79015500D01*
X116869865Y-79012132D01*
X116866497Y-79004000D01*
X116866497Y-78785621D01*
X116869865Y-78777489D01*
X116877997Y-78774121D01*
X117096377Y-78774121D01*
X117104509Y-78777489D01*
G37*
G04 #@! TD.AperFunction*
G04 #@! TA.AperFunction,Conductor*
G36*
X115656233Y-78536110D02*
G01*
X115659601Y-78544242D01*
X115659601Y-78762621D01*
X115656233Y-78770753D01*
X115648101Y-78774121D01*
X115429721Y-78774121D01*
X115421589Y-78770753D01*
X115418221Y-78762621D01*
X115418221Y-78544242D01*
X115421589Y-78536110D01*
X115429721Y-78532742D01*
X115648101Y-78532742D01*
X115656233Y-78536110D01*
G37*
G04 #@! TD.AperFunction*
G04 #@! TA.AperFunction,Conductor*
G36*
X117345888Y-75398179D02*
G01*
X117349256Y-75406311D01*
X117349256Y-75636190D01*
X117579135Y-75636190D01*
X117587267Y-75639558D01*
X117590635Y-75647690D01*
X117590635Y-75877569D01*
X117590635Y-76118949D01*
X117590635Y-76360328D01*
X117590635Y-76601707D01*
X117590635Y-76843087D01*
X117820515Y-76843087D01*
X117828647Y-76846455D01*
X117832015Y-76854587D01*
X117832015Y-77072966D01*
X117828647Y-77081098D01*
X117820515Y-77084466D01*
X117590635Y-77084466D01*
X117590635Y-77084467D01*
X117590635Y-77314345D01*
X117587267Y-77322477D01*
X117579135Y-77325845D01*
X117349256Y-77325845D01*
X117349256Y-77567225D01*
X117349256Y-77808604D01*
X117579135Y-77808604D01*
X117587267Y-77811972D01*
X117590635Y-77820104D01*
X117590635Y-78521242D01*
X117587267Y-78529374D01*
X117579135Y-78532742D01*
X117119377Y-78532742D01*
X117111245Y-78529374D01*
X117107877Y-78521242D01*
X117107877Y-78302862D01*
X117111245Y-78294730D01*
X117119377Y-78291362D01*
X117349255Y-78291362D01*
X117349256Y-78291362D01*
X117349256Y-78049983D01*
X117119377Y-78049983D01*
X117111245Y-78046615D01*
X117107877Y-78038483D01*
X117107877Y-77808605D01*
X117107877Y-77808604D01*
X117107876Y-77808604D01*
X116877997Y-77808604D01*
X116869865Y-77805236D01*
X116866497Y-77797104D01*
X116866497Y-77567226D01*
X116866497Y-77567225D01*
X116625118Y-77567225D01*
X116625118Y-77567226D01*
X116625118Y-78038483D01*
X116621750Y-78046615D01*
X116613618Y-78049983D01*
X116395239Y-78049983D01*
X116387107Y-78046615D01*
X116383739Y-78038483D01*
X116383739Y-77808605D01*
X116383739Y-77808604D01*
X115912480Y-77808604D01*
X115904348Y-77805236D01*
X115900980Y-77797104D01*
X115900980Y-77578725D01*
X115904348Y-77570593D01*
X115912480Y-77567225D01*
X116383738Y-77567225D01*
X116383739Y-77567225D01*
X116383739Y-77325845D01*
X115429721Y-77325845D01*
X115421589Y-77322477D01*
X115418221Y-77314345D01*
X115418221Y-77084467D01*
X115418221Y-77084466D01*
X115188342Y-77084466D01*
X115180210Y-77081098D01*
X115176842Y-77072966D01*
X115176842Y-76854587D01*
X115180210Y-76846455D01*
X115188342Y-76843087D01*
X115889480Y-76843087D01*
X115897612Y-76846455D01*
X115900980Y-76854587D01*
X115900980Y-77084466D01*
X115900981Y-77084466D01*
X116142358Y-77084466D01*
X116142359Y-77084466D01*
X116142359Y-76854587D01*
X116145727Y-76846455D01*
X116153859Y-76843087D01*
X116383738Y-76843087D01*
X116383739Y-76843087D01*
X116383739Y-76613207D01*
X116387107Y-76605075D01*
X116395239Y-76601707D01*
X116625117Y-76601707D01*
X116625118Y-76601707D01*
X116625118Y-76371828D01*
X116628486Y-76363696D01*
X116636618Y-76360328D01*
X116854997Y-76360328D01*
X116863129Y-76363696D01*
X116866497Y-76371828D01*
X116866497Y-76601707D01*
X116866498Y-76601707D01*
X117096377Y-76601707D01*
X117104509Y-76605075D01*
X117107877Y-76613207D01*
X117107877Y-76831587D01*
X117104509Y-76839719D01*
X117096377Y-76843087D01*
X116625118Y-76843087D01*
X116625118Y-77084466D01*
X116854997Y-77084466D01*
X116863129Y-77087834D01*
X116866497Y-77095966D01*
X116866497Y-77325845D01*
X116866498Y-77325845D01*
X117107876Y-77325845D01*
X117107877Y-77325845D01*
X117107877Y-77095966D01*
X117111245Y-77087834D01*
X117119377Y-77084466D01*
X117349255Y-77084466D01*
X117349256Y-77084466D01*
X117349256Y-76843087D01*
X117349256Y-76601707D01*
X117119377Y-76601707D01*
X117111245Y-76598339D01*
X117107877Y-76590207D01*
X117107877Y-76371828D01*
X117111245Y-76363696D01*
X117119377Y-76360328D01*
X117349255Y-76360328D01*
X117349256Y-76360328D01*
X117349256Y-76118949D01*
X117349256Y-75877569D01*
X116866497Y-75877569D01*
X116866497Y-75877570D01*
X116866497Y-76107449D01*
X116863129Y-76115581D01*
X116854997Y-76118949D01*
X116625118Y-76118949D01*
X116625118Y-76118950D01*
X116625118Y-76348828D01*
X116621750Y-76356960D01*
X116613618Y-76360328D01*
X116395239Y-76360328D01*
X116387107Y-76356960D01*
X116383739Y-76348828D01*
X116383739Y-75889069D01*
X116387107Y-75880937D01*
X116395239Y-75877569D01*
X116625117Y-75877569D01*
X116625118Y-75877569D01*
X116625118Y-75647690D01*
X116628486Y-75639558D01*
X116636618Y-75636190D01*
X117107876Y-75636190D01*
X117107877Y-75636190D01*
X117107877Y-75406311D01*
X117111245Y-75398179D01*
X117119377Y-75394811D01*
X117337756Y-75394811D01*
X117345888Y-75398179D01*
G37*
G04 #@! TD.AperFunction*
G04 #@! TA.AperFunction,Conductor*
G36*
X115173474Y-77087834D02*
G01*
X115176842Y-77095966D01*
X115176842Y-77325845D01*
X115176843Y-77325845D01*
X115406721Y-77325845D01*
X115414853Y-77329213D01*
X115418221Y-77337345D01*
X115418221Y-77567225D01*
X115648101Y-77567225D01*
X115656233Y-77570593D01*
X115659601Y-77578725D01*
X115659601Y-77808604D01*
X115659602Y-77808604D01*
X115889480Y-77808604D01*
X115897612Y-77811972D01*
X115900980Y-77820104D01*
X115900980Y-78279862D01*
X115897612Y-78287994D01*
X115889480Y-78291362D01*
X115429721Y-78291362D01*
X115421589Y-78287994D01*
X115418221Y-78279862D01*
X115418221Y-77808605D01*
X115418221Y-77808604D01*
X115418220Y-77808604D01*
X115188342Y-77808604D01*
X115180210Y-77805236D01*
X115176842Y-77797104D01*
X115176842Y-77567226D01*
X115176842Y-77567225D01*
X115176841Y-77567225D01*
X114946963Y-77567225D01*
X114938831Y-77563857D01*
X114935463Y-77555725D01*
X114935463Y-77325846D01*
X114935463Y-77325845D01*
X114935462Y-77325845D01*
X114705583Y-77325845D01*
X114697451Y-77322477D01*
X114694083Y-77314345D01*
X114694083Y-77095966D01*
X114697451Y-77087834D01*
X114705583Y-77084466D01*
X115165342Y-77084466D01*
X115173474Y-77087834D01*
G37*
G04 #@! TD.AperFunction*
G04 #@! TA.AperFunction,Conductor*
G36*
X117104509Y-78053351D02*
G01*
X117107877Y-78061483D01*
X117107877Y-78279862D01*
X117104509Y-78287994D01*
X117096377Y-78291362D01*
X116636618Y-78291362D01*
X116628486Y-78287994D01*
X116625118Y-78279862D01*
X116625118Y-78061483D01*
X116628486Y-78053351D01*
X116636618Y-78049983D01*
X117096377Y-78049983D01*
X117104509Y-78053351D01*
G37*
G04 #@! TD.AperFunction*
G04 #@! TA.AperFunction,Conductor*
G36*
X118552784Y-77570593D02*
G01*
X118556152Y-77578725D01*
X118556152Y-78279862D01*
X118552784Y-78287994D01*
X118544652Y-78291362D01*
X117843515Y-78291362D01*
X117835383Y-78287994D01*
X117832015Y-78279862D01*
X117832015Y-78049983D01*
X118073394Y-78049983D01*
X118073395Y-78049983D01*
X118314772Y-78049983D01*
X118314773Y-78049983D01*
X118314773Y-77808604D01*
X118073394Y-77808604D01*
X118073394Y-78049983D01*
X117832015Y-78049983D01*
X117832015Y-77578725D01*
X117835383Y-77570593D01*
X117843515Y-77567225D01*
X118544652Y-77567225D01*
X118552784Y-77570593D01*
G37*
G04 #@! TD.AperFunction*
G04 #@! TA.AperFunction,Conductor*
G36*
X118794164Y-76122317D02*
G01*
X118797532Y-76130449D01*
X118797532Y-76360328D01*
X118797533Y-76360328D01*
X119038910Y-76360328D01*
X119038911Y-76360328D01*
X119038911Y-76130449D01*
X119042279Y-76122317D01*
X119050411Y-76118949D01*
X119268790Y-76118949D01*
X119276922Y-76122317D01*
X119280290Y-76130449D01*
X119280290Y-76601707D01*
X119280291Y-76601707D01*
X119510170Y-76601707D01*
X119518302Y-76605075D01*
X119521670Y-76613207D01*
X119521670Y-76831587D01*
X119518302Y-76839719D01*
X119510170Y-76843087D01*
X119280290Y-76843087D01*
X119280290Y-76843088D01*
X119280290Y-77314345D01*
X119276922Y-77322477D01*
X119268790Y-77325845D01*
X119038911Y-77325845D01*
X119038911Y-77567225D01*
X119038911Y-77808604D01*
X119268790Y-77808604D01*
X119276922Y-77811972D01*
X119280290Y-77820104D01*
X119280290Y-78038483D01*
X119276922Y-78046615D01*
X119268790Y-78049983D01*
X118809032Y-78049983D01*
X118800900Y-78046615D01*
X118797532Y-78038483D01*
X118797532Y-76854587D01*
X118800900Y-76846455D01*
X118809032Y-76843087D01*
X119038910Y-76843087D01*
X119038911Y-76843087D01*
X119038911Y-76601707D01*
X118797532Y-76601707D01*
X118797532Y-76601708D01*
X118797532Y-76831587D01*
X118794164Y-76839719D01*
X118786032Y-76843087D01*
X118567652Y-76843087D01*
X118559520Y-76839719D01*
X118556152Y-76831587D01*
X118556152Y-76360329D01*
X118556152Y-76360328D01*
X118326273Y-76360328D01*
X118318141Y-76356960D01*
X118314773Y-76348828D01*
X118314773Y-76130449D01*
X118318141Y-76122317D01*
X118326273Y-76118949D01*
X118786032Y-76118949D01*
X118794164Y-76122317D01*
G37*
G04 #@! TD.AperFunction*
G04 #@! TA.AperFunction,Conductor*
G36*
X114449336Y-77087834D02*
G01*
X114452704Y-77095966D01*
X114452704Y-77314345D01*
X114449336Y-77322477D01*
X114441204Y-77325845D01*
X114222825Y-77325845D01*
X114214693Y-77322477D01*
X114211325Y-77314345D01*
X114211325Y-77095966D01*
X114214693Y-77087834D01*
X114222825Y-77084466D01*
X114441204Y-77084466D01*
X114449336Y-77087834D01*
G37*
G04 #@! TD.AperFunction*
G04 #@! TA.AperFunction,Conductor*
G36*
X118311405Y-76846455D02*
G01*
X118314773Y-76854587D01*
X118314773Y-77314345D01*
X118311405Y-77322477D01*
X118303273Y-77325845D01*
X118084894Y-77325845D01*
X118076762Y-77322477D01*
X118073394Y-77314345D01*
X118073394Y-76854587D01*
X118076762Y-76846455D01*
X118084894Y-76843087D01*
X118303273Y-76843087D01*
X118311405Y-76846455D01*
G37*
G04 #@! TD.AperFunction*
G04 #@! TA.AperFunction,Conductor*
G36*
X114207957Y-76363696D02*
G01*
X114211325Y-76371828D01*
X114211325Y-76590207D01*
X114207957Y-76598339D01*
X114199825Y-76601707D01*
X113969946Y-76601707D01*
X113969946Y-76601708D01*
X113969946Y-76831587D01*
X113966578Y-76839719D01*
X113958446Y-76843087D01*
X113728566Y-76843087D01*
X113728566Y-76843088D01*
X113728566Y-77072966D01*
X113725198Y-77081098D01*
X113717066Y-77084466D01*
X113498687Y-77084466D01*
X113490555Y-77081098D01*
X113487187Y-77072966D01*
X113487187Y-76613207D01*
X113490555Y-76605075D01*
X113498687Y-76601707D01*
X113728565Y-76601707D01*
X113728566Y-76601707D01*
X113728566Y-76371828D01*
X113731934Y-76363696D01*
X113740066Y-76360328D01*
X114199825Y-76360328D01*
X114207957Y-76363696D01*
G37*
G04 #@! TD.AperFunction*
G04 #@! TA.AperFunction,Conductor*
G36*
X114207957Y-76846455D02*
G01*
X114211325Y-76854587D01*
X114211325Y-77072966D01*
X114207957Y-77081098D01*
X114199825Y-77084466D01*
X113981446Y-77084466D01*
X113973314Y-77081098D01*
X113969946Y-77072966D01*
X113969946Y-76854587D01*
X113973314Y-76846455D01*
X113981446Y-76843087D01*
X114199825Y-76843087D01*
X114207957Y-76846455D01*
G37*
G04 #@! TD.AperFunction*
G04 #@! TA.AperFunction,Conductor*
G36*
X114690715Y-76846455D02*
G01*
X114694083Y-76854587D01*
X114694083Y-77072966D01*
X114690715Y-77081098D01*
X114682583Y-77084466D01*
X114464204Y-77084466D01*
X114456072Y-77081098D01*
X114452704Y-77072966D01*
X114452704Y-76854587D01*
X114456072Y-76846455D01*
X114464204Y-76843087D01*
X114682583Y-76843087D01*
X114690715Y-76846455D01*
G37*
G04 #@! TD.AperFunction*
G04 #@! TA.AperFunction,Conductor*
G36*
X114449336Y-76605075D02*
G01*
X114452704Y-76613207D01*
X114452704Y-76831587D01*
X114449336Y-76839719D01*
X114441204Y-76843087D01*
X114222825Y-76843087D01*
X114214693Y-76839719D01*
X114211325Y-76831587D01*
X114211325Y-76613207D01*
X114214693Y-76605075D01*
X114222825Y-76601707D01*
X114441204Y-76601707D01*
X114449336Y-76605075D01*
G37*
G04 #@! TD.AperFunction*
G04 #@! TA.AperFunction,Conductor*
G36*
X114690715Y-75880937D02*
G01*
X114694083Y-75889069D01*
X114694083Y-76118949D01*
X115406721Y-76118949D01*
X115414853Y-76122317D01*
X115418221Y-76130449D01*
X115418221Y-76360328D01*
X115648101Y-76360328D01*
X115656233Y-76363696D01*
X115659601Y-76371828D01*
X115659601Y-76590207D01*
X115656233Y-76598339D01*
X115648101Y-76601707D01*
X114935463Y-76601707D01*
X114935463Y-76601708D01*
X114935463Y-76831587D01*
X114932095Y-76839719D01*
X114923963Y-76843087D01*
X114705583Y-76843087D01*
X114697451Y-76839719D01*
X114694083Y-76831587D01*
X114694083Y-76601708D01*
X114694083Y-76601707D01*
X114464204Y-76601707D01*
X114456072Y-76598339D01*
X114452704Y-76590207D01*
X114452704Y-76360329D01*
X114452704Y-76360328D01*
X114222825Y-76360328D01*
X114214693Y-76356960D01*
X114211325Y-76348828D01*
X114211325Y-76130449D01*
X114214693Y-76122317D01*
X114222825Y-76118949D01*
X114452703Y-76118949D01*
X114452704Y-76118949D01*
X114452704Y-75889069D01*
X114456072Y-75880937D01*
X114464204Y-75877569D01*
X114682583Y-75877569D01*
X114690715Y-75880937D01*
G37*
G04 #@! TD.AperFunction*
G04 #@! TA.AperFunction,Conductor*
G36*
X116380371Y-76363696D02*
G01*
X116383739Y-76371828D01*
X116383739Y-76590207D01*
X116380371Y-76598339D01*
X116372239Y-76601707D01*
X116142359Y-76601707D01*
X116142359Y-76601708D01*
X116142359Y-76831587D01*
X116138991Y-76839719D01*
X116130859Y-76843087D01*
X115912480Y-76843087D01*
X115904348Y-76839719D01*
X115900980Y-76831587D01*
X115900980Y-76371828D01*
X115904348Y-76363696D01*
X115912480Y-76360328D01*
X116372239Y-76360328D01*
X116380371Y-76363696D01*
G37*
G04 #@! TD.AperFunction*
G04 #@! TA.AperFunction,Conductor*
G36*
X118311405Y-76363696D02*
G01*
X118314773Y-76371828D01*
X118314773Y-76590207D01*
X118311405Y-76598339D01*
X118303273Y-76601707D01*
X117843515Y-76601707D01*
X117835383Y-76598339D01*
X117832015Y-76590207D01*
X117832015Y-76371828D01*
X117835383Y-76363696D01*
X117843515Y-76360328D01*
X118303273Y-76360328D01*
X118311405Y-76363696D01*
G37*
G04 #@! TD.AperFunction*
G04 #@! TA.AperFunction,Conductor*
G36*
X114207957Y-75398179D02*
G01*
X114211325Y-75406311D01*
X114211325Y-75636190D01*
X114211326Y-75636190D01*
X114441204Y-75636190D01*
X114449336Y-75639558D01*
X114452704Y-75647690D01*
X114452704Y-75866069D01*
X114449336Y-75874201D01*
X114441204Y-75877569D01*
X114211325Y-75877569D01*
X114211325Y-75877570D01*
X114211325Y-76107449D01*
X114207957Y-76115581D01*
X114199825Y-76118949D01*
X113981446Y-76118949D01*
X113973314Y-76115581D01*
X113969946Y-76107449D01*
X113969946Y-75877570D01*
X113969946Y-75877569D01*
X113969945Y-75877569D01*
X113740066Y-75877569D01*
X113731934Y-75874201D01*
X113728566Y-75866069D01*
X113728566Y-75647690D01*
X113731934Y-75639558D01*
X113740066Y-75636190D01*
X113969945Y-75636190D01*
X113969946Y-75636190D01*
X113969946Y-75406311D01*
X113973314Y-75398179D01*
X113981446Y-75394811D01*
X114199825Y-75394811D01*
X114207957Y-75398179D01*
G37*
G04 #@! TD.AperFunction*
G04 #@! TA.AperFunction,Conductor*
G36*
X115897612Y-75639558D02*
G01*
X115900980Y-75647690D01*
X115900980Y-76107449D01*
X115897612Y-76115581D01*
X115889480Y-76118949D01*
X115671101Y-76118949D01*
X115662969Y-76115581D01*
X115659601Y-76107449D01*
X115659601Y-75877570D01*
X115659601Y-75877569D01*
X115659600Y-75877569D01*
X115188342Y-75877569D01*
X115180210Y-75874201D01*
X115176842Y-75866069D01*
X115176842Y-75647690D01*
X115180210Y-75639558D01*
X115188342Y-75636190D01*
X115889480Y-75636190D01*
X115897612Y-75639558D01*
G37*
G04 #@! TD.AperFunction*
G04 #@! TA.AperFunction,Conductor*
G36*
X118070026Y-75880937D02*
G01*
X118073394Y-75889069D01*
X118073394Y-76107449D01*
X118070026Y-76115581D01*
X118061894Y-76118949D01*
X117843515Y-76118949D01*
X117835383Y-76115581D01*
X117832015Y-76107449D01*
X117832015Y-75889069D01*
X117835383Y-75880937D01*
X117843515Y-75877569D01*
X118061894Y-75877569D01*
X118070026Y-75880937D01*
G37*
G04 #@! TD.AperFunction*
G04 #@! TA.AperFunction,Conductor*
G36*
X113242440Y-75156799D02*
G01*
X113245808Y-75164931D01*
X113245808Y-75394811D01*
X113245808Y-75636190D01*
X113245809Y-75636190D01*
X113475687Y-75636190D01*
X113483819Y-75639558D01*
X113487187Y-75647690D01*
X113487187Y-75866069D01*
X113483819Y-75874201D01*
X113475687Y-75877569D01*
X113015928Y-75877569D01*
X113007796Y-75874201D01*
X113004428Y-75866069D01*
X113004428Y-75164931D01*
X113007796Y-75156799D01*
X113015928Y-75153431D01*
X113234308Y-75153431D01*
X113242440Y-75156799D01*
G37*
G04 #@! TD.AperFunction*
G04 #@! TA.AperFunction,Conductor*
G36*
X116621750Y-75398179D02*
G01*
X116625118Y-75406311D01*
X116625118Y-75624690D01*
X116621750Y-75632822D01*
X116613618Y-75636190D01*
X116383739Y-75636190D01*
X116383739Y-75636191D01*
X116383739Y-75866069D01*
X116380371Y-75874201D01*
X116372239Y-75877569D01*
X116153859Y-75877569D01*
X116145727Y-75874201D01*
X116142359Y-75866069D01*
X116142359Y-75406311D01*
X116145727Y-75398179D01*
X116153859Y-75394811D01*
X116613618Y-75394811D01*
X116621750Y-75398179D01*
G37*
G04 #@! TD.AperFunction*
G04 #@! TA.AperFunction,Conductor*
G36*
X113725198Y-75398179D02*
G01*
X113728566Y-75406311D01*
X113728566Y-75624690D01*
X113725198Y-75632822D01*
X113717066Y-75636190D01*
X113498687Y-75636190D01*
X113490555Y-75632822D01*
X113487187Y-75624690D01*
X113487187Y-75406311D01*
X113490555Y-75398179D01*
X113498687Y-75394811D01*
X113717066Y-75394811D01*
X113725198Y-75398179D01*
G37*
G04 #@! TD.AperFunction*
G04 #@! TA.AperFunction,Conductor*
G36*
X115173474Y-73708524D02*
G01*
X115176842Y-73716656D01*
X115176842Y-74429293D01*
X115176843Y-74429293D01*
X115406721Y-74429293D01*
X115414853Y-74432661D01*
X115418221Y-74440793D01*
X115418221Y-74670673D01*
X115648101Y-74670673D01*
X115656233Y-74674041D01*
X115659601Y-74682173D01*
X115659601Y-75141931D01*
X115656233Y-75150063D01*
X115648101Y-75153431D01*
X114935463Y-75153431D01*
X114935463Y-75394811D01*
X115165342Y-75394811D01*
X115173474Y-75398179D01*
X115176842Y-75406311D01*
X115176842Y-75624690D01*
X115173474Y-75632822D01*
X115165342Y-75636190D01*
X114464204Y-75636190D01*
X114456072Y-75632822D01*
X114452704Y-75624690D01*
X114452704Y-75394812D01*
X114452704Y-75394811D01*
X114222825Y-75394811D01*
X114214693Y-75391443D01*
X114211325Y-75383311D01*
X114211325Y-75164931D01*
X114214693Y-75156799D01*
X114222825Y-75153431D01*
X114452703Y-75153431D01*
X114452704Y-75153431D01*
X114452704Y-74923552D01*
X114456072Y-74915420D01*
X114464204Y-74912052D01*
X114694082Y-74912052D01*
X114694083Y-74912052D01*
X114935463Y-74912052D01*
X114935464Y-74912052D01*
X115176841Y-74912052D01*
X115176842Y-74912052D01*
X115176842Y-74670673D01*
X114935463Y-74670673D01*
X114935463Y-74912052D01*
X114694083Y-74912052D01*
X114694083Y-74670673D01*
X114694083Y-74440793D01*
X114697451Y-74432661D01*
X114705583Y-74429293D01*
X114935462Y-74429293D01*
X114935463Y-74429293D01*
X114935463Y-73716656D01*
X114938831Y-73708524D01*
X114946963Y-73705156D01*
X115165342Y-73705156D01*
X115173474Y-73708524D01*
G37*
G04 #@! TD.AperFunction*
G04 #@! TA.AperFunction,Conductor*
G36*
X117587267Y-73949903D02*
G01*
X117590635Y-73958035D01*
X117590635Y-74900552D01*
X117587267Y-74908684D01*
X117579135Y-74912052D01*
X117349256Y-74912052D01*
X117349256Y-74912053D01*
X117349256Y-75141931D01*
X117345888Y-75150063D01*
X117337756Y-75153431D01*
X117107877Y-75153431D01*
X117107877Y-75153432D01*
X117107877Y-75383311D01*
X117104509Y-75391443D01*
X117096377Y-75394811D01*
X116877997Y-75394811D01*
X116869865Y-75391443D01*
X116866497Y-75383311D01*
X116866497Y-74682173D01*
X116869865Y-74674041D01*
X116877997Y-74670673D01*
X117107876Y-74670673D01*
X117107877Y-74670673D01*
X117107877Y-74440793D01*
X117111245Y-74432661D01*
X117119377Y-74429293D01*
X117349255Y-74429293D01*
X117349256Y-74429293D01*
X117349256Y-74187914D01*
X117349256Y-73958035D01*
X117352624Y-73949903D01*
X117360756Y-73946535D01*
X117579135Y-73946535D01*
X117587267Y-73949903D01*
G37*
G04 #@! TD.AperFunction*
G04 #@! TA.AperFunction,Conductor*
G36*
X117587267Y-75156799D02*
G01*
X117590635Y-75164931D01*
X117590635Y-75383311D01*
X117587267Y-75391443D01*
X117579135Y-75394811D01*
X117360756Y-75394811D01*
X117352624Y-75391443D01*
X117349256Y-75383311D01*
X117349256Y-75164931D01*
X117352624Y-75156799D01*
X117360756Y-75153431D01*
X117579135Y-75153431D01*
X117587267Y-75156799D01*
G37*
G04 #@! TD.AperFunction*
G04 #@! TA.AperFunction,Conductor*
G36*
X119035543Y-75156799D02*
G01*
X119038911Y-75164931D01*
X119038911Y-75383311D01*
X119035543Y-75391443D01*
X119027411Y-75394811D01*
X118809032Y-75394811D01*
X118800900Y-75391443D01*
X118797532Y-75383311D01*
X118797532Y-75164931D01*
X118800900Y-75156799D01*
X118809032Y-75153431D01*
X119027411Y-75153431D01*
X119035543Y-75156799D01*
G37*
G04 #@! TD.AperFunction*
G04 #@! TA.AperFunction,Conductor*
G36*
X116138991Y-74915420D02*
G01*
X116142359Y-74923552D01*
X116142359Y-75141931D01*
X116138991Y-75150063D01*
X116130859Y-75153431D01*
X115912480Y-75153431D01*
X115904348Y-75150063D01*
X115900980Y-75141931D01*
X115900980Y-74923552D01*
X115904348Y-74915420D01*
X115912480Y-74912052D01*
X116130859Y-74912052D01*
X116138991Y-74915420D01*
G37*
G04 #@! TD.AperFunction*
G04 #@! TA.AperFunction,Conductor*
G36*
X116621750Y-74674041D02*
G01*
X116625118Y-74682173D01*
X116625118Y-75141931D01*
X116621750Y-75150063D01*
X116613618Y-75153431D01*
X116395239Y-75153431D01*
X116387107Y-75150063D01*
X116383739Y-75141931D01*
X116383739Y-74682173D01*
X116387107Y-74674041D01*
X116395239Y-74670673D01*
X116613618Y-74670673D01*
X116621750Y-74674041D01*
G37*
G04 #@! TD.AperFunction*
G04 #@! TA.AperFunction,Conductor*
G36*
X114449336Y-74674041D02*
G01*
X114452704Y-74682173D01*
X114452704Y-74900552D01*
X114449336Y-74908684D01*
X114441204Y-74912052D01*
X114222825Y-74912052D01*
X114214693Y-74908684D01*
X114211325Y-74900552D01*
X114211325Y-74682173D01*
X114214693Y-74674041D01*
X114222825Y-74670673D01*
X114441204Y-74670673D01*
X114449336Y-74674041D01*
G37*
G04 #@! TD.AperFunction*
G04 #@! TA.AperFunction,Conductor*
G36*
X119518302Y-74674041D02*
G01*
X119521670Y-74682173D01*
X119521670Y-74900552D01*
X119518302Y-74908684D01*
X119510170Y-74912052D01*
X119050411Y-74912052D01*
X119042279Y-74908684D01*
X119038911Y-74900552D01*
X119038911Y-74682173D01*
X119042279Y-74674041D01*
X119050411Y-74670673D01*
X119510170Y-74670673D01*
X119518302Y-74674041D01*
G37*
G04 #@! TD.AperFunction*
G04 #@! TA.AperFunction,Conductor*
G36*
X115656233Y-73708524D02*
G01*
X115659601Y-73716656D01*
X115659601Y-74417793D01*
X115656233Y-74425925D01*
X115648101Y-74429293D01*
X115429721Y-74429293D01*
X115421589Y-74425925D01*
X115418221Y-74417793D01*
X115418221Y-73716656D01*
X115421589Y-73708524D01*
X115429721Y-73705156D01*
X115648101Y-73705156D01*
X115656233Y-73708524D01*
G37*
G04 #@! TD.AperFunction*
G04 #@! TA.AperFunction,Conductor*
G36*
X116138991Y-73949903D02*
G01*
X116142359Y-73958035D01*
X116142359Y-74187914D01*
X116142360Y-74187914D01*
X116372239Y-74187914D01*
X116380371Y-74191282D01*
X116383739Y-74199414D01*
X116383739Y-74417793D01*
X116380371Y-74425925D01*
X116372239Y-74429293D01*
X115912480Y-74429293D01*
X115904348Y-74425925D01*
X115900980Y-74417793D01*
X115900980Y-73958035D01*
X115904348Y-73949903D01*
X115912480Y-73946535D01*
X116130859Y-73946535D01*
X116138991Y-73949903D01*
G37*
G04 #@! TD.AperFunction*
G04 #@! TA.AperFunction,Conductor*
G36*
X116863129Y-74191282D02*
G01*
X116866497Y-74199414D01*
X116866497Y-74417793D01*
X116863129Y-74425925D01*
X116854997Y-74429293D01*
X116636618Y-74429293D01*
X116628486Y-74425925D01*
X116625118Y-74417793D01*
X116625118Y-74199414D01*
X116628486Y-74191282D01*
X116636618Y-74187914D01*
X116854997Y-74187914D01*
X116863129Y-74191282D01*
G37*
G04 #@! TD.AperFunction*
G04 #@! TA.AperFunction,Conductor*
G36*
X116621750Y-73949903D02*
G01*
X116625118Y-73958035D01*
X116625118Y-74176414D01*
X116621750Y-74184546D01*
X116613618Y-74187914D01*
X116395239Y-74187914D01*
X116387107Y-74184546D01*
X116383739Y-74176414D01*
X116383739Y-73958035D01*
X116387107Y-73949903D01*
X116395239Y-73946535D01*
X116613618Y-73946535D01*
X116621750Y-73949903D01*
G37*
G04 #@! TD.AperFunction*
G04 #@! TA.AperFunction,Conductor*
G36*
X117104509Y-73949903D02*
G01*
X117107877Y-73958035D01*
X117107877Y-74176414D01*
X117104509Y-74184546D01*
X117096377Y-74187914D01*
X116877997Y-74187914D01*
X116869865Y-74184546D01*
X116866497Y-74176414D01*
X116866497Y-73958035D01*
X116869865Y-73949903D01*
X116877997Y-73946535D01*
X117096377Y-73946535D01*
X117104509Y-73949903D01*
G37*
G04 #@! TD.AperFunction*
G04 #@! TA.AperFunction,Conductor*
G36*
X116380371Y-73467144D02*
G01*
X116383739Y-73475276D01*
X116383739Y-73935035D01*
X116380371Y-73943167D01*
X116372239Y-73946535D01*
X116153859Y-73946535D01*
X116145727Y-73943167D01*
X116142359Y-73935035D01*
X116142359Y-73475276D01*
X116145727Y-73467144D01*
X116153859Y-73463776D01*
X116372239Y-73463776D01*
X116380371Y-73467144D01*
G37*
G04 #@! TD.AperFunction*
G04 #@! TA.AperFunction,Conductor*
G36*
X116863129Y-73708524D02*
G01*
X116866497Y-73716656D01*
X116866497Y-73935035D01*
X116863129Y-73943167D01*
X116854997Y-73946535D01*
X116636618Y-73946535D01*
X116628486Y-73943167D01*
X116625118Y-73935035D01*
X116625118Y-73716656D01*
X116628486Y-73708524D01*
X116636618Y-73705156D01*
X116854997Y-73705156D01*
X116863129Y-73708524D01*
G37*
G04 #@! TD.AperFunction*
G04 #@! TA.AperFunction,Conductor*
G36*
X116138991Y-72984386D02*
G01*
X116142359Y-72992518D01*
X116142359Y-73452276D01*
X116138991Y-73460408D01*
X116130859Y-73463776D01*
X115900980Y-73463776D01*
X115900980Y-73463777D01*
X115900980Y-73693656D01*
X115897612Y-73701788D01*
X115889480Y-73705156D01*
X115671101Y-73705156D01*
X115662969Y-73701788D01*
X115659601Y-73693656D01*
X115659601Y-73463777D01*
X115659601Y-73463776D01*
X115418221Y-73463776D01*
X115418221Y-73463777D01*
X115418221Y-73693656D01*
X115414853Y-73701788D01*
X115406721Y-73705156D01*
X115188342Y-73705156D01*
X115180210Y-73701788D01*
X115176842Y-73693656D01*
X115176842Y-73233897D01*
X115180210Y-73225765D01*
X115188342Y-73222397D01*
X115900979Y-73222397D01*
X115900980Y-73222397D01*
X115900980Y-72992518D01*
X115904348Y-72984386D01*
X115912480Y-72981018D01*
X116130859Y-72981018D01*
X116138991Y-72984386D01*
G37*
G04 #@! TD.AperFunction*
G04 #@! TA.AperFunction,Conductor*
G36*
X115173474Y-72984386D02*
G01*
X115176842Y-72992518D01*
X115176842Y-73210897D01*
X115173474Y-73219029D01*
X115165342Y-73222397D01*
X114946963Y-73222397D01*
X114938831Y-73219029D01*
X114935463Y-73210897D01*
X114935463Y-72992518D01*
X114938831Y-72984386D01*
X114946963Y-72981018D01*
X115165342Y-72981018D01*
X115173474Y-72984386D01*
G37*
G04 #@! TD.AperFunction*
G04 #@! TA.AperFunction,Conductor*
G36*
X116380371Y-72743006D02*
G01*
X116383739Y-72751138D01*
X116383739Y-72969518D01*
X116380371Y-72977650D01*
X116372239Y-72981018D01*
X116153859Y-72981018D01*
X116145727Y-72977650D01*
X116142359Y-72969518D01*
X116142359Y-72751138D01*
X116145727Y-72743006D01*
X116153859Y-72739638D01*
X116372239Y-72739638D01*
X116380371Y-72743006D01*
G37*
G04 #@! TD.AperFunction*
G04 #@! TA.AperFunction,Conductor*
G36*
X114207957Y-72743006D02*
G01*
X114211325Y-72751138D01*
X114211325Y-73935035D01*
X114207957Y-73943167D01*
X114199825Y-73946535D01*
X113015928Y-73946535D01*
X113007796Y-73943167D01*
X113004428Y-73935035D01*
X113004428Y-73705156D01*
X113245808Y-73705156D01*
X113245809Y-73705156D01*
X113969945Y-73705156D01*
X113969946Y-73705156D01*
X113969946Y-72981018D01*
X113245808Y-72981018D01*
X113245808Y-73705156D01*
X113004428Y-73705156D01*
X113004428Y-72751138D01*
X113007796Y-72743006D01*
X113015928Y-72739638D01*
X114199825Y-72739638D01*
X114207957Y-72743006D01*
G37*
G04 #@! TD.AperFunction*
G04 #@! TA.AperFunction,Conductor*
G36*
X119518302Y-72743006D02*
G01*
X119521670Y-72751138D01*
X119521670Y-73935035D01*
X119518302Y-73943167D01*
X119510170Y-73946535D01*
X118326273Y-73946535D01*
X118318141Y-73943167D01*
X118314773Y-73935035D01*
X118314773Y-73705156D01*
X118556152Y-73705156D01*
X118556153Y-73705156D01*
X119280289Y-73705156D01*
X119280290Y-73705156D01*
X119280290Y-72981018D01*
X118556152Y-72981018D01*
X118556152Y-73705156D01*
X118314773Y-73705156D01*
X118314773Y-72751138D01*
X118318141Y-72743006D01*
X118326273Y-72739638D01*
X119510170Y-72739638D01*
X119518302Y-72743006D01*
G37*
G04 #@! TD.AperFunction*
G04 #@! TA.AperFunction,Conductor*
G36*
X120063049Y-83637290D02*
G01*
X112360986Y-83637290D01*
X112341832Y-82143271D01*
X113744371Y-82143271D01*
X113755008Y-82251263D01*
X113761454Y-82316706D01*
X113761454Y-82316708D01*
X113761455Y-82316710D01*
X113812041Y-82483470D01*
X113812044Y-82483480D01*
X113835816Y-82527953D01*
X113894196Y-82637173D01*
X114004754Y-82771889D01*
X114139470Y-82882447D01*
X114293166Y-82964600D01*
X114459937Y-83015189D01*
X114633372Y-83032271D01*
X114806807Y-83015189D01*
X114973578Y-82964600D01*
X115127274Y-82882447D01*
X115261080Y-82772635D01*
X115269499Y-82770082D01*
X115275662Y-82772634D01*
X115409470Y-82882447D01*
X115563166Y-82964600D01*
X115729937Y-83015189D01*
X115903372Y-83032271D01*
X116076807Y-83015189D01*
X116243578Y-82964600D01*
X116397274Y-82882447D01*
X116531080Y-82772635D01*
X116539499Y-82770082D01*
X116545662Y-82772634D01*
X116679470Y-82882447D01*
X116833166Y-82964600D01*
X116999937Y-83015189D01*
X117173372Y-83032271D01*
X117346807Y-83015189D01*
X117513578Y-82964600D01*
X117667274Y-82882447D01*
X117801990Y-82771889D01*
X117912548Y-82637173D01*
X117994701Y-82483477D01*
X118045290Y-82316706D01*
X118062372Y-82143271D01*
X118062372Y-80873271D01*
X118057491Y-80823718D01*
X118045290Y-80699836D01*
X117994701Y-80533065D01*
X117912548Y-80379369D01*
X117801990Y-80244653D01*
X117667274Y-80134095D01*
X117667272Y-80134094D01*
X117667271Y-80134093D01*
X117513581Y-80051943D01*
X117513571Y-80051940D01*
X117346811Y-80001354D01*
X117346809Y-80001353D01*
X117346807Y-80001353D01*
X117173372Y-79984271D01*
X116999937Y-80001353D01*
X116999934Y-80001353D01*
X116999932Y-80001354D01*
X116833172Y-80051940D01*
X116833162Y-80051943D01*
X116679472Y-80134093D01*
X116544754Y-80244653D01*
X116434194Y-80379371D01*
X116352044Y-80533061D01*
X116352041Y-80533071D01*
X116301455Y-80699831D01*
X116301454Y-80699833D01*
X116301454Y-80699836D01*
X116289768Y-80818491D01*
X116289253Y-80823718D01*
X116284372Y-80873271D01*
X116284372Y-80873277D01*
X116284372Y-82196398D01*
X116283906Y-82199638D01*
X116253971Y-82301587D01*
X116252611Y-82304564D01*
X116195168Y-82393946D01*
X116193025Y-82396420D01*
X116112724Y-82466001D01*
X116109970Y-82467771D01*
X116013319Y-82511910D01*
X116010179Y-82512832D01*
X115905009Y-82527953D01*
X115901735Y-82527953D01*
X115796564Y-82512832D01*
X115793424Y-82511910D01*
X115696773Y-82467771D01*
X115694019Y-82466001D01*
X115613718Y-82396420D01*
X115611575Y-82393946D01*
X115595575Y-82369050D01*
X115554130Y-82304560D01*
X115552773Y-82301590D01*
X115522838Y-82199638D01*
X115522372Y-82196398D01*
X115522372Y-80238277D01*
X115522372Y-80238271D01*
X115517491Y-80188718D01*
X115479565Y-80097156D01*
X115409487Y-80027078D01*
X115317925Y-79989152D01*
X115218819Y-79989152D01*
X115127257Y-80027078D01*
X115127255Y-80027079D01*
X115057180Y-80097154D01*
X115057179Y-80097155D01*
X115057179Y-80097156D01*
X115019253Y-80188718D01*
X115014372Y-80238271D01*
X115014372Y-80238277D01*
X115014372Y-82196398D01*
X115013906Y-82199638D01*
X114983971Y-82301587D01*
X114982611Y-82304564D01*
X114925168Y-82393946D01*
X114923025Y-82396420D01*
X114842724Y-82466001D01*
X114839970Y-82467771D01*
X114743319Y-82511910D01*
X114740179Y-82512832D01*
X114635009Y-82527953D01*
X114631735Y-82527953D01*
X114526564Y-82512832D01*
X114523424Y-82511910D01*
X114426773Y-82467771D01*
X114424019Y-82466001D01*
X114343718Y-82396420D01*
X114341575Y-82393946D01*
X114325575Y-82369050D01*
X114284130Y-82304560D01*
X114282773Y-82301590D01*
X114252838Y-82199638D01*
X114252372Y-82196398D01*
X114252372Y-82143277D01*
X114252372Y-82143271D01*
X114245920Y-82106681D01*
X114237055Y-82056400D01*
X114237054Y-82056398D01*
X114192946Y-81980002D01*
X114142720Y-81937858D01*
X114125372Y-81923301D01*
X114125370Y-81923300D01*
X114125367Y-81923299D01*
X114042484Y-81893130D01*
X114042479Y-81893130D01*
X113954265Y-81893130D01*
X113954259Y-81893130D01*
X113871376Y-81923299D01*
X113871373Y-81923300D01*
X113803797Y-81980002D01*
X113759689Y-82056398D01*
X113759688Y-82056400D01*
X113744372Y-82143265D01*
X113744371Y-82143271D01*
X112341832Y-82143271D01*
X112289353Y-78049983D01*
X112763049Y-78049983D01*
X112763049Y-79256880D01*
X112763049Y-79498259D01*
X112763050Y-79498259D01*
X114452703Y-79498259D01*
X114452704Y-79498259D01*
X114452704Y-79256880D01*
X114452704Y-78774121D01*
X114694083Y-78774121D01*
X114694084Y-78774121D01*
X114935462Y-78774121D01*
X114935463Y-78774121D01*
X114935463Y-78532742D01*
X114694083Y-78532742D01*
X114694083Y-78774121D01*
X114452704Y-78774121D01*
X114452704Y-78049983D01*
X114452704Y-77808604D01*
X112763049Y-77808604D01*
X112763049Y-78049983D01*
X112289353Y-78049983D01*
X112283164Y-77567225D01*
X112763049Y-77567225D01*
X112763050Y-77567225D01*
X113004427Y-77567225D01*
X113004428Y-77567225D01*
X113004428Y-77325845D01*
X112763049Y-77325845D01*
X112763049Y-77567225D01*
X112283164Y-77567225D01*
X112276975Y-77084466D01*
X112763049Y-77084466D01*
X112763050Y-77084466D01*
X113004427Y-77084466D01*
X113004428Y-77084466D01*
X113004428Y-76843087D01*
X112763049Y-76843087D01*
X112763049Y-77084466D01*
X112276975Y-77084466D01*
X112242934Y-74429293D01*
X112763049Y-74429293D01*
X112763049Y-74912052D01*
X112992928Y-74912052D01*
X113001060Y-74915420D01*
X113004428Y-74923552D01*
X113004428Y-75141931D01*
X113001060Y-75150063D01*
X112992928Y-75153431D01*
X112763049Y-75153431D01*
X112763049Y-75877569D01*
X112763050Y-75877569D01*
X112992928Y-75877569D01*
X113001060Y-75880937D01*
X113004428Y-75889069D01*
X113004428Y-76118949D01*
X113717066Y-76118949D01*
X113725198Y-76122317D01*
X113728566Y-76130449D01*
X113728566Y-76348828D01*
X113725198Y-76356960D01*
X113717066Y-76360328D01*
X113487187Y-76360328D01*
X113487187Y-76360329D01*
X113487187Y-76590207D01*
X113483819Y-76598339D01*
X113475687Y-76601707D01*
X113245808Y-76601707D01*
X113245808Y-77084466D01*
X113245809Y-77084466D01*
X113475687Y-77084466D01*
X113483819Y-77087834D01*
X113487187Y-77095966D01*
X113487187Y-77567225D01*
X113487188Y-77567225D01*
X113728565Y-77567225D01*
X113728566Y-77567225D01*
X113728566Y-77095966D01*
X113731934Y-77087834D01*
X113740066Y-77084466D01*
X113958446Y-77084466D01*
X113966578Y-77087834D01*
X113969946Y-77095966D01*
X113969946Y-77325845D01*
X113969946Y-77567225D01*
X114682583Y-77567225D01*
X114690715Y-77570593D01*
X114694083Y-77578725D01*
X114694083Y-77808604D01*
X114694083Y-78049983D01*
X115165342Y-78049983D01*
X115173474Y-78053351D01*
X115176842Y-78061483D01*
X115176842Y-78291362D01*
X115176843Y-78291362D01*
X115406721Y-78291362D01*
X115414853Y-78294730D01*
X115418221Y-78302862D01*
X115418221Y-78521242D01*
X115414853Y-78529374D01*
X115406721Y-78532742D01*
X115176842Y-78532742D01*
X115176842Y-78532743D01*
X115176842Y-79245380D01*
X115173474Y-79253512D01*
X115165342Y-79256880D01*
X114946963Y-79256880D01*
X114938831Y-79253512D01*
X114935463Y-79245380D01*
X114935463Y-79015501D01*
X114935463Y-79015500D01*
X114694083Y-79015500D01*
X114694083Y-79256880D01*
X114694083Y-79498259D01*
X114694084Y-79498259D01*
X115418220Y-79498259D01*
X115418221Y-79498259D01*
X115418221Y-79268380D01*
X115421589Y-79260248D01*
X115429721Y-79256880D01*
X115648101Y-79256880D01*
X115656233Y-79260248D01*
X115659601Y-79268380D01*
X115659601Y-79498259D01*
X115659602Y-79498259D01*
X116142358Y-79498259D01*
X116142359Y-79498259D01*
X116142359Y-79268380D01*
X116145727Y-79260248D01*
X116153859Y-79256880D01*
X116372239Y-79256880D01*
X116380371Y-79260248D01*
X116383739Y-79268380D01*
X116383739Y-79498259D01*
X116383740Y-79498259D01*
X116625117Y-79498259D01*
X116625118Y-79498259D01*
X116625118Y-79268380D01*
X116628486Y-79260248D01*
X116636618Y-79256880D01*
X116854997Y-79256880D01*
X116863129Y-79260248D01*
X116866497Y-79268380D01*
X116866497Y-79498259D01*
X116866498Y-79498259D01*
X117107876Y-79498259D01*
X117107877Y-79498259D01*
X117107877Y-79268380D01*
X117111245Y-79260248D01*
X117119377Y-79256880D01*
X117579135Y-79256880D01*
X117587267Y-79260248D01*
X117590635Y-79268380D01*
X117590635Y-79498259D01*
X117590636Y-79498259D01*
X119038910Y-79498259D01*
X119038911Y-79498259D01*
X119038911Y-79256880D01*
X119038910Y-79256880D01*
X118809032Y-79256880D01*
X118800900Y-79253512D01*
X118797532Y-79245380D01*
X118797532Y-79027000D01*
X118800900Y-79018868D01*
X118809032Y-79015500D01*
X119268790Y-79015500D01*
X119276922Y-79018868D01*
X119280290Y-79027000D01*
X119280290Y-79498259D01*
X119280291Y-79498259D01*
X119521669Y-79498259D01*
X119521670Y-79498259D01*
X119521670Y-79027000D01*
X119525038Y-79018868D01*
X119533170Y-79015500D01*
X119763048Y-79015500D01*
X119763049Y-79015500D01*
X119763049Y-78774121D01*
X119521670Y-78774121D01*
X119521670Y-78774122D01*
X119521670Y-79004000D01*
X119518302Y-79012132D01*
X119510170Y-79015500D01*
X119291790Y-79015500D01*
X119283658Y-79012132D01*
X119280290Y-79004000D01*
X119280290Y-78532743D01*
X119280290Y-78532742D01*
X119280289Y-78532742D01*
X118809032Y-78532742D01*
X118800900Y-78529374D01*
X118797532Y-78521242D01*
X118797532Y-78302862D01*
X118800900Y-78294730D01*
X118809032Y-78291362D01*
X119280289Y-78291362D01*
X119280290Y-78291362D01*
X119280290Y-78061483D01*
X119283658Y-78053351D01*
X119291790Y-78049983D01*
X119510170Y-78049983D01*
X119518302Y-78053351D01*
X119521670Y-78061483D01*
X119521670Y-78532742D01*
X119521671Y-78532742D01*
X119763048Y-78532742D01*
X119763049Y-78532742D01*
X119763049Y-78049983D01*
X119533170Y-78049983D01*
X119525038Y-78046615D01*
X119521670Y-78038483D01*
X119521670Y-77820104D01*
X119525038Y-77811972D01*
X119533170Y-77808604D01*
X119763048Y-77808604D01*
X119763049Y-77808604D01*
X119763049Y-77567225D01*
X119763048Y-77567225D01*
X119291790Y-77567225D01*
X119283658Y-77563857D01*
X119280290Y-77555725D01*
X119280290Y-77337345D01*
X119283658Y-77329213D01*
X119291790Y-77325845D01*
X119763048Y-77325845D01*
X119763049Y-77325845D01*
X119763049Y-76843087D01*
X119763049Y-76601707D01*
X119533170Y-76601707D01*
X119525038Y-76598339D01*
X119521670Y-76590207D01*
X119521670Y-76130449D01*
X119525038Y-76122317D01*
X119533170Y-76118949D01*
X119763048Y-76118949D01*
X119763049Y-76118949D01*
X119763049Y-75877569D01*
X118084894Y-75877569D01*
X118076762Y-75874201D01*
X118073394Y-75866069D01*
X118073394Y-75647690D01*
X118076762Y-75639558D01*
X118084894Y-75636190D01*
X118314772Y-75636190D01*
X118314773Y-75636190D01*
X118314773Y-75394811D01*
X118314772Y-75394811D01*
X117843515Y-75394811D01*
X117835383Y-75391443D01*
X117832015Y-75383311D01*
X117832015Y-75164931D01*
X117835383Y-75156799D01*
X117843515Y-75153431D01*
X118073393Y-75153431D01*
X118073394Y-75153431D01*
X118073394Y-74923552D01*
X118076762Y-74915420D01*
X118084894Y-74912052D01*
X118314772Y-74912052D01*
X118314773Y-74912052D01*
X118314773Y-74682173D01*
X118318141Y-74674041D01*
X118326273Y-74670673D01*
X118786032Y-74670673D01*
X118794164Y-74674041D01*
X118797532Y-74682173D01*
X118797532Y-74900552D01*
X118794164Y-74908684D01*
X118786032Y-74912052D01*
X118556152Y-74912052D01*
X118556152Y-75153431D01*
X118556152Y-75394811D01*
X118556153Y-75394811D01*
X118786032Y-75394811D01*
X118794164Y-75398179D01*
X118797532Y-75406311D01*
X118797532Y-75636190D01*
X118797533Y-75636190D01*
X119038910Y-75636190D01*
X119038911Y-75636190D01*
X119038911Y-75406311D01*
X119042279Y-75398179D01*
X119050411Y-75394811D01*
X119268790Y-75394811D01*
X119276922Y-75398179D01*
X119280290Y-75406311D01*
X119280290Y-75636190D01*
X119280291Y-75636190D01*
X119763048Y-75636190D01*
X119763049Y-75636190D01*
X119763049Y-75394811D01*
X119763048Y-75394811D01*
X119533170Y-75394811D01*
X119525038Y-75391443D01*
X119521670Y-75383311D01*
X119521670Y-74923552D01*
X119525038Y-74915420D01*
X119533170Y-74912052D01*
X119763048Y-74912052D01*
X119763049Y-74912052D01*
X119763049Y-74670673D01*
X119533170Y-74670673D01*
X119525038Y-74667305D01*
X119521670Y-74659173D01*
X119521670Y-74429294D01*
X119521670Y-74429293D01*
X119038911Y-74429293D01*
X119038911Y-74429294D01*
X119038911Y-74659173D01*
X119035543Y-74667305D01*
X119027411Y-74670673D01*
X118809032Y-74670673D01*
X118800900Y-74667305D01*
X118797532Y-74659173D01*
X118797532Y-74429294D01*
X118797532Y-74429293D01*
X118073394Y-74429293D01*
X118073394Y-74429294D01*
X118073394Y-74900552D01*
X118070026Y-74908684D01*
X118061894Y-74912052D01*
X117843515Y-74912052D01*
X117835383Y-74908684D01*
X117832015Y-74900552D01*
X117832015Y-73946536D01*
X117832015Y-73946535D01*
X117602135Y-73946535D01*
X117594003Y-73943167D01*
X117590635Y-73935035D01*
X117590635Y-73705157D01*
X117590635Y-73705156D01*
X117590634Y-73705156D01*
X117360756Y-73705156D01*
X117352624Y-73701788D01*
X117349256Y-73693656D01*
X117349256Y-73475276D01*
X117352624Y-73467144D01*
X117360756Y-73463776D01*
X117832014Y-73463776D01*
X117832015Y-73463776D01*
X117832015Y-73222397D01*
X117832014Y-73222397D01*
X117602135Y-73222397D01*
X117594003Y-73219029D01*
X117590635Y-73210897D01*
X117590635Y-72992518D01*
X117594003Y-72984386D01*
X117602135Y-72981018D01*
X117832014Y-72981018D01*
X117832015Y-72981018D01*
X117832015Y-72739638D01*
X118073394Y-72739638D01*
X118073394Y-73946535D01*
X118073394Y-74187914D01*
X118073395Y-74187914D01*
X119763048Y-74187914D01*
X119763049Y-74187914D01*
X119763049Y-73946535D01*
X119763049Y-72739638D01*
X119763049Y-72498259D01*
X118073394Y-72498259D01*
X118073394Y-72739638D01*
X117832015Y-72739638D01*
X117602135Y-72739638D01*
X117594003Y-72736270D01*
X117590635Y-72728138D01*
X117590635Y-72498260D01*
X117590635Y-72498259D01*
X116866497Y-72498259D01*
X116866497Y-72739638D01*
X116866498Y-72739638D01*
X117579135Y-72739638D01*
X117587267Y-72743006D01*
X117590635Y-72751138D01*
X117590635Y-72969518D01*
X117587267Y-72977650D01*
X117579135Y-72981018D01*
X117349256Y-72981018D01*
X117349256Y-72981019D01*
X117349256Y-73210897D01*
X117345888Y-73219029D01*
X117337756Y-73222397D01*
X117119377Y-73222397D01*
X117111245Y-73219029D01*
X117107877Y-73210897D01*
X117107877Y-72981019D01*
X117107877Y-72981018D01*
X116866497Y-72981018D01*
X116866497Y-73222397D01*
X116866498Y-73222397D01*
X117096377Y-73222397D01*
X117104509Y-73225765D01*
X117107877Y-73233897D01*
X117107877Y-73452276D01*
X117104509Y-73460408D01*
X117096377Y-73463776D01*
X116636618Y-73463776D01*
X116628486Y-73460408D01*
X116625118Y-73452276D01*
X116625118Y-73222398D01*
X116625118Y-73222397D01*
X116625117Y-73222397D01*
X116395239Y-73222397D01*
X116387107Y-73219029D01*
X116383739Y-73210897D01*
X116383739Y-72992518D01*
X116387107Y-72984386D01*
X116395239Y-72981018D01*
X116625117Y-72981018D01*
X116625118Y-72981018D01*
X116625118Y-72739638D01*
X116625118Y-72498259D01*
X116142359Y-72498259D01*
X116142359Y-72498260D01*
X116142359Y-72728138D01*
X116138991Y-72736270D01*
X116130859Y-72739638D01*
X115671101Y-72739638D01*
X115662969Y-72736270D01*
X115659601Y-72728138D01*
X115659601Y-72498260D01*
X115659601Y-72498259D01*
X115418221Y-72498259D01*
X115418221Y-72498260D01*
X115418221Y-72969518D01*
X115414853Y-72977650D01*
X115406721Y-72981018D01*
X115188342Y-72981018D01*
X115180210Y-72977650D01*
X115176842Y-72969518D01*
X115176842Y-72739639D01*
X115176842Y-72739638D01*
X114694083Y-72739638D01*
X114694083Y-72981018D01*
X114694083Y-73222397D01*
X114694084Y-73222397D01*
X114923963Y-73222397D01*
X114932095Y-73225765D01*
X114935463Y-73233897D01*
X114935463Y-73452276D01*
X114932095Y-73460408D01*
X114923963Y-73463776D01*
X114694083Y-73463776D01*
X114694083Y-73463777D01*
X114694083Y-74417793D01*
X114690715Y-74425925D01*
X114682583Y-74429293D01*
X114211325Y-74429293D01*
X114211325Y-74429294D01*
X114211325Y-74659173D01*
X114207957Y-74667305D01*
X114199825Y-74670673D01*
X113740066Y-74670673D01*
X113731934Y-74667305D01*
X113728566Y-74659173D01*
X113728566Y-74429294D01*
X113728566Y-74429293D01*
X113487187Y-74429293D01*
X113487187Y-74429294D01*
X113487187Y-75141931D01*
X113483819Y-75150063D01*
X113475687Y-75153431D01*
X113257308Y-75153431D01*
X113249176Y-75150063D01*
X113245808Y-75141931D01*
X113245808Y-74429294D01*
X113245808Y-74429293D01*
X112763049Y-74429293D01*
X112242934Y-74429293D01*
X112221272Y-72739638D01*
X112763049Y-72739638D01*
X112763049Y-73946535D01*
X112763049Y-74187914D01*
X112763050Y-74187914D01*
X114452703Y-74187914D01*
X114452704Y-74187914D01*
X114452704Y-73946535D01*
X114452704Y-72739638D01*
X114452704Y-72498259D01*
X112763049Y-72498259D01*
X112763049Y-72739638D01*
X112221272Y-72739638D01*
X112213049Y-72098259D01*
X120063049Y-72098259D01*
X120063049Y-83637290D01*
G37*
G04 #@! TD.AperFunction*
G04 #@! TA.AperFunction,Conductor*
G36*
X161966292Y-66954860D02*
G01*
X161978799Y-66955515D01*
X162248394Y-66969644D01*
X162259843Y-66970780D01*
X162453205Y-66999103D01*
X162454512Y-66999303D01*
X162575881Y-67018525D01*
X162588548Y-67021217D01*
X162887829Y-67101409D01*
X162900138Y-67105409D01*
X163014928Y-67149472D01*
X163016138Y-67149945D01*
X163197709Y-67222079D01*
X163208209Y-67226828D01*
X163334926Y-67291393D01*
X163337465Y-67292724D01*
X163492441Y-67376286D01*
X163501113Y-67381428D01*
X163625341Y-67462103D01*
X163628868Y-67464481D01*
X163768470Y-67562232D01*
X163775346Y-67567414D01*
X163892296Y-67662118D01*
X163896667Y-67665829D01*
X164022449Y-67777766D01*
X164027695Y-67782716D01*
X164134521Y-67889542D01*
X164139471Y-67894788D01*
X164251399Y-68020560D01*
X164255134Y-68024959D01*
X164349817Y-68141883D01*
X164355026Y-68148796D01*
X164452716Y-68288312D01*
X164455136Y-68291899D01*
X164535808Y-68416122D01*
X164540958Y-68424808D01*
X164624518Y-68579780D01*
X164625858Y-68582336D01*
X164690403Y-68709016D01*
X164695157Y-68719528D01*
X164767305Y-68901132D01*
X164767830Y-68902477D01*
X164811817Y-69017069D01*
X164815828Y-69029412D01*
X164896018Y-69328684D01*
X164898716Y-69341380D01*
X164917909Y-69462560D01*
X164918127Y-69463986D01*
X164946456Y-69657384D01*
X164947595Y-69668866D01*
X164962379Y-69950946D01*
X164962549Y-69957436D01*
X164962549Y-89950943D01*
X164962379Y-89957433D01*
X164947595Y-90239509D01*
X164946456Y-90250991D01*
X164918127Y-90444391D01*
X164917909Y-90445816D01*
X164898717Y-90566994D01*
X164896019Y-90579690D01*
X164815830Y-90878961D01*
X164811819Y-90891307D01*
X164767819Y-91005928D01*
X164767294Y-91007270D01*
X164695159Y-91188845D01*
X164690405Y-91199358D01*
X164625860Y-91326036D01*
X164624520Y-91328592D01*
X164540954Y-91483577D01*
X164535804Y-91492263D01*
X164455148Y-91616461D01*
X164452728Y-91620049D01*
X164355017Y-91759594D01*
X164349808Y-91766506D01*
X164255133Y-91883419D01*
X164251399Y-91887817D01*
X164139478Y-92013583D01*
X164134527Y-92018830D01*
X164027706Y-92125651D01*
X164022460Y-92130601D01*
X163896659Y-92242554D01*
X163892260Y-92246289D01*
X163775373Y-92340943D01*
X163768461Y-92346152D01*
X163628889Y-92443882D01*
X163625300Y-92446302D01*
X163501120Y-92526945D01*
X163492435Y-92532095D01*
X163337466Y-92615653D01*
X163334911Y-92616993D01*
X163208211Y-92681550D01*
X163197697Y-92686304D01*
X163016174Y-92758418D01*
X163014831Y-92758943D01*
X162900164Y-92802960D01*
X162887820Y-92806971D01*
X162588554Y-92887159D01*
X162575858Y-92889857D01*
X162454639Y-92909056D01*
X162453212Y-92909274D01*
X162259854Y-92937596D01*
X162248373Y-92938735D01*
X161966292Y-92953520D01*
X161959802Y-92953690D01*
X112966294Y-92953690D01*
X112959804Y-92953520D01*
X112677722Y-92938735D01*
X112666241Y-92937596D01*
X112472875Y-92909273D01*
X112471448Y-92909055D01*
X112350232Y-92889856D01*
X112337536Y-92887158D01*
X112038274Y-92806971D01*
X112025930Y-92802960D01*
X111911272Y-92758946D01*
X111909928Y-92758421D01*
X111728390Y-92686300D01*
X111717878Y-92681546D01*
X111591161Y-92616981D01*
X111588605Y-92615641D01*
X111433665Y-92532099D01*
X111424980Y-92526949D01*
X111300761Y-92446280D01*
X111297173Y-92443860D01*
X111287083Y-92436795D01*
X111157642Y-92346159D01*
X111150754Y-92340969D01*
X111077382Y-92281553D01*
X111033805Y-92246265D01*
X111029406Y-92242530D01*
X110903657Y-92130623D01*
X110898411Y-92125673D01*
X110791549Y-92018811D01*
X110786627Y-92013595D01*
X110674704Y-91887828D01*
X110670982Y-91883444D01*
X110634096Y-91837894D01*
X110576258Y-91766470D01*
X110571073Y-91759588D01*
X110473366Y-91620048D01*
X110470982Y-91616514D01*
X110390286Y-91492253D01*
X110385137Y-91483571D01*
X110301590Y-91328623D01*
X110301309Y-91327300D01*
X110300252Y-91326071D01*
X110235678Y-91199335D01*
X110230933Y-91188844D01*
X110158799Y-91007270D01*
X110158379Y-91006195D01*
X110114266Y-90891279D01*
X110110263Y-90878958D01*
X110030075Y-90579690D01*
X110027383Y-90567021D01*
X110027379Y-90566994D01*
X110008144Y-90445552D01*
X110007943Y-90444231D01*
X109979637Y-90250980D01*
X109978503Y-90239556D01*
X109963718Y-89957433D01*
X109963548Y-89950944D01*
X109963548Y-69957436D01*
X109963718Y-69950947D01*
X109973381Y-69766567D01*
X109978503Y-69668825D01*
X109979639Y-69657376D01*
X110007967Y-69463986D01*
X110008123Y-69462964D01*
X110027386Y-69341342D01*
X110030076Y-69328684D01*
X110110268Y-69029403D01*
X110114260Y-69017117D01*
X110158452Y-68901993D01*
X110158789Y-68901132D01*
X110230929Y-68719546D01*
X110232060Y-68718099D01*
X110232283Y-68716275D01*
X110235682Y-68709036D01*
X110300311Y-68582192D01*
X110301554Y-68579822D01*
X110311908Y-68560619D01*
X110361050Y-68510958D01*
X110429244Y-68495747D01*
X110494836Y-68519819D01*
X110537001Y-68575531D01*
X110545049Y-68619476D01*
X110545049Y-68848056D01*
X110537969Y-68872165D01*
X110534933Y-68897111D01*
X110528293Y-68905117D01*
X110525364Y-68915095D01*
X110521379Y-68920925D01*
X110519826Y-68923062D01*
X110519315Y-68923776D01*
X110514082Y-68930980D01*
X110513393Y-68932198D01*
X110511758Y-68934516D01*
X110511750Y-68934530D01*
X110483981Y-68991011D01*
X110448269Y-69063646D01*
X110448263Y-69063658D01*
X110448262Y-69063660D01*
X110421793Y-69145124D01*
X110417524Y-69158931D01*
X110417524Y-69158935D01*
X110397049Y-69301346D01*
X110397049Y-70627060D01*
X110397254Y-70641463D01*
X110421788Y-70783238D01*
X110445018Y-70854731D01*
X110448267Y-70864731D01*
X110452927Y-70878405D01*
X110520073Y-71005656D01*
X110523004Y-71009690D01*
X110524540Y-71012017D01*
X110534004Y-71042854D01*
X110544847Y-71073240D01*
X110545002Y-71078689D01*
X110545040Y-71078812D01*
X110545009Y-71078922D01*
X110545049Y-71080322D01*
X110545049Y-88848056D01*
X110525364Y-88915095D01*
X110521379Y-88920925D01*
X110519826Y-88923062D01*
X110519315Y-88923776D01*
X110514082Y-88930980D01*
X110513393Y-88932198D01*
X110511758Y-88934516D01*
X110511750Y-88934530D01*
X110448263Y-89063658D01*
X110448262Y-89063660D01*
X110421793Y-89145124D01*
X110417524Y-89158931D01*
X110417524Y-89158935D01*
X110397049Y-89301346D01*
X110397049Y-90627060D01*
X110397254Y-90641463D01*
X110421788Y-90783238D01*
X110445018Y-90854731D01*
X110448267Y-90864731D01*
X110452927Y-90878405D01*
X110520073Y-91005656D01*
X110523035Y-91009733D01*
X110570882Y-91075590D01*
X110571043Y-91075808D01*
X110571506Y-91076445D01*
X110571660Y-91076611D01*
X110579085Y-91086530D01*
X110579089Y-91086535D01*
X110682272Y-91186809D01*
X110682278Y-91186814D01*
X110682280Y-91186815D01*
X110726372Y-91218849D01*
X110736617Y-91226292D01*
X110751583Y-91237166D01*
X110751611Y-91237185D01*
X110752345Y-91237719D01*
X110752346Y-91237720D01*
X110759824Y-91243153D01*
X110761076Y-91243858D01*
X110763390Y-91245489D01*
X110892508Y-91308972D01*
X110892516Y-91308974D01*
X110892517Y-91308975D01*
X110892519Y-91308976D01*
X110973983Y-91335445D01*
X110978032Y-91336696D01*
X110987790Y-91339714D01*
X111130206Y-91360190D01*
X111130209Y-91360190D01*
X111903068Y-91360190D01*
X111939860Y-91360190D01*
X111950945Y-91358794D01*
X111960083Y-91358465D01*
X112101485Y-91332891D01*
X112101489Y-91332889D01*
X112101500Y-91332888D01*
X112175045Y-91308399D01*
X112303210Y-91244317D01*
X112366928Y-91200175D01*
X112472146Y-91102476D01*
X112496494Y-91072363D01*
X112496493Y-91072362D01*
X112498082Y-91070397D01*
X112498659Y-91069777D01*
X112498859Y-91069435D01*
X112501074Y-91066697D01*
X112514989Y-91049487D01*
X112572446Y-91009733D01*
X112642276Y-91007353D01*
X112649698Y-91009510D01*
X112705348Y-91027592D01*
X112876438Y-91054690D01*
X112876439Y-91054690D01*
X112905353Y-91054690D01*
X112910590Y-91055443D01*
X112926398Y-91054690D01*
X113049656Y-91054690D01*
X113049660Y-91054690D01*
X113102681Y-91046292D01*
X113119951Y-91045470D01*
X113142658Y-91039960D01*
X113220750Y-91027592D01*
X113282770Y-91007439D01*
X113352607Y-91005443D01*
X113412441Y-91041522D01*
X113417512Y-91047407D01*
X113429604Y-91062362D01*
X113429604Y-91062363D01*
X113453952Y-91092476D01*
X113453954Y-91092478D01*
X113559167Y-91190173D01*
X113559170Y-91190175D01*
X113622888Y-91234317D01*
X113751053Y-91298399D01*
X113751055Y-91298399D01*
X113751056Y-91298400D01*
X113824588Y-91322885D01*
X113824591Y-91322885D01*
X113824598Y-91322888D01*
X113824605Y-91322889D01*
X113824612Y-91322891D01*
X113963343Y-91347982D01*
X113963346Y-91347982D01*
X113965894Y-91348443D01*
X113976491Y-91348829D01*
X113978663Y-91348969D01*
X113982009Y-91350190D01*
X114011587Y-91350190D01*
X114016101Y-91350272D01*
X114041505Y-91351197D01*
X114052806Y-91350190D01*
X114795919Y-91350190D01*
X114808881Y-91350004D01*
X114810325Y-91349984D01*
X114952098Y-91325450D01*
X115033590Y-91298972D01*
X115047264Y-91294312D01*
X115174515Y-91227166D01*
X115205323Y-91204782D01*
X115205322Y-91204781D01*
X115205394Y-91204729D01*
X115205395Y-91204730D01*
X115243826Y-91176809D01*
X115255394Y-91168150D01*
X115355668Y-91064967D01*
X115383589Y-91026536D01*
X115383588Y-91026535D01*
X115387029Y-91021801D01*
X115387316Y-91021405D01*
X115406025Y-90995656D01*
X115406087Y-90995566D01*
X115406597Y-90994866D01*
X115406598Y-90994864D01*
X115406604Y-90994857D01*
X115412009Y-90987417D01*
X115412712Y-90986169D01*
X115414348Y-90983849D01*
X115474514Y-90861476D01*
X115521756Y-90810003D01*
X115585790Y-90792190D01*
X120334801Y-90792190D01*
X120401840Y-90811875D01*
X120445110Y-90859551D01*
X120449248Y-90867611D01*
X120452927Y-90878405D01*
X120520073Y-91005656D01*
X120520263Y-91005918D01*
X120520264Y-91005919D01*
X120570442Y-91074984D01*
X120571658Y-91076609D01*
X120571660Y-91076611D01*
X120579085Y-91086530D01*
X120579089Y-91086535D01*
X120682272Y-91186809D01*
X120682278Y-91186814D01*
X120682280Y-91186815D01*
X120726372Y-91218849D01*
X120736617Y-91226292D01*
X120751583Y-91237166D01*
X120751611Y-91237185D01*
X120752345Y-91237719D01*
X120752346Y-91237720D01*
X120759824Y-91243153D01*
X120761076Y-91243858D01*
X120763390Y-91245489D01*
X120892508Y-91308972D01*
X120892516Y-91308974D01*
X120892517Y-91308975D01*
X120892519Y-91308976D01*
X120973983Y-91335445D01*
X120978032Y-91336696D01*
X120987790Y-91339714D01*
X121130206Y-91360190D01*
X121130209Y-91360190D01*
X121903068Y-91360190D01*
X121939860Y-91360190D01*
X121950945Y-91358794D01*
X121960083Y-91358465D01*
X122101485Y-91332891D01*
X122101489Y-91332889D01*
X122101500Y-91332888D01*
X122175045Y-91308399D01*
X122303210Y-91244317D01*
X122366928Y-91200175D01*
X122472146Y-91102476D01*
X122496494Y-91072363D01*
X122496493Y-91072362D01*
X122498082Y-91070397D01*
X122498659Y-91069777D01*
X122498859Y-91069435D01*
X122501074Y-91066697D01*
X122514989Y-91049487D01*
X122572446Y-91009733D01*
X122642276Y-91007353D01*
X122649698Y-91009510D01*
X122705348Y-91027592D01*
X122876438Y-91054690D01*
X122876439Y-91054690D01*
X122905353Y-91054690D01*
X122910590Y-91055443D01*
X122926398Y-91054690D01*
X123049656Y-91054690D01*
X123049660Y-91054690D01*
X123102681Y-91046292D01*
X123119951Y-91045470D01*
X123142658Y-91039960D01*
X123220750Y-91027592D01*
X123282770Y-91007439D01*
X123352607Y-91005443D01*
X123412441Y-91041522D01*
X123417512Y-91047407D01*
X123429604Y-91062362D01*
X123429604Y-91062363D01*
X123453952Y-91092476D01*
X123453954Y-91092478D01*
X123559167Y-91190173D01*
X123559170Y-91190175D01*
X123622888Y-91234317D01*
X123751053Y-91298399D01*
X123751055Y-91298399D01*
X123751056Y-91298400D01*
X123824588Y-91322885D01*
X123824591Y-91322885D01*
X123824598Y-91322888D01*
X123824605Y-91322889D01*
X123824612Y-91322891D01*
X123963343Y-91347982D01*
X123963346Y-91347982D01*
X123965894Y-91348443D01*
X123976491Y-91348829D01*
X123978663Y-91348969D01*
X123982009Y-91350190D01*
X124011587Y-91350190D01*
X124016101Y-91350272D01*
X124041505Y-91351197D01*
X124052806Y-91350190D01*
X124795919Y-91350190D01*
X124808881Y-91350004D01*
X124810325Y-91349984D01*
X124952098Y-91325450D01*
X125033590Y-91298972D01*
X125047264Y-91294312D01*
X125174515Y-91227166D01*
X125205323Y-91204782D01*
X125205322Y-91204781D01*
X125205394Y-91204729D01*
X125205395Y-91204730D01*
X125243826Y-91176809D01*
X125255394Y-91168150D01*
X125355668Y-91064967D01*
X125383589Y-91026536D01*
X125383588Y-91026535D01*
X125387029Y-91021801D01*
X125387316Y-91021405D01*
X125406025Y-90995656D01*
X125406087Y-90995566D01*
X125406597Y-90994866D01*
X125406598Y-90994864D01*
X125406604Y-90994857D01*
X125412009Y-90987417D01*
X125412712Y-90986169D01*
X125414348Y-90983849D01*
X125474514Y-90861476D01*
X125521756Y-90810003D01*
X125585790Y-90792190D01*
X130334801Y-90792190D01*
X130401840Y-90811875D01*
X130445110Y-90859551D01*
X130449248Y-90867611D01*
X130452927Y-90878405D01*
X130520073Y-91005656D01*
X130520263Y-91005918D01*
X130520264Y-91005919D01*
X130570442Y-91074984D01*
X130571658Y-91076609D01*
X130571660Y-91076611D01*
X130579085Y-91086530D01*
X130579089Y-91086535D01*
X130682272Y-91186809D01*
X130682278Y-91186814D01*
X130682280Y-91186815D01*
X130726372Y-91218849D01*
X130736617Y-91226292D01*
X130751583Y-91237166D01*
X130751611Y-91237185D01*
X130752345Y-91237719D01*
X130752346Y-91237720D01*
X130759824Y-91243153D01*
X130761076Y-91243858D01*
X130763390Y-91245489D01*
X130892508Y-91308972D01*
X130892516Y-91308974D01*
X130892517Y-91308975D01*
X130892519Y-91308976D01*
X130973983Y-91335445D01*
X130978032Y-91336696D01*
X130987790Y-91339714D01*
X131130206Y-91360190D01*
X131130209Y-91360190D01*
X131903068Y-91360190D01*
X131939860Y-91360190D01*
X131950945Y-91358794D01*
X131960083Y-91358465D01*
X132101485Y-91332891D01*
X132101489Y-91332889D01*
X132101500Y-91332888D01*
X132175045Y-91308399D01*
X132303210Y-91244317D01*
X132366928Y-91200175D01*
X132472146Y-91102476D01*
X132496494Y-91072363D01*
X132496493Y-91072362D01*
X132498082Y-91070397D01*
X132498659Y-91069777D01*
X132498859Y-91069435D01*
X132501074Y-91066697D01*
X132514989Y-91049487D01*
X132572446Y-91009733D01*
X132642276Y-91007353D01*
X132649698Y-91009510D01*
X132705348Y-91027592D01*
X132876438Y-91054690D01*
X132876439Y-91054690D01*
X132905353Y-91054690D01*
X132910590Y-91055443D01*
X132926398Y-91054690D01*
X133049656Y-91054690D01*
X133049660Y-91054690D01*
X133102681Y-91046292D01*
X133119951Y-91045470D01*
X133142658Y-91039960D01*
X133220750Y-91027592D01*
X133282770Y-91007439D01*
X133352607Y-91005443D01*
X133412441Y-91041522D01*
X133417512Y-91047407D01*
X133429604Y-91062362D01*
X133429604Y-91062363D01*
X133453952Y-91092476D01*
X133453954Y-91092478D01*
X133559167Y-91190173D01*
X133559170Y-91190175D01*
X133622888Y-91234317D01*
X133751053Y-91298399D01*
X133751055Y-91298399D01*
X133751056Y-91298400D01*
X133824588Y-91322885D01*
X133824591Y-91322885D01*
X133824598Y-91322888D01*
X133824605Y-91322889D01*
X133824612Y-91322891D01*
X133963343Y-91347982D01*
X133963346Y-91347982D01*
X133965894Y-91348443D01*
X133976491Y-91348829D01*
X133978663Y-91348969D01*
X133982009Y-91350190D01*
X134011587Y-91350190D01*
X134016101Y-91350272D01*
X134041505Y-91351197D01*
X134052806Y-91350190D01*
X134795919Y-91350190D01*
X134808881Y-91350004D01*
X134810325Y-91349984D01*
X134952098Y-91325450D01*
X135033590Y-91298972D01*
X135047264Y-91294312D01*
X135174515Y-91227166D01*
X135205323Y-91204782D01*
X135205322Y-91204781D01*
X135205394Y-91204729D01*
X135205395Y-91204730D01*
X135243826Y-91176809D01*
X135255394Y-91168150D01*
X135355668Y-91064967D01*
X135383589Y-91026536D01*
X135383588Y-91026535D01*
X135387029Y-91021801D01*
X135387316Y-91021405D01*
X135406025Y-90995656D01*
X135406087Y-90995566D01*
X135406597Y-90994866D01*
X135406598Y-90994864D01*
X135406604Y-90994857D01*
X135412009Y-90987417D01*
X135412712Y-90986169D01*
X135414348Y-90983849D01*
X135477831Y-90854731D01*
X135501060Y-90783238D01*
X135504304Y-90773255D01*
X135508573Y-90759448D01*
X135529049Y-90617033D01*
X135529049Y-89291347D01*
X135528843Y-89276914D01*
X135504309Y-89135141D01*
X135477831Y-89053649D01*
X135473171Y-89039975D01*
X135406025Y-88912724D01*
X135404727Y-88910937D01*
X135404493Y-88910283D01*
X135403391Y-88908492D01*
X135401886Y-88902973D01*
X135381251Y-88845129D01*
X135381049Y-88838057D01*
X135381049Y-88330373D01*
X135381048Y-88330369D01*
X135349614Y-88172338D01*
X135292627Y-88034760D01*
X135287952Y-88023473D01*
X135198430Y-87889494D01*
X135182560Y-87873624D01*
X135084494Y-87775558D01*
X135049505Y-87740569D01*
X135016020Y-87679246D01*
X135021004Y-87609554D01*
X135062876Y-87553621D01*
X135117788Y-87530415D01*
X135162004Y-87523411D01*
X135349134Y-87462608D01*
X135524442Y-87373285D01*
X135559424Y-87347868D01*
X135559425Y-87347868D01*
X134780203Y-86568647D01*
X134746718Y-86507324D01*
X134751702Y-86437633D01*
X134780203Y-86393284D01*
X134869298Y-86304189D01*
X134780203Y-86215094D01*
X134746718Y-86153771D01*
X134751702Y-86084079D01*
X134780203Y-86039732D01*
X135559424Y-85260510D01*
X135559424Y-85260509D01*
X135524444Y-85235095D01*
X135349134Y-85145771D01*
X135162004Y-85084968D01*
X134967681Y-85054190D01*
X134770922Y-85054190D01*
X134687696Y-85067371D01*
X134618403Y-85058415D01*
X134564951Y-85013418D01*
X134544312Y-84946667D01*
X134544299Y-84944897D01*
X134544299Y-82801190D01*
X134563984Y-82734151D01*
X134616788Y-82688396D01*
X134668299Y-82677190D01*
X136075866Y-82677190D01*
X136075867Y-82677189D01*
X136233901Y-82645755D01*
X136237824Y-82644129D01*
X136285282Y-82634689D01*
X136672221Y-82634689D01*
X136672233Y-82634689D01*
X136708397Y-82631844D01*
X136863193Y-82586871D01*
X137001942Y-82504816D01*
X137115925Y-82390833D01*
X137197980Y-82252084D01*
X137242953Y-82097288D01*
X137245799Y-82061125D01*
X137245798Y-81657256D01*
X137242953Y-81621092D01*
X137197980Y-81466296D01*
X137139978Y-81368219D01*
X137115929Y-81327553D01*
X137115927Y-81327551D01*
X137115925Y-81327547D01*
X137099897Y-81311519D01*
X137066410Y-81250197D01*
X137071393Y-81180505D01*
X137099897Y-81136153D01*
X137115524Y-81120526D01*
X137115530Y-81120519D01*
X137197517Y-80981885D01*
X137197517Y-80981884D01*
X137238973Y-80839190D01*
X136119299Y-80839190D01*
X136052260Y-80819505D01*
X136006505Y-80766701D01*
X135995299Y-80715190D01*
X135995299Y-80463190D01*
X136014984Y-80396151D01*
X136067788Y-80350396D01*
X136119299Y-80339190D01*
X137238973Y-80339190D01*
X137197517Y-80196495D01*
X137197517Y-80196494D01*
X137115528Y-80057858D01*
X137115522Y-80057851D01*
X137099897Y-80042226D01*
X137066410Y-79980904D01*
X137071393Y-79911212D01*
X137099895Y-79866862D01*
X137115925Y-79850833D01*
X137197980Y-79712084D01*
X137242953Y-79557288D01*
X137242953Y-79557280D01*
X137243801Y-79554364D01*
X137281408Y-79495478D01*
X137344880Y-79466271D01*
X137414067Y-79476017D01*
X137450559Y-79501277D01*
X137824980Y-79875698D01*
X137858465Y-79937021D01*
X137861299Y-79963379D01*
X137861299Y-84644001D01*
X137841614Y-84711040D01*
X137824980Y-84731682D01*
X137539291Y-85017371D01*
X137477968Y-85050856D01*
X137451610Y-85053690D01*
X137310877Y-85053690D01*
X137116472Y-85084480D01*
X136929269Y-85145307D01*
X136753893Y-85234666D01*
X136701429Y-85272784D01*
X136594653Y-85350362D01*
X136594651Y-85350364D01*
X136594650Y-85350364D01*
X136455473Y-85489541D01*
X136455473Y-85489542D01*
X136455471Y-85489544D01*
X136450958Y-85495756D01*
X136339775Y-85648784D01*
X136249503Y-85825954D01*
X136201528Y-85876750D01*
X136133707Y-85893545D01*
X136067573Y-85871008D01*
X136028533Y-85825954D01*
X135938395Y-85649048D01*
X135912977Y-85614063D01*
X135912976Y-85614063D01*
X135222852Y-86304189D01*
X135222852Y-86304191D01*
X135912977Y-86994316D01*
X135912977Y-86994315D01*
X135938396Y-86959331D01*
X136028533Y-86782426D01*
X136076507Y-86731629D01*
X136144328Y-86714834D01*
X136210463Y-86737371D01*
X136249503Y-86782425D01*
X136250414Y-86784214D01*
X136250415Y-86784215D01*
X136339775Y-86959595D01*
X136455471Y-87118836D01*
X136594653Y-87258018D01*
X136753894Y-87373714D01*
X136836754Y-87415933D01*
X136929269Y-87463072D01*
X136929271Y-87463072D01*
X136929274Y-87463074D01*
X137029616Y-87495677D01*
X137116472Y-87523899D01*
X137310877Y-87554690D01*
X137310882Y-87554690D01*
X137507721Y-87554690D01*
X137702125Y-87523899D01*
X137703627Y-87523411D01*
X137889324Y-87463074D01*
X138064704Y-87373714D01*
X138223945Y-87258018D01*
X138262440Y-87219522D01*
X138323761Y-87186036D01*
X138393453Y-87191019D01*
X138437803Y-87219521D01*
X139619066Y-88400783D01*
X139652551Y-88462106D01*
X139647567Y-88531798D01*
X139619068Y-88576143D01*
X139575531Y-88619682D01*
X139575522Y-88619690D01*
X139537898Y-88666378D01*
X139537898Y-88666380D01*
X139478111Y-88797292D01*
X139457630Y-88939750D01*
X139478111Y-89082206D01*
X139537898Y-89213120D01*
X139537901Y-89213125D01*
X139573796Y-89257667D01*
X139575519Y-89259805D01*
X141057435Y-90741720D01*
X141057439Y-90741723D01*
X141057441Y-90741725D01*
X141104116Y-90779340D01*
X141132254Y-90792190D01*
X141235033Y-90839128D01*
X141235032Y-90839128D01*
X141255514Y-90842072D01*
X141377490Y-90859610D01*
X141519948Y-90839128D01*
X141650863Y-90779340D01*
X141697546Y-90741721D01*
X142896618Y-89542648D01*
X142934238Y-89495965D01*
X142994026Y-89365050D01*
X143014508Y-89222592D01*
X142994026Y-89080135D01*
X142934238Y-88949219D01*
X142926607Y-88939750D01*
X142896622Y-88902541D01*
X142896616Y-88902534D01*
X141414706Y-87420625D01*
X141414696Y-87420616D01*
X141368021Y-87383001D01*
X141237103Y-87323213D01*
X141237105Y-87323213D01*
X141094648Y-87302732D01*
X140952185Y-87323214D01*
X140947763Y-87324513D01*
X140877893Y-87324511D01*
X140825151Y-87293216D01*
X139288806Y-85756871D01*
X139255321Y-85695548D01*
X139260305Y-85625856D01*
X139288803Y-85581511D01*
X139314681Y-85555635D01*
X139404201Y-85421659D01*
X139404204Y-85421652D01*
X139440252Y-85334625D01*
X139440252Y-85334624D01*
X139465864Y-85272792D01*
X139497299Y-85114756D01*
X139497299Y-79492624D01*
X139465864Y-79334588D01*
X139417705Y-79218324D01*
X139404201Y-79185721D01*
X139371316Y-79136505D01*
X139314681Y-79051744D01*
X139314678Y-79051741D01*
X137879306Y-77616370D01*
X137845821Y-77555047D01*
X137850805Y-77485355D01*
X137892677Y-77429422D01*
X137958141Y-77405005D01*
X137966987Y-77404689D01*
X138951223Y-77404689D01*
X138951231Y-77404689D01*
X139066793Y-77394416D01*
X139256167Y-77340229D01*
X139430756Y-77249031D01*
X139583414Y-77124555D01*
X139707890Y-76971897D01*
X139799088Y-76797308D01*
X139853275Y-76607934D01*
X139863549Y-76492373D01*
X139863548Y-76116008D01*
X139853275Y-76000446D01*
X139799088Y-75811072D01*
X139707890Y-75636483D01*
X139583414Y-75483825D01*
X139577455Y-75478966D01*
X139572550Y-75474966D01*
X139533035Y-75417343D01*
X139530945Y-75347505D01*
X139566945Y-75287623D01*
X139572557Y-75282761D01*
X139583058Y-75274199D01*
X139707469Y-75121620D01*
X139798621Y-74947118D01*
X139852780Y-74757840D01*
X139857550Y-74704190D01*
X138178735Y-74704190D01*
X138183129Y-74699796D01*
X138185728Y-74695295D01*
X153936784Y-74695295D01*
X153936784Y-74899932D01*
X153968793Y-75102027D01*
X154032028Y-75296642D01*
X154124925Y-75478964D01*
X154124926Y-75478966D01*
X154245201Y-75644508D01*
X154282189Y-75681496D01*
X154956479Y-75007206D01*
X154982168Y-75103079D01*
X155038121Y-75199991D01*
X155117249Y-75279119D01*
X155214161Y-75335072D01*
X155310030Y-75360760D01*
X154635743Y-76035049D01*
X154635743Y-76035050D01*
X154672731Y-76072038D01*
X154838273Y-76192313D01*
X154838275Y-76192314D01*
X155020597Y-76285211D01*
X155215212Y-76348446D01*
X155417308Y-76380456D01*
X155621944Y-76380456D01*
X155824039Y-76348446D01*
X156018657Y-76285210D01*
X156200972Y-76192317D01*
X156200974Y-76192316D01*
X156245546Y-76159930D01*
X155446376Y-75360760D01*
X155542249Y-75335072D01*
X155639161Y-75279119D01*
X155718289Y-75199991D01*
X155774242Y-75103079D01*
X155799930Y-75007206D01*
X156599100Y-75806376D01*
X156631486Y-75761804D01*
X156631487Y-75761802D01*
X156724380Y-75579487D01*
X156787616Y-75384869D01*
X156819626Y-75182774D01*
X156819626Y-74978137D01*
X156787616Y-74776042D01*
X156724381Y-74581427D01*
X156631484Y-74399105D01*
X156631483Y-74399103D01*
X156511208Y-74233561D01*
X156474220Y-74196573D01*
X155799930Y-74870861D01*
X155774242Y-74774991D01*
X155718289Y-74678079D01*
X155639161Y-74598951D01*
X155542249Y-74542998D01*
X155446377Y-74517309D01*
X156120666Y-73843019D01*
X156083678Y-73806031D01*
X155918136Y-73685756D01*
X155918134Y-73685755D01*
X155735812Y-73592858D01*
X155541197Y-73529623D01*
X155339102Y-73497614D01*
X155134466Y-73497614D01*
X154932370Y-73529623D01*
X154737755Y-73592858D01*
X154555433Y-73685755D01*
X154555424Y-73685761D01*
X154510862Y-73718137D01*
X154510861Y-73718138D01*
X155310033Y-74517309D01*
X155214161Y-74542998D01*
X155117249Y-74598951D01*
X155038121Y-74678079D01*
X154982168Y-74774991D01*
X154956479Y-74870862D01*
X154157308Y-74071691D01*
X154157307Y-74071692D01*
X154124931Y-74116254D01*
X154124925Y-74116263D01*
X154032028Y-74298585D01*
X153968793Y-74493200D01*
X153936784Y-74695295D01*
X138185728Y-74695295D01*
X138235790Y-74608584D01*
X138263049Y-74506851D01*
X138263049Y-74401529D01*
X138235790Y-74299796D01*
X138183129Y-74208584D01*
X138178735Y-74204190D01*
X139857549Y-74204190D01*
X139852780Y-74150539D01*
X139798621Y-73961259D01*
X139726301Y-73822809D01*
X139726300Y-73822807D01*
X139707472Y-73786763D01*
X139583058Y-73634180D01*
X139430479Y-73509769D01*
X139255977Y-73418617D01*
X139066700Y-73364458D01*
X138951197Y-73354190D01*
X138113049Y-73354190D01*
X138113049Y-74138504D01*
X138108655Y-74134110D01*
X138017443Y-74081449D01*
X137915710Y-74054190D01*
X137810388Y-74054190D01*
X137708655Y-74081449D01*
X137617443Y-74134110D01*
X137613049Y-74138504D01*
X137613049Y-73354190D01*
X136774900Y-73354190D01*
X136659397Y-73364458D01*
X136470120Y-73418617D01*
X136295618Y-73509769D01*
X136143039Y-73634180D01*
X136018628Y-73786759D01*
X135927476Y-73961261D01*
X135873317Y-74150539D01*
X135868548Y-74204190D01*
X137547363Y-74204190D01*
X137542969Y-74208584D01*
X137490308Y-74299796D01*
X137463049Y-74401529D01*
X137463049Y-74506851D01*
X137490308Y-74608584D01*
X137542969Y-74699796D01*
X137547363Y-74704190D01*
X135868548Y-74704190D01*
X135873317Y-74757840D01*
X135927476Y-74947118D01*
X136018628Y-75121620D01*
X136143043Y-75274203D01*
X136143349Y-75274509D01*
X136143463Y-75274718D01*
X136147014Y-75279073D01*
X136146202Y-75279734D01*
X136176834Y-75335832D01*
X136171850Y-75405524D01*
X136129978Y-75461457D01*
X136064514Y-75485874D01*
X136055668Y-75486190D01*
X135771728Y-75486190D01*
X135613704Y-75517623D01*
X135613696Y-75517625D01*
X135464832Y-75579286D01*
X135330851Y-75668809D01*
X135330850Y-75668810D01*
X134755980Y-76243681D01*
X134694657Y-76277166D01*
X134624965Y-76272182D01*
X134569032Y-76230310D01*
X134544615Y-76164846D01*
X134544299Y-76156000D01*
X134544299Y-71474190D01*
X134563984Y-71407151D01*
X134616788Y-71361396D01*
X134668299Y-71350190D01*
X134795919Y-71350190D01*
X134808881Y-71350004D01*
X134810325Y-71349984D01*
X134952098Y-71325450D01*
X135033590Y-71298972D01*
X135047264Y-71294312D01*
X135174515Y-71227166D01*
X135205323Y-71204782D01*
X135205322Y-71204781D01*
X135205394Y-71204729D01*
X135205395Y-71204730D01*
X135243826Y-71176809D01*
X135255394Y-71168150D01*
X135355668Y-71064967D01*
X135383589Y-71026536D01*
X135383588Y-71026535D01*
X135387029Y-71021801D01*
X135387573Y-71021052D01*
X135406025Y-70995656D01*
X135406087Y-70995566D01*
X135406597Y-70994866D01*
X135406598Y-70994864D01*
X135406604Y-70994857D01*
X135412009Y-70987417D01*
X135412712Y-70986169D01*
X135414348Y-70983849D01*
X135477831Y-70854731D01*
X135492364Y-70810003D01*
X135504304Y-70773255D01*
X135508573Y-70759448D01*
X135529049Y-70617033D01*
X135529049Y-69504312D01*
X159856299Y-69504312D01*
X159856299Y-69766567D01*
X159880574Y-69950946D01*
X159890529Y-70026556D01*
X159958401Y-70279858D01*
X159958404Y-70279868D01*
X160058752Y-70522130D01*
X160058757Y-70522140D01*
X160189874Y-70749243D01*
X160349517Y-70957291D01*
X160349525Y-70957300D01*
X160534939Y-71142714D01*
X160534947Y-71142721D01*
X160534948Y-71142722D01*
X160568085Y-71168149D01*
X160742995Y-71302364D01*
X160970098Y-71433481D01*
X160970108Y-71433486D01*
X161167777Y-71515363D01*
X161212380Y-71533838D01*
X161465683Y-71601710D01*
X161725679Y-71635940D01*
X161725686Y-71635940D01*
X161987912Y-71635940D01*
X161987919Y-71635940D01*
X162247915Y-71601710D01*
X162501218Y-71533838D01*
X162743496Y-71433483D01*
X162970602Y-71302364D01*
X163178650Y-71142722D01*
X163178654Y-71142717D01*
X163178659Y-71142714D01*
X163364073Y-70957300D01*
X163364076Y-70957295D01*
X163364081Y-70957291D01*
X163523723Y-70749243D01*
X163654842Y-70522137D01*
X163755197Y-70279859D01*
X163823069Y-70026556D01*
X163857299Y-69766560D01*
X163857299Y-69504320D01*
X163823069Y-69244324D01*
X163755197Y-68991021D01*
X163742381Y-68960080D01*
X163654845Y-68748749D01*
X163654840Y-68748739D01*
X163523723Y-68521636D01*
X163401223Y-68361994D01*
X163364081Y-68313589D01*
X163364080Y-68313588D01*
X163364073Y-68313580D01*
X163178659Y-68128166D01*
X163178650Y-68128158D01*
X162970602Y-67968515D01*
X162743499Y-67837398D01*
X162743489Y-67837393D01*
X162501227Y-67737045D01*
X162501220Y-67737043D01*
X162501218Y-67737042D01*
X162247915Y-67669170D01*
X162190138Y-67661563D01*
X161987926Y-67634940D01*
X161987919Y-67634940D01*
X161725679Y-67634940D01*
X161725671Y-67634940D01*
X161494571Y-67665366D01*
X161465683Y-67669170D01*
X161256848Y-67725127D01*
X161212380Y-67737042D01*
X161212370Y-67737045D01*
X160970108Y-67837393D01*
X160970098Y-67837398D01*
X160742995Y-67968515D01*
X160534947Y-68128158D01*
X160349517Y-68313588D01*
X160189874Y-68521636D01*
X160058757Y-68748739D01*
X160058752Y-68748749D01*
X159958404Y-68991011D01*
X159958401Y-68991021D01*
X159915635Y-69150629D01*
X159890529Y-69244325D01*
X159856299Y-69504312D01*
X135529049Y-69504312D01*
X135529049Y-69291347D01*
X135528843Y-69276914D01*
X135504309Y-69135141D01*
X135477831Y-69053649D01*
X135473171Y-69039975D01*
X135406025Y-68912724D01*
X135404727Y-68910937D01*
X135404493Y-68910283D01*
X135403391Y-68908492D01*
X135401886Y-68902973D01*
X135381251Y-68845129D01*
X135381049Y-68838057D01*
X135381049Y-68649749D01*
X135381050Y-68649728D01*
X135381050Y-68482481D01*
X135349615Y-68324452D01*
X135349614Y-68324451D01*
X135349614Y-68324447D01*
X135346843Y-68317758D01*
X135287954Y-68175585D01*
X135287953Y-68175583D01*
X135270054Y-68148796D01*
X135212943Y-68063323D01*
X135198431Y-68041604D01*
X135198429Y-68041601D01*
X135080175Y-67923347D01*
X135080152Y-67923326D01*
X134521448Y-67364620D01*
X134521444Y-67364617D01*
X134387474Y-67275100D01*
X134387461Y-67275093D01*
X134238606Y-67213436D01*
X134238594Y-67213433D01*
X134172605Y-67200307D01*
X134110694Y-67167922D01*
X134076120Y-67107207D01*
X134079859Y-67037437D01*
X134120725Y-66980765D01*
X134185744Y-66955184D01*
X134196796Y-66954690D01*
X161959803Y-66954690D01*
X161966292Y-66954860D01*
G37*
G04 #@! TD.AperFunction*
G04 #@! TA.AperFunction,Conductor*
G36*
X130357693Y-70798912D02*
G01*
X130381437Y-70801294D01*
X130390606Y-70808576D01*
X130401840Y-70811875D01*
X130417464Y-70829906D01*
X130436151Y-70844747D01*
X130444467Y-70861069D01*
X130447595Y-70864679D01*
X130452174Y-70876195D01*
X130452926Y-70878404D01*
X130520074Y-71005658D01*
X130521365Y-71007434D01*
X130544847Y-71073240D01*
X130545049Y-71080322D01*
X130545049Y-71934760D01*
X130576482Y-72092784D01*
X130576485Y-72092796D01*
X130638142Y-72241651D01*
X130638149Y-72241664D01*
X130727666Y-72375634D01*
X130727669Y-72375638D01*
X131728980Y-73376948D01*
X131762465Y-73438271D01*
X131765299Y-73464629D01*
X131765299Y-77223639D01*
X131745614Y-77290678D01*
X131692810Y-77336433D01*
X131623652Y-77346377D01*
X131578180Y-77330372D01*
X131563193Y-77321509D01*
X131563191Y-77321508D01*
X131563189Y-77321507D01*
X131408401Y-77276536D01*
X131408395Y-77276535D01*
X131372241Y-77273690D01*
X131372234Y-77273690D01*
X130985279Y-77273690D01*
X130937826Y-77264251D01*
X130933901Y-77262625D01*
X130933893Y-77262623D01*
X130775869Y-77231190D01*
X130775865Y-77231190D01*
X129287483Y-77231190D01*
X129287478Y-77231190D01*
X129129454Y-77262623D01*
X129129446Y-77262625D01*
X129008349Y-77312786D01*
X128987290Y-77321509D01*
X128982543Y-77323475D01*
X128980578Y-77324289D01*
X128980574Y-77324291D01*
X128846603Y-77413807D01*
X128846600Y-77413810D01*
X127140541Y-79119871D01*
X127079218Y-79153356D01*
X127052860Y-79156190D01*
X125601239Y-79156190D01*
X125585402Y-79151539D01*
X125568899Y-79151899D01*
X125552568Y-79141898D01*
X125534200Y-79136505D01*
X125522867Y-79123710D01*
X125509314Y-79115411D01*
X125497598Y-79095182D01*
X125489591Y-79086142D01*
X125485920Y-79078546D01*
X125477831Y-79053649D01*
X125473171Y-79039975D01*
X125406025Y-78912724D01*
X125390854Y-78891844D01*
X125355652Y-78843391D01*
X125354464Y-78841804D01*
X125354461Y-78841797D01*
X125354450Y-78841785D01*
X125347012Y-78831849D01*
X125347011Y-78831848D01*
X125347009Y-78831845D01*
X125243826Y-78731571D01*
X125205395Y-78703650D01*
X125201562Y-78700865D01*
X125183992Y-78688100D01*
X125173794Y-78680690D01*
X125173756Y-78680663D01*
X125166309Y-78675252D01*
X125165037Y-78674533D01*
X125164370Y-78674063D01*
X125162708Y-78672891D01*
X125033590Y-78609408D01*
X125033584Y-78609406D01*
X125033580Y-78609404D01*
X125033578Y-78609403D01*
X124952114Y-78582934D01*
X124938305Y-78578665D01*
X124795892Y-78558190D01*
X124023531Y-78558190D01*
X124023030Y-78558190D01*
X124022842Y-78558190D01*
X123986269Y-78558190D01*
X123975155Y-78559586D01*
X123966011Y-78559915D01*
X123824612Y-78585488D01*
X123824588Y-78585494D01*
X123751056Y-78609979D01*
X123751049Y-78609982D01*
X123622892Y-78674060D01*
X123559167Y-78718206D01*
X123453954Y-78815900D01*
X123430688Y-78844675D01*
X123427997Y-78848001D01*
X123427439Y-78848603D01*
X123427245Y-78848931D01*
X123425033Y-78851668D01*
X123425029Y-78851674D01*
X123417513Y-78860970D01*
X123360056Y-78900726D01*
X123290227Y-78903107D01*
X123282769Y-78900939D01*
X123220755Y-78880789D01*
X123220747Y-78880787D01*
X123147632Y-78869205D01*
X123147632Y-78869206D01*
X123142653Y-78868417D01*
X123119951Y-78862910D01*
X123102679Y-78862087D01*
X123095965Y-78861024D01*
X123095963Y-78861023D01*
X123095961Y-78861023D01*
X123049664Y-78853690D01*
X123049660Y-78853690D01*
X122926398Y-78853690D01*
X122910590Y-78852937D01*
X122905353Y-78853690D01*
X122876438Y-78853690D01*
X122819408Y-78862722D01*
X122705346Y-78880788D01*
X122705339Y-78880789D01*
X122636923Y-78903019D01*
X122567082Y-78905014D01*
X122507249Y-78868933D01*
X122502182Y-78863052D01*
X122472144Y-78825901D01*
X122366930Y-78728206D01*
X122303213Y-78684065D01*
X122303208Y-78684062D01*
X122249594Y-78657255D01*
X122198435Y-78609667D01*
X122181049Y-78546346D01*
X122181049Y-71382033D01*
X122200734Y-71314994D01*
X122249594Y-71271124D01*
X122303210Y-71244317D01*
X122366928Y-71200175D01*
X122472146Y-71102476D01*
X122496494Y-71072363D01*
X122496493Y-71072362D01*
X122498082Y-71070397D01*
X122498659Y-71069777D01*
X122498859Y-71069435D01*
X122501074Y-71066697D01*
X122514989Y-71049487D01*
X122572446Y-71009733D01*
X122642276Y-71007353D01*
X122649698Y-71009510D01*
X122705348Y-71027592D01*
X122876438Y-71054690D01*
X122876439Y-71054690D01*
X122905353Y-71054690D01*
X122910590Y-71055443D01*
X122926398Y-71054690D01*
X123049656Y-71054690D01*
X123049660Y-71054690D01*
X123102681Y-71046292D01*
X123119951Y-71045470D01*
X123142658Y-71039960D01*
X123220750Y-71027592D01*
X123282770Y-71007439D01*
X123352607Y-71005443D01*
X123412441Y-71041522D01*
X123417512Y-71047407D01*
X123429604Y-71062362D01*
X123429604Y-71062363D01*
X123442904Y-71078812D01*
X123453954Y-71092478D01*
X123559167Y-71190173D01*
X123559170Y-71190175D01*
X123622888Y-71234317D01*
X123751053Y-71298399D01*
X123751055Y-71298399D01*
X123751056Y-71298400D01*
X123824588Y-71322885D01*
X123824591Y-71322885D01*
X123824598Y-71322888D01*
X123824605Y-71322889D01*
X123824612Y-71322891D01*
X123963343Y-71347982D01*
X123963346Y-71347982D01*
X123965894Y-71348443D01*
X123976491Y-71348829D01*
X123978663Y-71348969D01*
X123982009Y-71350190D01*
X124011587Y-71350190D01*
X124016101Y-71350272D01*
X124041505Y-71351197D01*
X124052806Y-71350190D01*
X124795919Y-71350190D01*
X124808881Y-71350004D01*
X124810325Y-71349984D01*
X124952098Y-71325450D01*
X125033590Y-71298972D01*
X125047264Y-71294312D01*
X125174515Y-71227166D01*
X125205323Y-71204782D01*
X125205322Y-71204781D01*
X125205394Y-71204729D01*
X125205395Y-71204730D01*
X125243826Y-71176809D01*
X125255394Y-71168150D01*
X125355668Y-71064967D01*
X125383589Y-71026536D01*
X125383588Y-71026535D01*
X125387029Y-71021801D01*
X125387573Y-71021052D01*
X125406025Y-70995656D01*
X125406087Y-70995566D01*
X125406597Y-70994866D01*
X125406598Y-70994864D01*
X125406604Y-70994857D01*
X125412009Y-70987417D01*
X125412712Y-70986169D01*
X125414348Y-70983849D01*
X125474514Y-70861476D01*
X125521756Y-70810003D01*
X125585790Y-70792190D01*
X130334801Y-70792190D01*
X130357693Y-70798912D01*
G37*
G04 #@! TD.AperFunction*
G04 #@! TA.AperFunction,NonConductor*
G36*
X129447182Y-82229396D02*
G01*
X129503115Y-82271268D01*
X129510580Y-82282457D01*
X129574671Y-82390830D01*
X129574677Y-82390838D01*
X129688650Y-82504811D01*
X129688654Y-82504814D01*
X129688656Y-82504816D01*
X129688659Y-82504817D01*
X129688662Y-82504820D01*
X129706101Y-82515133D01*
X129827405Y-82586871D01*
X129868227Y-82598731D01*
X129982196Y-82631843D01*
X129982199Y-82631843D01*
X129982201Y-82631844D01*
X130018364Y-82634690D01*
X130405315Y-82634689D01*
X130452770Y-82644129D01*
X130456689Y-82645752D01*
X130456691Y-82645752D01*
X130456697Y-82645755D01*
X130456701Y-82645755D01*
X130456702Y-82645756D01*
X130614728Y-82677189D01*
X130614732Y-82677190D01*
X130614733Y-82677190D01*
X131006299Y-82677190D01*
X131073338Y-82696875D01*
X131119093Y-82749679D01*
X131130299Y-82801190D01*
X131130299Y-84929690D01*
X131110614Y-84996729D01*
X131057810Y-85042484D01*
X131006299Y-85053690D01*
X130960877Y-85053690D01*
X130766472Y-85084480D01*
X130579269Y-85145307D01*
X130403893Y-85234666D01*
X130351429Y-85272784D01*
X130244653Y-85350362D01*
X130244651Y-85350364D01*
X130244650Y-85350364D01*
X130105473Y-85489541D01*
X130105473Y-85489542D01*
X130105471Y-85489544D01*
X130100958Y-85495756D01*
X129989775Y-85648784D01*
X129900418Y-85824158D01*
X129900417Y-85824161D01*
X129900415Y-85824165D01*
X129889468Y-85857857D01*
X129839589Y-86011363D01*
X129808799Y-86205767D01*
X129808799Y-86402612D01*
X129839589Y-86597016D01*
X129900416Y-86784219D01*
X129989640Y-86959331D01*
X129989775Y-86959595D01*
X130105471Y-87118836D01*
X130244653Y-87258018D01*
X130403894Y-87373714D01*
X130486754Y-87415933D01*
X130579269Y-87463072D01*
X130579271Y-87463072D01*
X130579274Y-87463074D01*
X130679616Y-87495677D01*
X130766472Y-87523899D01*
X130960877Y-87554690D01*
X130960882Y-87554690D01*
X131157721Y-87554690D01*
X131352125Y-87523899D01*
X131353627Y-87523411D01*
X131539324Y-87463074D01*
X131714704Y-87373714D01*
X131873945Y-87258018D01*
X132013127Y-87118836D01*
X132128823Y-86959595D01*
X132218183Y-86784215D01*
X132279008Y-86597016D01*
X132293214Y-86507324D01*
X132309799Y-86402612D01*
X132309799Y-86261878D01*
X132318444Y-86232434D01*
X132324967Y-86202452D01*
X132328721Y-86197436D01*
X132329484Y-86194839D01*
X132346113Y-86174200D01*
X132469741Y-86050573D01*
X132469744Y-86050572D01*
X132583681Y-85936635D01*
X132658831Y-85824165D01*
X132673202Y-85802658D01*
X132674595Y-85799292D01*
X132679642Y-85791352D01*
X132702557Y-85771289D01*
X132723896Y-85749564D01*
X132728589Y-85748498D01*
X132732212Y-85745327D01*
X132762332Y-85740839D01*
X132792032Y-85734098D01*
X132796558Y-85735740D01*
X132801318Y-85735031D01*
X132829083Y-85747539D01*
X132857714Y-85757926D01*
X132860632Y-85761752D01*
X132865022Y-85763730D01*
X132881620Y-85789269D01*
X132900086Y-85813480D01*
X132901173Y-85819355D01*
X132903096Y-85822314D01*
X132903135Y-85829954D01*
X132908299Y-85857857D01*
X132908299Y-87654760D01*
X132939732Y-87812784D01*
X132939734Y-87812792D01*
X132964932Y-87873625D01*
X133001396Y-87961658D01*
X133001397Y-87961661D01*
X133090916Y-88095634D01*
X133090919Y-88095638D01*
X133548196Y-88552915D01*
X133552550Y-88560889D01*
X133559822Y-88566339D01*
X133569032Y-88591074D01*
X133581681Y-88614238D01*
X133581032Y-88623300D01*
X133584204Y-88631817D01*
X133578579Y-88657604D01*
X133576697Y-88683930D01*
X133570857Y-88693011D01*
X133569315Y-88700082D01*
X133552030Y-88722289D01*
X133548149Y-88728325D01*
X133546537Y-88729935D01*
X133453952Y-88815904D01*
X133429604Y-88846017D01*
X133429740Y-88846127D01*
X133427439Y-88848603D01*
X133427011Y-88849330D01*
X133426281Y-88850060D01*
X133425029Y-88851674D01*
X133417513Y-88860970D01*
X133360056Y-88900726D01*
X133290227Y-88903107D01*
X133282769Y-88900939D01*
X133220755Y-88880789D01*
X133220747Y-88880787D01*
X133147632Y-88869205D01*
X133147632Y-88869206D01*
X133142653Y-88868417D01*
X133119951Y-88862910D01*
X133102679Y-88862087D01*
X133095965Y-88861024D01*
X133095963Y-88861023D01*
X133095961Y-88861023D01*
X133049664Y-88853690D01*
X133049660Y-88853690D01*
X132926398Y-88853690D01*
X132910590Y-88852937D01*
X132905353Y-88853690D01*
X132876438Y-88853690D01*
X132819408Y-88862722D01*
X132705346Y-88880788D01*
X132705339Y-88880789D01*
X132636923Y-88903019D01*
X132567082Y-88905014D01*
X132507249Y-88868933D01*
X132502182Y-88863052D01*
X132472144Y-88825901D01*
X132366930Y-88728206D01*
X132316126Y-88693011D01*
X132303210Y-88684063D01*
X132303207Y-88684061D01*
X132303205Y-88684060D01*
X132175048Y-88619982D01*
X132175041Y-88619979D01*
X132101509Y-88595494D01*
X132101485Y-88595488D01*
X131962744Y-88570395D01*
X131962732Y-88570394D01*
X131960204Y-88569937D01*
X131949669Y-88569553D01*
X131947430Y-88569409D01*
X131944090Y-88568190D01*
X131914520Y-88568190D01*
X131910005Y-88568108D01*
X131884621Y-88567183D01*
X131873307Y-88568190D01*
X131130179Y-88568190D01*
X131115775Y-88568395D01*
X130974000Y-88592929D01*
X130892516Y-88619405D01*
X130878830Y-88624069D01*
X130751904Y-88691044D01*
X130751896Y-88691048D01*
X130751583Y-88691214D01*
X130751339Y-88691391D01*
X130751328Y-88691398D01*
X130733760Y-88704163D01*
X130733758Y-88704165D01*
X130682249Y-88741586D01*
X130680642Y-88742789D01*
X130680643Y-88742789D01*
X130670707Y-88750227D01*
X130670704Y-88750230D01*
X130573689Y-88850060D01*
X130570433Y-88853410D01*
X130570426Y-88853418D01*
X130569576Y-88854588D01*
X130542509Y-88891844D01*
X130542457Y-88891916D01*
X130541236Y-88893596D01*
X130541235Y-88893597D01*
X130541234Y-88893598D01*
X130521380Y-88920925D01*
X130519550Y-88923444D01*
X130519497Y-88923517D01*
X130514102Y-88930942D01*
X130513390Y-88932204D01*
X130511754Y-88934524D01*
X130511750Y-88934530D01*
X130448264Y-89063655D01*
X130446039Y-89070506D01*
X130406602Y-89128182D01*
X130342244Y-89155382D01*
X130328107Y-89156190D01*
X125601239Y-89156190D01*
X125585402Y-89151539D01*
X125568899Y-89151899D01*
X125552568Y-89141898D01*
X125534200Y-89136505D01*
X125522867Y-89123710D01*
X125509314Y-89115411D01*
X125497598Y-89095182D01*
X125489591Y-89086142D01*
X125485920Y-89078546D01*
X125477831Y-89053649D01*
X125473171Y-89039975D01*
X125406025Y-88912724D01*
X125390907Y-88891916D01*
X125355677Y-88843425D01*
X125354450Y-88841785D01*
X125354446Y-88841781D01*
X125347009Y-88831845D01*
X125330606Y-88815904D01*
X125318628Y-88804264D01*
X125303122Y-88776806D01*
X125286072Y-88750275D01*
X125285365Y-88745362D01*
X125284272Y-88743426D01*
X125281049Y-88715340D01*
X125281049Y-88714280D01*
X125300734Y-88647241D01*
X125353538Y-88601486D01*
X125422696Y-88591542D01*
X125473939Y-88611178D01*
X125575579Y-88679091D01*
X125575580Y-88679091D01*
X125575581Y-88679092D01*
X125724447Y-88740755D01*
X125882478Y-88772189D01*
X125882482Y-88772190D01*
X125882483Y-88772190D01*
X126043616Y-88772190D01*
X126043617Y-88772189D01*
X126201651Y-88740755D01*
X126338516Y-88684063D01*
X126350515Y-88679093D01*
X126350515Y-88679092D01*
X126350517Y-88679092D01*
X126484494Y-88589572D01*
X126598431Y-88475635D01*
X126687951Y-88341658D01*
X126692626Y-88330373D01*
X126696981Y-88319856D01*
X126749614Y-88192792D01*
X126781049Y-88034756D01*
X126781049Y-84844378D01*
X126800734Y-84777339D01*
X126817363Y-84756702D01*
X129316169Y-82257895D01*
X129377490Y-82224412D01*
X129447182Y-82229396D01*
G37*
G04 #@! TD.AperFunction*
G04 #@! TA.AperFunction,NonConductor*
G36*
X120357693Y-70798912D02*
G01*
X120381437Y-70801294D01*
X120390606Y-70808576D01*
X120401840Y-70811875D01*
X120417464Y-70829906D01*
X120436151Y-70844747D01*
X120444467Y-70861069D01*
X120447595Y-70864679D01*
X120452174Y-70876195D01*
X120452926Y-70878404D01*
X120520074Y-71005658D01*
X120521365Y-71007434D01*
X120544847Y-71073240D01*
X120545049Y-71080322D01*
X120545049Y-78848056D01*
X120539082Y-78868375D01*
X120537910Y-78889524D01*
X120526519Y-78911161D01*
X120525364Y-78915095D01*
X120521493Y-78920767D01*
X120520981Y-78921474D01*
X120520073Y-78922724D01*
X120519949Y-78922899D01*
X120519427Y-78923621D01*
X120519425Y-78923622D01*
X120519315Y-78923776D01*
X120514082Y-78930980D01*
X120513393Y-78932198D01*
X120511758Y-78934516D01*
X120511750Y-78934530D01*
X120486920Y-78985032D01*
X120454121Y-79051744D01*
X120448263Y-79063658D01*
X120448262Y-79063660D01*
X120421793Y-79145124D01*
X120417524Y-79158931D01*
X120417524Y-79158935D01*
X120397049Y-79301346D01*
X120397049Y-80627060D01*
X120397254Y-80641463D01*
X120421788Y-80783238D01*
X120439968Y-80839190D01*
X120448267Y-80864731D01*
X120452927Y-80878405D01*
X120520073Y-81005656D01*
X120523004Y-81009690D01*
X120524540Y-81012017D01*
X120534004Y-81042854D01*
X120544847Y-81073240D01*
X120545002Y-81078689D01*
X120545040Y-81078812D01*
X120545009Y-81078922D01*
X120545049Y-81080322D01*
X120545049Y-81434760D01*
X120576482Y-81592784D01*
X120576484Y-81592792D01*
X120603186Y-81657256D01*
X120638146Y-81741658D01*
X120638147Y-81741661D01*
X120727666Y-81875634D01*
X120727669Y-81875638D01*
X121941600Y-83089569D01*
X121941604Y-83089572D01*
X122075581Y-83179093D01*
X122150012Y-83209922D01*
X122150013Y-83209923D01*
X122150014Y-83209923D01*
X122224447Y-83240755D01*
X122382478Y-83272189D01*
X122382482Y-83272190D01*
X122382483Y-83272190D01*
X122543615Y-83272190D01*
X123521049Y-83272190D01*
X123588088Y-83291875D01*
X123633843Y-83344679D01*
X123645049Y-83396190D01*
X123645049Y-87012190D01*
X123625364Y-87079229D01*
X123572560Y-87124984D01*
X123521049Y-87136190D01*
X122549749Y-87136190D01*
X122549729Y-87136189D01*
X122543615Y-87136189D01*
X122382484Y-87136189D01*
X122382482Y-87136189D01*
X122224452Y-87167623D01*
X122224442Y-87167626D01*
X122075585Y-87229284D01*
X122032581Y-87258019D01*
X121941605Y-87318806D01*
X121912544Y-87347868D01*
X121827667Y-87432745D01*
X121827665Y-87432747D01*
X120827669Y-88432741D01*
X120827666Y-88432745D01*
X120738147Y-88566718D01*
X120738146Y-88566721D01*
X120714856Y-88622946D01*
X120714826Y-88623022D01*
X120714393Y-88624068D01*
X120676484Y-88715588D01*
X120674314Y-88726495D01*
X120670304Y-88736738D01*
X120655370Y-88756028D01*
X120644060Y-88777644D01*
X120643766Y-88777948D01*
X120570433Y-88853409D01*
X120570426Y-88853418D01*
X120569576Y-88854588D01*
X120542509Y-88891844D01*
X120542457Y-88891916D01*
X120541236Y-88893596D01*
X120541235Y-88893597D01*
X120541234Y-88893598D01*
X120521380Y-88920925D01*
X120519550Y-88923444D01*
X120519497Y-88923517D01*
X120514102Y-88930942D01*
X120513390Y-88932204D01*
X120511754Y-88934524D01*
X120511750Y-88934530D01*
X120448264Y-89063655D01*
X120446039Y-89070506D01*
X120406602Y-89128182D01*
X120342244Y-89155382D01*
X120328107Y-89156190D01*
X115601239Y-89156190D01*
X115585402Y-89151539D01*
X115568899Y-89151899D01*
X115552568Y-89141898D01*
X115534200Y-89136505D01*
X115522867Y-89123710D01*
X115509314Y-89115411D01*
X115497598Y-89095182D01*
X115489591Y-89086142D01*
X115485920Y-89078546D01*
X115477831Y-89053649D01*
X115473171Y-89039975D01*
X115406025Y-88912724D01*
X115383641Y-88881916D01*
X115355652Y-88843391D01*
X115354464Y-88841804D01*
X115354461Y-88841797D01*
X115354450Y-88841785D01*
X115347012Y-88831849D01*
X115347011Y-88831848D01*
X115347009Y-88831845D01*
X115243826Y-88731571D01*
X115205395Y-88703650D01*
X115200484Y-88700082D01*
X115174515Y-88681214D01*
X115174510Y-88681211D01*
X115173784Y-88680683D01*
X115173756Y-88680663D01*
X115166309Y-88675252D01*
X115165037Y-88674533D01*
X115164370Y-88674063D01*
X115162708Y-88672891D01*
X115033590Y-88609408D01*
X115033584Y-88609406D01*
X115033580Y-88609404D01*
X115033578Y-88609403D01*
X114952114Y-88582934D01*
X114938305Y-88578665D01*
X114795892Y-88558190D01*
X114023531Y-88558190D01*
X114023030Y-88558190D01*
X114022842Y-88558190D01*
X113986269Y-88558190D01*
X113975155Y-88559586D01*
X113966011Y-88559915D01*
X113824612Y-88585488D01*
X113824588Y-88585494D01*
X113751056Y-88609979D01*
X113751049Y-88609982D01*
X113622892Y-88674060D01*
X113559167Y-88718206D01*
X113453954Y-88815900D01*
X113430688Y-88844675D01*
X113427997Y-88848001D01*
X113427439Y-88848603D01*
X113427245Y-88848931D01*
X113425033Y-88851668D01*
X113425029Y-88851674D01*
X113417513Y-88860970D01*
X113360056Y-88900726D01*
X113290227Y-88903107D01*
X113282769Y-88900939D01*
X113220755Y-88880789D01*
X113220747Y-88880787D01*
X113147632Y-88869205D01*
X113147632Y-88869206D01*
X113142653Y-88868417D01*
X113119951Y-88862910D01*
X113102679Y-88862087D01*
X113095965Y-88861024D01*
X113095963Y-88861023D01*
X113095961Y-88861023D01*
X113049664Y-88853690D01*
X113049660Y-88853690D01*
X112926398Y-88853690D01*
X112910590Y-88852937D01*
X112905353Y-88853690D01*
X112876438Y-88853690D01*
X112819408Y-88862722D01*
X112705346Y-88880788D01*
X112705339Y-88880789D01*
X112636923Y-88903019D01*
X112567082Y-88905014D01*
X112507249Y-88868933D01*
X112502182Y-88863052D01*
X112472144Y-88825901D01*
X112366930Y-88728206D01*
X112303213Y-88684065D01*
X112303208Y-88684062D01*
X112249594Y-88657255D01*
X112198435Y-88609667D01*
X112181049Y-88546346D01*
X112181049Y-72098259D01*
X112213049Y-72098259D01*
X112360986Y-83637290D01*
X120063049Y-83637290D01*
X120063049Y-72098259D01*
X112213049Y-72098259D01*
X112181049Y-72098259D01*
X112181049Y-71382033D01*
X112200734Y-71314994D01*
X112249594Y-71271124D01*
X112303210Y-71244317D01*
X112366928Y-71200175D01*
X112472146Y-71102476D01*
X112496494Y-71072363D01*
X112496493Y-71072362D01*
X112498082Y-71070397D01*
X112498659Y-71069777D01*
X112498859Y-71069435D01*
X112501074Y-71066697D01*
X112514989Y-71049487D01*
X112572446Y-71009733D01*
X112642276Y-71007353D01*
X112649698Y-71009510D01*
X112705348Y-71027592D01*
X112876438Y-71054690D01*
X112876439Y-71054690D01*
X112905353Y-71054690D01*
X112910590Y-71055443D01*
X112926398Y-71054690D01*
X113049656Y-71054690D01*
X113049660Y-71054690D01*
X113102681Y-71046292D01*
X113119951Y-71045470D01*
X113142658Y-71039960D01*
X113220750Y-71027592D01*
X113282770Y-71007439D01*
X113352607Y-71005443D01*
X113412441Y-71041522D01*
X113417512Y-71047407D01*
X113429604Y-71062362D01*
X113429604Y-71062363D01*
X113442904Y-71078812D01*
X113453954Y-71092478D01*
X113559167Y-71190173D01*
X113559170Y-71190175D01*
X113622888Y-71234317D01*
X113751053Y-71298399D01*
X113751055Y-71298399D01*
X113751056Y-71298400D01*
X113824588Y-71322885D01*
X113824591Y-71322885D01*
X113824598Y-71322888D01*
X113824605Y-71322889D01*
X113824612Y-71322891D01*
X113963343Y-71347982D01*
X113963346Y-71347982D01*
X113965894Y-71348443D01*
X113976491Y-71348829D01*
X113978663Y-71348969D01*
X113982009Y-71350190D01*
X114011587Y-71350190D01*
X114016101Y-71350272D01*
X114041505Y-71351197D01*
X114052806Y-71350190D01*
X114795919Y-71350190D01*
X114808881Y-71350004D01*
X114810325Y-71349984D01*
X114952098Y-71325450D01*
X115033590Y-71298972D01*
X115047264Y-71294312D01*
X115174515Y-71227166D01*
X115205323Y-71204782D01*
X115205322Y-71204781D01*
X115205394Y-71204729D01*
X115205395Y-71204730D01*
X115243826Y-71176809D01*
X115255394Y-71168150D01*
X115355668Y-71064967D01*
X115383589Y-71026536D01*
X115383588Y-71026535D01*
X115387029Y-71021801D01*
X115387573Y-71021052D01*
X115406025Y-70995656D01*
X115406087Y-70995566D01*
X115406597Y-70994866D01*
X115406598Y-70994864D01*
X115406604Y-70994857D01*
X115412009Y-70987417D01*
X115412712Y-70986169D01*
X115414348Y-70983849D01*
X115474514Y-70861476D01*
X115521756Y-70810003D01*
X115585790Y-70792190D01*
X120334801Y-70792190D01*
X120357693Y-70798912D01*
G37*
G04 #@! TD.AperFunction*
M02*
